<svg xmlns="http://www.w3.org/2000/svg" id="Layer_1" data-name="Layer 1" width="180" height="180" viewBox="0 0 180 180"><g><path d="M78.531,32.953h0C78.444,32.8,78.47,32.842,78.531,32.953Z" style="fill: #fff"></path><path d="M18.223,113.2l-.2-.057.128.037Z" style="fill: #fff"></path><path d="M17.973,113.123l-.095-.028Z" style="fill: #fff"></path><path d="M18.282,113.213Z" style="fill: #fff"></path><path d="M18.223,113.2l.059.017Z" style="fill: #fff"></path><path d="M17.973,113.123l.055.016Z" style="fill: #fff"></path><path d="M97.943,27.484a1.1,1.1,0,0,1-.113-.19.634.634,0,0,0,.055.16C97.91,27.465,97.924,27.474,97.943,27.484Z" style="fill: #fff"></path><path d="M22.1,103.794c.042-.653-.6-.406-.641.08A1.007,1.007,0,0,0,22.1,103.794Z" style="fill: #fff"></path><path d="M30.5,101.2a1.043,1.043,0,0,0,.442.471C31.607,101.975,30.688,100.442,30.5,101.2Z" style="fill: #fff"></path><path d="M21.663,98.344l.207-.549C21.467,97.472,21.083,98.856,21.663,98.344Z" style="fill: #fff"></path><path d="M15.9,139.746c.433.2.5-1.255.21-1.41C15.632,138.34,15.33,139.822,15.9,139.746Z" style="fill: #fff"></path><path d="M16.5,160.844c-.074.158.076.542.56.579C17.129,161.014,16.975,160.812,16.5,160.844Z" style="fill: #fff"></path><path d="M97.943,27.484c.129.162.194.1,0,0Z" style="fill: #fff"></path><path d="M14.191,74.888c.042,0,.03,0,0,0Z" style="fill: #fff"></path><path d="M10.463,133.007h0Z" style="fill: #fff"></path><path d="M14.136,125.709c.063,0,.05-.005,0,0Z" style="fill: #fff"></path><path d="M18.669,123.416a1.273,1.273,0,0,0,.577.181C20,123.639,18.577,122.915,18.669,123.416Z" style="fill: #fff"></path><path d="M17.029,162.993c.066-.345-.161-.364-.575-.359C16.385,162.821,16.61,162.959,17.029,162.993Z" style="fill: #fff"></path><path d="M11.012,133.01Z" style="fill: #fff"></path><path d="M10.463,133.007h0Z" style="fill: #fff"></path><path d="M10.727,133.008h-.234l.519,0Z" style="fill: #fff"></path><path d="M11.09,126.948a1.3,1.3,0,0,0,.582-.176A.3.3,0,0,0,11.09,126.948Z" style="fill: #fff"></path><path d="M14.023,57.754a.684.684,0,0,0,.226.025A.166.166,0,0,0,14.023,57.754Z" style="fill: #fff"></path><path d="M10.6,119.456l.013.011C10.616,119.425,10.613,119.407,10.6,119.456Z" style="fill: #fff"></path><path d="M9.1,123.551c0,.356,0,.356.287.179C9.509,123.274,9.087,123.271,9.1,123.551Z" style="fill: #fff"></path><path d="M169,46.99h0Z" style="fill: #fff"></path><path d="M165.823,105.112c-.042,0-.03,0,0,0Z" style="fill: #fff"></path><path d="M169.287,46.992c.595,0,.086,0-.171,0Z" style="fill: #fff"></path><path d="M170.624,56.27c-.119.456.3.459.287.179C170.916,56.093,170.916,56.093,170.624,56.27Z" style="fill: #fff"></path><path d="M165.991,122.247a.654.654,0,0,0-.226-.027A.166.166,0,0,0,165.991,122.247Z" style="fill: #fff"></path><path d="M170,59.654c.772-.566-1.217.189-.863-.538-.1-.594.713-.082.588-.711.336-.925-2.69-1.3-1.432-1.433.551.046.047-.652.3-.355.3.493,1.622.279.582-.176-.758-.228.842-.627.3-.712.826-1.2-.728-1.406-1.131-2.323-.466-.557.631-.491.884-1.244.2-.4-2.019-.064.007-.535.833-.493-1.1.612.022-1.782-.862-.321,1.309-2.084.021-1.783-.823-.023.731-.189-.279-.893-2.7-.013-.99-1.533-.573-.538.37.18,1.116-.708.588-.711-.436.2.566-.347.3-.89.606-1.882-.114-1.336-.269-1.784,1.407-2.23-.05-5.281.378-7.13.047-1.532-.434.232-.284-.537-.714-1.3,1.869-.29.013-1.07-1.649-1.158,1.457.414.3-.533.027,0-.571-.833-1.155-.362-.913-.352.661-.5,1.161-.172.289,0-.272-.883-.847-1.071.256-.026.794-.161.579-.714-.059-.846-.631-.582-1.153-.537a.991.991,0,0,0-.11-.134c.953-.682,2.011-2.659,1.313-3.43.29-.566-.14-.952.017-1.426.766-.432.035-.36-.5-.018a.281.281,0,0,0-.029-.291c.514-.072.827-.248.256-.585-.095-.427,1.111-.332.008-.712-.277-.042-.364-.121-.352-.222.186.007.219-.132.224-.308.388-.36,1.07-.806.437-1.074-.49-.081-.537-.232-.452-.408a.413.413,0,0,0,.159-.236c.168-.219.338-.445.019-.605l-.166,0c.135-.008.913-.071.46-.36a3.607,3.607,0,0,1-.383-.115c0-.12-.1-.245-.407-.372-1.073.033.221-.3.564-.575-.055.069-.091.138-.053.169.4.037.269-.122.294-.355a.44.44,0,0,0-.179.119c.05-.08-.007-.153-.281-.2a.173.173,0,0,1-.06.012c.324-.246.474-.4-.055-.286-.177-.483,1.227-.344.3-.713-1.417.005,1.126-.378-.281-.714h-.056c.013-.052.026-.1.04-.151.295-.082.636-.2.6-.38a2.291,2.291,0,0,1-.431-.012.249.249,0,0,1,.073-.07c.58.028.58.027.016-.29-.034-.019-.042-.04-.067-.059a.842.842,0,0,0-.078-.438,5.347,5.347,0,0,0,.329-.561c.51-.007.278-.031.017-.13a.311.311,0,0,0-.144-.27c-.077-.015-.128-.016-.19-.023,0-.08.057-.174.211-.288.805-.455-1.123-.418-.867-.182.01.92-.936-2.215-1.148-.9-1.207.329-.955.424-.511.474-.381.185-.685.311-.19.462l-.339-.027c-1.022-.749-.511-.055-.186.458-.175.072-.262.128-.285.173a.4.4,0,0,0-.632.047c-.227.306-.8-.52-1.15-.088-.328.256.777.822-.539.53-.384-.03-.384-.03.023.383a.8.8,0,0,1,.135.165,1.165,1.165,0,0,0-.414-.1c-.056.292.107.348.408.356-.295.3-1.712.182-.8,1.052,1.01.922-1.766-.494-1.479.935-.238-.3-2.682,1.153-.861,1.363-.154.176-.386.494-.154.56.371,1.623-1.727-1.569-1.171.155-.212-.138-.681-.24-.7.463-.291.242.883,1.91-.109,1.326-.927-.78-.3.895-.743.324-.3-.838-2.4,2.464-2.745,1.886-.8.6.057,1.4-1.212,2-.539.53-.539.53-.743.324-.441-1.381.247,1.815-1.1.677-.68-.38-.8,1.048-1.439,1.415-1.17.788.844,1.105-.265,1.885A17.969,17.969,0,0,0,146.517,33c-.29.513.777.732-.672,1.472-.731.369-.6,1.555-1.079,1.061-.792-.581-.767,1.052-1.235,1.62a38.64,38.64,0,0,1-3.62,3.153c-.114-.232.146.511-.156.559-.886-.419-.259,1.062.2.207.811,1.578-1.865-.684-1.1.677q.341.884-.54.53c-.914-1.014,1.049,3.012-.875,1.267-.629-.7-1.467-.274-.743.324,1.007.7-2.47-.08-2,1.562-1.023,3.023-.538-.786-.923.5-1.413.521-.5,2.41-.851,1.65-.984-.484-1.425.9-1.619,1.59.182.684-1.576.023-1.307.472.232.147.094,2.148-.312,1.119-1.3-.818-.964,1.853-2.361,1.915-.686.206-.573,2.114-1.415,1.8h0c.661,1.477-1.251-.78-.539.531.266.783-.915-.087-.54.53.437,1.453-.7.488-.672,1.473.684,1.259-1.264-.954-.719.707-.02.479-2.419,1.05-1.618,1.591-.221.2-1.5.9-1.055,1.443-.266-.346-1.233-.1-.744.325.774.495-.786.411-.923.5.408.413.228.59.024.383-.507-.191-.859.729-.743.325-.843-.577.2.23-.539.529-.627.382.645.52.251.973.2.206-.18.177,0,0-.282-.539-.745-.016-.971-.265-.876-.98-.445,2.351-1.258,1.237-.773-.6.226,1.588.5,1.945-1.759-1.89-1.286-.554-2.1.03-.683-.373-1.613,1.576-1.8,1.767-1.094-.286-.11.729-.155.56-.174.024-.232.609-.564.147.26-.658-4.843,3.737-3.393,3.741.228.59.048.766-.359.354.3-.372-2.681.637-1.846,1,1.1.46-1.193-.093-.743.325.024.383-.852,1.65-1.259,1.237-.53,1.629-2.163,1.153-2.111,2.887.787,1.746-1.16-.7-.719.707-.882-.181-1.75,1.789-1.618,1.591-1.415-.349-1.135,1.7-1.8,1.768-.384-.03-.384-.03-.36.353-1.251.61-1.341.131-2.181,1.739-.466.854.332.775.274,1.355-.156.56-.359.353-.18.177.165-.981-1.191-.111-2.52,1.074-.411-.047-1.236.038-1.259-.23.276.015,2.395.046.873-.143,1.011.082.308-.358-.568-.364-1.141-.187,1.493-.117.011-.362,1.136.291.2-.781.9-.94.29,0-.281-.29-.856-.436h-.015c.176-.014.4-.064.311-.217-.058-.316.54-.211.7-.177-.057-.015-.18-.048-.4-.112-.577-.074-.281-.29.3-.289.7-.047-.111-.334.017-.58.263-.39-1.377-.06-1.146-.437a7.032,7.032,0,0,0,1.477-.939c0-.177-1.083.057-.566-.436,0-.144.011-.362-.279-.362.141-.173,1.411-.009.3-.362-.289,0-.287-.073,0-.145-.554-.323-.406-.173.015-.507-.459-.222-.053-.9.027-1.015-.861-.187.853-.235-.568-.29-.2.411-.878-.155.292-.072,1.5-.122-1.523-.158.011-.362,1.467.077-2.678-.414-.277-.435,2.28-.187-1.143-.108.3-.362.876-.215.88-.36.307-.579-1.445-.789,1.05.054.3-.289.229-.368-.184-.483-.535-.512.919-.09.483-.344-.011-.648.039-.478,1.34-.1-.272-.58-.532-.157,1.69-.026.592-.434-.558-.286.481-.774-.549-1.015,0-.072,0-.145.294-.144.718.007-1.349-.05,0-.145,1.4.016-.807-.052.006-.218.76-.016-1.494-.3-.279-.362,0,0,0-.073-.285-.146-1.486-.115,1.548-.052.008-.29-.368-.06.977-.68.02-.651.3-.473.094-.381-.275-.508,1.115-.163.274-.124.009-.29-.049-.137.5-.049.586-.216-.58,0-.578-.074-.288-.073.581-.108.012-.333.3-.217h.29c.4-.094-.963-.315-1.148-.365-.438-.048.735.042.582-.071.368-.128,1.013-.047.3-.362q-.863-.219.007-.217c.957-.042-1.413-.288-1.73-.293l.869,0c2.087-.045-.027-.3.592-.434.652-.074.138-.533.022-.724.582-.072.3-.217-.285-.146h0c.034-.186-.121-.136.294-.144.439.076.575-1.779-.246-1.449-1.489,0,1.98-.56.6-.724-1.116.128.872-.208.3-.217-.288-.073-.564-.508.015-.507-.886-.928,1.154-.542-1.125-1.161l.87,0c0-.089-.124-.131-.273-.15.978-.3-.56-.8.007-.648,1.4-.385-.676-.576.022-.724.292-.072.292-.072,0-.145-.586-.191,1.473-.276.592-.433-.152-.4-.8-.506-1.174-.564.528.016,1.035-.979.64-.959H92.2a.471.471,0,0,0,.044-.937c.229.008.7-.009.57-.221-.047-.284-.8-1.373-.256-1.16.635.044.168-.225-.285-.145-.656-.011.779-.473.024-.8,0-.073,0-.145.294-.145,1.012-.167-.531-.413.3-.434.292-.072.582-.071,0-.145-.646-.248.474-.62-.27-.652-1.146.011.971-.039-.286-.145-.289,0-.287-.073,0-.073.492.1-.03-1.784-.238-1.739-.752-.05,1.393-.677.594-.506-.758-.174.355-.125-.281-.29-.577-.074-.577-.074,0-.073,1.254-.121-1.031-.315.016-.507.644-.277-.975-.625-.273-.58,1.239-.111.868-1.59-.822-1.595.454.041,2.325-.1.874-.144-.736-.016.757-.392.015-.507,0-.072,0-.144.3-.216.084-.12-.923-.058-.283-.218,1.079-.256.029-.21.013-.435.106-.1-.347-.172-.279-.363.176.027,1.015.051.3-.289-1.356-.156.824.04.3-.217-.577-.073-.286-.145,0-.144,1.07.215-.359-.272-.263-.87-.151-.322.207-.46.48-.512-.443-.012-.463-.086-.457-.285.583-.74-1.368-.013-.564-.508,1.782-.245.946-.093.021-.725.363-.273.6-.184,1.168-.287-1.152-.61-.128-3.154-1.04-3.987-.118-.913-.729-.489.312-.723.107-.2-1.555-.179-.571-.292,1.359.057-.58-.25.876-.215.988.043-.1-.165-.282-.29,1.007-.239-1.7-.348-.281-.291,1.349-.158-.734-.148.011-.362.637-.078-.5-2.73.08-2.68.9-.03-1.446-.265-.283-.218,1-.125-.487-1.345.03-1.014.931.264.474-1.308.054-1.811.5-.058.106-1.793.638-1.955.032-.133-1.329-.258-.568-.363,1-.213.118-.385-.017-.435A.3.3,0,0,0,92,29.679c.054,0,.127.006.241.014.47-.058.371-.21.014-.306a.956.956,0,0,1,.028-.156c.1-.034.133-.069.037-.1a.26.26,0,0,1,.07-.086c.055,0,.121-.006.195-.006a.4.4,0,0,1,.182.2c-.355,1.03,4.034-2.884,5.015-2.057.017.043.034.075.051.11-.188-.9,2.463-.823,2.417-1.662.613-.463-.549.295-.538.2-.446-.743,1.1-.862,1.176-.121,1.117,1.054.737-.141,1.073-.392.605-.4,1.186-1.221,2.032-1.036.106.207.512.858.582.734,3.377-2.595,11.094-3.586,14.74-5.517.444.224,2.788-1.446,2.437-.892.505,1.392.842-.318,1.054-.533.44-.273.4.749.472.786.509-.192.665-.994.9.095.114,1.142.867-.672,1.053-.533.918.982,1.032-1.817,1.058-.52,1.57.086,11.7-2.355,12.63-2.525.147.86,4.807-.954,3.971-.539.967,1.136,5.2-.431,7.114-.772a59.25,59.25,0,0,0,9.983-.451c.291.011.575.016.844.011a.849.849,0,0,0,1.406-.169c.061-.017.12-.036.178-.056a1.881,1.881,0,0,0,.324.3c.118.205.423.156.64-.027.327.381.106,2.161.645.516a.412.412,0,0,0,.345.035c.068.513.1,1,.3-.042,1.037-.02,1.482-2.123.728-3.179-.117-.006-.253-.022-.376-.031a1.679,1.679,0,0,0-1.587-.157c-2.714-.322-6.121-.855-8.912-.234.419-.317-2.928-.415-2.5-.031-.928.1-2.118-.679-2.71.285.308-1.1-4.689-.243-4.959-.089-.1.818-2.234-1.537-1.957-.6,1.133,1.885-2-.852-3.036.833v-.29c-.748-.86-2.021.518-3.028-.617-1.389.792-2.958-.715-3.214,1.121.22-1.283-3.585-.245-3.207-.619-.256-.487-1.2.01-1.605-.019-.176-.582-.71-.589-.891-.011-.033-.237-2.342-.438-3.034.543-.178-.307.885-1.4-.534-.3-1.256,1.392.562-.828-.177-.292-.381.418-1.189.124-1.6-.02-.18.288-.18.288-.357,0-.095-.747-.224,1.174-.714.281-.279-.442-1.255-.127-3.743-.335-.514-.082-.2,1.527-.538.573-.672-2.006.061,1.478-.534-.006-.274-.749-.42.713-.536-.006-.416-.831-.224.087-.71-.589-.3-.555-1.4,1.691-1.071.277-.039-1.377-1.28,1.211-1.073.567-.447-1.349-1.614.911-2.137-.606l-.358.286c-.356,1.271-.365.246-.359,0-.512.976-.837-.419-1.064-.6.108,1.635-.714.327-1.248-.015-.743-.214-1.895.642-2.318-.027-.022-.645-.186.5-.536.283-.327.5-2.068-.431-1.785.267.59.422-2.32-.916-2.139-.025.364,1.443-.659-1.278-.712-.3-.445.76-.238-.349-.893.279-.364.02.044-.407-.534-.3-.669.978-1.542-.464-1.962.266-.181.578-.359.575-.357,0,.24-1.208-.845,1.279-1.068-.3,0-.29,0-.58,0-.58-4.044,2.034-10.416.189-15.161.976-.587.857-.649-.774-1.426-.018-.181.578-.36.576-.357,0-.079-1.446-.7,1-1.071.277-.415-1.442-.441,1.131-.89-.3-.462-1.329-.81,1.578-1.605-.019-.178,0-.355-.294-.356-.005-.008-.181-.733-.507-.535-.006.046-.094-5.355-.691-4.636-.056.176.581-.181.577-.357-.005-1.605-.827-3.7.015-5.17-.062-.358-.821-1.07.2-1.247-.3-.57-.561-.247,1.854-.713-.009-.052-1.314-.314.613-.713-.009-.458-.227-.173,1-.717.861.409-1.025-.4-.139-.709-1.168-.566-.772.189,1.217-.538.863-.724-.961-1.5-.465-1.966.846-.038,1.233-.019-.5-.533-.3,0,.29-.178,0,0,0,.034-.567.448.045.359-.575-.371-1.341-.492.769-.891-.011-1.138-1.359-1.7.2-2.679.838-.557.465-.491-.633-1.244-.885-.3-.536-.143.943-.182.867-.33.06-.525-2.2-.531-.876-.05,1.083-1.445-.377-1.605-.02-.32.862-2.082-1.309-1.782-.021,0,.29,0,.58-.179,0-1.279-.673-.606,3.505-1.61,1.14.182-.433.74-.626,0-.87-.27-.478-.342-.109-.358.083,0-.027,0-.042,0-.087-.495-.266-2.289-.85-2.495-.321,0,.58-.181.578-.18.288-2.3-1.409-5.243.054-7.13-.377-1.512-.047.217.434-.537.284-1.312.715-.28-1.869-1.07-.013-.828,1.111-.31.014-.175-.581-.145-.188-.463.6-.358.285-.8.04-.086,1.489-.541,1.443-.7-.613.07-.741.006-1.45,0-.289-.893.279-1.074.857-.016-1.261-1.337-.436-1.427.272.763,1.01-1.684-1.231-2.848-1.193-.743-.087-.208.332-.892.279-.487-.633-.549.437-1.07-.014-.647-1.1-.19.9.577.961-.615.345-1.063,1.652-.94.484.56-.479-.307-2.166-.53-1.166-.428.1-.332-1.111-.713-.008-.2,1.286-1.153-1.373-1.6-.309,0,.579-.537.573-.714.281-.383-.767-.625.6-.535-.007-.846-1.658-.01,3.3-1.606.27-.617-1.18-.266-.187-.357,0-.483.178-.342-1.227-.712-.3,0,1.417-.377-1.126-.714.281-.009,1.256-.124-.665-.532-.586,0,.211,0,1.226-.36.575.092-.583-1.1.452-1.068-.3-.012-1.289-.072.865-.713-.009-.452-.8-.419,1.124-.182.868.924-.01-2.218.936-.9,1.148.693,2.531.354-1.339.713.009-.036.342,1.126,2.127,1.064,1.172-.177-.292.18-.287.356.294.324.826.007-1.858.714-.281.933.452.255-1.519.718-.861a1.237,1.237,0,0,1,.175.582c.32,1.036,1.133-.645.89.3,2.353,1.064.447-.685,1.788-1.138.051.359-.19,2.384.353.874v.29c.492,1.181,1.072-2.079,1.252-.855.132,1.3.6-.534.533.3-.287.81,2.388-.06,2.316.608,0,.289.714-.282,1.073-.857,0-.04-.005-.054-.007-.079.035.169.163.522.541.375,1.157-.274-.084,1.469.712.3.181-.578.714-.281.712.3-.03.476,2.278.162,1.963-.555,0-.58.181-.578.538-.574a11.252,11.252,0,0,0,2.312,1.477c.41-.109-.058-1.069,1.072-.566,1.647-.616.762,1.177,1.783.022,0-.29.179-.288.356,0,.3.056.44-.884.893-.279.128.644,2.506-.319,2.851.325-.066.316.161-.475.358-.286.176.918.716-.488,0-.29.3-1.608.643,1.776.89.3q.271-.867.535.006c-.159,1.284,1.145-2.583,1.071-.276-.037.955.6,1.215.533.3-.182-1.3,1.106,1.827,1.782.311,2.1-1.192-.548.777,1.6.309.245.053.332-.4.359-.711,0,.042,0,.082,0,.136.412,1.673,1.639-.848,2.138.316.44.951.4-.253.894-.569.553-.375-.147.669.531.876.71-.3,1.159-.689,2.141-.263.383,0,1.067-1.032,1.249-.276.029.715.064-1.338.357,0,0,.579,0,.579.178,0,.28-.742.412.723.535.007.181-.578.717-.861.714-.282.3.156.646-1.52.536-.283.378,1.249.352-.486.892.011.848.661,1.044.161,1.6.019.442.534.79-.064.893-.279.312,1.266.414.109.712.009.847,1.37.4-.335.713.3a.525.525,0,0,0,.533.3c.126-.443-.041.387,0,.29.177.292.178,0,.18-.288.047-.047.887.175.536-.283-.13-.433.415-.861.181-.578-.135.561.359.542.352.874.007,1.29,1.406-1.374,1.248.015.1.968.691-1.345.722-1.73.045,2.157,0,1.608,1.063,1.461-.133.555,2.823.27,2.14-.263-.03-.225-.029.081.357,0-.761.872,4.2.85,3.566.044.181-.578.359-.576.357,0,2.023,2.139,1.077-.293,1.6.6.226.978,1.24-.8,1.6.309,1.315-.75,1.339.214,1.961.025.653-.473.928-1.938.893-.28.225.088.32-.115.356-.328l0,.043c.41.84,1.862-.179,1.605.019.587,1.277,1.453-.458,1.783.021.177.293.177.293.356.005.433-.59.7,1.42,1.067.593.5-.418,1.525-.205,1.252-.855-.088-.586.7-.853.36-.575-.894.86,2.158,1.263,2.135.9l0-.362v.072c.175.582,2.136.605,2.317.028-.1,1.508,3.382-.625,3.563.623.389-.065-.1-1.3.717-.571.483.661,1.615-.406,1.781.311.212.867,1.07-.407,1.069.3.177.292.175.582.356,0,.652-.5,1.871.343,1.607-.56.212,1.271.344-.754.535.007.177.292.356.294.356.294,1.171-.247,4.507-.54,4.815-.231.28-.154.352.33.363.444,0-.028,0-.075-.008-.15.18-.288.18-.288.358-.286.238.892.633-1.323.535.007.347.86.371,0,.893-.279.65.89,1.57-.153,1.783.021.229,1,3.576,1.244,3.926-.821-.106.518.265,2.322.353.873.167-.518,1.951.741,1.961.024.111-.769.875,1.209,1.069.3-.072-.387,1.957-.807,1.071-.277.536,1.241,1.225-1.251,1.069.013.1,1.128.681-.7.712.3-.181.577-.181.577.535.006.7-.34,2.613-.272,2.877.1.154-.748,1.536.185,1.762-.623.464-.24-.331.079-.357-.005.265-1.865,1.082,2,1.246.6.089-.3.75-.63,1.073-.857.562.695.568-.227.532.587.025.569.324.756.356.294,2.035-.428,5.036-.127,7.286-.463-1.328.294-2.692.611-4.138.957-3.7-1.545-.531,1.327-2.274.445-.115-.582-4.326.586-4.474,1.24.063.282.063.282-.063-.283.419-.4-2.172.158-2.329.226-.443,1.189-1.85.049-2.609.343-1.751,1.262-2.461.267-3.867,1.306-1.693.278-.2.57-.889,1.145.1-1.241-4.165.982-4.423.381-.376.949-2.239.4-3.245,1.318-.661-.759-1.3.3-1.384.466l0-.007c-.39-.648-2.056,1.088-2.3.46-.549.031-2.933,2.814-2.093,1.072.722-1.383-2.442,2.624-1.266.771.591-.88-.431-.279-.547.2A96.324,96.324,0,0,0,88.984,27.1a.617.617,0,0,0-.3.763c.535.915-2-1.3-.795.359,1.08.877-.786-.494-.787.378.254.709-1.113-.47-.912.117-.95-.663-1.993,2.266-2.1,1.012.008-.645-1.189.24-1.176.908,0,.652.006.652-.126.394-.378-.488-.757.38-1.039-.108-.373.278-1.442,2.117-2.327,1.226-.291-.107-.405,1.975-.752,1.057l-.14-.254c-.1,1.572-2.059-.2-1.661.624.591,1.284-1.317.5-1.92.775-1.159.692-2.713,2.049-3.505,2.147.252,1.117-3.316,1.8-2.64,2.393,1.055-.183-3.568,1.376-2.884,2.008,1.29.815-1.76-.417-1.132.436-.692.752-2.563,2.623-3.972,3.033-.409.06-.043,1.876-.742.954-.3-1.065-.592,2.07-1.532.915-.506-.854-.4.092-.637.159C52.4,53.018,42.35,61.453,39.484,68.1c.066.407.066.406-.34.475-1.568-.24.494,1.255-1.091,1.023-1.625.506.8,1.115-1.784,2.681-2.33,1.942-4.55,8.478-6.479,9.784-.287,1.714-1.586,4.042-2.146,5.476-.262-.129-1.3,1.323-.765,1.576-.261.173-.991.376-.361.8,1.388.747-1.576.055-.889.557.6.821-.847,1.117.191,1.687.265.118.145.383.025.647-.639-.1-.121-1.221-.651.033-.068.511-2.067.841-.732.955,1.478.652-2.326,1.971-.105,4.048,1.1.442-.612-.052-.6.7.27.107-.1.271,0,0-.523-.181.319-.642-.319-.751-1.43.046.4,1.06-.528,1.355a2.394,2.394,0,0,0-1.026,2.721c.538,2.18.691,1.648-1.168,3.287-.642.427,2.051.78-.283.825-.644.088-.644.089-.095.274.991.509-1.14,2.128-.819,2.484.725.575-2.2,2.878-.867,2.772.277.084.554.167-.087.277-1.342,1.395,3.121,2.143.388,2.829-.921-2.369-1.4,2.147-2.4,3.246-.625.952.935,1.1.271,1.27-1.469,1.491-1.791,5.44-2.023,7.267-.215.387-.538,1.969-.275,2.266a.217.217,0,0,0-.069.074,1.525,1.525,0,0,0-.2-.168c-.621-.632.541-1.825-.55-2.5-.145-.277.284-.346.427-.359l-.132,0c-.578-.181-.578-.181,0-.357.58,0,.58,0,0-.178-.742-.284.723-.409.007-.535-.578-.181-.861-.717-.282-.714.156-.312-1.52-.641-.283-.536q.873-.264.007-.536c-.334-.216.971-1.734.019-1.6.05-.414.39-1.135-.275-1.25,1.641-.31-1.088-.717.593-1.067l0-.178c-1.133-.054.237-.239.009-.713-.443-.124.387.039.29,0,.292-.177,0-.178-.288-.18-.045-.085.169-.853-.283-.536-.433.127-.861-.412-.578-.181,3.209-.633-.793-1.351.889-1.6.968-.095-1.345-.692-1.73-.721,2.157-.045,1.608,0,1.461-1.063.555.133.27-2.823-.263-2.14-.225.03.081.029,0-.357.872.761.85-4.195.044-3.566-.578-.181-.576-.359,0-.357,2.139-2.024-.293-1.076.6-1.6.978-.226-.8-1.24.309-1.6-.75-1.315.214-1.339.025-1.961-.473-.653-1.938-.928-.28-.893.088-.225-.115-.32-.327-.356l.042,0c.84-.41-.179-1.862.019-1.605,1.276-.587-.458-1.453.021-1.783.293-.177.293-.177,0-.356-.59-.433,1.42-.7.593-1.067-.418-.5-.205-1.525-.855-1.252-.586.088-.853-.7-.575-.36.86.894,1.264-2.158.9-2.135l-.361,0h.071c.582-.175.605-2.136.028-2.317,1.508.105-.625-3.382.623-3.563-.065-.389-1.3.1-.571-.717.661-.483-.406-1.615.311-1.781.867-.212-.407-1.07.3-1.069.292-.177.582-.175,0-.356-.5-.652.343-1.871-.56-1.607,1.271-.213-.754-.344.007-.536.292-.176.294-.355.294-.355-.247-1.171-.54-4.507-.231-4.815-.154-.28.33-.352.444-.363l-.15.008c-.288-.18-.288-.18-.286-.358.892-.238-1.323-.633.007-.535.86-.346,0-.371-.279-.893.89-.65-.153-1.57.021-1.783,1-.229,1.244-3.576-.821-3.926.518.093,2.322-.256.873-.353-.518-.162.741-1.955.024-1.961-.769-.092,1.209-.889.3-1.069-.387.1-.807-1.979-.277-1.071,1.243-.527-1.253-1.232.013-1.069,1.128-.1-.7-.682.3-.712.577.181.577.181.006-.535-.339-.69-.273-2.611.1-2.877-.747-.157.186-1.534-.622-1.762-.24-.464.079.331,0,.357-1.508-.36.762-.68.883-1.066,0-.178,0-.356-.288-.179-.6.036-.024-.461-.571-.716-.668-.012.107-.765.012-.884.256-.023.975-.107.87-.182-1.087-.186-.1-5.3-.509-5.708-.334-1.069-.52-5.459-.8-5.709,1.376-.087-.012-.553-.28-.715-.076-.478,1.109.134.874-.353-.512-.16-.419-.4.294-.355,1.141.073-.337-.505-.281-.715,1.123-.529-1.675-.853-.282-.714,1.1-.5-.615-.058.31-1.6-.677-.781.124-6.7-.5-6.243-.288-.18-.578-.181,0-.179.942-.033-.369-3.166.03-2.5,1.421-.905-.333-4.287.373-6.774.239-2.3.1-2.406-.25-3.389a.547.547,0,0,0,.014-1.07c.856.206.605-.825.01-.891.911-.346-.307-.779.879-.709,1.167.023.078-.491-.279-.893-.517-1.1-4.7-.364-2.626,1.415-1.121,2.09-1.25,6.534-.688,8.911-.106.5-.617,2.743-.035,2.853.1.877-.675,2.135.276,2.711-1.081-.273-.233,4.684-.08,4.958.818.1-1.537,2.234-.6,1.957.066-.367,1.8-.145.577.182-.579,0-.322,2.673.256,2.854h-.29c-.381-.269-.293,1.235-.307,1.425,1.024.434-.394,1.118-.31,1.6.788,1.218-.344,1.461.26,2.5-.2,1.078.642.206.861.718-1.08-.38-.245,2.552-.9,2.67.825.323-.279,1.21.264,2.141-1.226.366.438,1.068-.011.891-.733.046.364,1.372-.307,1.425-.07.473,1.593,2.3.272,1.428-.285-.358-.292.177.281.715,1.391,1.27-.827-.572-.292.177,0,0,0,.356.286.358.1.908-.889,1.933-.022,1.782.88.5-1.043.615-.3.712.524.524-.253,1.428-.043,3.566-.084.524,1.527.2.573.538-2.008.68,1.477-.066-.007.534-.749.279.713.416-.006.536-.365.431-1.052.817-.306,1.246,1.412,1.106-1.613.041.273,1.428.577.181.577.181.288.18-1.349.45.911,1.612-.606,2.137-.086.176,1.582.846.571.715h-.29c.986.556-.413.81-.593,1.067,1.635-.1.327.709-.015,1.248-.213.73.641,1.9-.027,2.318-.645,0,.5.2.283.536.494.365-.431,2.041.268,1.785.421-.593-.917,2.322-.026,2.139,1.443-.36-1.278.656-.3.712.76.442-.349.24.279.893.021.339-.408-.026-.3.533.976.715-.463,1.51.266,1.963.578.181.575.359,0,.357-1.206-.277,1.278.872-.3,1.068l-.58,0c1.159,1.094.671,3.717.811,4.818.345,2.809-.171,9.15.148,11.769,1.431.531-1.763.157.276,1.071.288.18.288.18,0,.357-1.442.426,1.131.433-.3.89-1.329.5,1.578.783-.019,1.605-.4,1.063.037,1.016-.332,3.386-.205,4.009,1.536.47-.339,4.1.546.923.459,2.775.537,3.568-.29,0-.593,1.067-.013,1.07-.16.172-.773.43-.007.535,1.578.058-1.409.431-.586.532.89.344-.317.84.859.9.621.148.117.583-.279.187-.006.18-.15,1.021-.6.878-.772.564,1.217-.186.863.539-2.124,1.352,1.83,1.919.844,2.144-.29,0-.292.177-.295.355.375.14-.478-.037-.285-.358-1.676.077.312.522-.3.89-2.024,1.433,2.142,2.49.54,3.212-.65.529-.856,1.091.279.893.06.326-2.2.528-.876.531.29,0,.577.181.283.536.214.612-.694.772-.3,1.069.862.319-1.309,2.083-.021,1.782.29,0,.579,0,0,.179-.734,1.142,2.531.572,1.724,1.256.063.3-.871.5-.872.174.012-.688-1.249.566-.586.532h0c-.266.477-.85,2.3-.321,2.5.58,0,.578.181.288.18-1.175,1.57-.3,4.329-.362,5.882.606-.168-.639,1.939.269,1.785h0c.714,1.305-1.869.284-.013,1.07,1.111.824.014.313-.581.175.1.365.688,1.131,1.44.72a.513.513,0,0,1,.085,0c0,.024,0,.045-.009.07-.224.217-.314.348-.32.415a.313.313,0,0,1-.34-.128c-.86-.726-.8.5.279.893-1.01-.027-.756,1.342.309,1.35.053.053.109.1.162.153-1.6,1.215-1.232,3.421-1.126,4.734-.616.357-.263.375.179.189a.485.485,0,0,0,.1.161c-.336.174-.487.435,0,.543.1.429-1.111.332-.008.713.513.08.4.28.14.519.075-.136.12-.273.077-.282-.389-.1-.3.239-.325.5-.359.311-.716.646-.2.865.343.056.466.147.482.257-.234.179-.486.38-.312.56-.1.161-.131.315.1.432h0c-.52.266-.389.365-.058.427-.055.146.018.3.4.448.9.035.1.148-.353.437.006-.025.012-.051-.005-.064-.4-.037-.269.122-.294.355a.243.243,0,0,0,.049-.024.247.247,0,0,0-.012.143.3.3,0,0,1,.364-.008l-.4.246a2.411,2.411,0,0,1,.564.031c.01.033.016.071.023.107-.207.163-1.032.427-.306.577a2.778,2.778,0,0,1,.344.013c0,.041,0,.081-.005.122-.275.14-.921.367-.076.574-.013.062-.026.122-.041.179-.275.081-.558.2-.527.358.07,0,.229,0,.386.014a.331.331,0,0,1-.109.129c-.834-.017-.085.13.144.52.017.058.038.122.059.186a.6.6,0,0,1-.226.465.871.871,0,0,0-.127.115c-.326,0-.351.017-.071.108-.071.17.09.283.308.334-.027.415-.464,1,.767.453-.007-.645.451.684.8,1.1.052.084.1.125.149.115.086.023.157-.059.2-.321,1.046-.277.993-.387.673-.447.494-.276.257-.383-.114-.448a.451.451,0,0,0,.034-.172c-.052-.31.935-.114.876-.531.028-.363-1.107.029.006-.535.277-.167.275-.176-.219-.178a.375.375,0,0,0,.211-.4c.028-.236-.169-.271-.32-.3.073-.117.105-.223.01-.293.078-.069.187-.154.334-.263.3-.276.3-.276-.282-.293a.948.948,0,0,1-.186-.027c.287-.183.432-.414-.015-.695.319-.028,1.154-1.953-.359-1.126,0,.088,0,.131,0,.111h0l0-.289a.3.3,0,0,0-.066-.089c.151-.12.341-.264.506-.424.366-.016.591-.079.212-.247a.913.913,0,0,0,.081-.15c.087-.055.1-.15.046-.265a.736.736,0,0,0-.35-.516c-.477.108.851-.181.3-.269.152-.17.836-2.389-.245-1.652a3.735,3.735,0,0,0,.056-.893c.562.02,1.014-.085.1-.6.73.488.6-1.406-.463-1.469-.043-.028-.07-.052-.1-.077.006-.463.018-.477.295-.475.594.2.371.082.091-.124.273-.133.429-.314-.113-.709l.021-.007c1.144.592.412-3.755,1.159-3.641.236-.939-.9-1.453-.286-2.616.107-.85.109-.85.4-.814,1.164.877-1.275-1.447.472-1.376.465-.031.661-3.335-.136-3.186-.574-.085-.531-.368-.447-.935a25.165,25.165,0,0,0,2.024-3.429c-.065-.674-1.069-.149-.277-1.783-.24-2.391,1.368-1.144.527-2.8-.6-.3.521-.481-.065-1.176-.561-.553.542-.725.577-1.338-.427-1.849,1.68-4.715.549-5.14-.139,1.389-1.075-.533.347-.211.629-.144.629-.143.13-.556-1.327-1.2,1.467-.379.268-1.109-.983-.831-1.047-1.742.076-1.454.894.279,1.43-.618.494-.757-1.213-.026,2.209-1.486,1.016-2.679-.245-1.252-.01-2.079.313-1.1.556,1.555.315-1.112.668-1.289.221-.37-.344-.665-.626-.78.057.018.127.04.226.069,1.806-.265-.081-2.675,1.288-3.183,1.085-.4-.044-.674-.125-1.539-.093-.965.541.444,1.095-.54-.312-1.694,1.176-2.966.771-4.861.1-.267.2-.534.473-.434.564.216-1.131-.59.2-.534.544.2.543.2.1-.267-.171-.368-.17-.369.2-.534.646.093-.968-1.677.233-1.438a.892.892,0,0,0-.068-.641c-1.106-.895,1.558.293.426-1.062-.158-.473,1.951-2.239.985-2.381.169-.394,1.076-1.527.51-1.962,1.732.233-.557-1.536,1.239-1.33.348-.2-.738-.812-.028-.64.827-.234.266-1.089.881-.54.38-.138.117-.259-.146-.381-.043-.041.731-1.174.092-.9-.5-.014-.5-.954-.406-.508,2.745.572.617-2.279,1.922-1.935.931.308-.653-1.524-1.044-1.806,2.416,1.341,1.373-.143,2.059-.884.623.061,2.311-3.712,1.388-3.157.718-.9.726.219,2.2-2.7,2.269-2.654-.065-3.214,1.261-3.25.244.152.645.065.4-.088.109-.392,2.175-1.143,1.339-1.52-1.2-.161,1.246-.252.711-.557-.044-1.132.882-1.551,1.412-2.138-.245-1.353,1.418-1.3,1.495-2.082.273-.779-.819-2.513.6-1.329.347-.224.176-.522,0-.707l.1.071c.88-.018,1.707-2.2,1.577-2.035,1.48-.225,1.393-2.111,2.13-2.691,1.178-.713,1.618-.649,2.284-2.182.482-.987-.34-.747-.3-1.416.163-.628.379-.434.189-.217-.307,1.983,5.566-4.044,5.379-4.8.782,1.418,3.5-4.013,4.177-3.492,1.133.626-.575-1.145.9-1.141,1.157-.5,3.111-2.438,3.883-2.475.406.053.584.282.452-.347.156-.954,2-.962,1.861-1.79l-.174-.232c1.091.818-.036-.957.681-.523,2.159-.726,6.37-5.575,7.482-4.744.07-.942.619-.012.811-.857-.413-1.255.914.65.875-.212.013-1.446,2.23-.772,2.663-2.234-.1-.71.489.363.887-.177.105-.4.247-.143.39.11.5.256,4.716-2.33,4.107-3.857.137.618,1.463,1.832.9.507.125-.7,2.94-.607,2.828-1.381-.194-.726,1.885.4,1.67-.481-.086-.153.271-.492.676-.789-.073.3-.19.558-.546.6.521.336.288,2.281.218,2.391.781.346-.67.466.268.726-.126.917-.687.88.546,1.159-1.221-.078-.616-.062-.613,1.086-.312,1.164.843.643.256,1.16-2.414.946,1.515.153-.018.58-.576,0-.325,1.07.245,1.155-.268.008-.817.092-.586.582.968.2-.369.442-.31.652.816.548-.372.422.26,1.014-.169.462.852.084.86.292-.922-.268-.3.968-.9,1.085,1.049.143-.413.244.269.725-.164.34-.905.3-.015.507h.03c-.175.01-.4.043-.325.144.286.146.277.435-.013.435a2.318,2.318,0,0,0,.85.653c-.086.125-1.486-.4-.3.217,1.35.5-.791-.222-.292.072-.069.095.394.1.279.363-.756.345.3.314-.3.434-.854.029,1.128.072.281.29-1.072.028,0,.061-.006.218-.29,0-.309.651-.329,1.3-.059.224,1.588.073.573.218-.871.071-.876.216,0,.145,1.376-.156-.773.093-.007.218.774.01-.868.2-.3.216-.043.117-.842.216-.011.363,1.424.463-1.551,0,.273.58,1.046.051-.025.111-.3.289.244.251,1.141.5-.019.652.089.175,1.546.291.571.291-1.068-.1.953.187-.591.361-.289,0-.289,0-.292.072,1.693-.016.122.256.279.362-.372.079-.335.74-.026.87.176.34-.937.136-.3.289.388.083.334.312.569.363-.122.152-.631.689-.015.507.386-.26-.89.972-.026.87,1.449-.152-1.175.242-.3.289.755.191-.353.081.279.363.081.139-.352-.053-.3.216,1,.35-.55.654.266.8,1.545.247-1.512.058-.007.217.784.424-.793.371-.88.361.569.087,1.2,1.106.537,1.45-.161.166.943.469.274.507.729.554-.421.152-.013.435.29,0,.288.073.283.218a7.165,7.165,0,0,0-.106,3.549c.864.3-.807.2-.017.58.578.073.575.146,0,.145-1.2-.02.882.31.277.435-1.44.17,1.089.186-.3.362-.584.143-.584.143-.007.217,1.183.217-.36.425-.017.579-.481.075.085.222-.327,1.231-.42,1.426,1.387.615.26,1.015-.305.133-.187.633-.6.651.386.273.676.558.264.87-.2.278.912.5.272.58-.29,0-.592.433-.013.434-.1.069-.826.157-.006.218,1.55.015-1.382.18-.587.216.9.146-.313.343.859.364.659.048-.28.219-.882.433-.788.182,1.185-.018.863.219-2.435.489,2.41.836.843.871-.6-.008.011.276-.294.144-.575-.031.023-.19-.575-.146-1.27.111.673.2-.011.362-.826.17.106.087-.59.362-.09.391,2.618.783,1.131.943-.579.041,0,.156-.589.289-.2.2,2.054-.007-.006.217-1.3.054,1.315.066-.017.58-.292.072-.005.145-.005.145.807.218-1.337.845-.021.724.289,0,.579,0,0,.073-.568.511,2.532.2,1.724.51-.319.33-1.914-.228-1.458.287-.253.156-.856,1.069-.32,1.013.58,0,.578.074.288.074-1.011.279-.406,2.044-.362,2.39.9.17-.182-.127-.014.507-.1.416.972.349-.016.507-1.578-.1,1.46.255.569.363-.529-.091-.148-.2-.865-.146.447.421,3.022.5.279.363-.29,0,.279.362.857.436h-.29c-1,.569.71.58,1.144.509-1.3.2-2.024,1.329-1.5,1.809.39.353-1.334.385.281.29.449-.039.639-.123.592-.434.156.415,1.894.545.565.508-1.089-.31-1.34.227-1.46.36-.839.073,1.769.222.279.363-1.44.481.8.405-.022.724-.8.217.724.234-.006.217-1.525.268,3.334.1-.314.8,1.1,0,.308.093-.006.217-.005.127,1.326.023.575.146-1.561.241,1.493.175-.009.29-.364,0-.981.2-.294.144.58,0,.578.074.286.146-.614-.044.469.412-.3.434-1.376.013.832-.012-.009.289-.726.191,1.128.174.867.074,0-.072,0-.072.293-.071-.088.111-.025.216.094.305-.217.315-.337.565-.284.685-.774-1.447-2.976,3.67-3.62,3.153-1.131-.614.678,1.064-.7,1.089-.935-.01-1.255,1.841-2,1.562-.761-.426-.774,1.31-1.283.855-.383-.03-.587-.236-.359.353-.137.943-2.131,1.459-1.212,2-1.509-.383.935.654-1.1.677-.541.687-3.949,4.611-3.908,4.655-.649-.148-.8.812-1.307.472.174.895-.565.1-.516.913.227.59.227.59-.18.177-1.134-.561-.062,1.608-1.259,1.238-1.11.479-.726,1.656-1.8,1.767-.682-.229-3.83,2.575-2.782,4.361-.325-.49-1.9-1.378-.971-.266-.085.452-1.479,1.3-2,1.562-.372.226.608.773-.336.736-1.289-.2-.871,1.012-1.416,1.8-.362.461-.7.539-.383-.029-.4-.138-1,.46-.9.884.587,1.291-.639-.7-.743.324-.027,1.544-.653-1.312-.9.884-.529.716-2.349,3.077-2.933,2.8.374.708-1.721,1.465-1.336,2.2.53-.731.835.178.178.348-.005-.535-.006-.265-.05.011a.659.659,0,0,1-.1.024c-1.957-.76-1.027-.361-1.643,1.208.459.489-.861.7-.891.874-.192-.152-.779-.571-.8-.432.455.5-3.856,4.6-4.629,5.362A83.4,83.4,0,0,0,42.815,139c-1.489-1.245.095,1.67-.9.884-.932-1.181-.133,1.083-1.151-.089-.711-.9-.3.9-.516.914-.586-.236-.539.53-.515.913,1,.909-1.167-1.045-.54.531-1.253.833-1.674,1.605-3.956,3.889-2.36,2.654-2.726,2.366-3.214,3.564.025.383.228.589-.179.177-.644-.618-2.88,3.249-2.517,2.475-1.406-.582-2.436,2.51-3.98,3.5-.618.68-4.44,4.671-5.778,5.274.312,1.727-1.689.828-1.572,2.357-.62-.984-1.113.6-.9.884-.383-.03-.766-.059-.743.324-.29.474-1.806-1.477-.947.118A1.2,1.2,0,0,0,15,165.878a.89.89,0,0,0-.184.228c-.061.693-.674-.241-.359.576a1.593,1.593,0,0,0-.2.953c-.1.532-.073,1.079.452,1.316.313.426.742.583,1.144.084l.152,0a67.44,67.44,0,0,0,10.2.682c1.366-.1,1.988-.445,3.744.045.44.64.96-2,.893-.278-.416.448.385.246.534.3-.231-.546,4.713.015,4.281-.527.105-.817,2.235,1.538,1.958.6-1.134-1.885,2,.852,3.036-.833v.29c.746.86,2.022-.518,3.028.617,1.387-.792,2.96.715,3.214-1.121-.22,1.283,3.585.245,3.207.619.257.487,1.2-.01,1.605.019.176.582.71.589.891.011,0-.062,0-.1,0-.126.013.15.08.563.358.42.866-.455,1.12.144,1.784-.268.419.065,1.417-1.3.713.009-.63,1,2.008-1.645.893-.279-.18.288-.359.575,0,.29.48-.409,1.67-.094,1.961.023.095.748.225-1.173.714-.281,0,.58.176.582.177.292.029-.858,3.149,1.09,3.926-.531-.062-1.074.767,2.017.534,0-.375-1.291.274.773.535.007,0-.289.18-.287.179,0,.727,1.557,2.044-.913,1.781.311.041,1.377,1.279-1.211,1.073-.567.447,1.349,1.613-.911,2.137.606.17.085.851-1.582.715-.571v.29c.516-.988.839.415,1.067.593.02-2.007.785.409,1.961.023.521-.643.476.471,1.072-.277.719-.234.388.884.711.3.136-1.01,2.434.217,2.143-.554-.591-.421,2.32.917,2.139.026-.364-1.443.659,1.278.712.3.445-.76.238.349.893-.279.363-.02-.043.407.534.3.671-.978,1.54.464,1.962-.266.181-.578.359-.575.357,0-.229,1.1,1.276-1.569,1.065.883.994-1.354,3.036-.322,4.284-.818.276-.341,1.009.069,1.249-.275,0,.29.176.582.355.295,2.452-.661,7.733.7,9.809-.461.236,1.544,1.365-.939,1.247.305.061,1.446.714-1,1.071-.277.176.582.354.584.355.294.377-1.463.774,1.482,1.07.013.506-1.4,1.813,1.205,1.961.024-.092.095,5.388.691,4.636.056-.176-.581.181-.577.357,0a8.192,8.192,0,0,0,4.635.057c.473-.677,1.1,1.152,1.605.018.646,1.4.482-1.654.89.3.052,1.314.315-.613.713.009.45.227.179-1,.717-.861-.417,1.025.408.139.709,1.168.568.772-.19-1.217.538-.863.587-.1.087.713.711.588.911.337,1.315-2.691,1.432-1.432-.049.552.656.047.356.3,0,.289-.18.287-.358.285.087,1.676.515-.312.89.3.7.921,1.52.436,2.141-.263.451-1.229.85-.432,1.426.018.743.729.459-.046.538-.574.324-.06.529,2.2.531.876,0-.29.181-.577.536-.283.611-.214.772.694,1.069.3.318-.862,2.083,1.309,1.782.021-.133-.331,1.229.672,1.077-1.436-.169-.96.706-.2.712.3-.216.433-.715.625,0,.87.177.292.355.294.356,0-.182-.436.334.566.891.3,1.991.624,1.3-.122,1.784-.269,1.221,1.024,5.507.611,6.062.075-.332.286,2.2.561,1.6.019h0c1.3-.714.287,1.869,1.07.013.821-1.111.315-.014.175.581.35-.1,1.141-.688.72-1.44.91-1.147-.513,3.042,1.247.305-.29.239,1.171,1.432,1.427-.273.16.167-.676-1.229.357,0,.41.859,2.572,1.437,3.027.907.514.289.989-.141,1.426.016.718,1.246.065-1.472-.887-.88a1.96,1.96,0,0,0,1.253-1.144c-.181.384-.162,2.916.528,1.746.427-.095.332,1.11.712.008.2-1.286,1.154,1.373,1.6.309.211-1.274.894.435,1.249-.274,0-.088,0-.14-.005-.166.008.135.071.913.36.46.139-.6.344-.662.185-1.447-.078-.763,1.471,1.3,1.42,1.467-.031-1.772.485.844.714-.282,0-1.417.379,1.126.715-.281.009-1.256.124.665.532.586-.025-.21.021-1.226.359-.575-.088.583,1.1-.452,1.069.3.011,1.289.072-.864.713.008.455.805.418-1.123.182-.867-.92.01,2.215-.936.9-1.148-.693-2.532-.354,1.339-.713-.009.036-.342-1.126-2.127-1.064-1.172.177.292-.18.287-.356-.294-.324-.826-.007,1.858-.714.281-.933-.452-.255,1.519-.718.861a1.237,1.237,0,0,1-.175-.582c-.32-1.036-1.132.645-.89-.3-2.353-1.064-.447.685-1.788,1.138-.051-.359.19-2.384-.353-.875v-.289c-.492-1.181-1.072,2.079-1.252.855-.132-1.3-.6.534-.533-.3.287-.81-2.388.06-2.316-.608,0-.289-.714.282-1.073.857,0,.04.005.054.007.079-.035-.169-.163-.522-.541-.375-1.157.274.084-1.469-.712-.3-.181.578-.714.281-.712-.3.03-.476-2.278-.162-1.963.555,0,.58-.181.578-.538.574a11.252,11.252,0,0,0-2.312-1.477c-.41.109.058,1.069-1.072.566-1.647.616-.762-1.177-1.783-.022,0,.29-.179.288-.356,0-.295-.056-.44.884-.893.279-.128-.644-2.506.318-2.851-.325.066-.316-.161.475-.358.286-.176-.918-.716.489,0,.29-.305,1.608-.643-1.776-.89-.3q-.271.867-.535-.006c.159-1.284-1.145,2.583-1.071.276.037-.955-.6-1.215-.533-.3.182,1.3-1.106-1.827-1.782-.311-2.1,1.192.548-.777-1.6-.309-.245-.053-.332.4-.359.711,0-.042,0-.082,0-.136-.412-1.673-1.639.848-2.138-.316-.44-.951-.4.253-.894.569-.553.375.147-.669-.531-.876-.71.3-1.159.689-2.141.263-.383,0-1.067,1.032-1.249.276-.029-.715-.064,1.338-.357,0,0-.579,0-.579-.178,0-.28.742-.412-.723-.535-.007-.181.578-.717.861-.714.282-.305-.155-.646,1.52-.536.283-.378-1.249-.352.486-.892-.011-.848-.661-1.044-.161-1.6-.019-.442-.534-.79.064-.893.279-.312-1.266-.414-.109-.712-.009-.847-1.37-.4.334-.713-.3a.525.525,0,0,0-.533-.3c-.126.443.041-.387,0-.29-.177-.292-.178,0-.179.288-.048.047-.888-.175-.537.283.13.433-.415.861-.181.578.135-.561-.359-.542-.352-.874-.007-1.29-1.407,1.374-1.248-.015-.1-.968-.691,1.345-.721,1.73.008-2.164-.063-1.577-1.064-1.461-.108-.726-1.575-.048-1.783-.022-.175-.582-.533-.3-.358.285.013.22.05-.059-.356,0,.763-.872-4.2-.85-3.566-.044-.343,1.031-.219-.387-1.067-.592-.532-.586-.712-.3-.713-.009.319,1.109-.535-.9-.534-.3-.593.654-1.064.094-1.605-.02-.708,1.022-1.175-.5-1.6-.019-1.68,2.718-.37-.806-1.251.564.027,1.133.124-.641-.712-.3-.591-.279-1.046.712-.892.279-.593-1.277-1.451.458-1.784-.021-.279-.6-.494.685-.89-.3-.451-1.072-2.083.5-1.966,1.136-.743.339.421-.273-.176-.582-.359-.328-2.1-.651-2.138-.316.479.923-1.775-1.032-2.32.263.107-1.509-3.382.624-3.562-.624-.237,1.548-1.109-.222-2.143.554-.955-1.22-1.225.07-1.424-.6-.177-.292-.175-.582-.356,0-.651.5-1.872-.343-1.607.56-.215-1.271-.342.754-.535-.007-.446-.685-4.845.356-4.638.234-.261-.568-.819,0-.888-.591-.381.759-.328-.339-.715.281-.181.578-.181.578-.178,0-.279-1.215-.818,1.074-1.248-.015-1.024-.47-1.031.746-1.783-.022-.127-.769-3.374-.708-3.571,1.116a4.353,4.353,0,0,0-.172-1.451c-.378.064.1,1.3-.716.571-.236-.178-1.638-.323-1.426-.018-.082.766-.9-1.206-1.068-.3-.054.377-.934.465-1.251.565.124-.418-.047-.948-.713-.3-.383,1.384.069-.929-.533-.3-.181.577-.358.285-.356,0,.554-.994-1.394.537-2.141.263a1.041,1.041,0,0,1-1.256-.5c-.015.99-1.539-.095-1.777.756-.464.24.331-.079.357,0-.362,1.509-.678-.763-1.065-.883-.179,0-.357,0-.18.288.039.6-.464.025-.716.571-.012.668-.763-.106-.884-.012-.022-.256-.107-.975-.182-.87-.021.726-4.142.493-4.995.518a30.3,30.3,0,0,0-3.116.259c2.277-.556,4.695-1.14,4.615-1.1,2.369.574,2.119.648,1.7-.346-.614-.221,4.774-.036,5.009-1.384-.064-.282-.064-.282.066.283-.4.48,2.156-.2,2.318-.244.48-1.223,1.8-.044,2.595-.358,1.733-1.258,2.451-.308,3.839-1.336,1.6.008.2-1.469.955-.869a24.744,24.744,0,0,0,7.536-2.046c.647.742,1.279-.285,1.374-.465a6.49,6.49,0,0,0,4.425-2.214c.312.4-.742,1.683.917-.031.6-.844.6-.844.271-.1-.585.882.443.275.54-.208.933-.262,1.938-.626,2.525-.713.386.551.016-1.3.964-.7.223.535.492.425.38.158-.238-.794,4.659-.814,5.6-3.111-.537-.894,1.992,1.232.781-.382-1.1-.877.793.492.782-.38-.126-.261.134-.387.26-.126.989.435.3-.245,1.3.012,2.226-2.866,1.1.877,2.585-1.967-.107-.934,1.053.365,1.792-.955.515-1.524,1.5.061,2.038-1.112-.033-.652.072-1.049.359-.545l.143.252c.148-1.26,1.379-.372,1.8-.378-1.005-1.494,1.042-.8,1.764-1.031,1.7-1.2,2.936-2.044,4.28-3.06-.57-.595,2.905-1.2,1.763-1.557-.239.167-.4-.071.238-.167.321-.123,3.016-1.341,2.624-1.841-.58-.3-.343-.468.238-.168,1.457.24.524-.493,1.156-.889.923.122,2.328-2.465,3.641-2.457.326-.037.039-1.929.708-.98.533.711.493-2.541,1.9-.473.478-2.2,3.474-3.523,4.636-5.369,4.04-4.164,10.571-11.473,13.333-15.839,1.175.8-.063-1.61.789-1.582,1.592.229-.5-1.226,1.082-1.019,1.755-.964-1.058-.832,1.767-2.668.146.074,1.14-.676.482-.728.035.286,5.1-7.177,3.921-6.463-.644-.034-.364-.539.282-.508a18.61,18.61,0,0,0,3.542-6.667c-.206-1.017,1.859-1.135,1.148-2.345,1.771-.328-1.182-1.379.876-1.191,1.21.466-.35-.841.491-1.054.51-.585-.821-.727-.3-1.41.839,1.26.242-.634,1.525-.591.923-.719-2.177-.1.535-1.984.88-1.161-1.5-2.852-.431-2.686.457.287.43-.943.479-.427,0,.871,1.338,1.039.644-.051-.083-.66.794-.85,1.279-1.674.6-2.816-1.89-2.6,1.18-4.812.671-.406-2.049-.776.294-.816.644-.08.644-.08.1-.272-.982-.507,1.15-2.112.839-2.46-.717-.582,2.238-2.832.905-2.743-.658-.237.79-.3.147-1.466-2.777-1.063.033-2.482-.3-1,1.174.034,1.005-1.149,1.583-2.234.01-.873,1.345-2.032.693-2.5-.559-.153-.482-.43-.2-.354,2.42-3.48,1.866-7.74,3.009-11.133.234-1.13.234-1.13-.109-.907-.2,1.3.074-1.832.519-1.07.013.01.022.013.034.022-.253.19-.4.6.32,1.447.165.975-1.574.363.272,1.428-1.914.864.2.735-.612,2.672.372.561.709,1.42.275,1.249,1.518.422-1.469.227-.007.535.742.279-.723.413-.007.535.578.181.861.717.282.714-.156.3,1.52.648.283.536-1.249.374.486.355-.011.892-.294.355-.6,1.424-.015,1.248.111.108-.494,1.04-.013,1.07.759.351-.4.115-.3.534.288.17,1.141.46-.009.713l0,.178c1.133.054-.237.239-.009.713.443.123-.387-.039-.29,0-.393.336.5-.07.284.536-.151.5.868-.053.865.361-.561-.13-.542.356-.874.352-1.29.01,1.374,1.4-.015,1.248-.968.1,1.345.693,1.73.722-2.157.045-1.608,0-1.461,1.063-.555-.133-.27,2.823.263,2.14.225-.03-.081-.029,0,.357-.872-.762-.85,4.195-.044,3.566.578.181.576.359,0,.357-2.14,2.025.294,1.076-.6,1.6-.978.226.8,1.24-.309,1.6.75,1.315-.214,1.339-.025,1.961.473.653,1.938.928.28.893-.088.225.115.32.327.356l-.042,0c-.84.41.179,1.862-.019,1.605-1.276.587.458,1.453-.021,1.783-.293.177-.293.177,0,.356.59.433-1.42.7-.593,1.067.418.5.2,1.525.855,1.252.586-.088.852.7.575.36-.86-.894-1.264,2.158-.9,2.135l.361,0h-.071c-.582.175-.6,2.136-.028,2.317-1.508-.105.625,3.382-.623,3.563.065.389,1.3-.1.571.717-.661.483.406,1.615-.311,1.781-.867.212.407,1.07-.3,1.069-.292.177-.582.175,0,.356.5.652-.343,1.871.56,1.607-1.271.212.754.344-.007.535-.292.177-.294.356-.294.356.247,1.171.54,4.507.231,4.815.154.28-.33.352-.444.363.028,0,.075,0,.15-.008.288.18.288.18.286.358-.892.238,1.323.633-.007.535-.86.346,0,.371.279.893-.89.65.153,1.57-.021,1.783-1,.229-1.244,3.576.821,3.926-.518-.095-2.322.257-.873.353.518.162-.741,1.954-.024,1.961.769.094-1.209.888-.3,1.069.387-.1.807,1.977.277,1.071-1.243.525,1.253,1.233-.013,1.069-1.128.1.7.682-.3.712-.577-.181-.577-.181-.006.535.339.689.273,2.611-.1,2.878.746.156-.186,1.533.622,1.761-.1-.717.866-.237.288.179-.114.162-1.978.494-.878.71.6-.036.024.46.571.715.65.011-.062.721-.013.87-.24.016-1.381.244-.581.376.442,3,.2,8.971,1.022,11.238-1.375.084.013.553.281.714.076.478-1.109-.135-.874.353,1.321.538-1.821.17-.3.712.545.689-.463.507.567,1.072h0c-1.367.429.8.4-.011.892-.308.214-.132,5.9.213,6.241.095.434-1.11.329-.008.713.288.18.578.181,0,.179-.447-.1-.43,2.319-.028,2.318.551.487-1.456.006-.307,1.425-.405.524.069,2.851.248,3.389-.584.018-.08,4.557-.636,4.633-.068.26,1.268.664.569.894a.547.547,0,0,0-.013,1.07c-.88-.207-.568.821-.011.891-.291.177-.583.354-.3.534.205.339-1.184,0-1.163.351.039.339.745-.08.573.537-.032.2.745.161.573.538-.29,0,0,.178.29,0,.715-.036.388.27,1.157.184,1.469.136,1.87-1.424.893-1.957.99-.538.242-3.579,1.209-4.1a36.685,36.685,0,0,1-.174-9.629c.64-.443-2-.958-.278-.893.448.417.246-.386.3-.534-.546.231.015-4.713-.527-4.281-.817-.105,1.538-2.235.6-1.958-1.885,1.133.852-2-.833-3.036h.29c.978-.248-.578-2.2.32-2.494.34-.186.218-4-.246-3.568-1.261-.089.341-.049.017-1.426.011-.891.015-1.248.307-1.425-.009.021-.927-.556-.283-.536.487-.255-.011-1.2.019-1.6.582-.176.589-.71.011-.891-.064,0-.1,0-.129,0,.146-.011.568-.075.423-.357-.437-.583-.081-.936.016-1.248-.354-.455-.432-1.061-.853-1.43.308-.177,1.4.884.3-.534-1.391-1.255.828.562.292-.177-.828-.777.7-2.2-.264-2.141-.88-.485,1.043-.621.3-.711-.521-.575.251-1.391.043-3.566.083-.513-1.526-.2-.573-.538.872-.174.876-.531,0-.356-1.291.377.772-.275.006-.535-.571-.173,1.478-.9.307-1.425-1.41-1.128,1.613-.026-.272-1.428-.577-.181-.577-.181-.288-.18.6-.056.018-.5.586-.532-.117-.335-1.181-1.384.02-1.6.086-.17-1.582-.852-.571-.716.875.176-.846-.636.591-.889,1.051-.208-1.556-.137-.282-.715s-.138-2.341.616-3.028c.645-.023-.5-.186-.283-.536.125-.535-.311-.217-.283-.537.065-.3.67-1.664.015-1.248,0,.179-.292.177,0-.178.037-.264.7-2.016.024-1.962-.582.176-.579,0,0-.178.908-.811.157.016.018-1.426-.02-.365.408.045.3-.534-.977-.668.464-1.543-.266-1.962-.578-.181-.575-.359,0-.357,1.207.238-1.278-.844.3-1.068l.58,0c-2.031-4-.191-10.45-.976-15.161-.857-.608.774-.634.018-1.426-.578-.181-.576-.36,0-.357,1.446-.061-1-.715-.277-1.071,1.442-.429-1.131-.431.3-.89,1.1-.807-1.292-.165.024-1.961.182.012.507-.747.006-.535.1.132.69-5.416.056-4.636-.581.176-.577-.181,0-.357a8.192,8.192,0,0,0,.057-4.635c-.677-.49,1.152-1.09.018-1.6,1.4-.648-1.654-.48.3-.89,1.314-.052-.613-.314.009-.713.227-.458-1-.173-.861-.717C169.86,60.772,168.974,59.961,170,59.654ZM92.586,76.275c0,.072-.288-.073-.286-.145C92.193,76.072,93.019,76.235,92.586,76.275ZM17.927,12.4c-.088.2-.421.417-.535-.007C17.378,12.016,18.031,11.933,17.927,12.4Zm1.96.313c.114.867-.279.611-.357,0-.432-.776.457-.759.537-.283C19.885,12.439,19.684,12.122,19.887,12.709Zm9.624.987a.681.681,0,0,1,.538-.573C30.461,13.165,29.8,13.879,29.511,13.7Zm8.744-1.633c0-.29.18-.288.358-.286C38.624,11.873,38.513,12.753,38.255,12.063Zm.529,1.455.359-.575C39.724,11.049,39.715,13.876,38.784,13.518Zm4.284-1.107c-.178,0,0-.29.182-.867C44.03,10.805,43.1,12.415,43.068,12.411Zm1.423.887c.033-.419.171-.644.359-.575C44.854,13.137,44.835,13.364,44.491,13.3Zm3.563.623c-.179,0,.179-.288.358-.286C48.545,13.661,48.086,14.342,48.054,13.921Zm1.433-1.432c0-.29,0-.58.181-.577C49.963,11.39,50.113,12.723,49.487,12.489Zm1.607-.56c.234.025.392-.1.355.294C51.38,12.31,51.112,12.041,51.094,11.929Zm3.381,1.49c-.178,0-.355-.294-.355-.294C54.206,12.381,55.034,13.162,54.475,13.419Zm3.032-.253c-.423-.485.469-.31.357,0C57.863,13.46,57.686,13.168,57.507,13.166Zm3.211-.251a1.293,1.293,0,0,1-.175-.582C60.512,11.571,61.216,13.026,60.718,12.915Zm1.071-.277c.02-.112.291-.374.358-.285C62.178,12.882,62,13.124,61.789,12.638Zm11.587.721c.019-.113.29-.374.358-.286C73.765,13.6,73.585,13.844,73.376,13.359Zm4.456.344c-.178,0,0-.58,0-.87C78.241,12.721,77.858,13.746,77.832,13.7Zm2.863-2.284c.034-.419.172-.645.36-.576C81.059,11.258,81.04,11.485,80.695,11.419ZM83.007,12.9c.019-.113.29-.374.357-.286C83.4,13.14,83.215,13.381,83.007,12.9Zm12.479.441c-.177-.292,0-.579.181-.577C96.38,12.69,95.93,13.5,95.486,13.337Zm7.311-.2c.034-.419.172-.644.36-.575C103.161,12.975,103.142,13.2,102.8,13.136Zm14.987-1.847c.055-.444.417-.386.356.005C118.154,11.606,117.9,11.625,117.784,11.289Zm2.14-.264c.02-.112.291-.374.358-.285C120.313,11.269,120.133,11.511,119.924,11.025Zm1.6,2.049c-.357,0-.357,0-.177-.292C121.685,12.138,121.88,13.16,121.52,13.074Zm1.071-.277c.234.025.392-.1.355.294C122.877,13.177,122.608,12.909,122.591,12.8Zm1.783.021c.234.026.392-.1.355.295C124.66,13.2,124.391,12.931,124.374,12.818Zm1.961.024a1.293,1.293,0,0,1-.175-.582A.3.3,0,0,1,126.335,12.842Zm6.954.085c-.1-.225.37-.982.359-.576C133.72,12.2,133.42,13.4,133.289,12.927Zm6.071-1.947c0,.215,0,.254,0,0Zm.177.284c.405-.059.075.945-.182.867C139.176,12.129,139.179,11.549,139.537,11.264ZM123.61,16.406c.614-.208.341.89-.093.912C123.237,17.381,123.109,16.816,123.61,16.406Zm-8.96,3.406c.076-.135-.093,1.139-.4.711C114.034,20.245,114.594,19.439,114.65,19.812Zm-11.091,4.012a1.029,1.029,0,0,1-.462-.457C103.5,23.105,104.1,23.462,103.559,23.824Zm-2.335,1.143c.016.086-.55.058-.638-.075C100.851,24.829,101.153,24.543,101.224,24.967Zm-2.694.984c.019.083-.547.069-.638-.061C98.155,25.818,98.451,25.526,98.53,25.951Zm-87.68,73c.415,0,.642.015.576.36C11.007,99.278,10.782,99.14,10.85,98.952Zm.659,54.744.006-.006C11.562,153.69,11.555,153.691,11.509,153.7Zm2.6-22.414c.009.05.011.087.017.133l-.06-.095a.352.352,0,0,0,.042-.038Q14.271,130.427,14.11,131.282Zm-.182.671c0,.179-.288-.179-.286-.358C13.668,131.462,14.349,131.921,13.928,131.953Zm-.241,4.478c-.145,0-.16-.037-.1-.11A1.1,1.1,0,0,0,13.687,136.431Zm.622,2.2c-.031.018-.055.046-.085.066a.857.857,0,0,0-.244-.119A.319.319,0,0,1,14.309,138.636Zm-1.172-3.443a2.236,2.236,0,0,0,.055.3c-.34-.048-.524-.172-.462-.341A1.428,1.428,0,0,1,13.137,135.193Zm-.013,1.763a1.842,1.842,0,0,0-.1.358C12.788,137.142,12.727,137,13.124,136.956Zm.427,2.128c.065.85-.965-.123.123-.174-.032.126-.026.1.019,0,.048,0,.094,0,.15,0,.069-.013.119-.026.169-.039a2.9,2.9,0,0,0-.262.234A.746.746,0,0,0,13.551,139.084ZM12.24,160.567a.758.758,0,0,1-.088-.421.386.386,0,0,1,.277-.206c.017.175-.268.363.233.2a.542.542,0,0,1,0,.36A.521.521,0,0,1,12.24,160.567Zm1.1-3.654a.373.373,0,0,0,.125,0,.127.127,0,0,1-.03.044C13.4,156.941,13.373,156.928,13.335,156.913Zm.9-27.617c-.063.2-.123.413-.177.638a.942.942,0,0,1-.388-.3C13.431,129.47,13.875,129.415,14.231,129.3Zm-.8-3.764c0,.178-.294.355-.294.355C12.388,125.8,13.169,124.973,13.426,125.532Zm-.249-3.389c.29,0,0,.178,0,.357C12.688,122.923,12.863,122.031,13.177,122.143Zm-.817-4.283c.529-.031.771.149.285.358C12.532,118.2,12.272,117.927,12.36,117.86Zm.489-64.188a1.293,1.293,0,0,1-.582.175A.3.3,0,0,1,12.849,53.672Zm.517,52.959c-.114-.019-.374-.29-.286-.358C13.61,106.242,13.851,106.422,13.366,106.631Zm.344-4.456c0,.178-.58,0-.87,0C12.728,101.766,13.753,102.149,13.71,102.175ZM12.9,97c-.114-.02-.374-.291-.286-.358C13.147,96.612,13.388,96.792,12.9,97Zm.441-12.48c-.292.177-.579,0-.577-.181C12.7,83.627,13.505,84.077,13.344,84.521Zm-.2-7.311c-.419-.034-.644-.172-.575-.36C12.982,76.846,13.209,76.865,13.143,77.21Zm-.354-18.546c-.644-.342.379-.537.292-.177C13.076,58.844,13.076,58.844,12.789,58.664Zm.309-1.6c.086.069-.182.338-.294.355C12.829,57.182,12.7,57.024,13.1,57.061Zm-.273-1.428c.026-.234-.1-.392.295-.355C13.206,55.347,12.938,55.616,12.825,55.633Zm.109-8.915c-.224.1-.982-.37-.576-.359C12.205,46.286,13.409,46.587,12.934,46.718Zm-1.073-31.03c-.29,0-.579,0-.577-.181C10.1,14.769,13.372,15.894,11.861,15.688ZM10.747,59.725c.529-.031.771.149.285.358C10.919,60.063,10.659,59.792,10.747,59.725Zm.549,2.5c-.444-.055-.386-.417.005-.356C11.613,61.853,11.632,62.11,11.3,62.223ZM11.27,40.47c-.058-.405.946-.075.868.182C12.136,40.831,11.556,40.828,11.27,40.47Zm.96,88.088c.087.069-.182.337-.294.355C11.961,128.679,11.833,128.521,12.23,128.558Zm.266,1.962c-.29,0-.58,0-.577-.181C11.4,130.044,12.73,129.894,12.5,130.52Zm-.156-11.055c-.762.03.693-.674.582-.176A1.3,1.3,0,0,1,12.34,119.465Zm.522,21.046c-.042.094-.085.186-.124.281C11.945,140.512,12.373,140.4,12.862,140.511Zm-1.311-3.754c-.739-.78.871.154.867.182C12.416,137.117,12.128,136.938,11.551,136.757Zm.519,5c-.29,0-.288-.18-.286-.358C11.88,141.383,12.76,141.494,12.07,141.752Zm2.489-6.832a.748.748,0,0,0-.374-.291h0a.839.839,0,0,0,.206-.065C14.733,134.475,14.711,134.7,14.559,134.92Zm.8,6.478c-.287-.04-.49-.647-.448-.931C15.166,139.732,15.571,141.23,15.363,141.4Zm.74-14.133c-.283-.06-.224-.343-.165-.625C16.21,126.635,16.7,127.092,16.1,127.265Zm1.594-.537c.1-.224-1.862-1.849-.6-1.306C17.582,125.311,17.96,126.333,17.7,126.728Zm-.309-7.456c-.4-1.371.777.428.771.495C18.087,120.046,17.878,119.7,17.388,119.272Zm2.185-1.507c-.47-.147-.518-.576-.412-.7C19.64,117.135,19.735,117.381,19.573,117.765Zm.964-8.4c-.27-.752,1.01-.2.466.451C20.727,109.726,20.451,109.639,20.537,109.363Zm.712-2.2c.119-.246.087-.662.462-.454C21.788,106.755,21.408,107.181,21.249,107.167Zm.454,5.263c-.021.356-.444-.964.17-.545C21.788,112.157,21.98,112.513,21.7,112.43Zm2.255-9.5c-.449-.247,0-.932.3-.805C24.75,102.223,24.1,102.982,23.958,102.933Zm1.963-5.082c-.7.472-.067-.768.219-.53C26.408,97.431,26.03,97.586,25.921,97.851Zm1.753-4.868a1.034,1.034,0,0,1-.649.028C26.334,92.754,28.09,92.29,27.674,92.983Zm.448-1.691c-.126-.1-.11-.669-.026-.646C28.639,90.829,28.654,91.205,28.122,91.292Zm9.388-16.14c-.111-.117-.009-.673.07-.637C38.1,74.774,38.047,75.142,37.51,75.152Zm3.556-6.27c.248-.587.754.436.7.508C41.6,69.623,41.3,69.052,41.066,68.882Zm1.623-4.58a.529.529,0,0,1-.093-.817C43.01,63.742,43,64.014,42.689,64.3Zm3.477-2.037c-.095-.131.085-.668.157-.621C46.807,61.97,46.7,62.326,46.166,62.265ZM60.62,48.277c-.4-.037-.371-.445-.15-.632C61.341,46.834,61.226,47.989,60.62,48.277Zm9.242-7.3a.535.535,0,0,1,.15-.81C70.322,40.54,70.239,40.8,69.862,40.981ZM89.508,62.867c.337.02.625-.046.575.146C89.747,62.984,89.457,62.994,89.508,62.867Zm.679,19.779Zm71.9,84.958c.088-.2.421-.417.535.007C162.636,167.984,161.983,168.067,162.087,167.6Zm-1.96-.314c-.114-.866.279-.61.357,0,.432.776-.457.759-.537.283C160.129,167.561,160.33,167.878,160.127,167.29ZM150.5,166.3a.681.681,0,0,1-.538.573C149.553,166.835,150.21,166.121,150.5,166.3Zm-8.744,1.633c0,.29-.18.288-.358.286C141.39,168.127,141.5,167.247,141.759,167.937Zm-.529-1.455-.359.575C140.29,168.951,140.3,166.123,141.23,166.482Zm-4.284,1.107c.178,0,0,.29-.182.867C135.984,169.2,136.918,167.585,136.946,167.589Zm-1.422-.887c-.034.419-.172.644-.36.575C135.16,166.863,135.179,166.636,135.524,166.7Zm-3.564-.623c.179,0-.179.288-.358.286C131.469,166.339,131.929,165.658,131.96,166.079Zm-1.433,1.432c0,.29,0,.58-.181.577C130.051,168.609,129.9,167.277,130.527,167.511Zm-1.607.56c-.234-.025-.392.1-.355-.294C128.634,167.691,128.9,167.959,128.92,168.071Zm-3.381-1.49c.178,0,.355.294.355.294C125.808,167.619,124.98,166.838,125.539,166.581Zm-3.032.253c.423.485-.469.31-.357,0C122.151,166.54,122.328,166.832,122.507,166.834Zm-3.211.251a1.3,1.3,0,0,1,.176.582C119.5,168.429,118.8,166.974,119.3,167.085Zm-1.071.277c-.02.112-.291.374-.358.285C117.836,167.118,118.016,166.876,118.225,167.362Zm-11.587-.721c-.019.113-.29.374-.358.286C106.249,166.4,106.429,166.156,106.638,166.641Zm-4.456-.344c.178,0,0,.58,0,.87C101.772,167.279,102.156,166.254,102.182,166.3Zm-2.863,2.284c-.034.419-.172.644-.36.576C98.955,168.742,98.974,168.515,99.319,168.581ZM97.008,167.1c-.02.113-.291.374-.358.285C96.619,166.86,96.8,166.619,97.008,167.1Zm-12.48-.441c.177.292,0,.579-.181.577C83.634,167.31,84.084,166.5,84.528,166.663Zm-7.311.2c-.034.419-.172.644-.36.575C76.853,167.025,76.872,166.8,77.217,166.864ZM62.23,168.711c-.054.444-.417.386-.356-.005C61.86,168.394,62.117,168.375,62.23,168.711Zm-2.14.264c-.02.112-.291.374-.358.285C59.7,168.731,59.881,168.489,60.09,168.975Zm-1.6-2.049c.357.005.357.005.177.292C58.329,167.862,58.134,166.84,58.494,166.926Zm-1.071.277c-.234-.025-.392.1-.355-.294C57.137,166.823,57.406,167.091,57.423,167.2Zm-1.783-.021c-.234-.026-.392.1-.355-.295C55.354,166.8,55.623,167.069,55.64,167.182Zm-1.961-.024a1.293,1.293,0,0,1,.175.582A.3.3,0,0,1,53.679,167.158Zm-6.954-.085c.1.224-.37.982-.359.576C46.293,167.8,46.594,166.6,46.725,167.073ZM168.9,139.353ZM167.518,49.48c.29,0,.58,0,.577.181C168.616,49.956,167.284,50.106,167.518,49.48Zm-.845-10.189c.055-.1.106-.2.157-.3l.234.146C168.5,39.578,167.217,39.677,166.673,39.291Zm-.611,6.885c-.018-.041-.029-.072-.052-.12a.845.845,0,0,0,.017-.3C166.224,46.062,166.336,46.253,166.062,46.176Zm2.313-19.714c-.113-.151-.218-.237-.029-.15a.481.481,0,0,0,.172-.024A.859.859,0,0,0,168.375,26.462Zm-.79-6.4c-.018-.182.3-.383-.287-.18-.03,0-.047,0-.074.005a.56.56,0,0,1,0-.346c.027-.005.05-.012.079-.016a.774.774,0,0,1,.321-.106.716.716,0,0,1,.08.594A.355.355,0,0,1,167.585,20.06Zm-1.129,2.917c.061.033.131.069.223.11a.69.69,0,0,0-.294-.059A.8.8,0,0,1,166.456,22.977Zm-.63-6.723a.742.742,0,0,1,.175.077A.543.543,0,0,1,165.826,16.254Zm.208,24.031c.474.353-.853.565.429.631-.068-.9,1.074.23-.292.177a1.482,1.482,0,0,0-.349.1.419.419,0,0,1-.07-.155c.141-.552-.074.553-.619.184A4.484,4.484,0,0,0,166.034,40.285Zm.475,1.558a.4.4,0,0,0-.084-.276C166.594,41.646,166.68,41.735,166.509,41.843Zm-.094.5c.609.33,1.37.756.021.714-.1.022-.173.041-.255.06A.875.875,0,0,0,166.415,42.342Zm.869,2.5c-.414,0-.641-.015-.575-.36C167.128,44.517,167.353,44.655,167.284,44.843Zm1.179-1.6c.739.78-.871-.154-.867-.182C167.6,42.883,167.886,43.062,168.463,43.243Zm-.233-4.637c-.1.011-.976-.1-.286-.358C168.234,38.25,168.232,38.428,168.23,38.606Zm-4.283-19.9c.277.227-.294.963-.54.53a.373.373,0,0,1,0-.162h0v-.01C163.444,18.844,163.622,18.556,163.947,18.71Zm-2.362,1.915c1,.13.047,1-.336.736.047-.135.66-.181-.024-.383C160.457,20.43,161.143,20.292,161.585,20.625ZM150.9,29.905c.2.206.047.766-.132.943C150.228,31.227,150.611,29.933,150.9,29.905Zm-7.59,9.9c.2.206.024.383-.156.56C142.972,40.244,142.7,39.587,143.314,39.8Zm-1.557-.5c-.2.14.689,2.453-.109,1.326C141.228,40.452,141.3,39.5,141.757,39.3Zm-3.5,5.067c.18-.176.2.207.431.8C138.436,46.445,138.221,44.415,138.255,44.37Zm-2.049.8c.312.349.217.7.047.766C135.9,45.629,135.877,45.4,136.206,45.166Zm-4,3.122c.18-.176.024.384-.156.56C131.837,48.879,131.931,48.011,132.2,48.288Zm-.421,2.446c.2.206.408.412.228.589C131.989,52.039,131.041,51.039,131.781,50.734Zm-1.211,2c-.207.162-.316.489-.563.147C129.968,52.8,130.448,52.655,130.57,52.737Zm-4.435,2.328a.859.859,0,0,1,.564-.148C127.132,55.536,125.772,55.808,126.135,55.065Zm-2.853,3.211c.761-.1-.2.679-.36.353C122.719,58.423,123.1,58.453,123.282,58.276Zm-3.033,3.388a1.062,1.062,0,0,1,.587.236C121.385,62.413,119.678,62.078,120.249,61.664Zm-.876,1.267c.081.123-.073.6-.156.56C118.788,63.13,118.855,62.8,119.373,62.931Zm-12.1,11.077c.081.124-.073.6-.156.56C106.692,74.208,106.759,73.874,107.277,74.008Zm-4.7,4.213c.18-.177.407.412.611.619C102.887,79.322,102.523,78.256,102.578,78.221ZM101.33,82.7c.312.349.217.7.047.766C101.026,83.163,101,82.933,101.33,82.7Zm-3.356,1.267c.081.124-.073.6-.156.56C97.389,84.165,97.456,83.832,97.974,83.966Zm-5.614-.157c-.289,0-.575-.146-.573-.218C91.714,83.512,92.443,83.509,92.36,83.809Zm-.973-6.232c.337.019.625-.047.576.146C91.626,77.694,91.336,77.7,91.387,77.577Zm.7-3.911c0,.073-.294.145-.294.145C91.019,73.776,91.869,73.443,92.084,73.666Zm-.253-1.232c-.292.072-.292.072-.288-.073C91.687,72.254,92.154,72.227,91.831,72.434Zm-.528-1.74c-.041-.026-.359-.043-.285-.145C91.519,70.538,91.809,70.6,91.3,70.694Zm.72-4.707c-.04-.026-.358-.043-.285-.146C92.239,65.831,92.529,65.894,92.023,65.987Zm.344-1.811c0,.073-.579,0-.869,0C91.443,64,92.445,64.18,92.367,64.176Zm-.806-2.1c-.041-.026-.359-.043-.286-.145C91.776,61.918,92.066,61.981,91.561,62.074Zm.03-1.014a.424.424,0,0,0,.193.081C91.616,61.115,91.515,61.1,91.591,61.06ZM92,57c-.292.072-.58,0-.577-.074C91.327,56.66,92.136,56.794,92,57Zm-.2-2.971c-.337-.028-.627-.019-.575-.146C91.562,53.907,91.85,53.841,91.8,54.033ZM91.446,46.5c-.677-.163.4-.2.292-.072C91.734,46.571,91.734,46.571,91.446,46.5Zm-.521-1.957c-.062-.155.256-.142.294-.144C91.71,44.416,91.446,44.537,90.925,44.541Zm.829,1.378-.293.072C91.384,45.878,91.656,45.736,91.754,45.919Zm.021-.724-.292.072C91.406,45.154,91.678,45.011,91.775,45.2Zm-.184-3.55c-.142.046-1-.144-.575-.146C90.844,41.473,92.013,41.569,91.591,41.645Zm4.434-15.008c.238-.783.951,0,.374.163C95.866,27.013,95.866,27.013,96.025,26.637ZM93.65,25.4c.279.51.018.782-.429.484C93.2,25.727,93.607,25.328,93.65,25.4Zm-2.98,1.908c.165.273-.253.461-.531.233C90.034,27.1,90.606,26.916,90.67,27.311ZM89.405,46.929c.5-.011.791.053.285.145C89.65,47.048,89.331,47.031,89.405,46.929Zm.549,1.015c-.439-.022-.4-.157,0-.145C90.273,47.8,90.29,47.894,89.954,47.944Zm-.026-8.838c-.041-.181.963-.009.867.074C90.793,39.253,90.214,39.251,89.928,39.106Zm.958,35.862-.292.072C90.516,74.927,90.788,74.784,90.886,74.968Zm.268.725c-.715.036-1.079-.276,0-.145ZM91,71.2c-.75.028.616-.269.582-.071A2.752,2.752,0,0,1,91,71.2Zm.078,7.1c0,.072-.29,0-.867-.074C89.435,77.9,91.142,78.308,91.076,78.3Zm-.348,1.955c-.722-.115.014-.2.292-.072Zm1.455-.215-.575-.146C89.808,79.735,92.194,79.54,92.183,80.041Zm-.813,7.823c-.582.071-.582.071-.578-.074C90.391,87.574,92.948,87.754,91.37,87.864Zm-.31.651c.263.063.374.167-.006.218C90.654,88.721,90.625,88.48,91.06,88.515Zm.895-.062-.051.054C91.671,88.494,91.757,88.478,91.955,88.453Zm-6.772,7.68a.338.338,0,0,1,.227.59C84.72,97.49,84.646,96.427,85.183,96.133Zm-7.17,7.454c.312.349.217.695.048.766C77.709,104.051,77.684,103.82,78.013,103.587Zm-13.68,16.292c.263.372-.149.691-.36.354C63.73,120.031,64,119.751,64.333,119.879Zm-1.954,2.328c.08.123-.074.6-.157.559C61.794,122.406,61.86,122.072,62.379,122.207Zm-2.661.176c.024.383-.156.56-.359.354C58.916,122.491,59.881,121.714,59.718,122.383Zm-.912,3.742c-.033.311.031.345.154.236-.02.329-.154.064-.3-.334C58.758,125.373,58.764,125.444,58.806,126.125Zm-.5,1.128c.022-.035.044-.068.067-.112C58.371,127.432,58.376,127.639,58.3,127.253Zm.158-3.633c-.207.162-.317.489-.564.148C57.858,123.684,58.337,123.538,58.46,123.62ZM56.31,125.4c0,.095,0,.19,0,.278-.062.007-.13-.028-.216-.146C56.079,125.5,56.184,125.44,56.31,125.4Zm-1.627,1.929a1.077,1.077,0,0,1,.587.236C55.036,127.961,54.419,127.82,54.683,127.332Zm-7.013,6.894c.3.12.3,1.063.048.766C47.726,135.137,47.211,134.009,47.67,134.226Zm-5.5,6.629c.18-.177.587.236.431.8C42.243,142.094,41.848,141.065,42.167,140.855ZM17.4,166.015a.776.776,0,0,1,.277.558c-.023.007-.042.018-.064.025-.106-.064-.2-.118-.282-.157a.291.291,0,0,0-.106-.205c0-.016,0-.028,0-.044C16.991,165.6,16.991,165.6,17.4,166.015Zm23.642,1.2a1.276,1.276,0,0,1-.028-.443,1.024,1.024,0,0,1,.056.4C41.055,167.194,41.052,167.2,41.04,167.216Zm-.385,1.681Zm-.178-.16c-.4.058-.075-.946.182-.868C40.838,167.871,40.835,168.451,40.477,168.737Zm15.715-5.3c-.609.21-.347-.888.086-.911C56.556,162.462,56.689,163.026,56.192,163.437Zm8.89-3.467c-.074.135.082-1.137.392-.711C65.692,159.534,65.143,160.343,65.082,159.97Zm11-4.1a1.006,1.006,0,0,1,.463.447C76.148,156.6,75.559,156.249,76.083,155.871Zm2.31-1.165c-.015-.086.549-.059.638.073C78.766,154.843,78.469,155.129,78.393,154.706Zm2.667-1.015c-.018-.085.543-.077.636.054C81.434,153.816,81.144,154.113,81.06,153.691Zm2.491-.7c-.229.783-.95.006-.375-.161C83.705,152.617,83.705,152.616,83.551,152.992Zm2.383,1.218c-.279-.5-.04-.792.416-.5C86.377,153.865,85.981,154.284,85.934,154.21Zm2.941-1.942c-.168-.274.25-.459.528-.235C89.513,152.48,88.944,152.661,88.875,152.268ZM109.264,139.2c-.315-.366-.235-.62.141-.806A.529.529,0,0,1,109.264,139.2Zm9.41-7.54c-.863.807-.762-.337-.157-.628C118.923,131.068,118.893,131.474,118.674,131.66Zm2.044-3.3c-1.12-.612.609,1.172-.867,1.165-1-.029-1.571,1.908-2.359,1.622-.729-.478-1,1.358-1.483.877-.4-.041-.58-.267-.441.356-.147.949-1.988.963-1.844,1.786l.177.23c-1.1-.809.045.951-.677.522-2.584,1.1-6.016,5.5-7.378,4.823-.059.937-.619.014-.8.856.429,1.244-.927-.641-.874.214.013,1.434-2.188.837-2.612,2.27.109.707-.493-.358-.884.181-.1.393-.246.143-.391-.108-.51-.256-4.651,2.4-4.037,3.893-.167-.607-1.467-1.823-.909-.5-.127.7-2.9.67-2.79,1.421.235.714-1.911-.386-1.662.487.132.605-.918.468-1.031,1.146-.544.339-.952.336-.379-.138-.364-.288-1.233.183-1.3.583.05,1.421-.375-.889-.9.082-.7,1.5-.1-1.484-1.3.577-2.531,1.917-5.667,1.937-6.623,3.338,1.261-.323.518,1.134-1.373-.418-.266.1-.532.2-.165.37.235.565-.729.316-.866.94.21.642-1.232.332-1.326.49-.113-.219-.477-.853-.567-.723-.076.817-6.628,2.8-7.375,3-1.988.6-8.306,2.978-9.661,3.528-.639-1.837-.941,1.525-1.389.321-.167-1.511-.783.891-1.028-.657-.1-1.148-.871.678-1.045.536-.4-.5-.83.191-1.047.537-.677-.349-2.984.729-6.982,1.373-3.872.917-3.971.444-5.29,1.175-.238.328-.2.614-.281.041-.149-.864-4.78.973-3.95.555-3.164-1.108-6.259,1.263-10.789.823-3.1.092-3.668.084-5.054.515l-.437-.028a1.132,1.132,0,0,0-1.4-.046l-.239,0c-.054-.237-.178-.348-.34-.361,5.05-3.924,11.782-11.032,14.742-14.2-.1.765.616-.284.743-.324-.628-.181,4.729-4.646,3.908-4.655-.443-.848,3.147-.94,2.385-1.531-.425.316-1.405-1.134-.227-.59,1.014.626,2.792-3.843,2.877-2.829,1.211-.106,1.955-2.517,3.465-2.591.761-1.963,3.4-2.256,2.422-4.008,1.721.144,4-3.271,5.263-4.359,1.082.516.859-1.243.9-.885.683.162,1.13-1.287,1.729-1.366.024.12.04.092.052-.01.014,0,.027-.01.041-.008a3.434,3.434,0,0,0,.2-.443c.006.034.012.059.02.1.276.2.256-.428.246-.794.018-.047.036-.093.055-.139.007.022.013.042.022.073.149.45-.04.838.239.876.168.057.224-.15.241-.279,0,.06,0,.143,0,.285.172.278-.027-.276.321.3.463.4.052-1.407.485-1.436-.009.271-.05,2.354.153.914-.011.267,0,.777.247.255.118.11.211-1.909.323-.86-.006,1.141.3-.451.241.3-.156.821,1.012-.083,1.044.608s.617-1.547.484-.857c0,.29.08.292.241.3.558-.142-.071,1.507.321.3.081-.577.322-.281.321.3.051.7.376-.116.643.017.436.262.065-1.376.485-1.146a7.075,7.075,0,0,0,1.042,1.477c.191-.006-.056-1.082.484-.567.921-.622.226,1.131.8.022,0-.29.081-.288.16,0,.39-.67.2-.333.563.015.239-.463,1.007-.046,1.126.029.2-.855.272.845.323-.569-.452-.171.164-.9.079.292.136,1.493.178-1.521.4.01-.072,1.464.45-2.68.484-.276.2,2.27.123-1.149.4.3.234,1.975,1.211-1.142.964.316-.162.575-.162.575,0,.29.473.042.537.036.564-.565-.018-1.5-.025,1.631.4.3.272-.02.2.12.322-.281.131-.589.376,1.151.4.59-.014-.276.454-1.563.323-.571-.078.284.282.968.4.3.311-.57.851.494,1.127-.55.081,0,.161,0,.16.295-.006.71.056-1.341.161,0-.022,1.384.061-.8.241.007.019.749.338-1.486.4-.279.2-.09.271-1.337.242-.284.189,1.25.107-.406.4.011.39.606.431.228.723.019.24.622.378-.236.4-.278-.016.413.25.948.241.3.012-.773.182.1.32.3,0-.58.082-.578.082-.288.114.574.37.019.24.3v.29c.079.292.08,0,.081-.288.116-.02.379.12.241-.283.045-1.289.089-.118.241.3.039,1.181.667-1.382.563.016.049.958.317-1.41.325-1.731.047.433-.092,2.748.319,1.458.161-.286.161-.286.16,0,.078.662.608.124.8.022.08.582.241.3.162-.286,0-.019,0-.029,0-.043.016.039.058.076.158.048-.4.744,1.888.963,1.608.043.081-.578.162-.575.161,0-.058.19.7,1.364.641.6-.141-1.115.232.874.241.3.4-.7.526.181,1.046-.262.554.491.208.563.644-.273.174-1.31.176.109.16.294.1.011.145-.121.166-.275.307.972.9-.526.719.009.394,1.373.653-.646.8.022.08.292.08.292.161,0,.221-.593.29,1.477.481.593.437-.14.56-.8.627-1.179-.033.545,1.081,1.031,1.063.645v-.29c.395,1.32,1.293-.626,1.044.318.305,1.014,1.7-1.095,1.607.333.17.063-.066-1.307.323-.571.281.665.783-.422.8.311.08.293.24.587.4.011.156-.063.1,1.236.24.3.494-.484.83.329.725-.561.116,1.394.142-.781.241.007-.082.475,1.97-.012,1.931-.237.038-.478.44.43.562.594-.017.665-.009-.44.161-.285.131.808.287-1.36.241.006.155.846.163.034.4-.279.08,0,.16,0,.16.294.29.649.7-.96.643-.273.117,1.189,1.751.931,1.771-.821-.049.457.114,2.325.159.874.018-.734.439.756.563.015.08,0,.161,0,.241.3.161.115.011-.983.242-.283.031,1.425,1.024-1.134.8.021,0,.086.242.595.4.011.174-1.351-.045.829.24.3.082-.577.162-.285.161,0-.25,1.068.349-.387.965-.264.356-.163.51.215.567.49.013-.454.1-.472.318-.466.827.586.008-1.368.564-.565.05.037.217,1.909.32.878.211-.436.347-1.069.72-.564a4.472,4.472,0,0,0,.083.876c-.079-1.051,2.62-.136,2.574-.51-.027-.581,1.923.042,1.851-.53.346.265.915-.871.724-.271.046,1.291.242.072.322-.281.166-.066.044.945.079.872.244-.311.216-.585.24.3-.05,1,.191-.1.323-.281.261,1.037.387-1.757.322-.281.177,1.353.166-.744.4.01-.07.292,2.69.135,2.814-.213.23,0,.135,1.079.322.008.081-.287.082-.577.08,0,.1.992,1.5-.469,1.126.03-.1,1.346.7-.15.722.6.736-.68,2.2-.156,3.082-.117C121.181,128.233,120.885,128.48,120.718,128.356Zm-57.98-.474c0-.29.162-.575.243-.573C63.082,127.244,63.047,127.98,62.738,127.882Zm3.944-1.633c.14-.718.228.005.079.292Zm.238,1.456.162-.576C67.269,125.318,67.462,127.751,66.92,127.705Zm2.014-1.975c.373-.774-.093.93-.082.867C68.772,126.6,68.853,126.308,68.934,125.73Zm.559,1.754c.031-.343.025-.629.162-.575C69.636,127.252,69.7,127.536,69.493,127.484Zm1.769.338c.063-.1-.119.72-.162.285C71.02,128.1,71.181,127.819,71.262,127.822Zm.484-1.147c-.04-.713.307-1.078.161.005Zm.725-.56c.125-.081.281.206.08.292Zm1.365,1.2c.046-.751.41.068.16.294C73.916,127.6,73.836,127.311,73.836,127.311Zm1.608-.246c.126.155.139.6-.081.287C75.284,127.06,75.284,127.06,75.444,127.065Zm1.288-.545c-.029-.758.3.628.079.582A2.509,2.509,0,0,1,76.732,126.52Zm.562.305c.2-.845.2.382.08.291Zm5.225.72c.2-.844.2.382.08.292Zm2.011-.526c.2-.064,0,.95,0,.87C84.448,127.887,84.53,127.309,84.53,127.019Zm1.29-1.414c.03-.343.025-.629.162-.575C85.963,125.373,86.028,125.656,85.82,125.605Zm1.042,1.477c.2-.844.2.382.08.292Zm1.032.246c.032-.183.053-.3.094-.216A.432.432,0,0,0,87.894,127.328Zm4.677-.382c.3-.1.148.714-.081.577C92.41,127.232,92.491,126.944,92.571,126.946Zm3.216.376c.03-.343.025-.628.162-.575C95.93,127.09,96,127.374,95.787,127.322Zm6.758-1.846c.048-.76.3.091.08.292Zm.965-.264c.2-.845.2.382.08.291Zm.64,1.756c.172-.666.233.394.08.292C104.069,127.256,104.069,127.256,104.15,126.968Zm.563.015c.124-.082.281.206.08.292Zm.8.022c.124-.082.281.2.08.292Zm.805-.558c.165-.065.16.25.16.294C106.462,127.23,106.326,126.971,106.322,126.447Zm3.377.091c.029-.173-.08,1-.162.575C109.486,126.966,109.7,126.115,109.7,126.538Zm2.656-1.088c.2-.043.015.959-.083.867C112.192,126.315,112.193,125.735,112.355,125.45Zm20.286-7.823c-.472-.313-.405-.685.134-.634C132.871,117.119,132.717,117.67,132.641,117.627Zm3.7-1.852c-.415-.256-.4-.524-.1-.811A.523.523,0,0,1,136.336,115.775Zm.785-5.886c.167-.23.471.337.706.507C137.579,110.978,137.072,109.962,137.121,109.889Zm4.171-5.1c-.519-.26-.464-.626.072-.632C141.475,104.276,141.372,104.827,141.292,104.792Zm9.479-16.017c-.542-.188-.553-.561-.02-.643C150.875,88.232,150.855,88.8,150.771,88.775Zm.442-2.319a1.032,1.032,0,0,1,.649-.021C152.553,86.7,150.791,87.14,151.213,86.456Zm1.557-4.3c-.267-.112.112-.262.225-.525C153.7,81.165,153.053,82.392,152.77,82.152Zm1.915-4.764c-.489-.1.17-.847.312-.8C155.444,76.842,154.988,77.518,154.685,77.388Zm2.663-10.219c.027-.354.43.965-.178.539C157.259,67.438,157.072,67.081,157.348,67.169Zm-.072,5.688c-.076-.043.31-.461.468-.445C157.622,72.657,157.648,73.069,157.276,72.857Zm.736-3.076c.275.091.55.182.461.454C158.733,70.985,157.46,70.42,158.012,69.781Zm1.93-7.183c-.475-.082-.577-.327-.406-.709C160,62.042,160.046,62.47,159.942,62.6Zm1.04-2.677c.076-.275.279.075.762.505C162.127,61.8,160.974,59.988,160.982,59.921Zm1.148-5.607c-.484.1-.861-.918-.587-1.311C161.424,53.228,163.41,54.879,162.13,54.314Zm1.169-1.192c-.27,0-.756-.463-.154-.625C163.428,52.562,163.364,52.842,163.3,53.122Zm-.126-10.8c-.193.2-1.266,2.349-.7,2.175.869-.135-.611,2.645.013,2.894-.287.491-1.411.018-.572,1.33.283.06.225.339-.116.555-.147.391.7.9-.026,1.447-.734.279-.54,3.983-1.325,4.353-.186-.1.374.377.143.62-.992.174.335,1.132.282.071.594.409.42.567.071.66a.818.818,0,0,0-.171-.023c-.205-.012-.24.036-.2.1-.5.086-.988.159-.332.571,1.31,1.188-1.48.369-.279,1.1,2,2.018-.5.983-1.088,1.762,2.153,1.078-1.627,1.057-.565,3.079.451,3.423-.836-.4-.606,1-.164.542-.327,1.084-.409,1.355-.23.366.367.68.638.8-.059-.02-.135-.046-.248-.082-1.108.012-.621,1.2-.878,1.8.468,1.876-1.632.877-.339,2.877.25.751-1.789-.344-1.105,1.421.381.443-.666,1.815-.864,2.4a5.252,5.252,0,0,0,.062,1.537c.034.595-1.023.305-.479.426,1.185,1.123-1.467-.141-.311.793.167.368.166.369-.207.528-.662-.029.96,1.628-.25,1.428-.359.168.954,1.544-.043.9-1.35.057.254.8-.542,1.317-1.15,1.313-1.054,2.148-1.457,3.4.449.82-.413,0-.608.664-.121.257-.121.257.144.376.706-.119-.205.992-.625.654-.285.175.671.841.023.636-.829.227-.278,1.079-.886.529-.529.314.49.211-.1.895-.5.653.775.249.544.892.322.409-.511-.507-.643.007-.651.21-1.061.006-.888,1.149.306,1.484-1.794.362.647,2.564-2.393-1.343-1.385.112-2.065.863-.6-.031-2.312,3.681-1.385,3.138-.723.888-.738-.231-2.192,2.682-2.28,2.628.054,3.2-1.274,3.222.094-.517-2.522,1.533-1.716,1.607,1.2.166-1.248.246-.713.551.087.4-.616,1.98-1.095,1.654-.236,1.438-1.3,1.814-1.79,2.55-.272.781.818,2.5-.6,1.319-.347.223-.178.517,0,.7l-.1-.069c-.871.016-1.665,2.221-1.544,2.043-1.479.224-1.4,2.095-2.126,2.672-1.157.783-1.544.583-2.247,2.193-.479.981.344.742.309,1.406-.161.624-.378.432-.189.216.425-2.05-5.607,4.138-5.309,4.815-.208-.375-.564-.235-.983.143-.521-.565-.372.943-.732.17-.971-.567-2.728-1.065-3.859-.394-.362-.343-.5-.249-.8-.021a.25.25,0,1,0-.482-.013c-.961-.077-.973-.754-1.288.545.078-1.3.026-.57-1.2-.612-1.284-.32-.708.835-1.287.255-.7-1.286-.476-.783-.482-.013,0,.58-.082.577-.161,0-.426-1.362-1.632,1.23-1.286-.035-.151-.95-1.038.579-1.126-.32-.123-.783-.775.645-.883-.314-.659.181-.744.592-.807,1.138.272-.945-1.078-.293-1.2-.9,0-.075-.235.971-.242.283-.139-.478-.471-.021-.723-.019-.08-.582-.321-.588-.4-.011v.035c-.01-.176-.048-.41-.16-.329-.161.285-.483.277-.482-.013a2.275,2.275,0,0,0-.725.85c-.131-.1.441-1.483-.241-.3-.548,1.347.241-.79-.08-.291-.2.4-.476.137-.724-.02-.081.288-.081.288-.16,0-.037-.855-.076,1.141-.323.281-.027-1.066-.067-.013-.241-.007,0-.289-.723-.309-1.446-.328-.256-.07-.075,1.593-.243.573-.078-.872-.239-.876-.161,0,.175,1.367-.105-.769-.241-.006,0,.29-.081.288-.08,0-.193-.822-.1.1-.321-.589-.08-.291-.161,0-.242.284-.566,1.485.085-1.647-.643.272-.082.578-.082.578-.081.288s-.08-.292-.08-.292c-.255.063-.031-.652-.4-.011-.348,1.126-.338-.879-.643-.017-.2,1.582-.154-.445-.161,0-.288,1-.353-.465-.481-.593-.118,1.877.055-.02-1.126-.03,0,0-.161-.005-.242.283-.364.183-.159-.933-.321-.3-.186,1.009-1.218-.214-.966.554.181.346-.334-.307-.643-.307-.406-.152-.345.447-.31.654-.014-.065-.041-.179-.092-.375-.3-1.062-.157-.03-.4-.011.02-.655-.373.465-.321-.3l-.161,0c-.162.576-.644.273-.724-.019-.156.137-.36,1.282-.322.281.216-1.36-.588,1.454-.48-.882-.079.6-1.265,1.191-1.61.536-.176-.168-.522.942-.563.275-.21.028-.3.375-.322.281.395-.262-2.931-.336-3.458-.093-.6-.5-.623-.216-1.126.26,0-.58-.24-.587-.4-.3-.082.577-.162.575-.161,0,.008-1.195-.336.886-.483.277-.183-1.433-.225,1.057-.4-.3-.159-.584-.159-.584-.241-.007-.171,1.015-.6-.166-.723-.309.143.638-2.353-.595-2.252.229.08.582-.081.577-.16,0-.242-.259-.623-.3-.8-.6-.344,1.09-.911-.212-1.288.545-.211.739-.447-1.135-.724-.019-.269-1.1-.233,1.517-.4-.3,0-.579-.079-.582-.08-.292-.162.9-.381-.314-.4.859-.108.672-.244-.023-.079-.292-.077.075-.436-.148-.4-.591-.509,2.372-.21-1.68-1.21,1.707.01-.592-.306,0-.16-.294,0-.29.081-.288.161-.286.014-.23-.095-1.373-.24-.3-.245.679-.39-1.677-.965-.026-.573.734-.113,1.847-.965-.026-.139-.508-.062.965-.082.867-.156.023-.236-2.195-.24-.876.006,1.056-.639-.331-.723-.019-.21.762-.988-1.274-.8-.022,0,.29,0,.58-.081,0-.625-.392-.279,3.363-.726,1.14.072-.414.343-.682,0-.87-.126-.414-.158-.2-.163-.006-1.5-1.289-.987.153-1.2-.03-.512-1.125-1.582-.335-2.331-.353-.326-.807-.409.769-.4.279-.054-.635-1.053-.128-.724-.019-.322.281-.322-.009-.321-.3.116-1.562-.287,1.457-.4.569.01-.156.359-1.343,0-.58-.189-.2-.138,1.292-.244,1.443-.312-.608.03-.746,0-1.449-.118-.711-.679,2.043-.484.566-.622-1-.645.688-.565,1.144-.233-1.333-1.5-2.026-2.007-1.5-.379.411-.434-1.344-.322.282.039.463.156.639.481.592-.452.138-.607,1.9-.564.565.239-.3-.1-2.168-.239-1.166-.233,0-.133-1.079-.322-.009-.068.864-.194.2-.359-.233a.783.783,0,0,1,.495-.239c-.024-.384-.024-.384.359-.354.576.383-.55-1.121.516-.914.752-.067,1.456-1.3,3.98-3.5.564-.418-.837-1.276.132-.943,2.227.743-1.177-.968.539-.53.782.276-.072-.914.54-.531,1.008.168.173-.294,1.127-.294.683.124.185-2.6.875-1.267.844,1.012.537-2.012.672-1.473a.26.26,0,0,0,.383.029c1.027-.05.709-2.243,2.182-1.738.224.059-.248-1.965.312-1.119.2.206.407.412.2.206-.228-1.176,1.122-.577,1.486-.648-1.428-1.519,1.363-.567,1.978-1.945.068-.978.826-.158.875-1.267.505-.867,1,.209.923-.5,0-.895.756-1.517,1.595-1.974,1.231-.975-.769-.217.336-.737.248-.212,2.474-1.482,1.978-1.945-.587-.235-.407-.412.18-.176,1.389.145.39-.467.9-.884.843.092,1.676-2.405,2.9-2.445.311-.074-.255-1.8.516-.913.573.676.073-2.384,1.689-.442,2.971-5.915,10.241-10.464,14.471-15.851-.04-1.176,1.216-.118,1.439-1.414-.51-1.48,1.46,1.022.875-1.267-.314-.844,1.424.194.923-.5-.659-1.39,1.823.252,1.079-1.061-.433-1.2,1.4-.877,1.439-1.414.991-.331,1.087-1.179,3.261-2.8,3.591-3.816.764-1.892,4.519-4.037.312-1.34,2.34-2.832,3.008-3.772.829.247.982-1.146,1.464-1.03.383.029.359-.354.156-.56-1.052-1.151,1.426.553.947-.118-.3-.942,1.06-.61.288-1.5-.2-.207-.024-.383.156-.56.526.3-.224,1.1.587.236.229-.429,2.066.159.923-.5-.932-1.113.658-.666,1.079-1.06,1.305-1.627-.881-2.425.983-2.593-.2-.207.18-.177,0,0,.383.4-.475.4.047.765,1.27.587-.019-1.054.9-.883,1.992-.084,1.6-1.856,2.087-3.271.273-.885.962-.03,1.869-.619.707-.042-1.474-1.606.54-.53,1.272.55-.813-.625.516-.913,1.456-.756.822-.865,2.181-1.738,1.307-.471,1.307-.471.9-.884.044-.4,1.534-.732.06-2.092-1.077-.683,1.435-.958.947-.117-.716.643,1.425.352.947-.118.429-.138,3.06-1.762,2.7-2.651.588.235,3.13-1.857,2.9-2.446,1.129-.942,3.281-2.579,3.214-3.565-.17.6,2.582-1.813,1.618-1.59q-.54.53,0,0c.515-.913.719-.707.923-.5.79,1.3-.349-1.867.492-1.3-.111.455.281,1.556.407.413-.03.063.488-1.193-.455-1.179-.383-.029-.2-.206-.024-.383,1.128-.255.449.583,1.018,1.032.2.206.7-1.091.468-1.68.82.838,2.258-1.306.648-1.856,2.754.244,4.695-2.444,6.053-3.918,1.46,0-.682-.74-1.34-.051a2.563,2.563,0,0,0,.275-1.747c.2.629,1.97,2.159,1.762.707,1.973.019-.409-1.536,1.258-1.237,2.034.031.5-1.594,1.8-1.767.824.206.283-.984.539-.531.2.207.588.236.564-.147.063-.208-.358-.257-.251-.972.37-.284-.348.33-.587-.236-.515-.556,2.236-.5,2.457-.383-1.249-1.22,1.076.105.515-.913-.991-.973,1.195.373.516-.913-1.143-.97,1.525.658.743-.325-.407-.412-.228-.589.156-.559.28.426.686-.98,1.1-.963-.122.141-.128.3.114.479-.021.036-.042.073-.064.109h-.054c-.091.145-.793,1.826.532,1.09a.873.873,0,0,0,.133.128c-.27.143-.795.329-.932.579a.032.032,0,0,0-.019.041.233.233,0,0,0,.016.2c-.34.734.785,1-.065.848-.223.5.214.128-.377,1.107-.34.538.161,1.436.815.639v-.006l-.026.289c.03.041.067.086.1.131a5.641,5.641,0,0,1,.014.737c-.063,0-.114-.006-.2-.018-.84-.362-1.18.173-.34.538-1.587-.141.273,1.394.691,1.785-.026.118-.155.189-.3.25-.3-.1-.267-.058-.119.047-.351.133-.687.258.015.806l-.288-.032c-.7,1.095-1.4,4.024-.385,5.4q.432.06,0,0c-.543-.216-.291,2.012-.812,1.607-.531-.364-.531-.364-.043.281.685,1.112-1.371,1.066-.809,3.317C163.422,40.739,165.815,39.577,163.173,42.321Zm2.8-18.657Zm-1.84,14.788c.286.046.477.654.429.935C164.3,40.112,163.92,38.617,164.132,38.452Zm.615,6.481c.423-.521.593-.427.764-.218a2.127,2.127,0,0,0,.289.686C165.39,45.178,164.607,45.38,164.747,44.933Zm.652,1.182a1.936,1.936,0,0,0,.159.734l0,0C165.049,45.971,165.148,45.942,165.4,46.115Zm.683,1.219s.008,0,.013,0l.075,0c-.018,0-.047.008-.081.015Zm0,.713c0-.179.288.179.286.358C166.346,48.538,165.665,48.079,166.086,48.047Zm.05-4.1a.924.924,0,0,0-.089.031,1.756,1.756,0,0,0-.319-.53C166.183,43.521,167.052,43.565,166.136,43.946Zm.452,10.522c0-.178.294-.355.294-.355C167.626,54.2,166.845,55.027,166.588,54.468Zm.249,3.389c-.29,0,0-.178,0-.357C167.326,57.077,167.151,57.969,166.837,57.857Zm.229,4.994c.29,0,0,.178,0,0Zm.588-.711c-.529.031-.771-.149-.285-.358C167.481,61.8,167.743,62.073,167.654,62.14Zm-.562-1.429a1.3,1.3,0,0,1,.582-.176C168.436,60.505,166.981,61.209,167.092,60.711Zm.692-9.269c-.087-.069.182-.337.294-.355C168.053,51.321,168.181,51.479,167.784,51.442Zm-.619,74.886a1.3,1.3,0,0,1,.582-.176A.3.3,0,0,1,167.165,126.328Zm-.517-52.959c.113.019.374.29.286.358C166.405,73.758,166.163,73.578,166.648,73.369Zm-.344,4.456c0-.178.58,0,.87,0C167.286,78.235,166.261,77.851,166.3,77.825ZM167.111,83c.113.02.374.291.285.359C166.867,83.388,166.626,83.208,167.111,83Zm-.441,12.48c.292-.177.579,0,.577.181C167.317,96.373,166.509,95.923,166.67,95.479Zm.2,7.311c.419.034.644.172.575.36C167.032,103.154,166.805,103.135,166.871,102.79Zm.354,18.546c.644.342-.379.537-.292.177C166.938,121.156,166.938,121.156,167.225,121.336Zm-.309,1.6c-.087-.069.182-.338.294-.355C167.185,122.818,167.313,122.976,166.916,122.939Zm.273,1.428c-.026.234.1.392-.294.355C166.808,124.653,167.077,124.384,167.189,124.367Zm-.109,8.915c.225-.1.982.37.576.359C167.809,133.713,166.605,133.413,167.08,133.282Zm1.073,31.03c.29,0,.58,0,.577.181C169.91,165.231,166.642,164.106,168.153,164.312Zm-.277-24.964c0-.179.582-.176.868.182C168.8,139.935,167.8,139.6,167.876,139.348Zm1.391-19.073c-.529.031-.771-.149-.285-.357C169.094,119.937,169.356,120.208,169.267,120.275Zm-.549-2.5c.444.055.386.417,0,.356C168.4,118.147,168.382,117.89,168.718,117.777Zm.445-36.729c-.414,0-.641-.015-.575-.36C169.007,80.722,169.233,80.86,169.163,81.048Z" style="fill: #fff"></path><path d="M168.924,53.052a1.3,1.3,0,0,0-.582.176A.3.3,0,0,0,168.924,53.052Z" style="fill: #fff"></path><path d="M166.614,124.008c0,.178.286.179,0,0Z" style="fill: #fff"></path><polygon points="166.614 124.008 166.613 124.008 166.613 124.008 166.613 124.008 166.614 124.008" style="fill: #fff"></polygon><path d="M133.015,169.262v.018C133.013,169.769,133.014,169.511,133.015,169.262Z" style="fill: #fff"></path><path d="M133.017,168.99c0-.048,0,.11,0,.272C133.017,168.979,133.018,168.707,133.017,168.99Z" style="fill: #fff"></path><path d="M126.955,168.917a1.3,1.3,0,0,0-.176-.582A.3.3,0,0,0,126.955,168.917Z" style="fill: #fff"></path><path d="M159.584,169.023c-.037.4.122.269.355.294C159.922,169.205,159.653,168.936,159.584,169.023Z" style="fill: #fff"></path><path d="M123.423,161.338a1.273,1.273,0,0,0,.181-.577C123.646,160.012,122.922,161.43,123.423,161.338Z" style="fill: #fff"></path><path d="M149.435,166c0-.289-.177-.291-.534-.3C147.85,166.07,149.539,166.859,149.435,166Z" style="fill: #fff"></path><path d="M74.9,165.966Z" style="fill: #fff"></path><path d="M163,162.978c-.345-.066-.364.161-.359.575C162.828,163.622,162.966,163.4,163,162.978Z" style="fill: #fff"></path><path d="M57.776,165.85a.508.508,0,0,0,.01-.092C57.7,165.631,57.7,165.712,57.776,165.85Z" style="fill: #fff"></path><path d="M47,11.01c0,.182,0,.125,0-.006Z" style="fill: #fff"></path><path d="M47,10.515Z" style="fill: #fff"></path><path d="M105.119,14.184c0,.042,0,.03,0,0Z" style="fill: #fff"></path><path d="M109.937,10.908l0,0C109.941,10.835,109.939,10.85,109.937,10.908Z" style="fill: #fff"></path><path d="M122.253,14.017a.652.652,0,0,0-.025.225A.167.167,0,0,0,122.253,14.017Z" style="fill: #fff"></path><path d="M56.456,9.1c-.356-.005-.356-.005-.179.287C56.733,9.5,56.736,9.08,56.456,9.1Z" style="fill: #fff"></path><path d="M20.43,10.977c.037-.4-.122-.269-.355-.294C20.092,10.8,20.361,11.064,20.43,10.977Z" style="fill: #fff"></path><path d="M53.059,11.083a1.3,1.3,0,0,0,.176.582A.3.3,0,0,0,53.059,11.083Z" style="fill: #fff"></path><path d="M47,10.72,47,11l0-.489Z" style="fill: #fff"></path><path d="M31.471,14.009c-.056-.468-1-.572-.892-.011C30.507,14.467,31.411,14.308,31.471,14.009Z" style="fill: #fff"></path><path d="M17.014,17.022c.345.066.364-.161.36-.575C17.186,16.378,17.048,16.6,17.014,17.022Z" style="fill: #fff"></path><path d="M161.907,22.746c.247.341.357.014.564-.147C162.348,22.516,161.868,22.663,161.907,22.746Z" style="fill: #fff"></path><polygon points="56.614 124.622 56.614 124.622 56.614 124.622 56.614 124.622 56.614 124.622" style="fill: #fff"></polygon><path d="M135.52,49.5l-.025-.026C135.674,49.652,135.872,49.853,135.52,49.5Z" style="fill: #fff"></path><path d="M57.95,122.418a.6.6,0,0,0-.148-.183A.273.273,0,0,0,57.95,122.418Z" style="fill: #fff"></path><path d="M135.322,49.3l0-.005Z" style="fill: #fff"></path><path d="M127.211,60.1c.36-.354.36-.354-.024-.383C126.705,60.032,126.877,60.41,127.211,60.1Z" style="fill: #fff"></path><path d="M129.2,55.3a1.066,1.066,0,0,0-.587-.235C128.351,55.553,128.969,55.693,129.2,55.3Z" style="fill: #fff"></path><path d="M135.334,49.307l-.012-.012Z" style="fill: #fff"></path><path d="M135.334,49.307l.161.164Z" style="fill: #fff"></path><path d="M75.065,105.266Z" style="fill: #fff"></path><path d="M56.614,124.622c-.18.177.023.382,0,0Z" style="fill: #fff"></path><path d="M161.1,15.822c.169-.072.265-.416-.047-.766C160.72,15.29,160.745,15.52,161.1,15.822Z" style="fill: #fff"></path><path d="M125.8,54.361l.113.114h0Z" style="fill: #fff"></path><path d="M148.878,31.083c-.787,1.3,1.441.193.743-.324C149.418,30.553,149.238,30.73,148.878,31.083Z" style="fill: #fff"></path><path d="M125.8,54.361Z" style="fill: #fff"></path><path d="M89.348,87.643l.292-.072C89.543,87.387,89.27,87.53,89.348,87.643Z" style="fill: #fff"></path><path d="M93.027,84.646c.055.013.045.009,0,0Z" style="fill: #fff"></path><path d="M92.792,46.133c.041,0,.065.006.114.006C93.2,46.108,93.029,46.089,92.792,46.133Z" style="fill: #fff"></path><path d="M89.1,76.7h0Z" style="fill: #fff"></path><path d="M90.042,74.1c-.038,0-.356-.011-.294.144C90.269,74.238,90.533,74.116,90.042,74.1Z" style="fill: #fff"></path><path d="M89.142,76.7h.243C90.122,76.705,89.682,76.7,89.142,76.7Z" style="fill: #fff"></path><path d="M92.663,83.375c.521.011.247-.366.011-.362C92.174,83.077,92.117,83.416,92.663,83.375Z" style="fill: #fff"></path><path d="M92.777,79.462h0C92.8,79.432,92.793,79.44,92.777,79.462Z" style="fill: #fff"></path><path d="M87.761,72.861c0,.145,0,.145.287.073C88.133,72.667,87.655,72.819,87.761,72.861Z" style="fill: #fff"></path><path d="M104.554,128.323c0,.038,0,.059,0,.1C104.584,128.705,104.6,128.547,104.554,128.323Z" style="fill: #fff"></path><path d="M63.22,128.185c-.018.507.4.265.4.011C63.562,127.705,63.172,127.634,63.22,128.185Z" style="fill: #fff"></path><path d="M74.95,132.848a2.476,2.476,0,0,0-.082.577C74.84,134.194,75.169,132.8,74.95,132.848Z" style="fill: #fff"></path><path d="M73.357,125.27c0,.525.14.782.161.294C73.517,125.519,73.523,125.205,73.357,125.27Z" style="fill: #fff"></path><path d="M67.562,128.3v0C67.592,128.32,67.584,128.314,67.562,128.3Z" style="fill: #fff"></path><path d="M70.624,125.2c0,.124,0-1.095,0-.29C70.624,125.2,70.623,125.486,70.624,125.2Z" style="fill: #fff"></path><path d="M57.1,131.208c.208.052.143-.232.162-.575C57.128,130.579,57.133,130.865,57.1,131.208Z" style="fill: #fff"></path><path d="M74.889,123.282c-.16,0-.16,0-.081.288C75.094,123.653,74.944,123.2,74.889,123.282Z" style="fill: #fff"></path><path d="M157.243,81.181l-.213.543C157.429,82.05,157.828,80.679,157.243,81.181Z" style="fill: #fff"></path><path d="M156.849,75.754c-.05.648.6.412.641-.071A1.011,1.011,0,0,0,156.849,75.754Z" style="fill: #fff"></path><path d="M160.618,66.391c-.118-.036,1.046.322.277.086Z" style="fill: #fff"></path><path d="M163.562,40.084c-.429-.2-.526,1.239-.237,1.4C163.8,41.489,164.135,40.02,163.562,40.084Z" style="fill: #fff"></path><path d="M100.906,146.537Z" style="fill: #fff"></path><path d="M100.906,146.537l-.025-.044h0Z" style="fill: #fff"></path></g></svg>