<svg xmlns="http://www.w3.org/2000/svg" id="Layer_1" data-name="Layer 1" width="180" height="180" viewBox="0 0 180 180"><g><path d="M167.335,56.967a.633.633,0,0,0,.227.027A.173.173,0,0,0,167.335,56.967Z" style="fill: #fff"></path><path d="M163.776,134.055h0Z" style="fill: #fff"></path><path d="M162.416,124.368c0,.365,0,.365.287.184C162.822,124.089,162.4,124.079,162.416,124.368Z" style="fill: #fff"></path><path d="M164.3,161.272c-.4-.039-.269.128-.294.364C164.117,161.618,164.384,161.339,164.3,161.272Z" style="fill: #fff"></path><path d="M163.914,120.174h0C163.916,120.09,163.916,120.076,163.914,120.174Z" style="fill: #fff"></path><path d="M169.766,164.4c-.069.187.154.335.576.368C170.408,164.422,170.184,164.4,169.766,164.4Z" style="fill: #fff"></path><path d="M164.985,127.668a.305.305,0,0,0-.582.18A1.283,1.283,0,0,0,164.985,127.668Z" style="fill: #fff"></path><path d="M167.214,12.974c-.178-.381-.76-.543-1.38-.528-.187-.187-.335-.233-.345.026-.084.011-.168.022-.25.039a1.034,1.034,0,0,1-.115-.24c-.147-.373-.165-.019-.208.326a2.079,2.079,0,0,0-.409.189c-.035-.065-.073-.141-.115-.234-.951-.455-.263,1.514-.735.861a1.2,1.2,0,0,1-.179-.582c-.323-1.035-1.159.64-.912-.3-.116-.075-1.928-.822-1.1.566l-.183,0c-.325.161-.077.685-.55.573-.049-.366.191-2.38-.361-.874V12.5c-.5-1.185-1.1,2.08-1.283.855-.129-1.292-.614.525-.546-.3.293-.809-2.449.059-2.372-.608,0-.289-.732.282-1.1.857,0,.04.006.055.008.08-.036-.168-.168-.524-.554-.376-.548-.007-.548-.007-.547-.3.47-1.341-.736,1.5-.912-.3.029-.476-2.329-.164-2.011.555,0,.58-.186.578-.551.574a11.583,11.583,0,0,0-2.368-1.477c-.419.112.056,1.069-1.1.566-1.675.619-.787-1.175-1.827-.022,0,.29-.183.288-.365,0-.3-.056-.452.883-.914.279-.139-.645-2.569.319-2.921-.325.068-.312-.166.475-.367.286-.184-.918-.729.5,0,.29-.328,1.626-.649-1.787-.912-.3q-.278.867-.548-.006c.158-1.265-1.17,2.6-1.1.276.037-.954-.617-1.216-.547-.295.186,1.292-1.139-1.826-1.825-.312-2.142,1.193.551-.776-1.642-.309-.252-.056-.34.4-.368.716v-.141c-.425-1.673-1.677.848-2.19-.316-.283-1.35-1.135,1.71-1.1.277,0-.29,0-.29-.362-.584-.727.3-1.194.688-2.193.263-.392,0-1.091,1.033-1.28.276-.028-.707-.07,1.328-.365,0,0-.579,0-.579-.183,0-.184.288-.184.288-.365,0-.12-.733-.688,1.531-.915.279-.306-.155-.662,1.51-.549.283-.384-1.247-.363.487-.913-.011-.868-.662-1.071-.16-1.644-.019-.451-.53-.807.058-.915.279-.318-1.27-.426-.105-.73-.009-.82-1.259-.44.262-.73-.3a.542.542,0,0,0-.546-.3c-.133.442.044-.384,0-.289-.181-.292-.182,0-.184.287-.043.048-.909-.176-.549.283.134.434-.425.861-.185.578.137-.562-.369-.541-.362-.874,0-1.291-1.44,1.373-1.278-.015-.1-.968-.707,1.341-.739,1.73.025-2.2-.1-1.55-1.089-1.461.025-.571-2.835-.262-2.193.263.02.224.035-.079-.365,0,.779-.875-4.3-.845-3.653-.044-.185.578-.368.576-.365,0-.082-.83-.2.1-.728-.588-.545-.586-.729-.3-.73-.009.326,1.109-.549-.9-.547-.3-.607.655-1.093.093-1.644-.02-.719,1.02-1.2-.5-1.643-.019-1.63,2.462-.436-.679-1.282.564.032,1.13.118-.646-.729-.3-.6-.278-1.072.7-.914.279-.6-1.274-1.483.453-1.827-.021-.286-.6-.51.683-.912-.3-.467-1.068-2.128.492-2.014,1.135-.367.286-.366,0-.183,0,.912-.865-2.212-1.262-2.187-.9.485.913-1.832-1.026-2.376.263.154-1.469-3.6.619-3.649-.624-.245,1.545-1.15-.222-2.2.554-.962-1.207-1.253.06-1.458-.6-.181-.293-.18-.583-.365-.005-.658.5-1.913-.347-1.647.56-.2-1.249-.359.721-.548-.006-.458-.681-4.956.347-4.75.233-.267-.567-.839,0-.91-.59.046-.613-.052.5-.367.285-.241-.9-.648,1.327-.548-.007-.285-1.214-.839,1.075-1.278-.015-1.03-.466-1.071.736-1.826-.022-.139-.762-3.443-.72-3.659,1.117.089-.52-.257-2.324-.361-.874-.15.26-1.493-.132-1.825-.311-.312-.112-.071.974-.549.283-.573-1.211-1.12.49-2.011.265.133-.43-.058-.941-.729-.3-.39,1.378.067-.928-.547-.3-.185.577-.366.285-.365,0,.611-.938-2.974,1.111-3.47-.042,0-.075-.008-.115-.012-.172-.047.94-1.579-.112-1.817.73.735-.109.243.867-.184.288-.613-2.252-.569-.489-1.827-.021-.775-.455-.38-.381-.724-1.169-.026.721-4.248.5-5.117.52a32.893,32.893,0,0,0-6.4.793c-.518.713.061-.635-.362-.584-.366,0-.367.286-.368.576-.433,1.059-.233-.84-.545-.586-.156.508-.414.42-.364-.295.072-1.139-.521.342-.732.282-.524-1.127-.885,1.67-.732.281-.2-.306-7.524-.168-8.038.193-.184.289-.185.579-.182,0,.1-.447-2.375-.43-2.375-.028-.508.549,0-1.457-1.46-.307a5.547,5.547,0,0,0-3.289.25c-1.419-.435-6.289-.665-6.94-.082.208-.915-.843-.539-.913-.011-.028-.045-.057-.087-.085-.131-.24-.492-.537-1.1-.7-.816-.068-.5-.1-.95-.3.065-.014.067-.61-.2-.549.283-.349.113-.513.693-.51,1.33-.406.182-.2.258.016.334.01.108.025.213.045.318a2.415,2.415,0,0,1-.254.108c-.292.181-.292.181.287.184h.036a2.171,2.171,0,0,0,.183.462c-.238.311-.544.659.348.636,1.389.053-.9.306-.588.727-.23.594.882.582-.007.548-.078.123-.8,1.885.532,1.118.1.149,1.275.949.026.711-.833-.179-1.126.149-.379.34-.255.008-.723.108-.211.571-.042.341,1.141.275,1.153.553-.066.316-1.443.21-.3.73-1.285-.534-.15,2.279-.9,2.37-.65-.034,1.336,1.377.856,1.1-.579-.086-.019,1.3-.593,1.093-1.341-.466,1.5.733-.3.912-.29,0-.292.181-.3.546.293,2.346,2.469.98.837,2.744-.1.223-1.27,1.854-.6,1.824.827-.2-.122,1.706.558,1.829,0,.182,0,.182-.292.181-1.395.169.724.723-.013,1.1-.056.29.884.46.279.914-.644.149.319,2.562-.325,2.921-.289,0,0,0,0,0,.841.412-.81.661.571.733-.073-.919,1.079.233-.292.182-1.441.288,1.507.451-.011.913-1.265-.156,2.6,1.169.276,1.1-2.461.552,1.163.215-.3.912-1.89.454,1.134,2.856-.317,2.191-.78-.947-.356,1.461.275,1.279.484-.006-1.429-.109-.019,1.644.143.979-1.533.4.272,1.462-1.964.959.228.688-.612,2.737.5.615.526,1.408.274,1.28,1.519.431-1.466.233-.006.548.742.284-.722.424-.006.548.577.185.86.735.281.732-.155.3,1.51.664.283.549-1.248.38.488.366-.011.913-.294.364-.6,1.459-.015,1.279.112.1-.493,1.067-.013,1.1l.288.185c-1.643.316,1.09.736-.593,1.093,1.01.765-.1-.016-.011.913.442.13-.384-.042-.289,0-.392.343.505-.068.283.549-.153.512.866-.055.865.369.151.026-2.018.256-.882,1.092,1,.711-1.482.718,1.723,1.287-2.194.028-1.578.042-1.461,1.089-.563-.1-.266,2.888.263,2.193.224-.035-.079-.025,0,.365-.875-.778-.845,4.3-.044,3.653.578.185.576.368,0,.365-.073-.265-1.417,1.642-.6,1.458,1.109-.327-.9.55-.3.547.288.184.564,1.281-.015,1.279.843,1.356-.787,1.638.549,2.559,1.22.32.047.425-.294.364-.091.232.117.329.332.365l-.047,0c-.834.414.168,1.9-.019,1.643-1.274.6.453,1.487-.021,1.827-.6.292.683.506-.3.912-1.067.47.493,2.126,1.136,2.014.338.767-.269-.436-.582.18-.633.757-.443,2.628-.026,2.192-1.152.426.343,2.792-.317,2.373-.92.831.875,3.351-.334,3.651.071.4,1.3-.105.571.734-.661.492.407,1.649-.311,1.825-.865.213.405,1.094-.3,1.094-.292.181-.582.18,0,.365.5.659-.346,1.912.56,1.647-1.249.2.721.36-.006.548-.293.181-.295.364-.295.364.247,1.185.54,4.615.232,4.932.223.41-.9.389-.295.364.288.184.288.184.286.367-.9.242,1.328.647-.007.548-.861.355,0,.381.279.914-.884.657.147,1.605-.02,1.827-.992.239-1.253,3.652.821,4.022-.522-.1-2.322.263-.874.361.519.173-.741,1.994-.024,2.009.766.092-1.206.917-.3,1.094.388-.1.807,2.024.277,1.1-1.238.529,1.243,1.264-.013,1.1-.29,0-.582.18-.294.364,1.087.805-1.393-.357-.011.912.329.7.284,2.685-.1,2.949.745.162-.186,1.574.621,1.8-.108-.732.867-.246.288.184-.048.327-1.187.042-1.166.543,0,.182,0,.365.288.184.6-.036.025.473.571.733.67.011-.111.787-.012.906-.25.021-.965.1-.87.186,1.3,2.786,0,8.391,1.313,11.513.287.184.285.366,0,.182-1.379.087.017.568.281.732.082.458-1.12-.1-.873.362,1.325.539-1.816.194-.3.729.543.7-.461.522.567,1.1-.357-.417-.222,5.417.2,7.307.1.442-1.111.337-.008.731.288.184.578.185,0,.182-.448-.1-.43,2.377-.028,2.375.546.5-1.455.01-.307,1.46-.4.543.07,2.92.248,3.471-.583.019-.08,4.67-.635,4.746-.072.263,1.267.683.568.916a.563.563,0,0,0-.013,1.1c-.905-.211-.548.845-.011.913-.046.029-.089.058-.133.087-.437.212-.959.469-.879.641-.245.008-.455.039-.447.178.043.348.746-.08.573.551-.031.2.746.166.573.551-.29,0,0,.182.29,0,.587-.031.479.172.844.2.156.143.28.179.3-.01h.009c.106,0,.194,0,.284-.006a.951.951,0,0,1,.073.153c.125.319.157.1.19-.179a1.15,1.15,0,0,0,.5-.179c.013.027.024.046.038.077.951.455.263-1.515.735-.861a1.211,1.211,0,0,1,.18.582c.322,1.035,1.158-.64.911.3.114.075,1.929.823,1.1-.566l.183,0c.325-.161.077-.685.55-.573.049.366-.191,2.38.361.874v.29c.5,1.185,1.1-2.08,1.283-.855.129,1.292.614-.525.546.3-.293.809,2.449-.059,2.372.607,0,.29.732-.281,1.1-.856,0-.04-.006-.055-.008-.08.036.168.168.524.554.376.548.007.548.007.547.3-.47,1.341.736-1.5.912.3-.029.476,2.329.164,2.011-.555,0-.58.186-.578.551-.574a11.583,11.583,0,0,0,2.368,1.477c.419-.112-.056-1.069,1.1-.566,1.675-.619.787,1.175,1.827.022,0-.29.184-.288.365,0,.3.056.452-.884.914-.279.139.645,2.569-.319,2.921.325-.068.312.166-.475.367-.286.184.918.729-.5,0-.29.328-1.626.649,1.787.912.3q.277-.867.548.006c-.158,1.265,1.17-2.6,1.1-.276-.037.954.617,1.216.547.3-.186-1.292,1.139,1.826,1.825.312,2.142-1.193-.551.776,1.642.309.252.056.34-.4.368-.716v.141c.425,1.673,1.677-.848,2.19.316.452.949.41-.252.917-.569.566-.375-.153.668.543.876.727-.3,1.194-.688,2.193-.263.392,0,1.091-1.033,1.28-.276.028.707.07-1.328.365,0,0,.579,0,.579.183,0,.184-.288.184-.288.365,0,.12.733.688-1.531.915-.279.306.155.662-1.51.549-.283.384,1.247.363-.487.913.011.868.662,1.071.16,1.644.019.451.53.807-.058.915-.279.318,1.27.426.105.73.009.82,1.259.44-.262.73.3a.542.542,0,0,0,.546.3c.133-.442-.044.384,0,.289.181.292.182,0,.184-.287.043-.048.909.176.549-.283-.134-.434.425-.861.185-.578-.137.562.369.541.362.874,0,1.291,1.44-1.373,1.278.015.1.968.707-1.341.739-1.73.028,2.194.042,1.578,1.089,1.461-.1.563,2.888.266,2.192-.263-.034-.224-.024.079.366,0-.778.875,4.3.845,3.653.044.185-.578.368-.576.365,0-.265.073,1.642,1.417,1.458.6-.327-1.109.55.9.547.3.184-.288,1.281-.564,1.279.015,1.356-.843,1.638.787,2.559-.549.32-1.22.425-.047.364.294.232.091.329-.117.365-.332l0,.047c.414.834,1.9-.168,1.643.019.6,1.274,1.487-.453,1.827.021.292.6.506-.683.912.3.47,1.068,2.126-.492,2.014-1.135.767-.338-.436.269.18.581.757.634,2.628.444,2.192.027.427,1.152,2.792-.343,2.373.317.831.92,3.351-.875,3.651.334.4-.071-.105-1.3.734-.571.492.661,1.649-.407,1.825.311.213.865,1.094-.405,1.094.3.181.292.18.582.365,0,.659-.5,1.912.347,1.647-.56.2,1.249.36-.721.548.006.181.293.364.295.364.295,1.185-.247,4.615-.54,4.932-.232.41-.223.389.9.364.3.184-.288.184-.288.367-.286.242.9.647-1.327.548.007.355.861.381,0,.914-.279.657.884,1.605-.147,1.827.02.239.992,3.652,1.253,4.022-.821-.109.522.272,2.322.361.874.177-.519,1.991.741,2.009.024.111-.766.9,1.206,1.094.3-.071-.388,2-.807,1.1-.277.541,1.235,1.256-1.241,1.1.013,0,.29.18.582.364.294.8-1.085-.352,1.392.912.011.706-.331,2.686-.284,2.948.1.16-.747,1.577.185,1.8-.623.478-.241-.344.083-.365,0,.269-1.868,1.111,2,1.276.595.092-.305.769-.629,1.1-.857.571.693.583-.226.546.587.025.571.332.755.364.294,2.139-.441,5.347-.1,7.673-.489,2.167.205,3.063-.588,3.838-.535.1,1.378.561-.015.732-.28.183,0,.183,0,.182.292-.137,1.454.625-.64.543.876-.07,1.139.52-.342.732-.282.18.582.548.007.732-.281-.031-1.429.009,1.582.548.007.956.247,1.634.091,4.018.047,2.58-.213,2.855.253,3.472-.247.184-.289.185-.579.182,0,.006.942,3.261-.37,2.557.03,1.025,1.429,4.346-.342,6.939.373,2.329.234,2.472.1,3.472-.25.391,1.283,1.36-.624,1.094.3.192.94,1.052-.371.915-.279a.763.763,0,0,0,.151.265c.2.41.429.833.584.745.081,1.2.68-.684,1.273-.7a2.026,2.026,0,0,0,.1-1c.141-.045.246-.115.226-.261.01-.135-.133-.167-.266-.182-.009-.068-.018-.135-.03-.2.075-.043.17-.1.3-.164.292-.181.292-.181-.287-.184-.035,0-.058,0-.087,0a2.833,2.833,0,0,0-.15-.437c.239-.313.585-.674-.33-.657-1.433-.05,1.568-.471.387-1.222.324-.02,1.146-2-.359-1.152l0-.183c-.161-.346-.685-.062-.573-.55.365.03,2.381.134.874-.361,1.086.238.308-.912-.568-.916-1.147-.43,1.471-.332.01-.914,1,.185,1.144-3.122.041-3.469-.045,0-.065,0-.09,0,.163-.029.536-.15.386-.552-.277-1.186,1.467.085.3-.729-.578-.186-.281-.732.3-.73.475-.024.165-2.291-.555-2.011-.58,0-.578-.186-.574-.551a11.594,11.594,0,0,0,1.477-2.368c-.112-.428-1.069.062-.566-1.1-.617-1.66,1.172-.8.022-1.827-.642-.118.442-.341-.282-.731-.664-.3.408-.524.3-.912-.749-1.4.633-3.321-.541-3.29.073.911-1.079-.227.292-.182,1.441-.284-1.507-.454.011-.913,1.265.164-2.6-1.175-.276-1.1.954.035,1.216-.616.3-.547-1.293.209,1.825-1.156.311-1.824-1.463-2.205,1,.226.3-.73.62-1.27-1.572-1.4-.565-1.281,1.674-.431-.847-1.673.317-2.19.949-.447-.252-.413-.569-.917-.469-.332,1.784-.231.592-1.093-.622-.646.543-1.867-.549-2.559,0-.183,0-.365.294-.364.707,0-1.328-.093,0-.365.579,0,.579,0,0-.183-.742-.29.722-.419.006-.548-.577-.185-.86-.735-.281-.732,0,0,0-.183-.285-.367-1.433-.3,1.573-.124.008-.73-.333-.224.972-1.778.02-1.644.046-.414.393-1.163-.275-1.28,1.643-.317-1.09-.736.593-1.093l0-.182c-1.134-.055.241-.251.009-.731-.442-.131.384.042.289,0,.292-.181,0-.182-.287-.184-.046-.083.171-.874-.283-.549-.434.13-.86-.422-.578-.185,2.936-.423-.5-1.433.889-1.64.968-.1-1.341-.708-1.73-.739,2.194-.028,1.578-.042,1.461-1.089.563.1.266-2.888-.263-2.193-.224.035.079.025,0-.365.875.778.845-4.3.044-3.653-.578-.185-.576-.368,0-.365.073.265,1.417-1.642.6-1.458-1.109.327.9-.55.3-.547-.288-.184-.564-1.281.015-1.279-.843-1.356.787-1.638-.549-2.559-1.763-.523,1.259-.2.009-.731.834-.415-.168-1.9.019-1.644,1.274-.6-.453-1.486.021-1.826.6-.292-.683-.506.3-.912,1.067-.47-.493-2.126-1.136-2.014-.338-.767.269.436.581-.18.634-.757.443-2.628.027-2.192,1.152-.427-.343-2.792.317-2.373.92-.831-.875-3.351.334-3.651-.071-.4-1.3.105-.571-.734.661-.492-.407-1.649.311-1.825.865-.213-.405-1.094.3-1.094.292-.181.582-.18,0-.365-.5-.659.347-1.912-.56-1.647,1.249-.2-.721-.36.006-.548.293-.181.295-.364.295-.364-.247-1.185-.54-4.615-.232-4.932-.223-.41.9-.389.3-.364-.288-.184-.288-.184-.286-.367.9-.242-1.327-.647.007-.548.861-.355,0-.381-.279-.914.884-.657-.147-1.605.02-1.827.992-.239,1.253-3.652-.821-4.022.522.1,2.322-.262.874-.361-.519-.172.741-1.994.024-2.009-.766-.09,1.206-.918.3-1.094-.388.1-.807-2.027-.277-1.1,1.238-.531-1.243-1.263.013-1.1.29,0,.582-.18.294-.364-1.087-.8,1.393.356.011-.913-.329-.7-.284-2.684.1-2.948-.745-.162.186-1.574-.622-1.8-.241-.477.083.343,0,.365-1.511-.366.763-.7.883-1.091,0-.183,0-.366-.288-.185-.6.037-.025-.474-.571-.733-.67-.012.111-.787.012-.906.25-.021.965-.1.87-.186-1.086-.2-.1-5.414-.509-5.847-.337-1.1-.514-5.579-.8-5.848,1.38-.088-.016-.567-.28-.732-.082-.458,1.12.1.873-.362-.511-.162-.418-.408.3-.363,1.141.077-.344-.525-.281-.732.581-.18.006-.548-.282-.732,1.088-.493-.606-.089.31-1.642-.667-.779.106-6.867-.5-6.4-.288-.185-.578-.186,0-.183.942-.031-.37-3.243.03-2.557,1.416-.813-.326-4.465.373-6.939.233-2.347.1-2.459-.25-3.472a.563.563,0,0,0,.014-1.1c.878.209.587-.85.01-.913a.819.819,0,0,0,.261-.149c.409-.2.833-.428.749-.584C168.532,13.855,167.55,13.363,167.214,12.974ZM12.984,28.03a.693.693,0,0,1,.574.551C13.51,29.008,12.8,28.32,12.984,28.03Zm-.225,18.995c0-.183.288.184.286.366C13.014,47.527,12.34,47.055,12.759,47.025Zm154.482,85.95c0,.183-.288-.184-.286-.366C166.987,132.473,167.66,132.945,167.241,132.975Zm-2.9-73.621c-.116-.02-.373-.3-.285-.367C164.591,58.955,164.829,59.141,164.345,59.354Zm.268,1.827c.313-.015.331.251,0,.366C164.164,61.491,164.223,61.119,164.613,61.181Zm-.777-46.9c.066-.145.273-.305.423-.2.02.026.049.053.072.08a.473.473,0,0,1,.053.129C164.4,14.663,163.73,14.749,163.836,14.284Zm-2.008-.313c-.116-.871.288-.607.366,0,.443.777-.469.759-.55.283C161.823,14.237,162.039,14.561,161.828,13.971Zm-9.858-.987a.693.693,0,0,1-.551.574C150.992,13.51,151.68,12.8,151.97,12.984Zm-8.958,1.633c0,.29-.184.288-.366.286C142.633,14.8,142.753,13.935,143.012,14.617Zm-.541-1.455-.368.575C141.5,15.633,141.527,12.793,142.471,13.162Zm-4.389,1.107c.183,0,0,.29-.186.867C137.1,15.874,138.053,14.266,138.082,14.269Zm-1.457-.887c-.033.422-.18.645-.368.575C136.251,13.54,136.277,13.316,136.625,13.382Zm-3.65-.623c.183,0-.184.288-.366.286C132.473,13.013,132.945,12.34,132.975,12.759Zm-1.468,1.432c0,.29,0,.58-.185.578C131.014,15.288,130.873,13.951,131.507,14.191Zm-1.646.56c-.236-.026-.4.105-.364-.294C129.564,14.371,129.843,14.636,129.861,14.751Zm-3.463-1.49c.182,0,.363.294.363.294C126.673,14.3,125.825,13.519,126.4,13.261Zm-3.107.253c.435.484-.477.312-.365,0C122.927,13.22,123.109,13.512,123.291,13.514ZM120,13.765a1.269,1.269,0,0,1,.18.582C120.216,15.1,119.491,13.658,120,13.765Zm-1.1.277c-.019.115-.3.374-.366.285C118.507,13.8,118.692,13.558,118.905,14.042Zm-11.869-.721c-.019.116-.3.375-.366.286C106.638,13.076,106.823,12.837,107.036,13.321Zm-4.564-.343c.182,0,0,.579,0,.869C102.053,13.96,102.444,12.936,102.472,12.978Zm-2.933,2.283c-.034.422-.181.645-.368.576C99.164,15.419,99.19,15.2,99.539,15.261Zm-2.368-1.477c-.02.115-.3.374-.367.286C96.773,13.539,96.958,13.3,97.171,13.784Zm-12.783-.441c.181.292,0,.58-.186.577C83.471,13.989,83.935,13.181,84.388,13.343Zm-7.49.2c-.033.422-.181.645-.368.575C76.524,13.7,76.549,13.478,76.9,13.544ZM61.547,15.391c-.056.445-.428.386-.365,0C61.166,15.074,61.432,15.056,61.547,15.391Zm-2.193.264c-.02.115-.3.374-.367.285C58.955,15.409,59.141,15.17,59.354,15.655Zm-1.635-2.048c.366,0,.366,0,.182.292C57.551,14.542,57.35,13.52,57.719,13.607Zm-1.1.276c-.236-.025-.4.105-.364-.294C56.325,13.5,56.605,13.769,56.622,13.883ZM54.8,13.862c-.236-.026-.4.1-.364-.294C54.5,13.481,54.778,13.747,54.8,13.862Zm-2.009-.024a1.283,1.283,0,0,1,.18.582A.305.305,0,0,1,52.787,13.838Zm-7.123-.084c.1.228-.381.98-.368.575C45.222,14.479,45.53,13.278,45.664,13.754Zm-6.214.8c.183,0,.18.582-.187.868C38.849,15.476,39.186,14.471,39.45,14.549ZM14.284,16.164c-.167-.076-.353-.339-.134-.486a2.381,2.381,0,0,1,.314,0C14.672,15.829,14.662,16.25,14.284,16.164Zm-.309,1.642c.777-.443.759.469.283.55-.021-.179.3-.4-.287-.184C13.1,18.288,13.365,17.884,13.975,17.806Zm-.813,19.723.575.368C15.633,38.5,12.793,38.473,13.162,37.529Zm1.455-.541c.29,0,.288.184.286.366C14.8,37.367,13.935,37.247,14.617,36.988Zm.519,5.116c.738.8-.87-.157-.867-.186C14.271,41.735,14.559,41.919,15.136,42.1Zm-1.178,1.639c-.418.006-.642-.02-.576-.368C13.8,43.408,14.027,43.555,13.958,43.743Zm-.7,9.859c0-.182.294-.363.294-.363C14.3,53.327,13.519,54.175,13.261,53.6Zm.249,3.472c-.29,0,0-.183,0-.365C14,56.274,13.826,57.186,13.51,57.074Zm.817,4.388c-.531.031-.769-.154-.285-.367C14.157,61.114,14.416,61.4,14.327,61.462ZM13.765,60a1.269,1.269,0,0,1,.582-.18C15.1,59.784,13.658,60.509,13.765,60Zm.426-11.5c.29,0,.58,0,.578.185C15.288,48.986,13.951,49.127,14.191,48.493Zm.266,2.01c-.087-.067.18-.346.294-.364C14.726,50.375,14.856,50.542,14.457,50.5Zm.96,90.234c.059.414-.946.077-.868-.187C14.552,140.367,15.131,140.37,15.417,140.737Zm-.03-21.918c-.313.015-.331-.251,0-.366C15.836,118.509,15.777,118.881,15.387,118.819Zm.553,2.194c-.531.032-.769-.154-.285-.367C15.77,120.666,16.029,120.948,15.94,121.013Zm-2.1,6.2a1.283,1.283,0,0,1,.582-.18A.305.305,0,0,1,13.838,127.213Zm-.517-54.249c.116.019.375.3.286.366C13.076,73.362,12.837,73.177,13.321,72.964Zm-.343,4.564c0-.182.579,0,.869,0C13.96,77.947,12.936,77.556,12.978,77.528Zm.806,5.3c.115.02.374.3.286.367C13.539,83.227,13.3,83.042,13.784,82.829Zm-.441,12.783c.292-.181.58,0,.577.186C13.989,96.529,13.181,96.065,13.343,95.612Zm.2,7.49c.422.033.644.181.575.368C13.7,103.476,13.478,103.451,13.544,103.1Zm.355,19c.643.35-.379.551-.293.182C13.611,121.915,13.611,121.915,13.9,122.1Zm-.31,1.643c-.087-.067.18-.347.294-.364C13.858,123.614,13.988,123.78,13.589,123.742Zm.273,1.462c-.026.236.1.4-.294.364C13.481,125.5,13.747,125.222,13.862,125.2Zm-.108,9.132c.228-.1.98.381.575.368C14.479,134.778,13.278,134.47,13.754,134.336Zm2.41,31.38c-.083.183-.389.385-.522.056q-.011-.054-.018-.1C15.662,165.334,16.265,165.271,16.164,165.716Zm2.008.313c.116.87-.288.607-.366,0-.443-.777.469-.759.55-.284C18.177,165.763,17.961,165.439,18.172,166.029Zm9.858.987a.693.693,0,0,1,.551-.574C29.008,166.49,28.32,167.2,28.03,167.016Zm8.958-1.633c0-.29.184-.288.366-.286C37.367,165.2,37.247,166.065,36.988,165.383Zm.541,1.455.368-.575C38.5,164.367,38.473,167.207,37.529,166.838Zm4.389-1.107c-.183,0,0-.29.186-.867C42.9,164.126,41.947,165.734,41.918,165.731Zm1.457.887c.033-.422.18-.645.368-.576C43.749,166.46,43.723,166.684,43.375,166.618Zm3.65.623c-.183,0,.184-.288.366-.286C47.527,166.987,47.055,167.66,47.025,167.241Zm1.468-1.432c0-.29,0-.58.185-.578C48.986,164.712,49.127,166.049,48.493,165.809Zm1.646-.56c.236.026.4-.1.364.294C50.436,165.629,50.157,165.363,50.139,165.249Zm3.463,1.49c-.182,0-.363-.294-.363-.294C53.327,165.7,54.175,166.481,53.6,166.739Zm3.107-.253c-.435-.484.477-.312.365,0C57.073,166.78,56.891,166.488,56.709,166.486ZM60,166.235a1.269,1.269,0,0,1-.18-.582C59.784,164.9,60.509,166.342,60,166.235Zm1.1-.277c.019-.115.3-.374.366-.285C61.493,166.2,61.308,166.442,61.1,165.958Zm11.869.72c.019-.115.3-.374.366-.285C73.362,166.924,73.177,167.163,72.964,166.678Zm4.564.344c-.182,0,0-.579,0-.869C77.947,166.04,77.556,167.064,77.528,167.022Zm2.933-2.283c.034-.422.181-.645.368-.576C80.836,164.581,80.81,164.805,80.461,164.739Zm2.368,1.477c.02-.115.3-.374.367-.286C83.227,166.461,83.042,166.7,82.829,166.216Zm12.783.441c-.181-.292,0-.58.186-.577C96.529,166.011,96.065,166.819,95.612,166.657Zm7.49-.2c.033-.422.181-.645.368-.575C103.476,166.3,103.451,166.522,103.1,166.456Zm15.351-1.847c.056-.445.428-.386.366,0C118.834,164.926,118.568,164.944,118.453,164.609Zm2.193-.264c.02-.115.3-.374.367-.285C121.045,164.591,120.859,164.829,120.646,164.345Zm1.635,2.048c-.366,0-.366,0-.182-.292C122.449,165.458,122.65,166.48,122.281,166.393Zm1.1-.276c.236.025.4-.1.364.294C123.675,166.5,123.4,166.231,123.378,166.117Zm1.826.021c.236.026.4-.1.364.294C125.5,166.519,125.222,166.253,125.2,166.138Zm2.009.024a1.283,1.283,0,0,1-.18-.582A.305.305,0,0,1,127.213,166.162Zm7.123.084c-.1-.228.381-.98.368-.575C134.778,165.521,134.47,166.722,134.336,166.246Zm6.214-.8c-.183,0-.18-.582.187-.868C141.151,164.524,140.814,165.529,140.55,165.451Zm25.166-1.615c.157.071.327.306.166.457-.134-.026-.292-.048-.437-.072C165.345,164.035,165.407,163.766,165.716,163.836Zm.309-1.642c-.777.443-.759-.469-.283-.55.021.179-.3.395.287.184C166.9,161.712,166.635,162.116,166.025,162.194Zm.991-10.224a.693.693,0,0,1-.574-.551C166.49,150.992,167.2,151.68,167.016,151.97Zm-.178-9.5-.575-.368C164.367,141.5,167.207,141.527,166.838,142.471Zm-1.455.541c-.29,0-.288-.184-.286-.366C165.2,142.633,166.065,142.753,165.383,143.012Zm-.519-5.116c-.738-.8.87.157.867.186C165.729,138.265,165.441,138.081,164.864,137.9Zm1.178-1.639c.418-.006.642.02.576.368C166.2,136.592,165.973,136.445,166.042,136.257Zm.7-9.86c0,.183-.294.364-.294.364C165.7,126.673,166.481,125.825,166.739,126.4Zm-.249-3.471c.29,0,0,.183,0,.365C166,123.726,166.174,122.814,166.49,122.926Zm-.817-4.387c.531-.032.769.153.285.366C165.842,118.886,165.585,118.6,165.673,118.539Zm.562,1.463a1.269,1.269,0,0,1-.582.18C164.9,120.215,166.342,119.491,166.235,120Zm-.426,11.505c-.29,0-.58,0-.578-.185C164.712,131.014,166.049,130.873,165.809,131.507Zm-.56-1.646c.026-.236-.1-.4.294-.364C165.63,129.564,165.364,129.843,165.249,129.861Zm-.513-5.665c.29,0,0,.183,0,0-.566-.024.045-.464-.575-.368-1.338.388.767.5-.011.914-2.024,1.452,2.139,2.551.541,3.29-.637.526-.87,1.12.279.914.062.333-2.2.541-.876.544.29,0,.577.186.283.549.215.626-.7.791-.3,1.095.862.321-1.306,2.134-.021,1.826.29,0,.579,0,0,.183-.741,1.164,2.529.589,1.723,1.286.063.305-.871.517-.871.179.015-.705-1.25.577-.586.545h0c-.6.4-.024,1.6-.6,2.007-.324.735,1.233.531.571.733-1.177,1.617-.3,4.427-.362,6.026.45-.289-.533,2.078.269,1.828-.1-.73.371,1.131-.3.728-1.427-.266,1.5.722.569.917-.538-.133-.03-.5-.866-.37.1.37.683,1.159,1.441.738.805-.16-.265.862-.584.362-.868-.744-.8.512.279.915-1.165-.031-.656,1.847.854,1.282-2.047,1.174-1.621,3.663-1.509,5.107-1.1.659.893.19.962-.586.348.621,1.645,1.086.482.958-.488-.576-2.165.318-1.166.543.1.436-1.112.341-.008.73,1.28.2-1.374,1.19-.309,1.643,1.274.212-.435.918.274,1.28h0c-1.212.11.665.734.571.733,1.918-.888-.405,1.213-.885,1.274,1.766-.027-.841.5.282.732,1.415-.008-1.125.392.281.732,1.255.009-.668.129-.586.545a1.907,1.907,0,0,1,.737.1,85.369,85.369,0,0,0-9.359-.509c-1.4.1-2.041.445-3.835-.046-.449-.643-.982,2-.915.279.64-.433-4.967-.04-4.932.23-.093.813-2.317-1.521-2.006-.6,1.162,1.876-2.076-.846-3.11.833l0-.29c-.76-.857-2.08.513-3.1-.618-1.421.8-3.021-.721-3.293,1.122.219-1.285-3.659-.245-3.285-.619-.261-.487-1.233.011-1.644-.019-.18-.582-.728-.589-.913-.011,0,.066,0,.1,0,.132-.011-.139-.075-.574-.366-.426-.887.455-1.148-.145-1.828.268-.422-.07-1.453,1.3-.73-.009.63-1.006-2.042,1.645-.915.279.184-.288.368-.575,0-.29-.5.408-1.7.1-2.009-.023-.1-.743-.234,1.173-.731.28-.011-1.1-.289.126-.548-.006.488.015-3.393-1.054-3.655.246.063,1.073-.785-2.017-.547,0,.384,1.287-.282-.773-.548-.008-.18.566-.923-1.475-1.46-.307-1.168,1.456-.147-1.744-1.647.56-.456-1.35-1.654.913-2.189-.6-.161-.1-.88,1.579-.733.571,0-.29,0-.58,0-.29-.524.988-.861-.413-1.093-.593-.021,2.013-.819-.42-2.01-.023-.533.643-.488-.471-1.1.277-.733.236-.4-.882-.729-.3-.139,1.012-2.491-.219-2.195.553.606.424-2.374-.918-2.191-.025.371,1.443-.677-1.282-.729-.3-.456.76-.245-.349-.915.279-.373.018.043-.409-.547-.3-.683.977-1.577-.463-2.01.266-.185.577-.368.575-.365,0,.244-1.2-.876,1.276-1.095-.3,0-.29,0-.58,0-.58-4.3,2.047-10.569.181-15.53.976-.6.857-.667-.774-1.461-.018-.185.578-.368.575-.365,0-.066-1.427-.728.987-1.1.277-.424-1.441-.454,1.131-.912-.3-.711-1.051-.319,1.254-2.009-.024-.01-.178-.749-.515-.548-.006.054-.093-5.485-.693-4.749-.056.18.581-.185.577-.365,0-1.645-.826-3.777.013-5.3-.062-.36-.816-1.095.19-1.277-.305-.581-.563-.255,1.852-.73-.009-.053-1.313-.325.615-.731-.009-.468-.227-.178,1-.735.861.423-1.036-.41-.131-.725-1.168-.579-.771.193,1.217-.552.863-.735-.954-1.541-.471-2.013.846-.035,1.221-.025-.5-.546-.3-.164.375.053-.479.366-.285.049-.393-.307-1.235-.546-.3-.184.287-.184.287-.365,0-1.083-1.336-1.781.194-2.744.837-.438.7-1.667-2.391-1.461-.017-.337.062-.538-2.2-.544-.876-.054,1.084-1.481-.379-1.644-.02-.321.862-2.133-1.306-1.826-.021-.022.818-.2-.727-.915.279-.263.838-.146,2.561-.917.858.187-.433.757-.622,0-.869-.276-.479-.35-.106-.367.085,0-.028,0-.043,0-.089-.509-.266-2.338-.851-2.556-.321,0,.58-.185.578-.184.288-2.426-1.415-5.313.057-7.3-.377-1.55-.046.227.434-.549.284-1.342.719-.288-1.87-1.1-.013-.849,1.111-.317.013-.179-.582-.148-.186-.474.6-.367.286-.822.036-.09,1.493-.554,1.442-.712-.613.072-.74.006-1.449,0-.29-.914.279-1.1.857-.049.533.178-.92-.728-.588-1.376-.027.149,2.413-1.1.856-1.149-1.657-3.39-.839-4.561-.924-.667-1.094-.188.891.586.963-.622.348-1.085,1.645-.958.482.575-.488-.318-2.165-.543-1.166-.436.1-.341-1.112-.73-.008-.2,1.28-1.191-1.374-1.643-.309,0,.579-.55.573-.732.281-.386-.765-.641.595-.548-.007,0-.29-.18-.582-.364-.294-.345.526.1,2.819-1.281.564-.63-1.176-.273-.192-.365,0-.492.18-.354-1.228-.729-.3,0,1.415-.39-1.125-.732.281-.008,1.255-.13-.668-.545-.586,0,.17-.006.807-.18.778a21.514,21.514,0,0,0,.55-5.747c-.326-2.932.339-3.643-.225-5.481-.1-.932.683-2.167-.287-2.777,1.1.324.241-4.814.091-5.078-.813-.092,1.521-2.316.6-2-.066.375-1.8.149-.577-.186s-.875-3.518.034-2.922c.857-.761-.513-2.079.618-3.1-.8-1.423.722-3.02-1.122-3.293,1.083.387.245-2.622.9-2.736l-.288-.184c-.477-.375.758-.837.019-1.644-.031-.619,1.023-.834.015-1.278l-.133,0c.138-.01.575-.074.427-.366-.437-.6-.08-.96.016-1.278-.354-.466-.431-1.087-.853-1.466.316-.175,1.4.9.3-.547-1.387-1.281.826.573.292-.181-.824-.789.69-2.24-.264-2.193-.881-.492,1.039-.638.3-.729-.521-.592.25-1.427.042-3.653.085-.523-1.524-.21-.572-.55,2-.683-1.477.06.006-.548.749-.278-.712-.43.007-.548.364-.492,1.05-.8.3-1.277-1.409-1.152,1.613-.032-.273-1.463-.577-.185-.577-.185-.288-.184.6-.058.019-.515.587-.545-.115-.337-1.183-1.42.019-1.643.1-.161-1.58-.882-.571-.734.867.178-.84-.657.591-.911,1.092-.281-1.592-.05-.282-.731,1.291-.6-.14-2.4.616-3.1.645-.023-.5-.191-.282-.549a1.362,1.362,0,0,1,.017-1.461c.187-1.12-.7.275-.284-.549.035-.275.7-2.058.024-2.01-.582.181-.579,0,0-.182.941-.823.051-.168.018-1.461-.018-.374.409.043.3-.547-.976-.681.462-1.578-.266-2.01-.577-.185-.575-.368,0-.365,1.141.209-1.753-1.157.883-1.092-2.049-4.321-.18-10.554-.976-15.53-.857-.621.774-.651.018-1.461-.578-.185-.575-.368,0-.365,1.427-.047-.987-.742-.277-1.1,1.441-.439-1.131-.443.3-.912,1.08-.818-1.287-.2.024-2.009.179.011.515-.764.006-.548.1.143.691-5.55.056-4.749-.581.18-.577-.185.005-.365a8.591,8.591,0,0,0,.057-4.749c-.675-.5,1.153-1.118.019-1.643,1.382-.651-1.641-.5.3-.912,1.313-.053-.615-.325.009-.731.227-.468-1-.178-.861-.734,1.036.422.131-.411,1.168-.726.771-.579-1.218.193-.863-.552-.1-.608.713-.084.588-.727.338-.945-2.683-1.337-1.432-1.468.55.047.048-.668.295-.364.3.5,1.621.286.582-.181-.4-.246.4-.643.594-1.275-.1-.973-1.088-.991-1.427-1.833-.463-.573.633-.5.884-1.275.533-.3-.935-.147-.867-.186-.062-.337,2.2-.538.876-.544-1.084-.054.379-1.481.02-1.644-.862-.321,1.306-2.133.021-1.826-.29,0-.579,0,0-.183.493-.532-.973-1.07-1.438-.92-1.391.192.706-1.428.584-.363.371.184,1.116-.723.589-.727-.428.208.565-.364.3-.912.583-1.893-.067-1.366-.269-1.828,1.417-2.442-.056-5.3.378-7.3.046-1.57-.434.241-.284-.549-.719-1.328,1.869-.3.013-1.1-1.65-1.188,1.457.426.3-.546-.258.03.237-.012-.285-.367-.348-.46-1.2.42-1.157-.187.613-.725.74.081,1.449.006.288,0-.274-.9-.848-1.1.254-.027.8-.166.579-.732-.065-1.026-.865-.451-1.442-.554,1-.56,2.234-2.807,1.492-3.646.288-.57-.138-.981.017-1.461,1.241-.726-1.478-.062-.88.909A1.991,1.991,0,0,0,13.9,24.2c.4.187,2.917.163,1.746-.54-.1-.436,1.112-.341.008-.731-1.28-.2,1.374-1.192.309-1.642-1.274-.215.435-.916-.274-1.28l-.166,0c.133-.008.914-.073.46-.369-.606-.143-.656-.352-1.447-.189-.794.028,1.3-1.473,1.467-1.454-1.766.03.841-.5-.282-.732-1.415,0,1.125-.391-.281-.732-1.255-.009.668-.13.586-.545-.188.024-.959-.014-.748-.246a8.74,8.74,0,0,1,3.341.876c2.813-1.128,9.534.777,10.781-1.03-1.072,1.819,5.709-.071,5.661.357,2.221,2.3.448-1.312,1.461.016.332,1.227,3.514-.873,2.922.035.256.978,2.247-.578,2.556.32.3.719,1.929-.572,2.007.314,1.058-.207,1.673-.241,1.832-1.138-.219,1.285,3.659.245,3.285.619.748.2,2.746.568,2.557.031a2.964,2.964,0,0,0,3.108-.543c.179.314-.9,1.4.546.3,1.284-1.388-.574.826.182.292.5-.408,1.7-.1,2.009.023.1.743.234-1.173.732-.28.011,1.1.288-.126.547.006-.483-.016,3.389,1.054,3.655-.246,0-.58,0-.29.182,0,.179.871.544.876.366,0-.384-1.288.28.772.547.006.178-.565.925,1.476,1.46.308,1.149-1.408.034,1.612,1.463-.273.185-.577.185-.577.184-.288.057.6.516.018.545.587.345-.117,1.414-1.181,1.643.019.164.1.88-1.579.734-.571,0,.29,0,.58,0,.29.525-.988.859.413,1.092.593-.109-1.643.736-.318,1.279.015.755.216,1.938-.643,2.375.027.022.645.192-.5.549-.282.33-.5,2.118.431,1.828-.268-.606-.424,2.374.918,2.191.025-.371-1.443.677,1.282.729.3.455-.76.245.349.915-.279.372-.018-.042.408.547.3.684-.977,1.576.463,2.01-.266.185-.577.368-.575.365,0-.245,1.2.877-1.276,1.095.3,0,.29,0,.58,0,.58,4.272-2.246,11.262.237,16.079-1.259.234,1.543,1.4-.933,1.277.3.048,1.427.741-.987,1.1-.277.18.582.363.584.364.294.386-1.462.794,1.481,1.1.013.519-1.4,1.855,1.2,2.009.024-.1.094,5.52.692,4.749.056-.18-.581.185-.577.365.005a8.591,8.591,0,0,0,4.749.057c.485-.675,1.13,1.153,1.644.019.648,1.382.5-1.641.911.3.053,1.313.326-.615.731.009.46.227.184-1,.734-.861-.43,1.037.417.131.726,1.168.7.6-.562-2.06,1.279-.274.931.338,1.347-2.684,1.468-1.433-.052.551.671.048.364.295,0,.29-.184.287-.366.285.088,1.674.529-.311.911.3.6.9,1.644.419,2.194-.264.456-1.233.874-.427,1.46.018,0,0,.183,0,.365.293.3.533.151-.935.186-.867.331-.062.543,2.2.544.876-.148-.65,1.271-.317,1.279.015.557.346.409-.649,1.278.016.911.59.911.59.913.01-.138-.331,1.261.67,1.1-1.436-.172-.959.724-.205.729.3-.222.433-.732.622,0,.869.181.292.364.294.365,0-.187-.427.35.566.912.3,2,.6,1.33-.064,1.828-.269,1.268,1.023,5.607.616,6.21.075-.346.278,2.255.566,1.643.019,1.332-.719.3,1.869,1.1.013.842-1.111.321-.014.179.581.354-.1,1.17-.682.738-1.44.364-.915.507.655.176,1.161.282.789,1.429-1.914,1.1-.566,2.142,1.592.633-2.444,1.829-.558,1.155,1.657,3.388.839,4.562.924.7,1.162.131-1.154-.732-.956A2.006,2.006,0,0,0,155.8,13.9c-.187.4-.163,2.917.54,1.746.435-.1.341,1.112.73.008.2-1.28,1.193,1.374,1.643.309.215-1.274.916.435,1.28-.274,0-.088,0-.14,0-.166.008.133.073.914.369.46.143-.606.352-.656.189-1.447-.028-.794,1.473,1.3,1.455,1.467-.031-1.766.5.841.731-.282,0-1.415.391,1.125.732-.281.009-1.255.13.668.545.586-.024-.183.014-.912.229-.756a18.153,18.153,0,0,0-.34,8.283,2.2,2.2,0,0,0-.02,1.827c-.421-.1-.435,1.19-.014,1.095.1.884-.68,2.185.279,2.778-1.092-.29-.233,4.81-.083,5.078.813.093-1.521,2.316-.6,2.005.066-.376,1.8-.148.577.186-.579,0-.322,2.738.255,2.924h.1l-.391,0c-.38-.276-.294,1.271-.308,1.46,1.026.444-.394,1.146-.309,1.642.788,1.249-.344,1.5.26,2.559-.2,1.1.634.21.861.734-1.084-.382-.245,2.619-.9,2.736.822.333-.278,1.251.264,2.193-1.22.368.428,1.093-.011.913-.733.05.364,1.408-.308,1.46a4.745,4.745,0,0,0,.851,1.648c-.318.2-1.4-.921-.3.547,1.361,1.164-1.324-.766-.007.547.1.9-.862,1.964-.021,1.827.88.5-1.038.63-.3.729.524.539-.252,1.465-.042,3.653-.085.535,1.524.2.572.55-2,.692,1.477-.066-.006.548-.749.284.712.425-.007.548-.362.437-1.052.836-.305,1.277,1.41,1.13-1.613.048.273,1.463.577.185.577.185.288.184-1.351.459.912,1.652-.606,2.189-.1.193,1.58.858.571.733h-.29c.986.566-.412.83-.593,1.092,1.643-.1.319.733-.015,1.279-.215.742.643,1.947-.027,2.375-.644,0,.5.206.282.549.494.365-.43,2.093.268,1.828.424-.608-.918,2.376-.025,2.191,1.443-.368-1.282.674-.3.729.76.452-.349.247.279.915.019.347-.409-.024-.3.546.975.73-.461,1.544.266,2.011.577.185.575.368,0,.365-1.2-.283,1.275.905-.3,1.095l-.58,0c1.163,1.128.668,3.8.811,4.935.345,2.9-.171,9.344.147,12.056,1.43.542-1.761.163.277,1.1.288.184.288.184,0,.365-1.441.436,1.131.446-.3.912-1.323.509,1.578.81-.02,1.644-.4,1.094.037,1.051-.331,3.469-.109,3.989,1.327.7-.339,4.2.547.947.457,2.835.537,3.656-.29,0-.593,1.093-.014,1.095-.161.176-.77.442-.006.549,1.574.059-1.407.442-.586.545.89.351-.317.859.858.917.626.15.112.613-.292.181l0,.365a.7.7,0,0,1-.586.546c-.771.576,1.217-.191.863.552-.954.749-.471,1.53.846,2.013C166.254,123.69,164.532,123.672,164.736,124.2Zm-24.181,40.227ZM15.261,80.461c.422.034.645.181.576.368C15.419,80.836,15.2,80.81,15.261,80.461ZM164.739,99.539c-.422-.034-.645-.181-.576-.369C164.581,99.164,164.805,99.19,164.739,99.539Zm-.156-60.276c-.059-.414.946-.077.868.187C165.448,39.633,164.869,39.63,164.583,39.263Zm1.579,13.524a1.283,1.283,0,0,1-.582.18A.305.305,0,0,1,166.162,52.787Zm.517,54.249c-.116-.019-.374-.3-.286-.366C166.924,106.638,167.163,106.823,166.679,107.036Zm.343-4.564c0,.182-.579,0-.869,0C166.04,102.053,167.064,102.444,167.022,102.472Zm-.806-5.3c-.116-.02-.374-.3-.286-.367C166.461,96.773,166.7,96.958,166.216,97.171Zm.441-12.783c-.292.181-.58,0-.577-.186C166.011,83.471,166.819,83.935,166.657,84.388Zm-.2-7.49c-.422-.033-.644-.181-.575-.368C166.3,76.524,166.522,76.549,166.456,76.9Zm-.355-19c-.643-.35.379-.551.292-.182C166.389,58.085,166.389,58.085,166.1,57.9Zm.31-1.643c.086.067-.18.347-.294.364C166.142,56.386,166.012,56.22,166.411,56.258Zm-.273-1.462c.026-.236-.1-.4.294-.364C166.519,54.5,166.253,54.778,166.138,54.8Zm.108-9.132c-.228.1-.98-.381-.575-.368C165.521,45.222,166.722,45.53,166.246,45.664Z" style="fill: #fff"></path><path d="M164.2,134.057Z" style="fill: #fff"></path><path d="M164.2,134.057l-.425,0h.425Z" style="fill: #fff"></path><path d="M167.318,150.875c.29,0,.292-.181.3-.546C167.25,149.253,166.461,150.982,167.318,150.875Z" style="fill: #fff"></path><path d="M12.682,29.125c-.29,0-.292.181-.3.546C12.75,30.747,13.539,29.018,12.682,29.125Z" style="fill: #fff"></path><path d="M13.287,124.836c0,.183.287.184,0,0Z" style="fill: #fff"></path><polygon points="13.287 124.836 13.287 124.836 13.286 124.836 13.286 124.836 13.287 124.836" style="fill: #fff"></polygon><path d="M15.015,52.332a.305.305,0,0,0,.582-.18A1.283,1.283,0,0,0,15.015,52.332Z" style="fill: #fff"></path><path d="M15.941,45.944h0Z" style="fill: #fff"></path><path d="M9.658,15.229c-.066.349.158.374.576.368C10.3,15.41,10.08,15.262,9.658,15.229Z" style="fill: #fff"></path><path d="M15.96,45.944h0Z" style="fill: #fff"></path><path d="M15.7,18.728c.4.039.269-.128.294-.364C15.882,18.382,15.616,18.661,15.7,18.728Z" style="fill: #fff"></path><path d="M16.1,45.945Z" style="fill: #fff"></path><path d="M15.763,45.943H15.67C15.449,45.941,15.566,45.942,15.763,45.943Z" style="fill: #fff"></path><path d="M8.018,55.77a1.257,1.257,0,0,0-.577-.186C6.7,55.54,8.108,56.285,8.018,55.77Z" style="fill: #fff"></path><path d="M12.665,123.033a.633.633,0,0,0-.227-.027A.172.172,0,0,0,12.665,123.033Z" style="fill: #fff"></path><path d="M17.3,55.448c-.119.463.3.473.287.184C17.589,55.267,17.589,55.267,17.3,55.448Z" style="fill: #fff"></path><path d="M112.928,87.394a.607.607,0,0,0-.012.078C112.977,87.663,112.987,87.565,112.928,87.394Z" style="fill: #fff"></path><path d="M62.62,83.873c-.006-.035-.011-.045,0,0Z" style="fill: #fff"></path><path d="M104.172,84.148l.005-.014C104.174,84.086,104.172,84.1,104.172,84.148Z" style="fill: #fff"></path><path d="M142.474,84.5c-.215-.936-2.284-.316-2.661-.915-2.34-.408-4.9.547-7.1-.121-.314-.53-.39.94-.637.858-.179-.029.323-1.034-.124-.871-.49.263-3.909.393-3.806.515-.758-.883-.758-.883-.885-.6.256.065.112,1.813-.129.578-.385-1.3-2.524,1.031-2.029-.034-.608-.91-1.335.605-2.153-.618-.659.8-.851-.05-1.269-.021-.718.419-.868.352-.984.956.017-.741-1.813-.119-1.934-.716-.273,1.119-.558-.509-1.269.268-.483-.031-.565-.988-.887-.015,0,.045,0,.063,0,.091-.011-.173-.062-.5-.253-.385-.254.286-.762.277-.761-.013-.455.014-1.616,1.571-1.015.273.406-.975-1.448,1.7-.635.279.359-.569-.069-.463-.254,0-.552-.2-.987-.153-1.14-.309,0-.29-.126-.292-.128.288-.384.859-.436-1.083-.506-.3-.128.288-.255.286-.255.286.3-.047-2.551-.982-2.537.246,0,.58,0,.29-.127,0-.124-.872-.377-.876-.253,0,.279,1.369-.184-.795-.381-.007-.094.435-.211-.353-.632-.59-.213-.5-1.017,1.595-.762.276.025-1.3-.967,1.242-.762.568-.4-1.334-1.1.9-1.52-.606l-.255.285c-.213,1.184-.259.229-.258.009-.135.555-.63.26-.628-.314-.131-1.041-.113,1.52-.509.281-.343-1.241-1.7.094-2.154-.616-.008-.655-.117.476-.381.283-.417-.111-.142.338-.381.284-.225-.087-1.2-.656-.888-.016.416.4-1.674-.9-1.522-.026.273,1.395-.45-1.2-.506-.3-.128.288-.128.288-.254.285.05-.657-.587.463-.507-.3-.4.151-1.146.577-1.395-.024-.229-.045-.511,1.5-.508.281,0-.579,0-.579-.127,0-.536.728-.753-.576-.631-.88a1.519,1.519,0,0,1-.184.235,17.613,17.613,0,0,0-.166-2.831c-.857-.454.771-.427.016-1.015-.577-.128-.575-.255,0-.253,1.34,0-.91-.516-.278-.762,1.463-.318-1.152-.284.3-.633,1.4-.373-1.579-.478.02-1.141,0-.127.294-.253,0-.254.137.066.557-.519.007-.38.137-.087.66-3.758.056-3.3-.582.125-.577-.128,0-.253a4.308,4.308,0,0,0,.057-3.3c-.7-.342,1.146-.747.019-1.141,1.178-.444-1.538-.361.3-.633,1.322-.044-.58-.2.008-.508.234-.341-.967-.094-.86-.51.889.28.241-.3,1.167-.5.8-.411-1.21.137-.862-.383-.1-.421.711-.06.588-.506.313-.679-2.769-.935-1.432-1.019.567.025.03-.47.294-.253.285.349,1.636.189.582-.125-.766-.168.851-.445.3-.506,1.191-1.331-2.765-1.215-.54-2.284,0,0,0-.127.294-.253.512-.215-.944-.1-.867-.13-.04-.24,2.2-.372.876-.377-.631.119-.343-.842.015-.888.37-.387-.654-.253.015-.887,1.405-1.079-1.019-.391.013-.761.653-.851-2.534-.386-1.724-.893-.039-.226,1.039-.413.87,0,.369.128,1.122-.515.588-.505-.532.124.557-.157.3-.633.711-1.547-.434-.956-.268-1.269,1.006-.694.5-2.5.347-3.3.335-.711-.142-1.01-.274-1.016.337.2.525-1.573.02-1.141l0,.143,0-.143c-.655-.954,1.877-.19.013-.761-1.1-.568-.026-.241.582-.124.189-.133-.646-.317-.285-.255-.093-.636-1.432-.01-1.443-.385.728-.394,2.567.379.593-.76,1.111.086.557-1.371-.854-.89.888-.287,2.239-1.945,1.492-2.531.4-.635-.222-.554.017-1.015,1.309-.441-1.372-.2-.88.631a1.717,1.717,0,0,0-1.144-.891c.266.124,2.89.134,1.745-.375-.052-.329,1.1-.227.009-.507-1.36-.152,1.344-.714.309-1.14-1.273-.165.438-.631-.274-.889h0c1.1-.223-.7-.524-1.152-.384C91.4,38.233,94.474,37.29,93,37.5c-.139-.351,1.215-.255.3-.506-1.444-.006,1.153-.244-.281-.508-1.262-.013.624-.069.586-.379-.164.036-1.208-.051-.575-.255.594.068-.461-.766.3-.76.58,0,.58,0,0-.127-.747-.211.7-.463.01-.634-1.046-.084-.575.162-1.163.25.373-.417-1.059-1.392-.857-.764-2.588.479,1.4.258-.008.507a5.2,5.2,0,0,0-1.46.629c0,.127,0,.127.287.128.816-.1-1.374.518-.006.381,1.014.151-.043.155-.011.634-.094.263,1.634-.012.865.256-.686.075-1.316.381-.592.759.513-.05-.778.065-.292.126-.333.343-.618,1.122.569.636-.193.06,1.37.661-.009.507-.867-.129-1.162.123-.294.253h-.29c-.845.312.95.631,1.146.764,0,.127,0,.127-.292.126-1.172,0,.479.46-.3.38-.584,0-.764,2.4.248,2.41h.068c-.177.02-.493.1-.364.381-.006.38-.006.38-.3.379-.578-.128-.578-.128,0,.127.577.129.281.508-.3.506-.464-.022-.137,1.657.556,1.4,1.124.088.415.563-.015.888-1.711,1.691.228.9-.322,1.9.591,1.235-1.138.5-.022,1.268.645.088-.453.223.281.508.667.219-.415.358-.3.633.483.319-.045,2-.031,1.776.844.3-.824.445.571.509.025-.665,1,.2-.292.125-1.467.206,1.513.3-.011.635-1.412-.117,2.638.759.277.761-2.195.269,1.048.206-.3.633-1.932.337,1.142,1.952-.316,1.522-.791-.685-.328,1.035.274.888,1.432-.043-1.646.011-.3.633.032.368-.151.314.281.508.036.737-1.383.275.273,1.016.5.3-1.746.058-.593.759.614.313-.406,1.119.264,1.522,0,0,0,.127.285.255.117.188-.233.241-.4.254l.107,0c1.526.308-1.491.156-.006.381.287.128.287.128-.005.253-.731.042,1.481.532.279.636-.014.272,1.367.443.284.381-1.243.3.425.188-.011.634-.294.252-.6,1.012-.015.887.094.167-.5.706-.013.761.774.246-.405.088-.3.38.32.1,1.1.337-.008.507.949.5-.028-.028-.011.634.443.093-.423-.03-.29,0-.423.255.472-.086.283.381-.124.353.879-.022.863.25a3.822,3.822,0,0,0-.871.258c-1.263.043,1.4,1-.015.887-.964.072,1.382.5,1.73.513-1.532.221-2.065-.364-1.462.756-.7.1-.075,1.053-.022,1.268-.582.125-.3.38.286.255.259.016-.085-.091-.005.254-.824-.572-.9,2.978-.043,2.536.577.129.575.255,0,.253-.11-.163-1.395,1.132-.6,1.013,1.113-.232-.885.375-.3.379.712.64-.2.9.262,1.65-.317.726-.814.31.273,1.016,1.618.315-1.132.14-.009.507.094,0,.164,0,.223,0-.254.032-.661.147-.521.5-.272.5.807.735.279.635-1.312.481.535,1.051-.022,1.268-.637.207.714.318-.3.633-.748.174-.244.774.333,1.132a1.294,1.294,0,0,0-.689.284A26.2,26.2,0,0,0,83,84.062c-.438.857-.439-.771-1.015-.016-.128.577-.255.575-.253-.005,0-1.34-.516.91-.762.278-.309-1.463-.291,1.152-.633-.3-.353-1.4-.493,1.58-1.142-.02-.126,0-.252-.294-.253,0-.009-.11-.506-.618-.38-.007-.043-.134-3.8-.66-3.3-.056.125.582-.128.578-.253,0-.356-.238-1.006-.326-1.266-.6-.526,1.084-1.433-.206-2.031.545-.325.7-.76-1.145-1.142-.019,0,0,0,0-.125-.292-.419-.468-.18,1.818-.508-.009-.043-1.322-.2.58-.507-.008-.339-.234-.1.967-.51.861.281-.89-.3-.241-.5-1.168-.41-.8.138,1.21-.383.862-.575-1.061-1.055-.366-1.4.846-.025,1.194.015-.4-.38-.3-.113.386.028-.472.255-.285.04-.316-.2-1.289-.38-.3-.127.288-.127.288-.253,0-.935-1.383-1.159.228-1.905.837-.32.619-1.152-2.259-1.015-.017a10.232,10.232,0,0,1-.339-1.008c.02.118.052.536-.42.415-1.245-.745-.458.277-1.394-.313-.632-.591-.632-.591-.634-.012-.029.893-.069-.771-.635.28.085,2.29-1.094,1.441-.383.572.1-.369-.5-1.122-.5-.588.087.532-.131-.557-.634-.3-1.578-.722-.946.452-1.268.268-.7-1.006-2.493-.5-3.3-.347-.6-.3-1.067.114-1.016.274-.18-.585-1.551-.3-1.141-.02-.971.655-.178-1.877-.761-.013-.584,1.1-.229.026-.125-.582-.092-.189-.345.647-.254.286-.6.092-.039,1.431-.385,1.442-.4-.727.386-2.567-.76-.593.129-1.1-1.391-.558-.89.855-.715-1.933-2.523-1.666-3.546-1.51-.442-1.309-.2,1.372.631.88-1.175.777-.868,1.576-.76-.3-.125-.581-.5-.878-.506-.3-.329.053-.227-1.1-.507-.009-.153,1.36-.714-1.344-1.141-.309-.163,1.273-.631-.438-.888.275,0,.083,0,.127,0,.158-.005-.164-.044-.885-.255-.452a3.31,3.31,0,0,0-.131,1.446c-.033.782-1.033-1.394-1.01-1.466.068.552-.123.866-.255.286-.189-1.127-.237,1.1-.381.283q-.187-.873-.38-.007c-.013,1.262-.07-.623-.379-.586.01.165-.032,1.207-.255.576.069-.595-.768.46-.76-.3,0-1.224-.023.8-.508-.009-.125-.292-.125-.292-.253,0-.088,1.046.165.575.25,1.163-.424-.373-1.387,1.058-.764.857.481,2.588.256-1.4.507.008a5.149,5.149,0,0,0,.629,1.461c.234,0,0-1.088.381.006.158.748.186-1.651.508-.281l.254,0c.263.094-.012-1.634.256-.865.225.485-.029.869.378.876.127,0,.38.006.381-.284-.05-.513.064.778.126.293,1.508,1.246.237-1.028,1.145-1.14-.046.338-.028,2.344.251.874v.289c.372,1.136.75-2.069.89-.854,0,1.173.46-.479.38.3-.221.816,1.659-.07,1.647.608,0,.29.508-.281.763-.856,0-.032,0-.041,0-.063.022.177.1.487.382.359.38.006.38.006.379.3-.311,1.4.453-1.538.633.3.08.718.628-.137,1.015.017.7.263.095-1.371.764-1.146a8.286,8.286,0,0,0,1.644,1.477c.3-.062-.063-1.074.763-.566,1.239-.593.5,1.138,1.268.021,0-.29.128-.288.254,0,.219.056.3-.9.634-.278.014.644,1.753-.321,2.028.324-.057.363.118-.476.255-.285.087.9.547-.394,0-.29.24-1.589.448,1.814.633.3q.194-.865.381.007c-.123,1.412.763-2.638.761-.277.27,2.195.206-1.048.633.3.338,1.932,1.951-1.142,1.522.316-.256.576-.256.576,0,.29.661.355.848-.374.893-.722,0,.044,0,.093,0,.157.139,1.008.748.426,1.141.02.2-.6.586,1.135.632.591-.025-.273.723-1.573.509-.571-.122.349.5.94.633.3.314-.614,1.12.407,1.523-.264.122.043.439-.645.507.009.012.747.054-1.389.254,0-.033,1.368.109-.83.38.007.038.731.534-1.48.635-.279.28.014.439-1.367.382-.283.3,1.243.187-.426.634.01.252.294,1.012.6.887.016.176-.095.7.5.761.012.244-.774.089.405.38.3.27-.75.14-.755.634.011,0-.58.128-.578.127-.288.151.543.579.053.38.3-.006.643.153.463.127,0,.547.383.467-1.329.51-.86.106.588.241,1.721.758.882q.382-.863.38.007c.075.963.5-1.383.513-1.731.221,1.532-.364,2.066.756,1.462.1.7,1.053.075,1.268.022.125.582.38.3.255-.285.016-.26-.091.084.254,0-.572.824,2.978.9,2.536.043.128-.577.255-.575.253.005-.163.109,1.132,1.394,1.013.6-.232-1.114.375.884.379.3.64-.712.9.2,1.65-.262.726.317.31.814,1.015-.273.316-1.617.141,1.132.507.009,0-.094,0-.164,0-.223.032.254.147.661.5.522.5.271.735-.808.635-.28.481,1.312,1.051-.534,1.268.022.207.637.318-.714.633.3.266,1.146,1.535-.645,1.4-1.135.513-.352-.286.324.126.581.226.33,1.57.642,1.52.317-.38-1.081,1.1,1.116,1.65-.263-.185.616.13.688.585.589a1.209,1.209,0,0,0,.153.079c-1.612-.483.493,2.44-.332,2.408-.6-.144-.225.386.286.255.59.064-.768.956-.023,1.4.047.365-1.249.39-.305.886.091.235-1.243.161-.3.38.645.362-.46,1.055.27,1.142h.29c-1.381.191.8.226-.006.381-.763,1.008.921,3.607-.357,3.93-.642-.03.473.011.285.254-.289,0-.292.126,0,.254,1.35.113-.862.2-.3.38.29,0,.285.254.573.382-1.021.6.281,1.141-.021,1.268-.7.083.237.468-.587.378-.525.189-.007,2.2,1.072,2.4-.672.019-1.746.2-.538.261.543-.057-.767,1.575-.023,1.4.566.474-1.385.015.266,1.4.227.589-1.253-.232-.3.76,1.29.247-.843-.048-.3.379.578.129.286.255,0,.254-1.031-.413.49.844.264,1.522a.679.679,0,0,1-.5.892c.991,0-.111,1.059.756,1.265.217.318-.063-.18,0-.254,1.835.2-1.945.748-.595.886,2.362,1.34-1.086,1.035-.023,1.395.424,2.209.246,6.557,1.023,7.993-1.331.062-.034.389.281.508.051.346-1.072-.1-.874.251,1.321.359-1.847.127-.3.506.58.5-.5.335.567.763,1.466-.024-1.575,0-.006.38.257.009-.554,4.109.21,4.694.051.333-1.1.223-.009.506.806.282-.585-.168-.3.887-.278.6.83,1.294.272,1.015-1.061-.06-.383,2.3-.054,3.171-.158.273-.778,3.428-.353,3.676,1.4.291-1.179.64.271,1.142.174.007-1.446.163-.011.635.375,0-.835.157-.3.379.206.231-1.195.011-1.164.25.387.012.433.312.861.51.694.072-.247.473.575.255.776.428,3.545-.142,2.336-1.007-.326-.155-.305-.385.009-.507.577-.276.054-2.539.915-2.66a12.661,12.661,0,0,1-.2-5.073c-.693-.617.445-1.7-.252-2.157-1.311-.366.24,0,.3-.379-.263-.49-.395-3.91-.515-3.807,1.229-1.079.854-.784.013-.76-.873.3,1.31-1.5-.224-2.267.244-.078.865-.4.57-1.03-1-.33.385-.783.309-1.14-.8-.657.051-.85.022-1.268-.569-.184.017-1.133-.565-.889-.469.042-.821-.163-.287-.128.405-.085.494-2.193.325-2.028-.273-.238.506-.677.022-1.395,1.306-.328-.571-.755.012-.634.461-.147.178-1.662-.257-1.9-1.107-.866,1.559.65.01-.634-.573-.383-.573-.383,0-.127.936.387-.149-.187.01-.634.727-.506-.247-.565.3-.76.29,0,.292-.126-.287-.128-.859-.384,1.082-.436.3-.506-.534-.367.25-.954.043-2.536.074-.383-1.564-.131-.573-.382,2.153-.544-1.545.076.007-.381.75-.207-.725-.294.006-.38.831-.3-.093-.156.588-.506.5-.214-1.594-1.016-.276-.762,1.3.025-1.242-.967-.567-.762,1.333-.4-.9-1.1.6-1.52-.87-.5-.929-.53-.281-.508-.984-.395.439-.587.593-.759-1.526.076-.436-.453.015-.888-.182-.568.136-.873-.268-1.269-.213-.536.906-.268.3-.506-.974-.075.185-1.827-.554-1.524-.4.415.9-1.674.026-1.521-.582.124-.58,0,0-.127.584-.252.586-.379.3-.38-.757-.323.35-.158-.279-.635-.047-.253.393.052.3-.379-.985-.508.492-1.12-.265-1.4-.578-.129-.576-.256,0-.254s.579,0,0-.126c-.727-.536.576-.755.88-.632-1.4-.908-.3-3.047-1.092-3.934a1.86,1.86,0,0,0,.083-.321.431.431,0,0,0,.627-.16c.365-.047.39,1.249.886.306.234-.092.161,1.242.38.3.362-.645,1.055.46,1.142-.27V86.9c.19,1.382.226-.8.38.006,1.009.763,3.607-.921,3.93.357-.029.642.012-.473.255-.285,0,.29.126.292.254,0,.113-1.35.2.862.379.3,0-.29.255-.286.382-.574.6,1.021,1.142-.281,1.269.021.083.7.468-.237.378.587.188.524,2.188.01,2.4-1.063.019.673.207,1.731.263.529-.045-.541,1.567.766,1.395.024.034-.735.7,1.137.76.3-.07-.375,1.407-.807.762-.276.376,1.18.91-1.3.76.012,0,.29.125.582.253.3.129-.578.255-.286.254,0-.42,1.033.849-.492,1.522-.264a.684.684,0,0,1,.9.517c.05-.954,1.339-.045,1.259-.77-.546.045-.133-.858.128-.287.219.032.03,1.174.376,1.165.127,0,.254.005.128-.287-.036-.593.308-.014.509-.571.181-.918.708.374.758.882,1.164-1.073,3.891-.236,5.456-.777,1.853.365,2.571-1.364,2.789.048.369.1.157-.851.384-.863.245-.094.079.913.124.872.706-1.357.146,1.793.633.3l.254-.285c.4,1.088.607-1.723.508-.281-.394.621,4.574-.391,5.327.091,0,.29.125.292.254-.286.128-.287.129-.577.127,0-.084.439,1.647.434,1.649.028.366-.623-.05,1.469,1.013.307a2.78,2.78,0,0,0,2.284-.251c0,.448,3.2.136,3.422.638.225.047.441-1.293.635-.569.125.582.633.591.761.013-.113.464.472.949.634.011.572.584.4.543.629,1.46.2-.228.355-.979.765-1.147.148.49-.126-1,.13-.867C144.094,84.912,143.248,82.946,142.474,84.5ZM90.567,44.467c.29,0,.575.256.573.382C91.155,45.093,90.409,44.79,90.567,44.467Zm-.225,13.188c0-.127.288.128.285.255C90.679,58.01,89.9,57.7,90.342,57.655ZM38.355,85.62c0-.29.128-.288.254-.286C38.97,85.3,38.5,86.37,38.355,85.62Zm1.521.316c-.125-.582-.125-.582.128-.578C40.446,84.969,40.024,87.486,39.876,85.936Zm7.1.99c0-.29.255-.575.382-.573C47.6,86.338,47.3,87.084,46.974,86.926Zm6.219-1.633c0-.289.128-.287.255-.285C53.46,85.046,53.374,86.021,53.193,85.293Zm.376,1.456.255-.575C54.185,84.311,54.319,86.965,53.569,86.749Zm3.047-1.107c-.127,0,0-.29.13-.868C57.33,84.013,56.61,85.679,56.616,85.642Zm1.012.886c.036-.38.08-.638.255-.575C57.871,86.331,57.913,86.589,57.628,86.528Zm2.534.623c-.127,0,.128-.287.255-.285C60.517,86.814,60.2,87.592,60.162,87.151Zm1.273-1.427-.254,0C61.111,85.009,61.664,84.643,61.435,85.724Zm1.015-.272-.126-.293C62.507,85.065,62.763,85.405,62.45,85.452Zm2.026.9c.018-.47.373-.356.381.007C64.9,86.787,64.519,86.592,64.476,86.355Zm2.663.046c0,.29-.127,0-.253,0C66.588,85.89,67.242,86.122,67.139,86.4Zm2.03-.255a1.681,1.681,0,0,1-.125-.582C69.015,84.789,69.515,86.237,69.169,86.146Zm.762-.277c.021-.081.159-.371.254-.286C70.206,86.1,70.087,86.367,69.931,85.869Zm8.241.72c.021-.081.159-.371.254-.285C78.446,86.816,78.328,87.088,78.172,86.589Zm3.169.344c-.127,0,0-.58,0-.869C81.638,85.979,81.352,86.986,81.341,86.933Zm2.036-2.284c.036-.38.08-.638.256-.575C83.621,84.452,83.663,84.71,83.377,84.649Zm1.644,1.477c.021-.081.16-.371.255-.285C85.3,86.353,85.177,86.625,85.021,86.126Zm5.6,7.8ZM93,122.72c.052.3-.95.044-.867-.13C92.134,122.463,92.714,122.465,93,122.72Zm.42-41.594c-.377-.012-.636.03-.575-.256C93.224,80.906,93.483,80.95,93.419,81.126ZM91.774,58.674c.71-.07,1.076.483,0,.254Zm.077-4.565c0-.127.29,0,.868.13C93.48,54.823,91.814,54.1,91.851,54.109Zm.349-3.423c.29,0,.287.128.285.255C92.447,50.953,91.472,50.867,92.2,50.686Zm-.327-14.838c.29,0,.288.128.286.254C92.191,36.463,91.123,35.995,91.873,35.848Zm-.315,1.521c.756-.3.77.31.283.381C92.3,37.39,89.9,37.8,91.558,37.369Zm-.814,13.693.576.256C93.182,51.678,90.528,51.812,90.744,51.062Zm.8,4.314c-.378-.011-.636.03-.575-.255C91.345,55.157,91.6,55.2,91.54,55.376Zm-.409,6.974c-.425.043-.23-.337.007-.381C91.608,61.987,91.494,62.342,91.131,62.35Zm-.039,2.282c-.29,0,0-.126,0-.253C91.6,64.081,91.371,64.735,91.092,64.632Zm.818,3.047c-.513.02-.784-.1-.286-.255C91.705,67.445,92,67.583,91.91,67.679Zm-.563-1.017a1.681,1.681,0,0,1,.582-.125C92.705,66.508,91.256,67.008,91.347,66.662Zm.693-6.592c-.083-.095.214-.233.294-.253C92.314,60.024,92.418,60.086,92.04,60.07Zm-.388,22.7c-.512.02-.784-.1-.285-.255C91.448,82.535,91.738,82.674,91.652,82.769Zm-.748-7.1c.081.021.371.159.285.254C90.677,75.94,90.406,75.821,90.9,75.665Zm-.344,3.169c0-.127.58,0,.869,0C91.514,79.131,90.507,78.845,90.56,78.834Zm.365,12.556c.292-.126.58,0,.578.129C91.585,92.013,90.776,91.726,90.925,91.39Zm.2,5.2c.38.036.638.08.575.255C91.324,96.834,91.066,96.875,91.127,96.59ZM92,113.206c.061.314-.464.342-.582.125A1.655,1.655,0,0,1,92,113.206Zm-.521-3.426c.65.253-.386.377-.292.126C91.193,109.652,91.193,109.652,91.481,109.78Zm-.309,1.14c-.083-.095.214-.233.294-.252C91.446,110.874,91.55,110.936,91.172,110.92Zm.272,1.016c-.019.206.084.268-.294.252C91.068,112.093,91.364,111.955,91.444,111.936Zm-.108,6.34c.18-.076.992.257.575.256C92.084,118.582,90.879,118.384,91.336,118.276Zm1.073,22.069c.289,0,.579,0,.577.129C94.163,141.031,90.867,140.172,92.409,140.345Zm1.114-31.319c-.513.02-.784-.1-.286-.255C93.318,108.792,93.608,108.93,93.523,109.026Zm-.55-1.778c.441.045.391.292,0,.254C92.657,107.508,92.635,107.333,92.973,107.248Zm.924-20.68c-.126-.292,0-.58.128-.578C94.52,85.908,94.233,86.718,93.9,86.568Zm2.535.3Zm2.665-.5c.036-.381.08-.639.255-.576C99.341,86.169,99.382,86.427,99.1,86.367Zm10.658-1.847c.044-.44.292-.391.254,0C110.015,84.836,109.84,84.859,109.755,84.52Zm1.523-.264c.021-.081.159-.371.255-.286C111.553,84.483,111.434,84.754,111.278,84.256Zm1.135,2.048c-.254,0-.254,0-.126-.292C112.54,85.362,112.664,86.4,112.413,86.3Zm.887.015-.126-.292C113.357,85.933,113.613,86.273,113.3,86.319Zm1.268.022-.126-.292C114.625,85.954,114.882,86.294,114.568,86.341Zm1.269-.268a1.681,1.681,0,0,1-.125-.582C116.027,85.43,116.054,85.955,115.837,86.073Zm4.946.084c-.076-.18.257-.992.255-.575C121.089,85.409,120.891,86.614,120.783,86.157Zm4.314-.8c-.127,0-.125-.582.13-.867C125.522,84.442,125.271,85.444,125.1,85.361Zm17.755-.276c0-.29,0-.58.129-.578C143.538,83.33,142.679,86.626,142.852,85.085Z" style="fill: #fff"></path><path d="M66.234,91.892a1.653,1.653,0,0,0-.129.578C66.08,93.256,66.58,91.8,66.234,91.892Z" style="fill: #fff"></path><path d="M59.411,84.031v0Z" style="fill: #fff"></path><path d="M59.412,83.95v0Z" style="fill: #fff"></path><path d="M59.412,83.721Z" style="fill: #fff"></path><path d="M66.138,82.326c-.254,0-.254,0-.128.288C66.384,82.723,66.3,82.279,66.138,82.326Z" style="fill: #fff"></path><path d="M63.722,84.314a1.681,1.681,0,0,0,.125.582C64.064,84.778,64.037,84.253,63.722,84.314Z" style="fill: #fff"></path><path d="M38.086,90.252c.285.061.244-.2.256-.575C38.166,89.614,38.122,89.872,38.086,90.252Z" style="fill: #fff"></path><path d="M40.263,83.913l.125.292C40.7,84.159,40.445,83.819,40.263,83.913Z" style="fill: #fff"></path><path d="M59.411,84.24v0Z" style="fill: #fff"></path><path d="M47.734,87.229c0,.29.126.292.379.3C48.865,87.161,47.649,86.372,47.734,87.229Z" style="fill: #fff"></path><path d="M59.411,84.272c0,.107,0,.09,0,0Z" style="fill: #fff"></path><path d="M93.179,61.215a1.679,1.679,0,0,0-.581.125C92.715,61.557,93.24,61.53,93.179,61.215Z" style="fill: #fff"></path><path d="M93.463,56.9h0Z" style="fill: #fff"></path><path d="M93.222,56.9Z" style="fill: #fff"></path><path d="M90.264,45.227c-.29,0-.292.126-.3.379C90.332,46.358,91.121,45.142,90.264,45.227Z" style="fill: #fff"></path><path d="M90.159,62.1c-.116,0-.091.007,0,0Z" style="fill: #fff"></path><path d="M90.113,110.415a.853.853,0,0,0-.092-.006C89.826,110.473,89.935,110.48,90.113,110.415Z" style="fill: #fff"></path><path d="M95.167,63.631c0-.253,0-.253-.288-.128C94.77,63.877,95.214,63.792,95.167,63.631Z" style="fill: #fff"></path><path d="M87.816,35.835c.063-.176-.2-.22-.575-.256C87.18,35.864,87.438,35.823,87.816,35.835Z" style="fill: #fff"></path><path d="M93.772,56.905Z" style="fill: #fff"></path><path d="M93.463,56.9h0Z" style="fill: #fff"></path><path d="M93.253,56.9h0Z" style="fill: #fff"></path><path d="M85.6,63.727a1.651,1.651,0,0,0-.577-.129C84.237,63.573,85.7,64.073,85.6,63.727Z" style="fill: #fff"></path><path d="M93.286,38.008c.378.017.274-.046.294-.252C93.5,37.775,93.2,37.913,93.286,38.008Z" style="fill: #fff"></path><path d="M123.032,167.336a.656.656,0,0,0-.026.226A.173.173,0,0,0,123.032,167.336Z" style="fill: #fff"></path><path d="M18.364,164c.018.114.3.381.364.294C18.767,163.9,18.6,164.028,18.364,164Z" style="fill: #fff"></path><path d="M45.943,164.33c0,.123.005-1.095,0-.29C45.943,164.33,45.941,164.619,45.943,164.33Z" style="fill: #fff"></path><path d="M55.632,162.416c-.365,0-.365,0-.184.287C55.911,162.822,55.921,162.4,55.632,162.416Z" style="fill: #fff"></path><path d="M29.125,167.318c0,.29.181.292.546.3C30.747,167.25,29.018,166.461,29.125,167.318Z" style="fill: #fff"></path><path d="M52.152,164.4a1.283,1.283,0,0,0,.18.582A.305.305,0,0,0,52.152,164.4Z" style="fill: #fff"></path><path d="M150.875,12.682c0-.29-.181-.292-.546-.3C149.253,12.75,150.982,13.539,150.875,12.682Z" style="fill: #fff"></path><path d="M55.164,13.287c-.183,0-.184.287,0,0Z" style="fill: #fff"></path><path d="M127.848,15.6a1.283,1.283,0,0,0-.18-.582A.305.305,0,0,0,127.848,15.6Z" style="fill: #fff"></path><path d="M124.368,17.584c.365,0,.365,0,.184-.287C124.089,17.178,124.079,17.6,124.368,17.584Z" style="fill: #fff"></path><path d="M134.057,15.67c0-.123,0,1.1,0,.29C134.057,15.67,134.059,15.381,134.057,15.67Z" style="fill: #fff"></path><polygon points="55.164 13.287 55.164 13.287 55.164 13.286 55.164 13.286 55.164 13.287" style="fill: #fff"></polygon><path d="M56.959,12.366c-.034-.146-.06-.128,0,0Z" style="fill: #fff"></path><path d="M161.272,15.7c-.039.4.128.269.364.294C161.618,15.882,161.339,15.616,161.272,15.7Z" style="fill: #fff"></path><path d="M56.959,12.366a1.571,1.571,0,0,1,.022.19.581.581,0,0,0,.013-.117A.651.651,0,0,1,56.959,12.366Z" style="fill: #fff"></path></g></svg>