<svg xmlns="http://www.w3.org/2000/svg" id="Layer_1" data-name="Layer 1" width="180" height="180" viewBox="0 0 180 180"><g><path d="M18.1,81.516c-.246-.341-.356-.014-.563.148C17.659,81.746,18.139,81.6,18.1,81.516Z" style="fill: #fff"></path><path d="M18.911,88.44c-.169.072-.265.417.047.767C19.287,88.973,19.262,88.743,18.911,88.44Z" style="fill: #fff"></path><path d="M122.418,46.319a.616.616,0,0,0-.183.149A.274.274,0,0,0,122.418,46.319Z" style="fill: #fff"></path><path d="M124.623,47.656c.176.179.381-.024,0,0Z" style="fill: #fff"></path><polygon points="124.623 47.656 124.622 47.656 124.622 47.656 124.622 47.656 124.623 47.656" style="fill: #fff"></polygon><path d="M31.129,73.179c.787-1.3-1.441-.192-.743.324C30.589,73.71,30.769,73.533,31.129,73.179Z" style="fill: #fff"></path><path d="M105.266,29.205h0l-.116.115Z" style="fill: #fff"></path><path d="M52.8,44.16c-.36.353-.36.353.024.383C53.3,44.23,53.13,43.853,52.8,44.16Z" style="fill: #fff"></path><path d="M44.365,54.643c-.1-.1-.074-.076,0,0Z" style="fill: #fff"></path><path d="M44.685,54.967l-.32-.324.122.123Z" style="fill: #fff"></path><path d="M44.685,54.967l0,.005C44.818,55.1,44.778,55.061,44.685,54.967Z" style="fill: #fff"></path><path d="M50.8,48.962a1.071,1.071,0,0,0,.587.236C51.656,48.71,51.038,48.57,50.8,48.962Z" style="fill: #fff"></path><path d="M78.63,20.8a.359.359,0,0,0-.131.423l.262-.284A1.261,1.261,0,0,0,78.63,20.8Z" style="fill: #fff"></path><path d="M161.339,111.161a2.259,2.259,0,0,0-.578-.091C160,111.038,161.389,111.405,161.339,111.161Z" style="fill: #fff"></path><path d="M163.553,91.552c.056-.146-.225-.148-.575-.18C162.924,91.6,163.2,91.533,163.553,91.552Z" style="fill: #fff"></path><path d="M165.848,143.993c-.246-.011-.406.023,0,0Z" style="fill: #fff"></path><path d="M170.617,111c-.091.3.362.167.287.089C170.909,110.915,170.909,110.915,170.617,111Z" style="fill: #fff"></path><path d="M17.022,164.365c.054-.225-.226-.161-.575-.18C16.391,164.332,16.672,164.333,17.022,164.365Z" style="fill: #fff"></path><path d="M9.1,144.644c-.005.178-.005.178.287.09C9.474,144.431,9.021,144.567,9.1,144.644Z" style="fill: #fff"></path><path d="M10.72,149.373h0Z" style="fill: #fff"></path><path d="M10.836,149.373h0Z" style="fill: #fff"></path><path d="M19.239,144.667c.76.032-.628-.335-.578-.09A2.232,2.232,0,0,0,19.239,144.667Z" style="fill: #fff"></path><path d="M14.11,152.767l.006,0C14.129,152.737,14.123,152.744,14.11,152.767Z" style="fill: #fff"></path><path d="M10.523,149.372h0Z" style="fill: #fff"></path><path d="M11.054,149.374Z" style="fill: #fff"></path><path d="M14.152,111.745c.246.011.406-.023,0,0Z" style="fill: #fff"></path><path d="M10.523,149.372h0Z" style="fill: #fff"></path><path d="M10.683,162.835l.292-.089C10.9,162.524,10.6,162.7,10.683,162.835Z" style="fill: #fff"></path><path d="M9.1,123.551c-.005.356-.005.356.287.179C9.5,123.274,9.08,123.271,9.1,123.551Z" style="fill: #fff"></path><path d="M18.662,123.416a1.273,1.273,0,0,0,.577.181C19.988,123.639,18.57,122.915,18.662,123.416Z" style="fill: #fff"></path><path d="M16.447,162.634c-.069.187.156.325.575.359C17.088,162.648,16.861,162.629,16.447,162.634Z" style="fill: #fff"></path><path d="M14.016,57.754a.684.684,0,0,0,.226.025A.166.166,0,0,0,14.016,57.754Z" style="fill: #fff"></path><path d="M14.129,125.709c.063,0,.05-.005,0,0Z" style="fill: #fff"></path><path d="M14.184,74.888c.042,0,.03,0,0,0Z" style="fill: #fff"></path><path d="M10.486,133.007l.519,0-.285,0Z" style="fill: #fff"></path><path d="M10.486,133.007h0Z" style="fill: #fff"></path><path d="M10.456,133.007h0Z" style="fill: #fff"></path><path d="M169.023,20.423c.4.037.269-.122.294-.355C169.2,20.085,168.936,20.354,169.023,20.423Z" style="fill: #fff"></path><path d="M169.28,46.992c.595,0,.087,0-.17,0Z" style="fill: #fff"></path><path d="M163.553,17.366c.069-.187-.156-.325-.575-.359C162.912,17.352,163.139,17.371,163.553,17.366Z" style="fill: #fff"></path><path d="M168.917,53.052a1.3,1.3,0,0,0-.582.176A.3.3,0,0,0,168.917,53.052Z" style="fill: #fff"></path><path d="M168.99,46.99h0Z" style="fill: #fff"></path><path d="M166,30.572c-.469-.072-.31.832-.011.892C166.458,31.408,166.563,30.469,166,30.572Z" style="fill: #fff"></path><path d="M161.338,56.584a1.273,1.273,0,0,0-.577-.181C160.012,56.361,161.43,57.085,161.338,56.584Z" style="fill: #fff"></path><path d="M170.9,56.449c0-.356,0-.356-.287-.179C170.5,56.727,170.92,56.729,170.9,56.449Z" style="fill: #fff"></path><path d="M170,59.654c.772-.566-1.217.189-.863-.538-.1-.594.713-.082.588-.711.337-.925-2.69-1.3-1.432-1.433.551.046.047-.652.3-.355.3.493,1.622.279.582-.176-.758-.228.842-.627.3-.712.826-1.2-.728-1.406-1.131-2.323-.466-.557.631-.491.884-1.244.2-.4-2.018-.064.007-.535.833-.493-1.1.612.022-1.782-.862-.321,1.309-2.084.021-1.783-.823-.023.731-.189-.279-.893-2.7-.013-.99-1.533-.573-.538.37.18,1.116-.708.588-.711-.436.2.566-.347.3-.89.6-1.882-.113-1.336-.269-1.784,1.407-2.23-.05-5.281.378-7.13.047-1.532-.434.232-.284-.537-.714-1.3,1.869-.29.013-1.07-1.649-1.158,1.457.414.3-.533.027,0-.571-.833-1.155-.362-.913-.352.661-.5,1.161-.172.289,0-.272-.883-.847-1.071.256-.026.794-.161.579-.714-.07-1.007-.868-.437-1.442-.542.99-.538,2.234-2.739,1.492-3.559.29-.566-.14-.952.017-1.426,1.246-.7-1.472-.075-.88.887a1.957,1.957,0,0,0-1.144-1.253c.384.181,2.916.162,1.746-.528-.095-.427,1.111-.332.008-.712-1.286-.2,1.373-1.154.309-1.6-1.274-.211.435-.893-.274-1.249l-.166,0c.135-.008.913-.071.46-.36-.6-.139-.662-.344-1.447-.185-.741-.294,2.221-1.713.886-1.422-.176-.483,1.228-.344.3-.713-1.417.005,1.126-.378-.281-.714-1.256-.009.665-.124.586-.532-.21.025-1.226-.021-.575-.359.583.088-.452-1.1.3-1.069,1.289-.011-.864-.072.008-.713.805-.455-1.123-.418-.867-.182.01.92-.936-2.215-1.148-.9-2.528.689,1.337.357-.009.713-.988-.041-.214.549-.876.531-1.759.564.847.369-.59.889-.292.177-.292.177.287.179,1.248-.028-1.04,1.115.567,1.073,1.472.016-1.729.5-.305,1.246h-.29c-.091.145-.793,1.826.532,1.09.087.141,1.283.929.026.7-2.129-.162.561.535-.584.354-.877.407.929.886,1.147,1.075-.067.313-1.443.2-.3.713-1.283-.525-.15,2.218-.9,2.314-.653-.028,1.348,1.347.857,1.073-.579-.083-.019,1.274-.593,1.067-1.345-.453,1.5.711-.3.89-.29,0-.292.177-.3.534.3,2.3,2.469.95.838,2.679-.1.215-1.271,1.814-.6,1.78.827-.2-.122,1.663.558,1.785,0,.179,0,.179-.292.177-1.4.171.728.7-.013,1.07-.056.285.884.448.279.893-.644.138.318,2.5-.325,2.851-.289,0,0,0,0,0,.841.4-.811.645.571.716-.068-.9,1.074.23-.292.177-1.443.282,1.507.438-.011.892-1.284-.156,2.583,1.143.276,1.071-2.668.6,1.326.215-.3.89-1.892.445,1.136,2.785-.316,2.139-.781-.927-.354,1.429.275,1.249l.075,0c-.173.022-1.247.237-.094,1.608.165.975-1.574.363.272,1.428-1.914.864.2.735-.612,2.672.372.561.709,1.42.275,1.249,1.518.422-1.469.227-.007.535.742.279-.723.413-.007.535.578.181.861.717.282.714-.155.3,1.52.648.283.536-1.249.374.486.355-.011.892-.294.355-.6,1.424-.015,1.248.111.108-.494,1.04-.013,1.07.759.351-.4.115-.3.534.288.17,1.141.46-.009.713l0,.178c1.133.054-.237.239-.009.713.443.123-.387-.039-.29,0-.393.336.5-.07.284.536-.151.5.868-.053.865.361-.561-.13-.542.356-.874.352-1.29.01,1.374,1.4-.015,1.248-.968.1,1.345.693,1.73.722-2.157.045-1.608,0-1.461,1.063-.555-.133-.27,2.823.263,2.14.225-.03-.081-.029,0,.357-.872-.761-.85,4.195-.044,3.566.578.181.576.359,0,.357-2.14,2.026.295,1.076-.6,1.6-.978.226.8,1.24-.31,1.6.751,1.315-.213,1.339-.024,1.961.473.653,1.938.928.28.893-.088.225.115.32.327.356l-.042,0c-.84.41.179,1.862-.019,1.605-1.276.587.458,1.453-.021,1.783-.293.177-.293.177,0,.356.59.433-1.42.7-.593,1.067.418.5.2,1.525.855,1.252.586-.088.852.7.575.36-.341-.354-.608-.087-.786.361-4.306-5.874-12.031-12.211-14.8-15.828-.18.627-4.645-4.729-4.654-3.909-.206.2-.383.024-.707-.719-.624-2.155-.451-1.915-1.061-1.079-.057.718-1.866-3.453-3.388-3.033-.206.2-.206.2.206-.2.529.07-1.073-1.52-1.208-1.642-1.2.278-.81-1.379-1.384-1.822-1.962-.761-2.255-3.4-4.007-2.422,1.05-.814-3.242-3.574-2.769-3.645.1-.592-1.241-1.219-1.591-1.618a.674.674,0,0,0-.884-.9c-.387.416.417-.343-.147-.564-1.189-.536-1.018-1.228-1.974-1.594-.254-.422-2.365-.5-.707-.72,1.367-.011-3.09-.855-1.09-.7.962.1.115-.475-.354-.36-.509-.69-1.166-1.393-1.385-1.822-1.473-.48-1.181-1.556-4.419-4.495-.417-.564-1.275.837-.942-.133.743-2.226-.968,1.177-.53-.539.276-.781-.914.072-.531-.54.168-1.007-.294-.172-.294-1.126.124-.683-2.6-.186-1.267-.876,1.012-.843-2.012-.536-1.473-.671a.262.262,0,0,0,.029-.384c-.05-1.027-2.243-.708-1.738-2.182.059-.223-1.965.249-1.119-.311l.206-.2c-1.176.228-.577-1.123-.648-1.486-1.519,1.427-.567-1.364-1.945-1.978-.978-.068-.158-.826-1.267-.876-.867-.5.209-1-.5-.923-.895,0-1.517-.755-1.974-1.594-.975-1.231-.216.769-.737-.336-.212-.248-1.482-2.474-1.945-1.979-.235.588-.412.408-.176-.179.145-1.389-.467-.39-.884-.9.092-.843-2.406-1.676-2.445-2.9-.074-.311-1.8.255-.913-.516.676-.573-2.384-.074-.442-1.69a23.484,23.484,0,0,1-3.76-2.629c.533.023,1.213-.456,1.339.088.212.867,1.07-.407,1.069.3.177.292.175.582.356,0,.652-.5,1.871.343,1.607-.56.212,1.271.344-.754.536.007.176.292.355.294.355.294,1.171-.247,4.507-.54,4.815-.231.28-.154.352.33.363.444,0-.028,0-.075-.008-.15.18-.288.18-.288.358-.286.238.892.633-1.323.535.007.347.86.371,0,.893-.279.65.89,1.57-.153,1.783.021.229,1,3.576,1.244,3.926-.821-.106.518.265,2.322.353.873.167-.518,1.951.741,1.961.024.111-.769.875,1.209,1.069.3-.072-.387,1.957-.807,1.071-.277.536,1.241,1.225-1.251,1.069.013.1,1.128.681-.7.712.3-.181.577-.181.577.535.006.7-.34,2.612-.272,2.877.1.154-.748,1.536.185,1.762-.623.464-.24-.331.079-.357-.005.265-1.865,1.082,2,1.246.6.089-.3.75-.63,1.073-.857.562.695.568-.227.532.587.025.569.324.756.356.294,2.1-.441,5.221-.1,7.491-.489,2.112.207,3.007-.593,3.747-.534.093,1.373.546-.011.714-.281.462,2.031.507-.533.708,1.168-.067,1.139.5-.336.715-.281.175.581.534.006.714-.282-.029-1.434,0,1.584.535.007.924.242,1.59.095,3.923.047,2.452-.215,2.924.264,3.389-.247.372-.759-.133.6,1.246.3.786.273,1.814-.818,1.428-.273-.268,1.3,1.466-.122,1.6.6,2.921-.973,7.692.5,9.631-.462-.2.885.82.563.891.011.177.291.354.583.534.3.334-.1.2,2.29.532.586,1.037-.02,1.482-2.123.728-3.179-2.843-.148-7.358-1.2-10.875-.422.419-.317-2.928-.415-2.5-.031-.928.1-2.118-.679-2.71.285.308-1.1-4.689-.243-4.959-.089-.1.818-2.234-1.537-1.957-.6,1.133,1.885-2-.852-3.036.833v-.29c-.748-.86-2.021.518-3.028-.617-1.389.792-2.958-.715-3.214,1.121.22-1.283-3.585-.245-3.207-.619-.256-.487-1.2.01-1.6-.019-.176-.582-.71-.589-.891-.011-.032-.237-2.342-.438-3.034.543-.178-.307.885-1.4-.534-.3-1.256,1.392.563-.828-.177-.292-.381.417-1.189.124-1.6-.02-.18.288-.18.288-.357,0-.095-.747-.224,1.174-.714.281-.279-.442-1.255-.127-3.743-.335-.514-.082-.2,1.527-.538.573-.672-2.006.061,1.478-.534-.006-.274-.749-.42.713-.536-.006-.416-.831-.224.087-.71-.589-.3-.555-1.4,1.691-1.071.277-.039-1.377-1.28,1.211-1.073.567-.447-1.349-1.614.911-2.137-.606l-.358.286c-.356,1.271-.365.246-.359,0-.512.976-.837-.419-1.064-.6.108,1.635-.714.327-1.248-.015-.743-.214-1.895.642-2.318-.027-.022-.645-.186.5-.536.283-.327.5-2.068-.431-1.785.267.591.422-2.32-.916-2.139-.025.364,1.443-.659-1.278-.712-.3-.445.76-.238-.349-.893.279-.364.02.044-.407-.534-.3-.669.978-1.542-.464-1.962.266-.181.578-.359.575-.357,0,.24-1.208-.845,1.279-1.068-.3,0-.29,0-.58,0-.58a17.083,17.083,0,0,1-3.677.92l-3.39.044a51.566,51.566,0,0,0-8.094.012c-.587.857-.649-.774-1.426-.018-.181.578-.36.576-.357,0-.079-1.446-.7,1-1.071.277-.415-1.442-.441,1.131-.89-.3-.462-1.329-.81,1.578-1.605-.019-.178,0-.355-.294-.356-.005-.008-.181-.733-.507-.535-.006.046-.094-5.355-.691-4.636-.056.176.581-.181.577-.357-.005-1.605-.827-3.7.015-5.17-.062-.358-.821-1.07.2-1.247-.3-.57-.561-.247,1.854-.713-.009-.052-1.314-.314.613-.713-.009-.458-.227-.173,1-.718.861.41-1.025-.4-.139-.708-1.168-.565-.772.189,1.217-.538.863-.724-.961-1.5-.465-1.966.846-.038,1.233-.019-.5-.533-.3,0,.29-.178,0,0,0,.034-.567.448.045.359-.575-.371-1.341-.491.769-.891-.011-1.138-1.359-1.7.2-2.678.838-.557.465-.492-.633-1.245-.885-.3-.536-.143.943-.182.867-.33.06-.525-2.2-.531-.876-.05,1.083-1.445-.377-1.6-.02-.32.862-2.082-1.309-1.782-.021,0,.29,0,.58-.179,0-1.279-.673-.606,3.505-1.61,1.14.182-.433.74-.626,0-.87-.27-.477-.342-.109-.358.083,0-.028,0-.042,0-.087-.495-.266-2.289-.85-2.495-.321,0,.58-.181.578-.18.288-2.3-1.409-5.243.054-7.13-.377-1.512-.047.217.434-.537.284-1.312.715-.28-1.869-1.07-.013-.828,1.111-.31.014-.175-.581-.145-.188-.463.6-.358.285-.8.04-.086,1.489-.541,1.443-.7-.613.071-.741.006-1.45,0-.289-.893.279-1.074.857-.016-1.261-1.337-.437-1.427.272.763,1.01-1.684-1.231-2.848-1.193-.743-.087-.208.332-.892.279-.487-.633-.549.437-1.07-.014-.648-1.1-.19.9.577.961-.615.345-1.063,1.652-.94.484.56-.479-.307-2.166-.53-1.166-.428.1-.332-1.111-.713-.008-.2,1.286-1.153-1.373-1.6-.309,0,.579-.537.573-.714.281-.383-.767-.625.6-.535-.007-.846-1.658-.01,3.3-1.606.27-.617-1.18-.266-.187-.357,0-.484.178-.342-1.227-.712-.3,0,1.417-.377-1.126-.714.281-.008,1.256-.125-.665-.532-.586,0,.211,0,1.226-.36.575.092-.583-1.1.452-1.068-.3-.012-1.289-.072.865-.713-.009-.452-.8-.419,1.124-.182.868.924-.01-2.218.936-.9,1.148.693,2.53.354-1.338.713.009-.036.342,1.126,2.127,1.064,1.172-.177-.292.18-.287.356.294.324.826.007-1.858.714-.281.933.452.255-1.519.718-.861a1.237,1.237,0,0,1,.175.582c.32,1.036,1.133-.645.89.3,2.353,1.064.447-.685,1.788-1.138.051.359-.19,2.384.353.875v.289c.492,1.181,1.072-2.079,1.252-.855.132,1.3.6-.534.533.3-.287.81,2.388-.06,2.316.608,0,.289.714-.282,1.073-.857,0-.04,0-.054-.007-.079.035.169.163.522.541.375,1.157-.274-.084,1.469.712.3.181-.578.714-.281.712.3-.03.476,2.278.162,1.963-.555,0-.58.181-.578.538-.574a11.252,11.252,0,0,0,2.312,1.477c.41-.109-.058-1.069,1.072-.566,1.647-.616.762,1.177,1.783.022,0-.29.179-.288.356,0,.295.056.44-.884.893-.279.128.644,2.506-.319,2.851.325-.066.316.161-.475.358-.286.176.918.716-.489,0-.29.3-1.608.643,1.776.89.3q.271-.867.535.006c-.159,1.284,1.145-2.583,1.071-.276-.037.955.6,1.215.533.3-.182-1.3,1.106,1.827,1.782.311,2.1-1.192-.548.777,1.6.309.245.053.332-.4.359-.711,0,.042,0,.082,0,.136.412,1.673,1.639-.848,2.138.316.44.951.4-.253.894-.569.553-.375-.147.669.531.876.71-.3,1.159-.689,2.141-.263.383,0,1.067-1.032,1.249-.276.029.715.064-1.338.357,0,0,.579,0,.579.178,0,.28-.742.412.723.535.007.181-.578.717-.861.714-.282.3.155.646-1.52.536-.283.378,1.249.352-.486.892.011.848.661,1.044.161,1.6.019.442.534.79-.064.893-.279.312,1.266.414.109.712.009.847,1.37.4-.334.713.3a.525.525,0,0,0,.533.3c.126-.443-.041.387,0,.29.177.292.178,0,.179-.288.048-.047.888.175.537-.283-.13-.433.415-.861.181-.578-.135.561.359.542.352.874.007,1.29,1.406-1.374,1.248.015.1.968.691-1.345.722-1.73.045,2.157,0,1.608,1.063,1.461-.133.555,2.823.27,2.14-.263-.03-.225-.029.081.357,0-.761.872,4.195.85,3.566.044.181-.578.359-.576.357,0,2.024,2.139,1.077-.293,1.6.6.226.978,1.24-.8,1.6.309,1.314-.75,1.339.213,1.961.025.653-.473.928-1.938.893-.28.225.088.32-.115.356-.328l0,.043c.41.84,1.862-.179,1.605.019.587,1.276,1.453-.458,1.783.021.177.293.177.293.356.005.433-.59.7,1.42,1.067.593.5-.418,1.525-.205,1.252-.855-.088-.586.7-.853.36-.575a.351.351,0,0,0,.034.611c-1.61,1.727-3.77,4.139-6.769,7.4.2.236.192.432-.084.627a.746.746,0,0,1-.178-.343c-.361.392-.719.781-1.1,1.2-1.247-.894-.708,1.91-1.461,1.031-.408-.413-.767-.059-.516.913.313.845-1.424-.194-.923.5.659,1.39-1.823-.253-1.079,1.061.435,1.2-1.4.878-1.439,1.413-1,.333-1.085,1.178-3.261,2.8-3.566,3.616-.618,2.02-4.339,3.86-.538,1.33-2.374,2.988-3.189,3.948-.821-.25-.986,1.15-1.463,1.031-.383-.03-.359.353-.156.56,1.053,1.15-1.426-.553-.947.117.3.943-1.061.61-.288,1.5.2.206.024.383-.156.56-.4-1.386-.411.449-1.534-.118-1.217.079,1.658,1.065-.491,1.3-1.844-.5-.129,3.409-.984,2.593-.321-.436-.687.6-.564.147-.381-.406.473-.4-.047-.766-1.268-.587.018,1.056-.9.884-2.734-.152-1.009,4-2.83,3.595-.665-.006-1.859.378-.7,1.089-.257.383-2.078-1.028-1.151-.088.577.369-1.052,1.47-1.258,1.237-.813.35.054.859-1.26,1.237-2.316.435.021,1.245-1.078,1.061-1.719.548,1.866,3.2-.8,2.416-.119-.521.306-1.139-.611-.619-.675-.107-.332.376-.263.464-.016-.019-.045-.053-.1-.11-.82-.028-1.579,1.546-2.385,1.532-.927.418.321,1.361-.312,1.119-2.506.809-4.447,4.048-6.139,5.627.158.894-.248-.152-1.258,1.238-.719.707-.719.707-.336.736.732-.823-.906,1.369-.922.5-.791-1.3.348,1.866-.493,1.3.113-.456-.282-1.554-.407-.412.03-.064-.488,1.193.455,1.178.383.03.2.207.024.383-1.127.254-.45-.582-1.018-1.031-.678-.457-.16,2.7-.671,1.473-1.539.161-1.444,1.735-.445,2.062-2.752-.245-4.7,2.445-6.053,3.919-1.461,0,.681.738,1.339.052a2.562,2.562,0,0,0-.274,1.745c-.2-.629-1.97-2.159-1.762-.707-1.973-.019.41,1.536-1.258,1.238-2.034-.032-.505,1.594-1.8,1.767-.824-.207-.283.983-.539.53-.2-.206-.588-.236-.564.147-.063.208.358.257.251.973-.37.284.348-.33.587.236.515.555-2.236.5-2.457.382,1.249,1.22-1.076-.1-.515.914.991.972-1.2-.373-.516.913,1.143.97-1.525-.659-.743.324.407.413.228.589-.156.56-.321-.488-.808,1.432-1.282.854l-.151-.149c.107-.544-.471-1.309.11-1.444.867-.212-.407-1.07.3-1.069.292-.177.582-.175,0-.356-.5-.652.343-1.871-.56-1.607,1.271-.213-.754-.344.007-.536.292-.176.294-.355.294-.355-.247-1.171-.54-4.507-.231-4.815-.154-.28.33-.352.444-.363-.028,0-.075,0-.15.008-.288-.18-.288-.18-.286-.358.892-.238-1.322-.633.007-.535.86-.346,0-.371-.279-.893.89-.65-.153-1.57.021-1.783,1-.229,1.244-3.576-.821-3.926.518.093,2.322-.256.873-.353-.518-.162.741-1.955.024-1.961-.769-.091,1.209-.889.3-1.069-.387.1-.807-1.979-.277-1.071,1.243-.527-1.253-1.232.013-1.069,1.128-.1-.7-.682.3-.712.577.181.577.181.006-.535-.338-.69-.273-2.612.1-2.877-.747-.157.186-1.534-.622-1.762-.24-.464.079.331-.005.357-1.508-.36.762-.68.883-1.066,0-.178,0-.356-.288-.179-.6.036-.024-.461-.571-.716-.668-.012.107-.765.012-.884.256-.023.975-.107.87-.182-1.087-.186-.1-5.3-.509-5.708-.334-1.069-.519-5.459-.8-5.709,1.376-.087-.012-.553-.28-.715-.076-.477,1.109.134.874-.353-.512-.16-.419-.4.294-.355,1.141.073-.337-.505-.281-.715,1.123-.529-1.675-.853-.282-.714,1.1-.5-.615-.058.31-1.6-.677-.78.123-6.7-.5-6.243-.288-.18-.578-.181,0-.179.942-.033-.369-3.166.03-2.5,1.421-.906-.333-4.287.373-6.774.239-2.3.1-2.406-.25-3.389a.547.547,0,0,0,.014-1.07c.856.206.6-.825.011-.891.91-.346-.308-.779.877-.709,1.168.023.079-.491-.278-.893-.517-1.1-4.7-.364-2.626,1.415-1.121,2.09-1.25,6.534-.688,8.911-.106.5-.618,2.743-.035,2.853.1.877-.675,2.135.276,2.711-1.081-.273-.233,4.684-.08,4.958.818.1-1.537,2.234-.6,1.957.066-.367,1.8-.145.577.182-.579,0-.322,2.673.256,2.854h-.29c-.381-.269-.293,1.235-.307,1.425,1.024.433-.394,1.118-.31,1.6.788,1.218-.344,1.461.26,2.5-.2,1.078.642.206.861.718-1.08-.38-.245,2.552-.9,2.67.825.323-.28,1.21.264,2.141-1.226.366.438,1.068-.011.891-.733.046.364,1.373-.307,1.425-.07.473,1.592,2.3.272,1.428-.285-.358-.292.177.281.715,1.391,1.27-.827-.572-.292.177,0,0,0,.356.286.358.1.908-.889,1.933-.022,1.782.88.5-1.043.615-.3.712.524.524-.253,1.428-.043,3.566-.084.524,1.526.2.572.538-2.007.68,1.478-.066-.006.534-.749.279.713.416-.006.536-.365.431-1.052.816-.306,1.246,1.412,1.106-1.613.041.273,1.428.578.181.578.181.288.18-1.349.45.911,1.612-.606,2.137-.086.176,1.582.846.571.715H10.9c.986.556-.414.81-.593,1.067,1.635-.1.327.709-.015,1.248-.213.73.641,1.9-.027,2.318-.645,0,.5.2.283.536.494.365-.431,2.041.267,1.785.422-.593-.917,2.322-.025,2.139,1.443-.36-1.278.656-.3.712.76.442-.349.24.279.893.021.339-.408-.026-.3.533.976.715-.463,1.51.266,1.963.578.181.575.359,0,.357-1.206-.277,1.277.872-.3,1.068l-.58,0c1.159,1.095.671,3.717.811,4.818.034.276.058.594.076.93v.012q.03.54.04,1.162a5.317,5.317,0,0,0-.209,4.008c-.648.009.021.651-.017.713a.271.271,0,1,0-.014.535c-.054.743-.506,1.086.164,1.325v.074c-.8-.039-.154.227-.229,1.365-.187.794.1.939.282,1.034.008.113.018.216.027.32-.02.025-.026.042-.054.073-1.762.808-.157.554.233.555-.29.069-.722.128-.524.351a1.135,1.135,0,0,0,.209,1.021.149.149,0,0,0,.03.032.516.516,0,0,0,.287.18c-.252.02-.853.141-.594.713.033.008.044.017.072.025a.785.785,0,0,0,.258.228c-.1.182-.684.38-.64.548.793.625-.343.624.26,1.249-.079.245.069.292.262.293.005.2.013.442.005.765-.02.3-.053.585-.308.636a2.108,2.108,0,0,1,.263.057c-.008.09-.022.192-.034.292-.13.111-.249.254-.06.454-.007.047-.009.08-.017.128s0,.086,0,.134c-.222.2-.582.252-.011.418,0,.016,0,.037,0,.053-.131.023-.239.069-.178.158a.409.409,0,0,1,.191.272c0,.03,0,.069,0,.1a.193.193,0,0,1-.208.166,2.179,2.179,0,0,0,.281.341.93.93,0,0,0,.2.435c-.357-.09-.729-.22.074.295l.149.069c-.008.019-.011.033-.021.056-.3-.1-.656-.208-.42-.036.393.244.142.519-.02.8.022,0,.035.01.052.015l-.082.159c-.148.031-.276.051-.037.073l-.307.593a2.9,2.9,0,0,1,.3.845,1.073,1.073,0,0,0,.112.73c.012.115.024.229.033.344-.389.081-.261.09,0,.08q.021.3.033.588c-.264.146-.345.236.016.379,0,.1.008.2.013.3-.49,0-.3.135.018.273l0,.032c-.29,0-.593,1.067-.013,1.07-.16.172-.773.43-.007.535a1.808,1.808,0,0,1,.415.044c-.042,0-.085,0-.125.006.059.019.107.037.149.055-.2.135-1.627.354-1.025.427.654.253.182.586.348.768a.712.712,0,0,0,.144.744,1.041,1.041,0,0,1-.15.3c-.219.04-.472,0-.117.106a.281.281,0,0,1-.249.041c-.521.381.214.164.639.2a.784.784,0,0,1-.031.523c-.538.44-.426.789-.1,1.066-.052.2-.015.352.281.31l.163-.02.095.05c-.36.106-1.088.294-.557.326.6.182.047.145.088.286-.209.06-.148.15-.017.256-.064.016-.116.049-.088.171.363.148.389.293.317.428-.625.461-.615.882-.37,1.266l-.568,0c.622.167,1.185,1.357.537,1.785-.177.184.94.581.274.624.13-.042.141.29.117.777-.417.1-.7.153-.011.155h0c-.024.4-.065.888-.084,1.358a.147.147,0,0,0,0,.17,6.046,6.046,0,0,0,.035.969c-.315.535-.745,1.066.009.89H10.8c-.166.285-.506.426.031.852.255.1.288.166.23.219h0c-.136.124-.787.18-.248.494.107.02.183.038.244.053a1.363,1.363,0,0,0-.1.114c-.39.033-.992.061-.137.3.007.068.048.118.177.111h0c-.026.047-.057.116-.088.186-.27.069-.523.122-.115.13.025,0,.033.008.056.012-.033.082-.065.167-.1.263-.57.113-.38.181-.083.261a5.341,5.341,0,0,0-.186.844c-.054.051-.069.092-.01.115a.877.877,0,0,0,.1.587,5.12,5.12,0,0,0-.137,1.577,5.653,5.653,0,0,0-.085.993.3.3,0,0,1-.256.161,2.62,2.62,0,0,1,.265.261q.014.378.049.754c-.018.019-.029.037-.05.056-.062.092-.008.181.078.264.017.168.036.33.054.492-.209.116-.328.438.049.482l0,.045c-.2.076-.6.168.022.227,0,.043.009.09.012.132-.436.058-.946.117-.552.14.8.161-.068.37.571.431,0,.046,0,.1,0,.144.015,0,.017.009.03.007-.056.018-.087.053-.042.132.04.208-1.538.464-.3.356a3.737,3.737,0,0,1,.423.033c-.02.079-.042.165-.064.249a.982.982,0,0,0-.372.253c-.071.116.054.214.263.3-.025.229.019.393.182.435-.865.128.123.191.257.311,0,.016.007.032.009.046a.359.359,0,0,1-.159.071c-.7.176-.143.136-.385.324-.228,0-.381-.019-.154.092-.02.01-.029.017-.052.029.134.386.668.546,1.079.67a6.534,6.534,0,0,1-1.042-.275c.09.335.593.993,1.255.789q-.177.1-.488.225c-.5-.362-.625-.013-.363.389-.56.084-.273.052.048.068a1.382,1.382,0,0,0,.326.314c0,.164-.028.318-.3.317-.176.117-.06.163.059.218a.6.6,0,0,0-.007.35c-.024.019-.035.034-.067.056-1.455.812,1.084.246-.013.535-.293.307.32.374.919.407a2.91,2.91,0,0,0-.2.214c-.391.025-.934.369-.45.36h0c-.592.183-.024.772-.6.98-.091.169.112.24.331.274-.012.071-.023.142-.032.213a.976.976,0,0,0-.054,1.385,1.252,1.252,0,0,0-.073,1.232c-.243.174-.135.216.092.161.077.108.162.164.234.123-.567.254-.325.566-.113.8-.21.1-.372.156.107.342a1.154,1.154,0,0,1-.312.014c-1.6-.119,1.5.313.569.447-1.175-.484-.775.084-.091.218l-.117.1c-.388-.012-.656.01-.23.209-.254.249-.394.5.014.669.059.01.106.021.154.033a.95.95,0,0,0,.3.157c.18.265-.552.682-.3.966a1.8,1.8,0,0,0-.146.267c-.063.056-.084.1-.064.137a.872.872,0,0,0,.1.9.232.232,0,0,1,.036.046c-.128.025-.12.117-.116.246-.24.124-.62.148,0,.095v.008c.006,0,.015-.008.021-.01l.34-.028c.48-.04.639-.2.593-.534a.44.44,0,0,0,.2.236,5.777,5.777,0,0,1-.5.3.657.657,0,0,0-.383.23l-.271.164c.06,0,.1,0,.155,0a1.32,1.32,0,0,1-.092.138c-.38.044-.089.1.234.166-.237.126-.46.267-.16.37-.5.243-.255.353.016.448-.07.089-.018.183.3.274a.625.625,0,0,1-.13.08c-.355.113-.25.182-.091.223a.756.756,0,0,0-.166.1c-.1.031-.118.062-.079.09a.128.128,0,0,0-.008.075c.053,0,.156,0,.272,0s.227.035.358.047c.183.048.258.138-.055.307-.211-.032-.208.1-.157.289-.232.072-.4.12-.394.115.217,0,.344,0,.433.014.01.029.018.058.028.088a4.716,4.716,0,0,0-.468.165c-.009.078.294.086.531.091a.467.467,0,0,1,.005.1c-.554.108-.469.164-.229.2-.02,0-.028.011-.052.01-.579,0-.579,0,0,.178-.283.066-.484.185.02.138l.07.006c.047.223-.131.553-.079.707h-.008c-1.337.014.823-.007-.008.356-.732.231,1.118.218.867.091,0-.089,0-.089.292-.088-.189.232.185.488.507.607.1.12.189.16.258.066.114.008.173-.028.091-.136.619-.14,1.479-.183.428-.257.477-.152.516-.237.372-.291a1.48,1.48,0,0,0,.669-.251c0-.089,0-.089-.288-.09-.819.079,1.386-.377.007-.267-.632.01-.367-.13-.157-.27.233-.042.467-.1.438-.306.013-.172-.231-.175-.377-.19.1-.036.156-.077.117-.126a.144.144,0,0,0,0-.077c.071-.04.15-.083.265-.142.28-.169.277-.176-.231-.179.007-.029.065-.087.27-.225.185-.25-.126-.273-.5-.282a1.545,1.545,0,0,0,.173-.249c.329-.014.489-.052.029-.139a.117.117,0,0,0-.016-.044h.046c.544-.065-.1-.371-.59-.438.441-.2.975-.493.364-.883v0c.319-.057,1.1-1.876-.3-1.158l-.067-.028v-.118c0-.006-.007-.008-.01-.014.09-.04.148-.1.09-.21-.186-.592,1.369.018.47-.3.36-.028.5-.118-.18-.346l.066-.012c.2.022.317-.013.357-.091.128-.051.212-.123.181-.234-.4-1-.934-.487-1.345-.9.132-.044.3-.086.422-.137-.062.131.04.267.362.235.5.024.272-.436.011-.445a.616.616,0,0,0-.231.074c0-.043-.045-.092-.141-.15a5.687,5.687,0,0,0,.973-.815c-.01-.124-.362-.088-.564-.146a3.642,3.642,0,0,0,.086-.967c.257-.05.57.051-.024-.29a2.724,2.724,0,0,0-.163-.675c.1-.044.175-.092.14-.151-.453-.234-.049-1.119.025-1.25-.487-.132-.128-.21-.013-.265.43.136.184.006-.088-.2.5-.064.145-.111-.2-.169a.549.549,0,0,1-.151-.222c.055-.011.112-.022.188-.035.577.032.28-.038-.142-.136a.958.958,0,0,1,.557-.171c.211-.01.266-.453.2-.918.167-.117.132-.228-.074-.355a1.708,1.708,0,0,0-.2-.47h0c.943.345.079-.029.3-.446.005-.062-.091-.1-.225-.132a.58.58,0,0,0,.023-.116c.837-.244-1.136-.809-.058-1,.728-.161.216-.2-.211-.306.06-.1.118-.2.175-.3.315-.043.555-.119.178-.319.084-.155.168-.311.24-.457-.049-.189-.271-.2-.455-.25a.383.383,0,0,0-.222-.5,2.092,2.092,0,0,1,.1-.275c.176,0,.129,0,.005-.014,0-.011,0-.017.01-.028-.019-.05-.029-.091-.043-.136h0c.9.014.276-.02-.032-.1-.015-.053-.023-.1-.032-.145.022-.007.04-.014.07-.022.292-.009.139-.065-.091-.135-.048-.889,1.144-.373.15-1.244-.642-.116.443-.331-.282-.714-.664-.292.409-.511.3-.89a1.784,1.784,0,0,1-.154-.405h.159c.213-.023.057-.1-.2-.193a2.651,2.651,0,0,1-.036-.435c.494-.03.29-.165.011-.3q.014-.165.036-.324c.219-.019.188-.056.015-.1.111-.739.287-1.34-.185-1.439-.045-.072-.086-.135-.116-.187a2.005,2.005,0,0,1,.224,0c.82-.158.224-.279-.168-.436a.909.909,0,0,0,.228-.452c.308.033.244-.042.034-.168a1.629,1.629,0,0,0-.1-.919c.73-.077.864-.583.037-.521a1.591,1.591,0,0,1-.191.02c-.032-.046-.028-.119.262-.245.473-.215.375-.314.169-.345.428-.388.827-.882.071-1.212-.067-.1-.118-.178-.169-.259.2-.25.331-.317.329-.361.234.155.389.245.139-.092.362-.74-.246-1.079-.605-1.211-.018-.018-.036-.035-.055-.051l.1.012c1.115-.279.37-.912.092-1.452.369-.106.841-.2.352-.288a.646.646,0,0,0-.24-.334.77.77,0,0,1,.112-.065c.85-.389-.018-.408-.438-.757a1.311,1.311,0,0,0,.146-.39c.442-.123,1.069-.276.316-.814a.832.832,0,0,1-.176-.733.133.133,0,0,0,.07-.207.781.781,0,0,0-.028-.1,1.268,1.268,0,0,0-.272-1.333c.017,0,.024,0,.045,0,.582.088.235-.228-.2-.187-.057-.227.3-.292.437-.3l-.132,0c-.133-.042-.227-.072-.3-.1a.721.721,0,0,0,.126-.2c.058-.019.1-.033.177-.057.579,0,.579,0,0-.178-.394-.151-.168-.256.025-.341.751-.2-.584-.5.2-.508.292-.089.582-.088,0-.178-.645-.286.468-.759-.27-.8-1.085.012.738-.048-.127-.161.044-.058.039-.117-.042-.176a2.3,2.3,0,0,0-.028-1.277c.083-.242.08-.426-.122-.466a1.023,1.023,0,0,0-.122-.263,3.486,3.486,0,0,0,.074-.408c.173-.114.372-.226.441-.281.643.019-.439.006-.286-.178.453-.081.049-.161-.239-.214a.783.783,0,0,0,.137-.056l.108,0c.848-.172.032-.181-.278-.446.594-.331.516-.512.315-.627v-.039l-.09-.006c-.133-.058-.279-.1-.33-.131a1.164,1.164,0,0,1,.126-.089h0a.752.752,0,0,0,.686-.566.049.049,0,0,0,.013-.038,1.022,1.022,0,0,0-.417-1c.845-.319.3-.643-.089-.905.116-.1.153-.2-.126-.252-.048-.062.05-.133.145-.2.04-.009.07-.018.121-.026.431-.042.211-.184-.2-.33.3-.141.733-.311.244-.34-.248-.012-.283-.069-.287-.14.2-.068.154-.2.077-.482.245-.006.436-.021-.056-.36l-.027,0c-.005-.027-.01-.056-.015-.085.284-.009.574-.04.338-.177-.056-.009-.1-.018-.138-.027a.9.9,0,0,0,.046-.148c.031,0,.064,0,.1,0,.611.237.246-.135-.051-.6a3.7,3.7,0,0,0-.138-.955.6.6,0,0,1,.23-.139l.2-.013c-.273-.013-.651-.08-.481-.345.152-.137.148-.25.072-.34a2.162,2.162,0,0,0,.118-.41c.46-.09.347-.131.041-.275a7.041,7.041,0,0,0,.049-.778c.281-.073.439-.134.057-.157-.026-.107-.045-.235-.067-.354a4.7,4.7,0,0,0-.151-1.019c-.039-.341-.075-.694-.109-1.05,1.529-1.588-.571-.781.268-1.275.978-.226-.8-1.24.309-1.6a1.429,1.429,0,0,1-.264-1.055c.192,0,.284-.013.047-.133.12-.277.342-.442.242-.773a3.252,3.252,0,0,0-.917-.69c.006-.062.012-.124.017-.191a4.974,4.974,0,0,1,.62-.012c.088-.225-.115-.32-.327-.356l.042,0c.84-.41-.179-1.862.019-1.605,1.276-.587-.458-1.453.021-1.783.293-.177.293-.177.005-.356a.228.228,0,0,1-.11-.154c.119-.037.189-.1.141-.2.34-.247,1.138-.453.562-.712-.418-.5-.205-1.525-.855-1.252a.565.565,0,0,1-.266-.027,1.685,1.685,0,0,0,.077-.189c.585-.181.817-2.3.51-2.279H13.6c-.01-.008-.016-.025-.028-.03.342-.163.471-.96.375-1.577.2-.039.435-.06.809-.13a3.348,3.348,0,0,1-.861-.36c0-.032-.069-.062-.163-.09a.371.371,0,0,0-.171-.131c.6.042.622-.494.509-1.161,1.5,1.065-.976-1.618.24-.8.408.412.588.235.768.059.022-.077,1.736.582,1.126-.3-.82-.442,1.694.245.54-.53-.9-.889,1.853-.34.671-1.474-.927-1.041,1,.35,1.127-.294.691-.31-.017-1.2.539-.53.467-.184-.1-.223.923-.5.563-.147.7-1.09-.251-.972l.18-.177c.008-.51-.227-1.389.54-.53.43.8.994.648.563-.148.933,1.1.7-1.115.467-1.679.321-.238,1.267.789.924-.5.457,1.405,2.414-2.211,2.948-1.679.451.437.4-2.082.468-1.68.319.493,1.292-1.256,1.487-.647.448,1.373-.252-1.811,1.1-.678.362.311,2.316-2.03,1.572-2.357-.62-.389.248-1.382.7-1.09.607-.1,3.024-.914,2.769-1.5-.768-.394,1.78-1.618,1.391-2.181.47-.217,1.148.8,1.1-.678-.339-.565.659-.042.516-.913a38.006,38.006,0,0,1,3.62-3.152c-.229-.962,1.222-.094.312-1.12.048-.046-.316.311-.359.354-.814-1.575,1.867.681,1.1-.677-.564-1.642,1.425.529.72-.707-.455-1.179-.119-1.916.7-1.091,2.512,1.3-.714-1.167,1.1-.677,1.722.886,2.028-3.608,2.362-1.916-.159,1.5.685-.67,1.1-.677.337-.2-.035-.723-.224-.95.043.047.09.1.176.184,1.751.333,1.092-2.283,2.925-2.061-.754-2.569,1.33.132,1.415-1.8.151-1.055,2.2-1.41,2.109-2.887.181-.177.36-.354.564-.148.514.407-.878-.976.36-.353.888.98-.408-.821.539-.53.2.206.384.029.18-.177-.445-1.446.708-.494.672-1.473-.679-1.265,1.261.957.719-.708.028-.487,2.413-1.044,1.618-1.59.316-.294,1.434-.834,1.055-1.444,1.267.6.456-.374.72-.707,1.648.066.259-.575.923-.5.835.1.545-.819.947-.118.577-.065-.4-.349.336-.736.624-.379-.645-.521-.252-.973-.2-.206.18-.176,0,0,2.313,1.53,1.144-1.715,2.229-.973.775.6-.227-1.586-.5-1.944,1.772,1.924,1.284.521,2.1-.03.684.4,1.612-1.593,1.8-1.767.952.264.332-.491.184-.573.192-.073.183-.558.535-.134-.26.653,4.842-3.734,3.393-3.741-.228-.59-.048-.767.359-.354-.276.3,2.668-.572,1.846-1-1.1-.46,1.193.094.743-.324-.024-.383.852-1.65,1.259-1.237.89-1.922,2.387-1.155,2.062-3.654.37.521,1.023.83.768.059-.827-.135,1.806-.244,1.618-1.591.931.6,1.217-1.505,1.8-1.768.689.1.062-.978,1.1-.677,1.232.191,1.74-2.238,1.164-2.769.156-.56.359-.354.18-.177.151,1.477,2.786-1.278,2.879-1.815.6.238,1.612-1.4,2.184-2.164a.532.532,0,0,0,.336-.283.553.553,0,0,0,.061.311c0,.03,0,.047-.011.08a4.194,4.194,0,0,0,.712.773c-.56.217-.091.267.357.3.086.071.172.141.261.212l-.01,0c-.988-.041-.215.549-.876.531-1.76.564.847.369-.591.889-.292.177-.292.177.288.179,1.248-.028-1.041,1.115.567,1.073,1.472.016-1.729.5-.3,1.246.289,0,0,0-.29,0-.092.145-.793,1.826.532,1.091.086.14,1.283.928.026.694-2.129-.162.56.535-.584.354-.878.407.928.886,1.146,1.075-.067.313-1.442.2-.3.713-1.283-.525-.151,2.218-.9,2.314-.653-.028,1.347,1.347.857,1.073-.58-.083-.019,1.274-.593,1.067-1.346-.453,1.5.711-.3.89-.29,0-.292.177-.3.534.3,2.3,2.468.95.837,2.679-.095.215-1.271,1.814-.6,1.78.827-.2-.123,1.663.558,1.785,0,.179,0,.179-.292.177-1.4.17.728.7-.013,1.07-.057.285.884.448.279.893-.644.138.318,2.5-.325,2.851h0c.842.4-.81.645.571.716-.067-.9,1.075.23-.292.177-1.443.282,1.508.438-.011.892-1.283-.156,2.584,1.143.277,1.071-2.655.585,1.318.22-.3.89-1.891.445,1.137,2.785-.315,2.139-.781-.927-.354,1.429.274,1.249l.077,0c-.17.021-1.25.234-.1,1.608.166.975-1.574.363.273,1.428-1.914.864.2.735-.613,2.672.371.561.711,1.42.275,1.249,1.519.422-1.468.227-.006.535.742.279-.723.413-.007.535.578.181.861.717.281.714-.155.3,1.521.648.284.536-1.25.374.486.355-.011.892-.294.355-.6,1.424-.015,1.248.111.108-.5,1.04-.013,1.07.759.351-.4.115-.3.534.289.17,1.141.46-.008.713l0,.178c1.133.054-.237.24-.009.713.443.123-.388-.039-.29,0-.394.336.5-.07.283.536-.151.5.869-.053.865.361-.56-.13-.541.356-.873.352-1.29.01,1.374,1.4-.015,1.248-.969.1,1.344.693,1.73.722-2.157.045-1.609,0-1.462,1.063-.555-.133-.27,2.823.263,2.14.226-.03-.08-.029,0,.357-.871-.761-.849,4.195-.043,3.566.577.181.575.359,0,.357-2.139,2.024.293,1.077-.6,1.6-.979.226.8,1.24-.31,1.6.751,1.315-.213,1.339-.024,1.961.472.653,1.937.928.28.893-.089.225.115.32.327.356l-.042,0c-.84.41.178,1.862-.019,1.605-1.277.587.457,1.453-.022,1.783-.292.177-.292.177-.005.356.591.433-1.42.7-.592,1.067.417.5.2,1.525.854,1.252.587-.088.853.7.575.36-.859-.894-1.263,2.158-.895,2.135l.359,0h-.069c-.582.175-.606,2.136-.028,2.317-1.508-.105.625,3.382-.624,3.563.066.389,1.3-.1.572.717-.661.483.406,1.615-.311,1.781-.868.212.407,1.07-.3,1.069-.292.177-.582.175-.005.356.5.652-.342,1.871.56,1.607-1.27.212.754.344-.006.535-.292.177-.294.356-.294.356.247,1.171.54,4.507.231,4.815.154.279-.329.351-.444.363.028,0,.075,0,.15-.008.288.18.288.18.285.358-.892.238,1.323.633-.006.535-.861.346,0,.371.279.893-.89.65.153,1.57-.021,1.783-1,.229-1.244,3.576.821,3.926-.519-.095-2.322.257-.874.353.519.162-.741,1.954-.023,1.961.768.094-1.209.888-.3,1.069.386-.1.807,1.977.277,1.071-1.244.525,1.252,1.233-.013,1.069-1.129.1.7.682-.3.712-.577-.181-.577-.181-.006.535.338.689.272,2.611-.1,2.878.746.156-.186,1.533.622,1.761-.1-.717.866-.237.287.179-.114.162-1.978.494-.877.71.6-.036.024.46.57.715.651.011-.061.721-.013.87-.239.016-1.381.244-.581.376.442,3,.2,8.971,1.023,11.238-1.376.084.013.553.281.714.079.447-1.118-.095-.874.353,1.321.538-1.821.17-.3.712.545.689-.463.507.566,1.072h0c-1.367.429.8.4-.011.892-.308.214-.131,5.9.214,6.241.095.434-1.11.329-.008.713.287.18.577.181,0,.179-.448-.1-.43,2.319-.029,2.318.552.487-1.455.006-.307,1.425-.4.524.07,2.851.249,3.389-.584.018-.08,4.557-.636,4.633-.069.26,1.268.664.569.894a.547.547,0,0,0-.013,1.07c-.881-.207-.569.821-.011.891-.292.177-.584.354-.3.534.2.339-1.185,0-1.164.351.039.339.745-.08.573.537-.032.2.746.161.573.538-.289,0,0,.178.29,0,.716-.035.389.27,1.157.184,1.47.136,1.871-1.424.893-1.957.991-.538.243-3.579,1.21-4.1a36.6,36.6,0,0,1-.174-9.629c.639-.443-2-.958-.278-.893.448.417.246-.386.3-.534-.546.231.015-4.713-.528-4.281-.817-.105,1.539-2.235.6-1.958-1.885,1.133.853-2-.832-3.036h.29c.977-.248-.579-2.2.32-2.494.34-.185.217-4-.246-3.568-1.261-.089.34-.049.017-1.426.011-.891.015-1.248.307-1.425-.01.021-.927-.556-.283-.536.487-.255-.011-1.2.019-1.6.582-.176.588-.71.011-.891-.064,0-.1,0-.129,0,.146-.011.567-.075.423-.357-.437-.583-.081-.936.015-1.248-.353-.455-.432-1.061-.852-1.43.307-.176,1.4.884.3-.534-1.391-1.255.829.562.292-.177-.827-.777.7-2.2-.263-2.141-.881-.485,1.043-.621.3-.711-.521-.575.251-1.391.043-3.566.083-.513-1.527-.2-.573-.538.872-.174.876-.531,0-.356-1.291.377.773-.275.007-.535-.572-.173,1.477-.9.307-1.425-1.411-1.128,1.613-.026-.272-1.428-1.069-.3.025-.051,0-.357.691-.591-1.087-1.46.313-1.96.086-.169-1.582-.851-.57-.715.874.176-.846-.636.59-.889,1.052-.208-1.555-.137-.281-.715s-.138-2.341.616-3.028c.645-.023-.5-.186-.283-.536.125-.535-.311-.217-.283-.537.064-.3.67-1.664.015-1.248,0,.179-.292.177,0-.178.036-.264.7-2.016.024-1.962-.582.176-.58,0,0-.178.909-.811.157.017.018-1.426-.021-.365.407.045.3-.534-.976-.668.464-1.543-.265-1.962-.578-.181-.576-.359,0-.357,1.207.238-1.279-.844.3-1.068l.579,0c-2.03-4-.19-10.45-.975-15.161-.858-.608.774-.634.017-1.426-.577-.181-.575-.36,0-.357,1.446-.061-1-.715-.278-1.071,1.443-.429-1.131-.431.3-.89,1.1-.807-1.292-.165.024-1.961.182.012.507-.747.007-.535.1.132.69-5.416.056-4.636-.582.176-.577-.181,0-.357a8.174,8.174,0,0,0,.057-4.635c-.677-.49,1.153-1.09.019-1.6,1.4-.648-1.654-.48.3-.89,1.313-.052-.613-.314.008-.713.228-.458-1-.173-.86-.717,1.024.409.138-.4,1.168-.709.772-.566-1.217.189-.863-.538-.1-.594.713-.082.588-.711.336-.925-2.691-1.3-1.432-1.433.551.046.047-.652.294-.355.3.493,1.623.279.582-.176-.758-.228.842-.627.3-.712.826-1.2-.729-1.406-1.132-2.323-.465-.557.632-.491.885-1.244.2-.4-2.019-.064.007-.535.832-.493-1.1.612.021-1.782-.861-.321,1.309-2.084.022-1.783-.824-.023.73-.189-.28-.893-2.7-.013-.99-1.533-.572-.538.37.18,1.116-.708.588-.711-.437.2.566-.347.3-.89.606-1.882-.113-1.336-.269-1.784,1.407-2.23-.049-5.281.378-7.13.048-1.532-.433.232-.283-.537-.715-1.3,1.869-.29.012-1.07-1.648-1.158,1.458.414.3-.533.027,0-.572-.833-1.155-.362-.913-.352.66-.5,1.161-.172.288,0-.273-.883-.847-1.071.256-.026.794-.161.579-.714-.07-1.007-.869-.437-1.442-.542.99-.538,2.233-2.739,1.492-3.559.29-.566-.14-.952.017-1.426,1.246-.7-1.472-.075-.88.887a1.96,1.96,0,0,0-1.144-1.253c.384.181,2.915.162,1.745-.528-.095-.427,1.111-.332.009-.712-1.287-.2,1.373-1.154.309-1.6-1.275-.211.435-.893-.274-1.249l-.166,0c.134-.008.912-.071.459-.36-.6-.139-.661-.344-1.446-.185-.763.078,1.294-1.471,1.466-1.42-1.771.031.844-.485-.281-.714-1.417,0,1.126-.379-.281-.715-1.256-.009.664-.124.586-.532-.211.025-1.227-.021-.575-.359.364.055.1-.39.029-.723.386.387.612.745.5,1.05,1.339-.8,1.111,1.414,2.537,1.753.531.469-.312,1.481,1.031,1.462.177.18.177.18-.03.383-.029.384-.235.587.354.36.911-.007,1.048,1.7,1.8,1.415.769-.806-.629.8.56.156a8.269,8.269,0,0,0,2.475,2.517c2.33,2.591,2.465,1.2,2.975,3.441h0c.895-.17.1.561.913.516.59-.228.59-.228.177.18-.56,1.129,1.608.064,1.238,1.258.494,1.137,1.646.7,1.767,1.8.734.231-.877.355.118.946,1.18.365,2.723,3.023,4.243,1.836-.49.325-1.378,1.9-.266.97.452.086,1.3,1.48,1.562,2,.226.373.773-.607.736.337-.2,1.288,1.012.871,1.8,1.415.461.363.539.7-.029.383-.138.4.46,1,.884.9,1.291-.586-.7.64.324.743,1.544.028-1.312.653.884.9.717.529,3.077,2.348,2.8,2.932.707-.374,1.464,1.721,2.2,1.337-.787-.571.338-.9.383-.024-.76,1.957-.361,1.026,1.208,1.642.489-.458.7.862.874.892-.152.192-.571.778-.432.8.5-.456,4.6,3.856,5.362,4.628A83.613,83.613,0,0,0,139,61.455c-1.245,1.489,1.67-.1.884.9-1.181.932,1.083.133-.089,1.15-.9.712.9.3.914.516-.236.587.53.54.913.516.909-1-1.045,1.166.53.539.835,1.253,1.606,1.675,3.89,3.956,2.654,2.361,2.366,2.727,3.564,3.214.383-.024.589-.228.177.179-.618.644,3.249,2.881,2.475,2.517-.582,1.407,2.51,2.437,3.5,3.981.68.618,4.671,4.439,5.274,5.778,1.727-.313.828,1.688,2.357,1.572-.984.62.6,1.113.883.9-.029.384-.058.767.325.743.474.29-1.476,1.807.118.947a1.221,1.221,0,0,0,1.335.382c.056.352.181.644.386.708-.5-.035-.6.33-.552.836a.6.6,0,0,0-.291.147c0,.089,0,.089.288.089l.031,0c0,.021.007.044.011.066-.313.1-.957.276-.049.2l.086.012c.015.077.032.155.049.233a.319.319,0,0,0-.146.2c-.026.048.066.07.205.081.013.061.026.121.038.181-.784.19.467.555-.26.452-.272.186.272-.025-.3.356-.225.151.207.245.653.314a.573.573,0,0,1-.093.216c-.9-.015-.493.074-.187.139a.431.431,0,0,1-.108.039l0,.006c-.61.158.217.328.759.442a1.207,1.207,0,0,1-.133.19c-.264.017-.214.073-.1.13a.541.541,0,0,0-.108.13c-.527.041.172,1.135-.463,1.158-.215,0,.046.2.431.373a.33.33,0,0,1-.128.069c-.436.107-.331.376-.209.618-.279-.038-.479-.126.025.049.073.141.127.263.076.334-.223.01-.471.044-.5.229-.03.023-.033.045,0,.071a1.022,1.022,0,0,0,.254.485c-.033.115.067.186.218.237,0,.042,0,.084,0,.126-.348.022-.235.332-.035.419a.74.74,0,0,0,.031.408c-.34.286-.741.66-.252.594.772-.1.025.644.44.846l.009.064c-1.309.2-.319.405.09.676q.021.168.039.342a.343.343,0,0,1-.046.034c-.659-.042.332,1.186-.325,1.426-.39-.025.475.059.286.179-.557.128-.172.128.213.12,0,.037,0,.076,0,.112l-.223.035c-.9.09-.163.144.228.227,0,.06,0,.117,0,.174-.063.014-.141.029-.239.045-.619-.028-.232.054.236.162a3.818,3.818,0,0,1-.028.381c-1.358.132-.466.15-.043.227a.323.323,0,0,1-.057.118c.012.022.006.038.011.058-.044.011-.084.022-.143.034-1.966.254,1.142,1.35-.316,1.07-.943-.345-.079.028-.3.445-.01.118.339.163.631.179h-.055c-1.692.178.88.861-.316,1.07-.919.1.119.3.513.431.014.033.028.065.043.1a2.468,2.468,0,0,1-.279.008c-.3-.085-.963.32-.3.445.433.254-.065.66.105.975a3.045,3.045,0,0,0-.092.631c-.233,0-.234.012,0,.05a2.741,2.741,0,0,0,.476,1.689c-.067.177.158.276.291.49-.226.095-.254.177-.2.245-.441.086-.684.218.027.278-.208.067.022.133.214.2a.661.661,0,0,1-.008.2c-.085.019-.192.037-.349.057l.3.113-.017.065a.293.293,0,0,0-.3.267c.452.058-.432-.02-.29,0-.223.052.07.161.418.26-.035.106-.063.205-.086.3-.365.076-.6.2-.066.421q.864.27-.006.267c-.431.023-.19.1.235.172-.316.268-.833.6-.281.716a.153.153,0,0,1,.141.051c-.376.166.072.665.152.845-.446.067-.381.187-.065.2-.364.172-.354.36-.215.53a1.933,1.933,0,0,0-.088.6c-.063.048-.046.108.01.174a1.146,1.146,0,0,0,.125.446c-.03,0-.057.006-.095.007-.577-.181-.577-.181-.006.535.013.026.023.059.035.088-.295.222-.515.494-.065.451.073-.01.132-.018.179-.023,0,.018.007.035.01.053-.283.087-.825.231-.485.237.7.441-.186.6.262,1.16-.416.548-.573.291.13.642a.635.635,0,0,1-.139.25H166v.01l-.014.011H166c0,.086.111.132.244.155,0,0,.011.007.013.013-.617.214-.186.581.021.743l0,.052-.009,0c-1.355.409.62.733-.022.892-.292.088-.292.088,0,.178.147.055.12.107.015.157-.086.028-.171.057-.248.086-.371.107-.852.2-.36.291a.957.957,0,0,0,.706.574.419.419,0,0,0,.2.2,1.179,1.179,0,0,0-.493.988c-.315.082-.558.2-.066.281.015.1.027.213.04.32a.7.7,0,0,0,.043.361c.011.1.02.21.03.316-.185.027-.341.094-.252.255.02.15.214.561.338.907.011.176.021.351.03.532a.161.161,0,0,1-.112-.012c-.549-.082-.275.195.121.195.007.15.014.3.021.454-.109.145-.149.3.019.434l.01.223a.52.52,0,0,1-.2.031c-.983.2.513.521-.3.535-.292.088-.582.087,0,.178.645.285-.468.758.27.8.162,0,.254,0,.305,0v.014c-.189.025-.842.083-.02.166l.027,0,0,.084a.311.311,0,0,1-.033,0c-.41-.047-.088,1.705.151,2.068.009.117.017.237.026.351-.186.135-.452.28-.533.344-.645-.019.439-.006.285.179-.5.089.04.177.32.228l.006.045c-.076,0-.179,0-.332-.006-.848.172-.032.182.278.447-1.317.731.664.737-.021.891-.931.1-.982,1.292-.009,1.763-.091.014-.135.063-.072.2.023.009.034.016.054.024-.538.043-.94.125-.025.158.212,0,.228.051.176.113-.4.1-1.546.045-.5.417a.708.708,0,0,1,.155.3c-.117.077-.208.139,0,.151-.031.1-.1.173-.06.264-.267.123-.51.248-.1.273.3.014.291.095.29.19-.406.183-.042.27.229.39-.222.1-.983-.1-.253.4.118.016.2.029.268.039a.253.253,0,0,0-.024.047c-.308,0-.835.009-.54.181.577.09.285.179,0,.178-1.152-.447,1.166,1.267-.041,1.694l-.2.013c.273.012.651.08.481.344-.272.245-.05.413.211.508l0,.152c-1.358.151-.436.4.029.655.006.124.012.249.02.37a4.085,4.085,0,0,1-.89.186c1.058-.063.132,2.862.51,2.854.552-.027.031,1.895.464,2.025a.7.7,0,0,0,.044.1.419.419,0,0,0,.114.35c-.3.117-1.05.164-.36,1.083-.473.033-1.307.021-.352.188l.285.179c-.4.108-.26.194,0,.256,0,.054-.014.1-.016.156-.279.062-.18.1,0,.135a8.951,8.951,0,0,0,.142,1.421c.053.393.131.822.182,1.195a1.8,1.8,0,0,0-.21.944c-.174.015-.135.046-.006.083-.026.452-.031.993-.039,1.517-.211.207-.18.711-.045,1.21-.039.478-.111.815-.258.835-.033.126.262.285.5.442-.058.172-.119.38-.178.616a.492.492,0,0,0-.122.577c-.022.124-.039.242-.051.355-.312.18-.035.81.4.865a1.409,1.409,0,0,0-.37.28c-.094.068-.111.143.052.228.011.008.008.017.022.026a.081.081,0,0,1,.008.094,1.075,1.075,0,0,0-.277.073c-.355.018-.908-.035-.894.184.039.339.744-.08.573.537v0c-.727-.058-.741.232,0,.179a.761.761,0,0,0,.47.375c-.04.028.047.072.189.051a4.9,4.9,0,0,0,1.685.1,1.492,1.492,0,0,0,.24-.034,3.914,3.914,0,0,0,.595-.126c.4-.422.38-.5.2-.568a1,1,0,0,0,.009-.64c.176-.485.01-1.252.432-1.466.259-.422-.01-1.775-.061-2.75a.839.839,0,0,1,.355-.454c-.113-.749-.192-1.485-.257-2.216.111-.026.172-.1.1-.285a.144.144,0,0,1-.136-.049c-.071-.884-.1-1.754-.111-2.613.6-.368.577-.379.323-.458-.015.046-.15.073-.316.086,0-.1.005-.209.006-.314.2-.164.153-.386.011-.6.008-.294,0-.593.018-.884a.27.27,0,0,0,.023-.29c.018-.293.048-.58.072-.871a2.155,2.155,0,0,1,.26-.154,1.243,1.243,0,0,1-.234-.172c.013-.137.02-.275.034-.411.1-.095.223-.188.221-.309a.38.38,0,0,1-.181-.093c.172-.127.079-.259-.1-.382,0-.131-.027-.218-.265-.153-.088-.045-.175-.087-.254-.125a.489.489,0,0,0,.236-.227l.1,0c.448.417.246-.386.3-.534-.11.047-.174-.123-.212-.411.1-.094.16-.136-.02-.187-.01-.117-.018-.245-.023-.385a.41.41,0,0,0-.009-.516V147c.75-.154.295-.31,0-.389v-.056c.542-.1-.331-.544.253-.788a2.907,2.907,0,0,0-.255-.228c0-.14,0-.271-.01-.4.335.068.219-.035-.01-.174,0-.074-.01-.141-.017-.2.211.051.118,0-.012-.1-.038-.268-.1-.409-.211-.321-.009,0-.013-.006-.021-.008a.216.216,0,0,1-.007-.084c.746-.4-.283-.395.3-.535.274,0,.273-.076-.212-.086.06-.094.127-.19.2-.287.229-.031.381-.046.05-.071.383-.531.778-1.031.295-.887a2.528,2.528,0,0,1-.37.188,2.01,2.01,0,0,0,.095-1.086c.007-.048-.046-.082-.129-.107.024-.084.044-.171.064-.258.27-.06.206-.072.016-.069a2.815,2.815,0,0,0,.063-.673c.133-.089.169-.178-.029-.255a1.211,1.211,0,0,0-.139-.358c.315-.008.509-.055-.367-.418h.253c.71-.18.087-1.254.035-1.945a1.025,1.025,0,0,0,.335-.107,1.556,1.556,0,0,1-.339.011.423.423,0,0,1,.289-.453c.129-.07.191-.657.194-1.338.057,0,.05-.028,0-.067,0-1.109-.156-2.427-.439-2.163a3.776,3.776,0,0,1-.411-.042c.369-.109,1.039-.29.524-.317a1.4,1.4,0,0,1-.251-.09,1.056,1.056,0,0,0,.076-.119c.088-.035.108-.11.086-.213a1.3,1.3,0,0,0-.007-.645c0-.14,0-.246.007-.362a.561.561,0,0,1,.125-.087.374.374,0,0,0-.121-.08c0-.108.013-.192.022-.277.3,0,.3-.012,0-.06a.765.765,0,0,1,.189-.477,2.039,2.039,0,0,1,.507,0,.84.84,0,0,1-.684-.646c.432-.28-.036-1.187-.007-1.581.582-.176.589-.71.011-.891-.064,0-.1,0-.129,0,.146-.011.568-.075.423-.357-.437-.583-.081-.936.016-1.248a4.2,4.2,0,0,1-.437-.816,2.151,2.151,0,0,0-.033-.55c.367.161.7.414-.078-.587.016-.051.031-.1.047-.147.244.15.442.241.237-.041a.783.783,0,0,1-.165-.226.508.508,0,0,0-.089-.4,1.828,1.828,0,0,1,.083-.487c.045-.033.052-.068.032-.1.047-.145.1-.282.139-.406.093-.015.086-.043.026-.079.081-.278.067-.461-.29-.441-.031-.017-.051-.032-.075-.048.4-.085.093-.137-.16-.192,0-.084.089-.153.208-.209.312-.06.408-.107.394-.15.132-.049.173-.083-.069-.112a.89.89,0,0,1-.162-.785c.061-.056.06-.143.045-.276a10.177,10.177,0,0,0,.181-1.408,1.394,1.394,0,0,0,.014-.314,7.561,7.561,0,0,0-.035-.783.192.192,0,0,0-.09-.2,1.469,1.469,0,0,1,.409-.606c-.986-.337-.026-.894-.4-1.3.172-.182.271-.376.1-.558.178-.116.249-.238-.231-.368,1.077-.3-1.488-.264.3-.445.58,0,.582-.088.292-.088a2.725,2.725,0,0,1-.29-.105.453.453,0,0,0-.072-.12.189.189,0,0,1,.079-.043c.115-.079-.042-.108-.25-.135-.078-.071-.176-.152-.3-.246.55-.143,1.535-.6.567-.422-1.3-.045-.122-.28.013-.534.116-.188-.284-.329-.735-.436a1.42,1.42,0,0,1-.145-.356c.457.092,1.187-.018.324-.191-.772-.122.86-.312.3-.356.531-.427.1-.638-.4-.8.033-.058-.154-.219-.231-.394.065-.025.115-.066.085-.145-.042,0-.079,0-.117.005,0-.142.144-.278.6-.357.7-.138-.2-.154-.529-.316l.356-.045c1.095-.159-.291.022-.374-.2a1.26,1.26,0,0,1,.265-.154c.583-.261.609-.766.533-1.305.079-.078.1-.134-.022-.148-.028-.171-.062-.343-.088-.51h0a1.133,1.133,0,0,1,.193-1.065c.471-.017-.009-.109-.22-.294.07-.2.033-.3-.047-.359.023-.272-.171-.211-.259-.288.681-.552.345-1.844.227-2.529.081-.379.115-.749-.02-.907.078-.656-.321-.087-.292-.227.034-.012.049-.023.088-.035.215-.191.331-.287.39-.348.428.025.32-.013.051-.078,0-.044-.1-.08-.2-.225.246.04.389.028-.013-.154.03-.065-.024-.1-.116-.129a2.022,2.022,0,0,1-.047-.21c.215,0,.268-.03-.031-.178,0-.039-.014-.062-.018-.1-.02-.365.408.045.3-.534-.871-.595.17-1.354-.109-1.808a.346.346,0,0,0-.187-.246c-.036-.081.056-.17.132-.249.483.076.129-.152-.133-.426.213-.193.912-.227-.12-.141a.618.618,0,0,1-.055-.094c.232-.036.292-.1,0-.216.059-.09.211-.165.513-.207l.58,0a9.02,9.02,0,0,1-.826-2.848c.012-.013.01-.026,0-.039-.027-.194-.055-.387-.074-.586.115-.028.089-.047,0-.063-.024-.252-.043-.506-.056-.765.318-.014.6.06,0-.056,0-.1,0-.2-.008-.3.117-.051.165-.1,0-.143-.093-3.412.522-7.26,0-10.36-.857-.608.774-.634.018-1.426-.578-.181-.576-.36,0-.357,1.446-.061-1-.715-.277-1.071,1.442-.429-1.131-.431.3-.89,1.1-.807-1.292-.165.024-1.961.182.012.507-.747.006-.535.1.132.69-5.416.056-4.636-.581.176-.577-.181,0-.357a8.192,8.192,0,0,0,.057-4.635c-.678-.49,1.152-1.09.018-1.6,1.4-.648-1.654-.48.3-.89,1.314-.052-.613-.314.009-.713.227-.458-1-.173-.861-.717C169.853,60.772,168.967,59.961,170,59.654ZM166.3,29.5a.681.681,0,0,1,.573.538C166.835,30.454,166.121,29.8,166.3,29.5Zm-.225,18.543c0-.179.288.179.286.358C166.339,48.538,165.658,48.079,166.079,48.047Zm-1.767-36.193c0-.29,0-.58.181-.577C165.231,10.1,164.106,13.365,164.312,11.854Zm-24.96-.751Zm.178.161c.405-.059.075.945-.182.867C139.17,12.129,139.172,11.549,139.53,11.264Zm-5.889,1.087c.072-.152-.228,1.051-.359.576C133.182,12.7,133.652,11.945,133.641,12.351Zm-7.313.491a1.293,1.293,0,0,1-.175-.582A.3.3,0,0,1,126.328,12.842Zm-1.606.271c-.069.086-.338-.182-.355-.295C124.6,12.844,124.759,12.715,124.722,13.113Zm-1.783-.022c-.069.086-.338-.182-.355-.294C122.818,12.822,122.976,12.694,122.939,13.091Zm-1.6-.309c.342-.644.537.378.177.292C121.156,13.069,121.156,13.069,121.336,12.782Zm-1.061-2.042c.031.529-.149.771-.358.285C119.937,10.913,120.208,10.651,120.275,10.74Zm-2.142.554c.014.312-.243.331-.356-.005C117.831,10.845,118.194,10.9,118.133,11.294ZM103.15,12.561c0,.414-.015.641-.36.575C102.824,12.717,102.962,12.492,103.15,12.561Zm-7.49.2c.713-.07.263.738-.181.577C95.3,13.045,95.482,12.758,95.66,12.76ZM17.92,12.4c-.088.2-.421.417-.535-.007C17.371,12.016,18.024,11.933,17.92,12.4Zm1.96.313c.114.867-.279.611-.357,0-.432-.776.457-.759.537-.283C19.878,12.439,19.677,12.122,19.88,12.709ZM29.5,13.7a.681.681,0,0,1,.538-.573C30.454,13.165,29.8,13.879,29.5,13.7Zm8.744-1.633c0-.29.18-.288.358-.286C38.617,11.873,38.506,12.753,38.248,12.063Zm.529,1.455.359-.575C39.717,11.049,39.708,13.876,38.777,13.518Zm4.284-1.107c-.178,0,0-.29.182-.867C44.023,10.805,43.089,12.415,43.061,12.411Zm1.423.887c.033-.419.171-.644.359-.575C44.847,13.137,44.828,13.364,44.484,13.3Zm3.563.623c-.179,0,.179-.288.358-.286C48.538,13.661,48.079,14.342,48.047,13.921Zm1.433-1.432c0-.29,0-.58.181-.577C49.956,11.39,50.106,12.723,49.48,12.489Zm1.607-.56c.234.025.392-.1.355.294C51.373,12.31,51.105,12.041,51.087,11.929Zm3.381,1.49c-.178,0-.355-.294-.355-.294C54.2,12.381,55.027,13.162,54.468,13.419Zm3.032-.253c-.423-.485.469-.31.357,0C57.856,13.46,57.679,13.168,57.5,13.166Zm3.211-.251a1.3,1.3,0,0,1-.176-.582C60.505,11.571,61.209,13.026,60.711,12.915Zm1.071-.277c.02-.112.291-.374.358-.285C62.171,12.882,61.991,13.124,61.782,12.638Zm11.587.721c.019-.113.29-.374.358-.286C73.758,13.6,73.578,13.844,73.369,13.359Zm4.456.344c-.178,0,0-.58,0-.87C78.235,12.721,77.851,13.746,77.825,13.7Zm2.863-2.284c.034-.419.172-.645.36-.576C81.052,11.258,81.033,11.485,80.688,11.419ZM83,12.9c.019-.113.29-.374.357-.286C83.388,13.14,83.208,13.381,83,12.9ZM13.612,85.77a.48.48,0,0,0,.121-.145c.019.047.028.075.051.134.13.353-.1.415-.365.454C13.36,86.146,13.386,86.025,13.612,85.77Zm-.275-1.249c-.292.177-.579,0-.577-.181C12.69,83.627,13.5,84.077,13.337,84.521Zm-.2-7.311c-.419-.034-.644-.172-.575-.36C12.975,76.846,13.2,76.865,13.136,77.21Zm-.354-18.546c-.644-.342.379-.537.292-.177C13.069,58.844,13.069,58.844,12.782,58.664Zm-.522-4.817a.3.3,0,0,1,.582-.175A1.293,1.293,0,0,1,12.26,53.847Zm.831,3.214c.086.069-.182.338-.294.355C12.822,57.182,12.694,57.024,13.091,57.061Zm-.273-1.428c.026-.234-.1-.392.294-.355C13.2,55.347,12.931,55.616,12.818,55.633Zm.109-8.915c-.225.1-.982-.37-.576-.359C12.2,46.286,13.4,46.587,12.927,46.718Zm-1.073-31.03c-.29,0-.58,0-.577-.181C10.1,14.769,13.365,15.894,11.854,15.688Zm.277,24.964c0,.179-.582.176-.868-.182C11.205,40.065,12.209,40.4,12.131,40.652Zm1.5,108.014c-.031-.024.046-.014.14.008a.722.722,0,0,0-.065.095C13.669,148.733,13.635,148.7,13.635,148.666Zm-1.692,4.909c.055.053.113.105.173.153l-.053.016C11.622,153.677,11.729,153.588,11.943,153.575Zm.474,6.417-.114,0a.391.391,0,0,1,.119-.048A.229.229,0,0,1,12.417,159.992Zm1.1-6.512-.042-.013c.013-.006.026-.01.039-.017A.145.145,0,0,1,13.518,153.48ZM10.74,59.725c.529-.031.771.148.285.358C10.912,60.063,10.652,59.792,10.74,59.725Zm.549,2.5c-.444-.055-.386-.417.005-.356C11.606,61.853,11.625,62.11,11.289,62.223Zm.79,100.09c.023,0,.047-.006.066-.01.276.015.215.1.01.2A.34.34,0,0,1,12.079,162.313Zm1.378-4.487a1.084,1.084,0,0,0-.139-.021l-.027-.011A.684.684,0,0,1,13.457,157.826Zm.276-24.125c.076-.036.294.1.5.235C14.135,133.9,13.98,133.831,13.733,133.7Zm.209-1.754c-.081-.046-.161-.089-.221-.129a.588.588,0,0,1-.063-.139.313.313,0,0,1,.1-.041l.051-.016C13.983,131.716,14.181,131.914,13.942,131.947Zm-.322-25.532v0Zm.083-4.24c0,.016-.026.016-.034.027a2.175,2.175,0,0,0-.353-.074c-.014.05-.012,0,0-.1A1.111,1.111,0,0,1,13.7,102.175Zm.078-14.881a1.788,1.788,0,0,1,0-.274.389.389,0,0,1,.278.094C13.974,87.107,13.878,87.18,13.781,87.294Zm2.279-1.741c-.277-.228.294-.964.54-.531C16.659,85.2,16.485,85.753,16.06,85.553Zm2.362-1.915c-1-.13-.047-1.005.336-.737-.047.135-.66.182.024.383C19.55,83.832,18.864,83.97,18.422,83.638Zm1.312-.071ZM29.1,74.358c-.2-.206-.047-.766.132-.943C29.779,73.035,29.4,74.33,29.1,74.358Zm7.59-9.9c-.2-.207-.024-.383.156-.56C37.035,64.019,37.308,64.676,36.693,64.459Zm1.557.5c.2-.141-.689-2.453.109-1.326C38.779,63.811,38.7,64.762,38.25,64.96Zm3.5-5.068c-.18.177-.2-.206-.431-.8C41.571,57.818,41.786,59.848,41.752,59.892Zm2.049-.8c-.312-.349-.217-.7-.047-.766C44.105,58.633,44.13,58.863,43.8,59.1Zm4-3.123c-.18.177-.024-.383.156-.56C48.17,55.384,48.076,56.251,47.805,55.974Zm.421-2.445c-.2-.207-.408-.413-.228-.59C48.018,52.224,48.966,53.224,48.226,53.529Zm1.211-2c.207-.161.316-.488.563-.147C50.039,51.461,49.56,51.608,49.437,51.525ZM53.872,49.2a.856.856,0,0,1-.564.147C52.875,48.727,54.235,48.455,53.872,49.2Zm2.853-3.211c-.761.1.2-.679.36-.354C57.288,45.84,56.905,45.81,56.725,45.987ZM59.758,42.6a1.071,1.071,0,0,1-.587-.236C58.622,41.85,60.329,42.184,59.758,42.6Zm.876-1.267c-.081-.124.073-.6.156-.56C61.219,41.132,61.152,41.466,60.634,41.332Zm12.1-11.077c-.081-.124.073-.6.156-.56C73.315,30.055,73.248,30.389,72.73,30.255Zm4.7-4.213c-.18.176-.407-.413-.611-.619C77.12,24.94,77.484,26.006,77.429,26.042Zm4.6-5.745c-.081-.124.074-.6.156-.56C82.618,20.1,82.551,20.431,82.033,20.3ZM90.567,29.5a.683.683,0,0,1,.573.538C91.1,30.454,90.384,29.8,90.567,29.5Zm-.225,18.543c0-.179.287.179.285.358C90.6,48.538,89.921,48.079,90.342,48.047Zm2.818,91.306Zm.259-58.305c-.414,0-.641-.015-.575-.36C93.263,80.722,93.488,80.86,93.419,81.048Zm-1.879-36.2c-.414,0-.641-.015-.575-.36C91.384,44.517,91.609,44.655,91.54,44.843Zm-.7,9.625c0-.178.294-.355.294-.355C91.881,54.2,91.1,55.027,90.844,54.468Zm.248,3.389c-.29,0,0-.178,0-.357C91.582,57.077,91.406,57.969,91.092,57.857Zm.229,4.994c.29,0,0,.178,0,0Zm.589-.711c-.529.031-.771-.149-.286-.358C91.737,61.8,92,62.073,91.91,62.14Zm-.563-1.429a1.3,1.3,0,0,1,.582-.176C92.692,60.505,91.237,61.209,91.347,60.711Zm.073,65.617a1.3,1.3,0,0,1,.582-.176A.3.3,0,0,1,91.42,126.328ZM90.9,73.369c.113.019.374.29.285.358C90.66,73.758,90.419,73.578,90.9,73.369Zm-.344,4.456c0-.178.58,0,.869,0C91.542,78.235,90.517,77.851,90.56,77.825ZM91.367,83c.113.02.374.291.285.359C91.123,83.388,90.881,83.208,91.367,83Zm-.442,12.48c.292-.177.58,0,.578.181C91.573,96.373,90.764,95.923,90.925,95.479Zm.2,7.311c.419.034.645.172.576.36C91.287,103.154,91.06,103.135,91.126,102.79Zm.355,18.546c.644.342-.379.537-.292.177C91.193,121.156,91.193,121.156,91.481,121.336Zm-.309,1.6c-.087-.069.182-.338.294-.355C91.441,122.818,91.569,122.976,91.172,122.939Zm.272,1.428c-.025.234.1.392-.294.355C91.063,124.653,91.332,124.384,91.444,124.367Zm-.108,8.915c.224-.1.982.37.575.359C92.064,133.713,90.861,133.413,91.336,133.282Zm1.073,31.03c.289,0,.579,0,.577.181C94.166,165.231,90.9,164.106,92.409,164.312Zm1.114-44.037c-.529.031-.771-.149-.286-.357C93.35,119.937,93.611,120.208,93.523,120.275Zm-.55-2.5c.445.055.387.417,0,.356C92.656,118.147,92.638,117.89,92.973,117.777ZM93,139.53c.059.405-.945.075-.867-.182C92.134,139.169,92.714,139.172,93,139.53ZM92.04,51.442c-.087-.069.182-.337.294-.355C92.309,51.321,92.437,51.479,92.04,51.442Zm-.266-1.962c.289,0,.579,0,.577.181C92.872,49.956,91.539,50.106,91.774,49.48Zm.945-6.237c.739.78-.872-.154-.868-.182C91.854,42.883,92.141,43.062,92.719,43.243Zm-.519-5c.29,0,.287.18.285.358C92.39,38.617,91.51,38.506,92.2,38.248Zm-1.456.529.575.359C93.214,39.717,90.386,39.708,90.744,38.777Zm1.1-18.717c-.018-.182.3-.383-.288-.18-.866.114-.61-.279.005-.357C92.333,19.091,92.317,19.98,91.841,20.06Zm.026-2.14c-.2-.088-.418-.421.006-.535C92.247,17.371,92.33,18.024,91.867,17.92Zm4.266,1.167a.338.338,0,0,1,.59-.227C97.49,19.55,96.427,19.624,96.133,19.087Zm7.454,7.169c.349-.311.695-.216.766-.047C104.051,26.56,103.82,26.585,103.587,26.256ZM120.233,40.3c-.2.244-.482-.025-.354-.359C120.251,39.674,120.57,40.085,120.233,40.3Zm1.973,1.595c.124-.081.6.073.56.156C122.406,42.476,122.072,42.409,122.206,41.891Zm.531,3.02c-.246.443-1.023-.522-.354-.36C122.766,44.527,122.943,44.707,122.737,44.911Zm1.031,1.462c-.084.039-.23-.44-.148-.563C123.782,46.017,124.109,46.126,123.768,46.373Zm1.767,1.8c-.083.039-.23-.44-.147-.563C125.55,47.815,125.877,47.925,125.535,48.171Zm1.8,1.415a1.066,1.066,0,0,1,.235-.587C127.961,49.233,127.82,49.851,127.333,49.586Zm7.659,6.966c.145-.008-.983.507-.766.048C134.346,56.305,135.289,56.3,134.992,56.552Zm5.863,5.551c-.177-.18.236-.587.8-.431C142.094,62.027,141.065,62.421,140.855,62.1ZM167.511,49.48c.29,0,.58,0,.577.181C168.609,49.956,167.277,50.106,167.511,49.48Zm.945-6.237c.739.78-.871-.154-.867-.182C167.591,42.883,167.879,43.062,168.456,43.243Zm-.519-5c.29,0,.288.18.286.358C168.128,38.617,167.247,38.506,167.937,38.248Zm-.326-20.863c.373-.014.456.639-.007.535C167.407,17.832,167.187,17.5,167.611,17.385Zm-.316,2.138c.776-.432.759.457.283.537-.018-.182.3-.383-.287-.18C166.424,19.994,166.68,19.6,167.3,19.523Zm-.813,19.254.575.359C168.951,39.717,166.123,39.708,166.482,38.777Zm.795,6.066c-.414,0-.641-.015-.575-.36C167.121,44.517,167.346,44.655,167.277,44.843Zm-.7,9.625c0-.178.294-.355.294-.355C167.619,54.2,166.838,55.027,166.581,54.468Zm.249,3.389c-.29,0,0-.178,0-.357C167.319,57.077,167.144,57.969,166.83,57.857Zm.229,4.994c.29,0,0,.178,0,0Zm.588-.711c-.529.031-.771-.149-.285-.358C167.474,61.8,167.736,62.073,167.647,62.14Zm-.562-1.429a1.3,1.3,0,0,1,.582-.176C168.429,60.505,166.974,61.209,167.085,60.711Zm.692-9.269c-.087-.069.182-.337.294-.355C168.046,51.321,168.174,51.479,167.777,51.442Zm-1.136,21.927c.113.019.374.29.286.358C166.4,73.758,166.156,73.578,166.641,73.369Zm-.344,4.456c0-.178.58,0,.87,0C167.279,78.235,166.254,77.851,166.3,77.825ZM167.1,83c.113.02.374.291.285.359C166.86,83.388,166.619,83.208,167.1,83Zm-1.089,3.872c.015-.018.033-.031.049-.047-.011.1-.017.194-.019.282C165.634,87.262,165.648,87.234,166.015,86.871Zm.064,20.021c0-.086.261.075.279.167-.007.008-.017.016-.023.024C166.2,107.073,165.72,106.929,166.079,106.892Zm2.719,57.843a.627.627,0,0,0,.163-.06C169.019,164.747,168.942,164.759,168.8,164.735Zm-1.617-40.343c0,.058,0,.109,0,.155a1.688,1.688,0,0,1-.222-.019.568.568,0,0,1,.192-.145Zm2.085-4.171c0,.02.009.043-.006.054h-.038l.01,0A.092.092,0,0,1,169.266,120.221Zm-2.62-3.158a.617.617,0,0,1,0,.153.293.293,0,0,0-.148-.022,1.107,1.107,0,0,1-.077-.116A1.959,1.959,0,0,0,166.646,117.063Zm2.511-36.015c-.415,0-.642-.015-.576-.36C169,80.722,169.225,80.86,169.157,81.048Z" style="fill: #fff"></path><path d="M165.984,122.247a.654.654,0,0,0-.226-.027A.166.166,0,0,0,165.984,122.247Z" style="fill: #fff"></path><path d="M90.869,124.008c0,.178.287.179,0,0Z" style="fill: #fff"></path><polygon points="90.869 124.008 90.869 124.008 90.869 124.008 90.869 124.008 90.869 124.008" style="fill: #fff"></polygon><path d="M90.079,105.112c-.042,0-.031,0,0,0Z" style="fill: #fff"></path><path d="M93.543,46.992c.594,0,.086,0-.171,0Z" style="fill: #fff"></path><path d="M93.286,20.423c.4.037.269-.122.294-.355C93.467,20.085,93.2,20.354,93.286,20.423Z" style="fill: #fff"></path><path d="M90.247,122.247a.654.654,0,0,0-.226-.027A.166.166,0,0,0,90.247,122.247Z" style="fill: #fff"></path><path d="M87.241,17.007c-.066.345.161.364.575.359C87.885,17.179,87.66,17.041,87.241,17.007Z" style="fill: #fff"></path><path d="M93.179,53.052a1.3,1.3,0,0,0-.581.176A.3.3,0,0,0,93.179,53.052Z" style="fill: #fff"></path><path d="M90.264,30.572c-.469-.072-.31.832-.011.892C90.721,31.408,90.826,30.469,90.264,30.572Z" style="fill: #fff"></path><path d="M85.6,56.584a1.278,1.278,0,0,0-.577-.181C84.275,56.361,85.693,57.085,85.6,56.584Z" style="fill: #fff"></path><path d="M95.167,56.449c0-.356,0-.356-.288-.179C94.761,56.726,95.182,56.729,95.167,56.449Z" style="fill: #fff"></path><path d="M93.253,46.99h0Z" style="fill: #fff"></path><path d="M126.948,168.917a1.3,1.3,0,0,0-.176-.582A.3.3,0,0,0,126.948,168.917Z" style="fill: #fff"></path><path d="M133.008,169.262v.018C133.006,169.769,133.007,169.511,133.008,169.262Z" style="fill: #fff"></path><path d="M57.769,165.85a.508.508,0,0,0,.01-.092C57.693,165.631,57.692,165.712,57.769,165.85Z" style="fill: #fff"></path><path d="M133.01,168.99c0-.048,0,.11,0,.272C133.01,168.979,133.011,168.707,133.01,168.99Z" style="fill: #fff"></path><path d="M159.577,169.023c-.037.4.121.269.355.294C159.915,169.205,159.646,168.936,159.577,169.023Z" style="fill: #fff"></path><path d="M74.9,165.8v.163h0Z" style="fill: #fff"></path><path d="M149.428,166c.072-.468-.832-.309-.892-.01C148.592,166.459,149.531,166.563,149.428,166Z" style="fill: #fff"></path><path d="M165.47,167.066c-.694-2.533-.354,1.34-.713-.009.036-.342-1.126-2.127-1.064-1.172.177.292-.18.287-.356-.294-.324-.826-.007,1.858-.714.281-.933-.452-.255,1.519-.718.861a1.237,1.237,0,0,1-.175-.582c-.32-1.036-1.133.645-.89-.3-2.353-1.064-.447.685-1.788,1.138-.051-.359.19-2.384-.353-.875v-.289c-.492-1.181-1.072,2.079-1.252.855-.132-1.3-.6.534-.533-.3.287-.81-2.388.06-2.316-.608,0-.289-.714.282-1.073.857,0,.04,0,.054.007.079-.035-.169-.163-.522-.541-.375-1.157.274.084-1.469-.712-.3-.181.578-.714.281-.712-.3.03-.476-2.278-.162-1.963.555,0,.58-.181.578-.538.574a11.252,11.252,0,0,0-2.312-1.477c-.41.109.057,1.069-1.072.566-1.647.616-.762-1.177-1.783-.022,0,.29-.179.288-.356,0-.3-.056-.44.884-.893.279-.128-.644-2.506.318-2.851-.325.066-.316-.161.475-.358.286-.176-.918-.716.489,0,.29-.305,1.608-.643-1.776-.89-.3q-.272.867-.535-.006c.159-1.284-1.145,2.583-1.071.276.037-.955-.6-1.215-.533-.3.182,1.3-1.106-1.827-1.782-.311-2.1,1.192.548-.777-1.6-.309-.245-.053-.332.4-.359.711,0-.042,0-.083,0-.136-.412-1.673-1.639.848-2.138-.316-.44-.951-.4.253-.894.569-.553.375.147-.669-.531-.876-.71.3-1.159.689-2.141.263-.383,0-1.067,1.032-1.249.276-.029-.715-.064,1.338-.357,0,0-.579,0-.579-.178,0-.28.742-.412-.723-.535-.007-.181.578-.717.861-.714.282-.305-.155-.646,1.52-.536.283-.378-1.249-.352.486-.892-.011-.848-.661-1.044-.161-1.605-.019-.442-.534-.79.064-.893.279-.312-1.266-.414-.109-.712-.009-.847-1.37-.4.334-.713-.3a.525.525,0,0,0-.533-.3c-.126.443.041-.387,0-.29-.177-.292-.178,0-.179.288-.048.047-.888-.175-.537.283.13.433-.415.861-.181.578.135-.561-.359-.542-.352-.874-.007-1.29-1.407,1.374-1.248-.015-.1-.968-.691,1.345-.722,1.73.009-2.164-.062-1.577-1.063-1.461-.108-.726-1.575-.048-1.783-.022-.175-.582-.533-.3-.358.285.013.22.049-.059-.356,0,.763-.872-4.2-.85-3.566-.044-.343,1.031-.219-.387-1.067-.592-.532-.586-.712-.3-.713-.009.319,1.109-.535-.9-.534-.3-.593.654-1.064.094-1.605-.02-.708,1.022-1.175-.5-1.6-.019-1.684,2.726-.367-.811-1.251.564.027,1.133.124-.641-.712-.3-.591-.279-1.046.712-.893.279-.592-1.277-1.45.458-1.783-.021-.279-.6-.494.685-.89-.3-.451-1.072-2.083.5-1.966,1.136-.743.339.421-.273-.176-.582-.359-.328-2.1-.651-2.138-.316.479.923-1.775-1.032-2.319.263.106-1.509-3.383.624-3.563-.624-.238,1.548-1.109-.222-2.143.554-.955-1.22-1.225.07-1.424-.6-.177-.292-.175-.582-.356,0-.651.5-1.872-.343-1.607.56-.215-1.271-.342.754-.535-.007-.447-.685-4.845.356-4.638.234-.261-.568-.819,0-.888-.591-.381.759-.328-.339-.715.281-.181.578-.181.578-.178,0-.279-1.215-.818,1.074-1.248-.015-1.024-.47-1.031.746-1.783-.022-.127-.769-3.374-.708-3.571,1.116a4.353,4.353,0,0,0-.172-1.451c-.378.064.1,1.3-.716.571-.236-.178-1.638-.323-1.426-.018-.082.766-.9-1.206-1.068-.3-.054.377-.934.465-1.251.565.124-.418-.047-.948-.713-.3-.383,1.384.069-.929-.533-.3-.181.577-.358.285-.356,0,.554-.994-1.394.537-2.141.263a1.041,1.041,0,0,1-1.256-.5c-.015.99-1.539-.095-1.777.756-.464.24.331-.079.357,0-.362,1.509-.678-.763-1.065-.883-.179,0-.357,0-.18.288.04.6-.464.025-.716.571-.013.668-.763-.106-.884-.012-.022-.256-.107-.975-.182-.87-.021.726-4.142.493-5,.518-.688-.054-4.366.411-5.352.515-1.231.268-.85.679-1.246-.305-.527-.1-.212.85-.539.863-.33.134-.12-.9-.175-.872-.418.158-.518.735-.533-.3.068-1.14-.5.336-.715.281-.515-1.123-.862,1.675-.714.282-.427-1.368-.406.8-.892-.011-.571-.629-6.219.476-6.6-.08-.025-.929-.66,1.422-.536.283-.008-.942-3.184.369-2.5-.03.27-1.3-1.467.122-1.6-.6-2.921.973-7.692-.5-9.631.462.2-.89-.819-.559-.891-.011-.177-.291-.354-.583-.534-.3-.339.205-.006-1.184-.351-1.163-.134.55-.463.416-.717.86-.061.693-.674-.241-.359.576-.668,1.04.46,3.568,1.416,2.336a66.257,66.257,0,0,0,10.338.7c1.366-.1,1.988-.445,3.744.045.44.64.96-2,.893-.278-.416.448.385.246.534.3-.231-.546,4.713.015,4.281-.527.105-.817,2.235,1.538,1.958.6-1.134-1.885,2,.852,3.036-.833v.29c.746.86,2.021-.518,3.028.617,1.387-.792,2.96.715,3.214-1.121-.22,1.283,3.585.245,3.207.619.257.487,1.2-.01,1.605.019.176.582.71.589.891.011,0-.062,0-.1,0-.126.013.15.08.563.358.42.866-.455,1.12.144,1.784-.268.419.065,1.417-1.3.713.009-.63,1,2.008-1.645.893-.279-.18.288-.359.575,0,.29.48-.409,1.67-.094,1.961.023.1.748.225-1.173.714-.281.012,1.1.277-.12.535.007-.471-.009,3.33,1.046,3.568-.246-.062-1.074.767,2.016.534,0-.375-1.291.274.773.535.007,0-.289.18-.287.179,0,.727,1.557,2.044-.913,1.781.311.041,1.377,1.279-1.211,1.073-.567.447,1.349,1.613-.911,2.137.606.169.085.851-1.582.715-.571v.29c.516-.988.839.415,1.067.593.02-2.007.785.409,1.961.023.521-.643.476.471,1.072-.277.719-.234.387.884.711.3.136-1.01,2.434.217,2.143-.554-.591-.421,2.32.917,2.139.026-.364-1.443.659,1.278.712.3.445-.76.238.349.893-.279.363-.02-.043.407.534.3.671-.978,1.54.464,1.962-.266.181-.578.359-.575.357,0-.231,1.09,1.288-1.56,1.065.883.994-1.354,3.036-.322,4.284-.818.276-.341,1.009.069,1.249-.275,0,.29.176.582.355.295,2.452-.661,7.733.7,9.809-.461.236,1.544,1.365-.939,1.247.305.061,1.446.714-1,1.071-.277.176.582.354.584.355.294.377-1.463.774,1.482,1.07.013.506-1.4,1.813,1.205,1.961.024-.092.095,5.388.691,4.636.056-.176-.581.181-.577.357,0a8.192,8.192,0,0,0,4.635.057c.473-.677,1.1,1.152,1.6.018.646,1.4.482-1.654.89.3.052,1.314.315-.613.713.009.45.227.179-1,.717-.861-.417,1.025.408.139.709,1.168.568.772-.19-1.217.538-.863.587-.1.087.713.711.588.911.337,1.315-2.691,1.432-1.432-.049.552.656.047.356.3,0,.289-.18.287-.358.285.087,1.676.515-.311.89.3.7.921,1.52.436,2.141-.263.451-1.229.85-.432,1.426.018.743.729.459-.045.538-.574.324-.06.529,2.2.531.876,0-.29.181-.577.536-.283.611-.214.772.694,1.069.3.318-.862,2.083,1.309,1.782.021-.133-.331,1.229.672,1.077-1.436-.169-.96.707-.2.712.3-.216.433-.715.625,0,.87.177.292.355.294.356,0-.183-.436.334.566.891.3,1.991.624,1.3-.122,1.784-.269,1.221,1.024,5.507.611,6.062.075-.332.286,2.2.561,1.6.019,1.3-.714.287,1.869,1.07.013.821-1.111.315-.014.175.581.35-.1,1.141-.688.72-1.44.909-1.147-.513,3.042,1.247.305-.29.239,1.171,1.432,1.427-.273.16.167-.676-1.229.357,0,.41.859,2.572,1.437,3.027.907.514.289.989-.141,1.426.016.718,1.246.065-1.472-.887-.88a1.96,1.96,0,0,0,1.253-1.144c-.181.384-.162,2.916.528,1.746.427-.095.332,1.11.712.008.2-1.286,1.154,1.373,1.6.309.211-1.274.894.435,1.249-.274,0-.088,0-.14,0-.166.008.135.071.913.36.46.139-.6.344-.662.185-1.447-.078-.763,1.471,1.294,1.42,1.467-.031-1.772.485.844.714-.282,0-1.417.379,1.126.715-.281.009-1.256.124.665.532.586-.025-.21.021-1.226.36-.575-.089.583,1.1-.452,1.068.3.011,1.289.072-.864.713.008.455.805.418-1.123.182-.867C163.653,168.224,166.788,167.278,165.47,167.066Zm-149.782,1.08c0,.29,0,.579-.181.577C14.769,169.9,15.894,166.635,15.688,168.146Zm24.782.591c-.405.058-.075-.946.182-.868C40.831,167.871,40.828,168.451,40.47,168.737Zm5.889-1.088c-.073.153.228-1.051.359-.576C46.818,167.3,46.348,168.055,46.359,167.649Zm7.313-.491a1.293,1.293,0,0,1,.175.582A.3.3,0,0,1,53.672,167.158Zm1.606-.271c.069-.086.338.182.355.295C55.4,167.156,55.241,167.285,55.278,166.887Zm1.783.022c.069-.086.338.182.355.294C57.182,167.178,57.024,167.306,57.061,166.909Zm1.6.309c-.342.644-.537-.378-.177-.292C58.844,166.931,58.844,166.931,58.664,167.218Zm1.061,2.042c-.031-.529.149-.771.358-.285C60.063,169.087,59.792,169.349,59.725,169.26Zm2.142-.554c-.014-.312.243-.331.356.005C62.168,169.155,61.806,169.1,61.867,168.706Zm14.983-1.267c0-.414.015-.641.36-.575C77.176,167.283,77.038,167.508,76.85,167.439Zm7.49-.2c-.713.07-.263-.739.181-.577C84.7,166.955,84.518,167.242,84.34,167.24Zm12.3.149c-.031-.529.149-.77.357-.285C96.981,167.217,96.71,167.478,96.643,167.389Zm2.309,1.768c0-.415.015-.642.36-.576C99.278,169,99.14,169.225,98.952,169.157Zm3.219-1.99c-.406.112-.022-.913,0-.87C102.353,166.3,102.172,166.877,102.171,167.167Zm4.1-.24c-.031-.529.149-.771.358-.286C106.612,166.754,106.341,167.015,106.273,166.927Zm11.587.72c-.031-.529.149-.771.358-.285C118.2,167.474,117.927,167.736,117.86,167.647Zm1.249-.275c-.007-.6.345-.2.355.295C119.463,167.956,119.285,167.954,119.109,167.372Zm3.034-.542c0-.29.178,0,.357,0C122.923,167.319,122.031,167.144,122.143,166.83Zm3.389-.249c.178,0,.355.294.355.294C125.8,167.619,124.973,166.838,125.532,166.581Zm3.026,1.2c.069-.086.337.182.355.294C128.679,168.046,128.521,168.174,128.558,167.777Zm1.781.311c-.295.521-.445-.811.181-.577C130.519,167.8,130.518,168.091,130.339,168.088Zm1.256-1.723c-.133-.026.326-.707.358-.286C132.132,166.081,131.774,166.367,131.6,166.365Zm3.562.912c0-.414.015-.641.359-.575C135.483,167.121,135.345,167.346,135.157,167.277Zm1.6,1.179c-.78.739.154-.871.182-.867C137.117,167.591,136.938,167.879,136.757,168.456Zm4.107-1.4c-.581,1.894-.572-.934.359-.575Zm.53,1.166c-.011-.1.1-.976.358-.286C141.75,168.227,141.572,168.225,141.394,168.223Zm8.565-1.346c-.413-.042.244-.756.537-.573A.682.682,0,0,1,149.959,166.877Zm9.981.7c.4.4.035-1.846.537-.283C160.909,168.071,160.02,168.054,159.94,167.578Zm2.14.026c.088-.2.421-.417.535.007C162.629,167.984,161.976,168.067,162.08,167.6Z" style="fill: #fff"></path><path d="M162.633,163.553c.188.069.326-.156.36-.575C162.648,162.912,162.629,163.139,162.633,163.553Z" style="fill: #fff"></path><path d="M123.6,160.761c.042-.749-.682.669-.181.577A1.273,1.273,0,0,0,123.6,160.761Z" style="fill: #fff"></path><path d="M20.423,10.977c.037-.4-.122-.269-.355-.294C20.085,10.8,20.354,11.064,20.423,10.977Z" style="fill: #fff"></path><path d="M46.993,10.515Z" style="fill: #fff"></path><path d="M46.99,11.01c0,.182,0,.125,0-.006Z" style="fill: #fff"></path><path d="M53.052,11.083a1.3,1.3,0,0,0,.176.582A.3.3,0,0,0,53.052,11.083Z" style="fill: #fff"></path><path d="M56.449,9.1c-.356-.005-.356-.005-.179.287C56.726,9.5,56.729,9.08,56.449,9.1Z" style="fill: #fff"></path><path d="M46.992,10.72l0,.284,0-.489Z" style="fill: #fff"></path><path d="M56.584,18.662a1.273,1.273,0,0,0-.181.577C56.361,19.988,57.085,18.569,56.584,18.662Z" style="fill: #fff"></path><path d="M105.112,14.184c0,.042,0,.03,0,0Z" style="fill: #fff"></path><path d="M109.93,10.908l0,0C109.934,10.835,109.932,10.85,109.93,10.908Z" style="fill: #fff"></path><path d="M122.246,14.017a.652.652,0,0,0-.025.225A.167.167,0,0,0,122.246,14.017Z" style="fill: #fff"></path><path d="M17.366,16.447c-.187-.069-.325.156-.359.575C17.352,17.088,17.371,16.861,17.366,16.447Z" style="fill: #fff"></path><path d="M31.464,14.009c-.056-.467-.995-.572-.892-.011C30.5,14.467,31.4,14.308,31.464,14.009Z" style="fill: #fff"></path></g></svg>