<svg xmlns="http://www.w3.org/2000/svg" id="Layer_1" data-name="Layer 1" width="180" height="180" viewBox="0 0 180 180"><g><path d="M114.454,31.022c.185.34.44-.036.293-.114C114.572,30.727,114.572,30.727,114.454,31.022Z" style="fill: #fff"></path><path d="M111.643,30.615a1.684,1.684,0,0,0-.324.5C111.555,31.183,111.908,30.794,111.643,30.615Z" style="fill: #fff"></path><path d="M108.618,27.578Z" style="fill: #fff"></path><path d="M98.342,21.436c-.206.2-.118.3.057.477C99.185,22.183,98.887,20.77,98.342,21.436Z" style="fill: #fff"></path><path d="M144.037,67.416c-.144.132-.194.219,0,0Z" style="fill: #fff"></path><path d="M95.316,14.134c.253.188.314-.233.118-.295Z" style="fill: #fff"></path><path d="M89.421,16.792c.158.243.312.031.587-.228C89.929,16.4,89.715,16.548,89.421,16.792Z" style="fill: #fff"></path><path d="M140.2,58.931l.01,0C140.238,58.9,140.226,58.907,140.2,58.931Z" style="fill: #fff"></path><path d="M108.618,27.578l.252-.25c.571-.568-.294.291-.206.2Z" style="fill: #fff"></path><path d="M69.915,145l-.116.115h0Z" style="fill: #fff"></path><path d="M39.8,119.48l-.01,0C39.762,119.515,39.774,119.505,39.8,119.48Z" style="fill: #fff"></path><path d="M35.963,110.994c.144-.131.194-.217,0,0Z" style="fill: #fff"></path><path d="M84.684,164.277c-.252-.188-.314.234-.118.3Z" style="fill: #fff"></path><path d="M71.332,150.884c-.042.041-.729.723-.2.2Z" style="fill: #fff"></path><path d="M90.579,161.62c-.158-.244-.312-.031-.587.227C90.071,162.015,90.285,161.863,90.579,161.62Z" style="fill: #fff"></path><path d="M65.546,147.39c-.186-.341-.44.035-.293.113C65.428,147.685,65.428,147.685,65.546,147.39Z" style="fill: #fff"></path><path d="M71.332,150.884s.011-.011,0,0C71.465,150.751,71.425,150.791,71.332,150.884Z" style="fill: #fff"></path><path d="M68.357,147.8a1.684,1.684,0,0,0,.324-.5C68.445,147.228,68.092,147.617,68.357,147.8Z" style="fill: #fff"></path><path d="M81.658,156.975c.206-.2.118-.295-.057-.476C80.815,156.228,81.113,157.641,81.658,156.975Z" style="fill: #fff"></path><path d="M71.95,140.672a1.672,1.672,0,0,0,.5-.318C72.971,139.931,71.684,140.429,71.95,140.672Z" style="fill: #fff"></path><path d="M111.773,143.2c-.023.1.042.136.142.141A1.353,1.353,0,0,0,111.773,143.2Z" style="fill: #fff"></path><path d="M148.3,113.952c.181-.175.181-.175-.114-.293C147.844,113.845,148.219,114.1,148.3,113.952Z" style="fill: #fff"></path><path d="M151.674,107.87c-.087-.088.771.776.2.2Z" style="fill: #fff"></path><path d="M148.591,110.849a1.7,1.7,0,0,0-.5-.324C148.022,110.761,148.412,111.113,148.591,110.849Z" style="fill: #fff"></path><path d="M162.641,89.213c.169-.079.016-.293-.227-.586C162.17,88.785,162.383,88.938,162.641,89.213Z" style="fill: #fff"></path><path d="M141.466,107.256a1.637,1.637,0,0,0-.318-.5C140.725,106.234,141.223,107.522,141.466,107.256Z" style="fill: #fff"></path><path d="M157.293,97.605c-.271.786,1.142.488.476-.058C157.565,97.342,157.474,97.429,157.293,97.605Z" style="fill: #fff"></path><path d="M120.274,139.406l0,.01C120.309,139.443,120.3,139.431,120.274,139.406Z" style="fill: #fff"></path><path d="M165.366,94.639l-.3-.118C164.884,94.774,165.305,94.835,165.366,94.639Z" style="fill: #fff"></path><path d="M22.231,80.864c.2.206.295.118.476-.057C22.978,80.02,21.565,80.318,22.231,80.864Z" style="fill: #fff"></path><path d="M68.15,35.136c.025.025.046.049.077.076C68.416,35.308,68.333,35.218,68.15,35.136Z" style="fill: #fff"></path><path d="M28.362,70.578Z" style="fill: #fff"></path><path d="M38.534,71.155a1.625,1.625,0,0,0,.318.5C39.275,72.177,38.777,70.889,38.534,71.155Z" style="fill: #fff"></path><path d="M14.929,83.89c.187-.253-.234-.314-.295-.118Z" style="fill: #fff"></path><path d="M28.14,70.354l.019.019Z" style="fill: #fff"></path><path d="M28.326,70.542l-.167-.169.2.2Z" style="fill: #fff"></path><path d="M17.586,89.784c.244-.158.031-.311-.227-.586C17.19,89.277,17.343,89.491,17.586,89.784Z" style="fill: #fff"></path><path d="M31.409,67.563a1.705,1.705,0,0,0,.5.323C31.978,67.651,31.588,67.3,31.409,67.563Z" style="fill: #fff"></path><path d="M28.14,70.354c-.178-.179-.366-.368-.018-.018Z" style="fill: #fff"></path><path d="M31.7,64.459c-.181.175-.181.175.114.293C32.156,64.566,31.781,64.312,31.7,64.459Z" style="fill: #fff"></path><path d="M9.1,122.756c-.005.357-.005.357.287.18C9.5,122.479,9.08,122.477,9.1,122.756Z" style="fill: #fff"></path><path d="M11.083,126.153a1.293,1.293,0,0,0,.582-.175A.3.3,0,0,0,11.083,126.153Z" style="fill: #fff"></path><path d="M14.129,124.914c.063,0,.05,0,0,0Z" style="fill: #fff"></path><path d="M14.016,56.959a.682.682,0,0,0,.226.026A.166.166,0,0,0,14.016,56.959Z" style="fill: #fff"></path><path d="M14.185,74.094c.041,0,.029,0,0,0Z" style="fill: #fff"></path><path d="M10.6,118.662l.013.01C10.609,118.631,10.606,118.613,10.6,118.662Z" style="fill: #fff"></path><path d="M18.662,122.622a1.273,1.273,0,0,0,.577.181C19.988,122.845,18.57,122.12,18.662,122.622Z" style="fill: #fff"></path><path d="M10.45,132.213h0Z" style="fill: #fff"></path><path d="M16.447,161.839c-.069.188.156.326.575.359C17.088,161.854,16.861,161.834,16.447,161.839Z" style="fill: #fff"></path><path d="M14,148.633c.468.073.309-.831.01-.891C13.541,147.8,13.437,148.736,14,148.633Z" style="fill: #fff"></path><path d="M10.977,158.783c-.4-.037-.269.121-.294.355C10.8,159.12,11.064,158.852,10.977,158.783Z" style="fill: #fff"></path><path d="M10.45,132.213h0Z" style="fill: #fff"></path><path d="M166,29.778c-.469-.073-.31.831-.011.891C166.458,30.613,166.563,29.675,166,29.778Z" style="fill: #fff"></path><path d="M165.816,104.317Z" style="fill: #fff"></path><path d="M168.99,46.2h0Z" style="fill: #fff"></path><path d="M169.023,19.628c.4.038.269-.121.294-.355C169.2,19.291,168.936,19.559,169.023,19.628Z" style="fill: #fff"></path><path d="M168.917,52.258a1.3,1.3,0,0,0-.582.176A.3.3,0,0,0,168.917,52.258Z" style="fill: #fff"></path><path d="M165.984,121.452a.682.682,0,0,0-.226-.026A.165.165,0,0,0,165.984,121.452Z" style="fill: #fff"></path><polygon points="166.607 123.213 166.606 123.213 166.606 123.213 166.606 123.213 166.607 123.213" style="fill: #fff"></polygon><path d="M166.607,123.213c0,.178.286.18,0,0Z" style="fill: #fff"></path><path d="M170.617,55.475c-.119.457.3.459.287.18C170.909,55.3,170.909,55.3,170.617,55.475Z" style="fill: #fff"></path><path d="M169.28,46.2c.489,0,.231,0-.019,0Z" style="fill: #fff"></path><path d="M170,58.86c.772-.566-1.217.188-.863-.539-.1-.593.713-.082.588-.71.336-.925-2.69-1.306-1.432-1.433.551.045.047-.652.3-.355.3.492,1.622.279.582-.176-.758-.228.842-.628.3-.712.826-1.2-.728-1.407-1.131-2.323-.466-.557.631-.492.884-1.244.2-.4-2.018-.065.007-.535.833-.493-1.1.612.022-1.783-.862-.32,1.309-2.083.021-1.783-.823-.022.73-.189-.279-.893-2.7-.012-.99-1.533-.573-.537.37.179,1.116-.708.588-.711-.436.2.566-.347.3-.89.6-1.882-.113-1.337-.269-1.784,1.407-2.23-.05-5.282.378-7.131.047-1.531-.434.232-.284-.536-.714-1.3,1.869-.291.013-1.07-1.649-1.158,1.457.414.3-.533.027,0-.571-.833-1.155-.362-.913-.353.661-.5,1.161-.173.289,0-.273-.883-.847-1.07.256-.026.794-.162.579-.715-.07-1.007-.868-.437-1.442-.541.99-.538,2.234-2.74,1.492-3.559.29-.566-.14-.953.017-1.427,1.246-.7-1.472-.074-.88.888a1.957,1.957,0,0,0-1.144-1.253c.384.181,2.916.161,1.746-.528-.095-.427,1.111-.332.008-.713-1.286-.2,1.373-1.154.309-1.6-1.274-.211.435-.894-.274-1.249-.088,0-.14,0-.166,0,.135-.008.913-.07.46-.36-.6-.139-.662-.343-1.447-.185-.741-.294,2.221-1.712.887-1.422-.177-.482,1.227-.344.3-.712-1.417,0,1.126-.379-.281-.714-1.256-.009.665-.125.586-.533-.211.026-1.226-.02-.575-.359.583.089-.452-1.1.3-1.068,1.289-.012-.865-.073.008-.714.805-.454-1.123-.417-.867-.182.01.921-.936-2.214-1.148-.9-2.53.69,1.338.357-.009.714-.988-.041-.214.548-.876.53-1.759.565.847.37-.59.889-.292.177-.292.177.287.18,1.248-.029-1.04,1.114.567,1.072,1.472.016-1.729.5-.305,1.247h-.29c-.062.115-.811,1.844.532,1.09.087.141,1.282.928.026.7-2.129-.162.561.534-.584.354-.877.407.929.885,1.147,1.075-.067.312-1.443.2-.3.712-1.283-.524-.15,2.219-.9,2.314-.653-.028,1.348,1.348.857,1.074-.579-.083-.019,1.274-.593,1.067-1.345-.454,1.5.71-.3.89-.29,0-.292.177-.3.534.3,2.3,2.469.95.838,2.678-.095.216-1.271,1.815-.6,1.78.827-.2-.122,1.663.558,1.786,0,.178,0,.178-.292.177-1.4.17.728.7-.013,1.07-.056.284.884.448.279.892-.644.138.318,2.5-.325,2.852h0c.841.4-.811.644.571.716-.068-.9,1.074.23-.292.177-1.443.282,1.507.438-.011.891-1.284-.155,2.583,1.143.276,1.071-2.667.6,1.325.216-.3.89-1.892.445,1.136,2.786-.316,2.139-.781-.926-.354,1.43.275,1.249.035,0,.059,0,.075,0-.172.022-1.248.237-.094,1.609.165.975-1.574.363.272,1.427-1.914.865.2.736-.612,2.672.372.562.709,1.421.275,1.25,1.518.421-1.469.227-.007.534.742.279-.723.414-.007.536.578.18.861.717.282.714-.155.3,1.52.647.283.536-1.249.373.486.355-.011.892-.294.355-.6,1.423-.015,1.248.111.108-.494,1.039-.013,1.069.759.352-.4.116-.3.534.288.17,1.141.461-.009.713l0,.179c1.133.053-.237.239-.009.713.443.123-.387-.04-.29,0-.393.337.5-.069.284.537-.151.5.868-.053.865.36-.561-.129-.542.356-.874.353-1.29.01,1.374,1.4-.015,1.248-.968.1,1.345.692,1.73.721-2.157.045-1.609,0-1.461,1.063-.555-.133-.27,2.824.263,2.141.225-.031-.081-.029,0,.357-.872-.762-.85,4.2-.044,3.566.578.181.576.359,0,.356-2.139,2.025.294,1.077-.6,1.6-.978.226.8,1.241-.309,1.6.75,1.314-.214,1.339-.025,1.961.473.652,1.938.927.28.893-.088.225.115.32.327.356l-.042,0c-.84.409.179,1.862-.019,1.6-1.276.588.458,1.454-.021,1.783-.293.177-.293.177,0,.357.59.433-1.42.694-.593,1.067a2.925,2.925,0,0,1,.37,1,9.054,9.054,0,0,0-3.107-2.921c-.05-.2-1.151-1.967-1.4-1.45-.69-.635-.625-1.721-1.814-1.042,1.832-.676-2.689-2.658-2.51-3.016.111-1.629.05-1.155-.526-.544-.405.83-.131-1.981-1.75-1.436.187-.186.467-.594-.06-.853-.351-.387-1.1-.039-.788-.817.386-.66-1.34-.494-.758-1.2-.746-.474-1.106-.546-1.7-.089.963-.49-1.059-1.429-.7-1.973-.986.6-.03-.751-1.082-.7-.317-.362.3-1.1-.614-.634l-.063.064c.115-.131.307-.4.094-.45-.756-.121-.454-.65-1.082-.7-.266-.255-1.588.2-.35-.363.938-.377-2.181.154-.644-.249.934-.39-.235-.027-.438-.454.156-.87-.572-.221-.32-.748.508-.6-.9.723-.556-.159.411-.408.323-.5.118-.3-.631.123-.5-.848-1.753-1.813-.218-.322-1.2,1.015-.674.137,1.061-1.707-.99,1.044-.263-.272.385-.677-.719.3-.262-.273.377-.8-.174-.043.06-.771.215-.519-1.849.431-.731-.34.938-.9-1.569.2-.937-.135.206-.205.118-.3.118-.3-.314-.241.4-.5-.438-.454-1.2.377.214-.972-.7-.725-1,.7-.32-.046-.185-.179-.955.4-.091-.726-.1-.955-1.46,1.323.037-.177-1.227-1.269-1.1-.031-.222-.763-.613-.635-.278.314-.433-.075-.557-.159-.5.727-.474-1.425-.906-.521.087.091-.118.295-.088-.091-.337-1.813-1.53-.385-1.051-1.087.437-1.078-.193-.19-.438-.454.2-.527-.259.047-.32-.749-.587.228-.907-.521-.789-.815-.131-.2-1.423.708-.556-.159.893-.642-1.7.577.091-1.157-1.371.484-1.779-1.289-2.719-1.564-.309.19-.394-.532-.82-.43.206-.2.324-.5.031-.385-1.624-.716-3.536-4.483-5.23-4.579.911-1.275-1.39.032-.408-.839.947-.949-1.006.28-.732-.34.817-1.252-1.019.612-.232-.658.422-1.4-.955,1.1-.963-1,.126-.529-.549-.44-1.284-1.746-1.261-1.951-1.742.176-1.433-1.065-.061-1.33-1.288-1.035-1.635-2.108-.11-.449-1.224.023-.906-.522.4-.859-.744-.337-.408-.839.038-.629-1.414,1.165-.35-.363.905-.965-.548.272-.35-.362-.074-.405-.751.616-.968.25.825-.43-.042-.386.472-1.18.274-.852-.759.952-.879.341.878-2.4-2.463.6-1.669-.476.419-.383-.31-.352.031-.385.433-.376.2.252.586-.227.766-1.1-.785.31-.438-.454.319-1.639-.975-.651-1.931-.747-.619.086.191-.7,0-1.248.21-.514-.737.6-.7.522-.2-.141,1.291-1.814.354-.884-.362.528-.834-.349-.613-.635-.012-.536-.639.286-.613-.635.236-1.752-1,.446-.527-.544,0-.641-1.282.265-1.465.568-.6.769-.489-.205-.145-.567.378-.216.841-.085.617-.613.118-.3.03-.385-.176-.181-.315.438.3-.485-.232-.658-.6-1.625-.987-.342-1.082-.7.343-1.1-2.723-3.478-2.979-3.084.344-1.249-1.836-.6-.933-1.382,1.177-.933-1.379.732-.85-.045.206-.205.294-.114.381-.023,1.019-1.217-.885.11-1.26.364.23-.8,2.086-1.544-.115-.954.87-.688-.584-1.372-1.23-.021.864-1.867-.595-2.952-1.426-3.56.617-1.236-1.109.828-.178,1.066a1.713,1.713,0,0,0-1.436.182c.274-.1,2.138-1.949.971-1.5-.268-.195.616-.935-.35-.362-1.07.855.449-1.452-.583-1.021-1.017.785-.134-.753-.819-.43h0c.623-.937-.865.128-1.085.545-.486.569.211-1.728.327-1.747-1.122,1.18.324-.791-.556-.158-1.026,1.017.644-.987-.557-.159-.738.724-.013-.06.142-.474.509.524,1.563-.43,1.723.262.212.867,1.07-.407,1.069.3.177.293.175.583.356.005.652-.5,1.871.343,1.607-.56.212,1.271.344-.754.535.006.177.292.356.295.356.295,1.171-.248,4.507-.541,4.815-.232.28-.154.352.331.363.445,0-.028,0-.076-.008-.151.18-.287.18-.287.358-.285.238.892.633-1.323.535.006.346.861.371,0,.893-.279.65.891,1.57-.153,1.783.021.229,1,3.576,1.244,3.926-.821-.106.519.265,2.322.353.874.167-.519,1.951.741,1.961.024.111-.769.875,1.209,1.069.3-.072-.386,1.957-.806,1.071-.276.536,1.24,1.225-1.251,1.069.012.1,1.128.681-.7.712.3-.181.578-.181.578.535.007.7-.341,2.613-.272,2.877.1.154-.748,1.536.185,1.762-.624.465-.24-.331.08-.357,0,.265-1.865,1.082,2,1.246.595.089-.3.75-.631,1.073-.857.562.694.568-.227.532.586.025.57.324.757.356.294,2.1-.44,5.221-.1,7.491-.489,2.112.208,3.007-.593,3.747-.534.094,1.374.546-.011.714-.281.329-.133.121.9.175.872.417-.157.519-.735.533.3-.067,1.14.5-.335.715-.281.175.582.535.007.714-.281-.029-1.434,0,1.583.535.007.924.241,1.59.1,3.923.047,2.452-.216,2.924.263,3.389-.248.372-.758-.133.6,1.246.3.786.273,1.814-.817,1.428-.272-.268,1.3,1.466-.122,1.6.6,2.921-.973,7.692.5,9.631-.462-.2.885.82.563.891.01.177.292.354.584.534.3.334-.1.2,2.291.532.586,1.037-.019,1.482-2.122.728-3.179-2.843-.147-7.358-1.2-10.875-.422.419-.316-2.928-.414-2.5-.03-.928.1-2.118-.68-2.71.284.308-1.1-4.689-.242-4.959-.088-.1.818-2.234-1.537-1.957-.6,1.134,1.885-2-.853-3.036.833V9.887c-.748-.859-2.021.519-3.028-.617-1.389.793-2.959-.714-3.214,1.122.22-1.284-3.585-.245-3.207-.619-.256-.487-1.2.01-1.6-.02-.176-.582-.71-.588-.891-.011-.033-.237-2.342-.437-3.034.543-.178-.306.885-1.4-.534-.3-1.256,1.392.563-.829-.177-.292-.381.417-1.189.124-1.6-.02-.18.288-.18.288-.357,0-.095-.747-.224,1.173-.714.281-.279-.442-1.255-.127-3.743-.336-.514-.081-.2,1.527-.538.574-.672-2.007.061,1.478-.534-.006-.274-.749-.42.712-.536-.007-.416-.831-.224.088-.71-.588-.3-.555-1.4,1.691-1.071.276-.039-1.377-1.28,1.212-1.073.567-.447-1.348-1.614.912-2.137-.6l-.358.285c-.356,1.271-.365.246-.359,0-.512.976-.837-.42-1.064-.6.108,1.635-.714.326-1.248-.015-.743-.214-1.895.641-2.318-.028-.022-.645-.186.5-.536.283-.327.5-2.068-.431-1.785.268.59.422-2.32-.917-2.139-.025.364,1.442-.659-1.278-.712-.3-.445.76-.238-.349-.893.279-.364.019.044-.408-.534-.3-.669.977-1.542-.464-1.962.265-.181.578-.359.576-.357,0,.24-1.207-.845,1.279-1.068-.3,0-.289,0-.579,0-.579-4.044,2.034-10.416.188-15.161.976-.587.857-.649-.774-1.426-.018-.181.577-.36.575-.357,0-.079-1.446-.7,1-1.071.277-.415-1.443-.441,1.131-.89-.3-.462-1.329-.81,1.578-1.605-.02-.178,0-.355-.294-.356,0-.008-.182-.733-.507-.535-.006.046-.095-5.355-.692-4.636-.057.176.582-.181.578-.357,0-1.605-.827-3.7.014-5.17-.063-.358-.82-1.07.2-1.247-.3-.57-.56-.247,1.855-.713-.009-.052-1.313-.314.613-.713-.008-.458-.228-.173,1-.717.861.409-1.025-.4-.139-.709-1.168-.566-.773.189,1.217-.538.862-.724-.96-1.5-.464-1.966.847-.038,1.233-.019-.5-.533-.3,0,.29-.178,0,0,0,.034-.567.448.045.359-.575-.371-1.341-.492.768-.891-.011-1.138-1.359-1.7.2-2.679.837-.557.465-.491-.632-1.244-.884-.3-.536-.143.943-.182.867-.33.06-.525-2.2-.531-.876-.05,1.082-1.445-.378-1.6-.02-.32.862-2.082-1.309-1.782-.022,0,.29,0,.58-.179,0-1.279-.672-.606,3.506-1.61,1.14.182-.432.74-.625,0-.87-.27-.477-.342-.108-.358.083,0-.027,0-.041,0-.087-.495-.265-2.29-.849-2.495-.32,0,.58-.181.578-.18.288-2.3-1.41-5.243.053-7.13-.377-1.512-.048.217.433-.537.284-1.312.714-.28-1.87-1.07-.013-.828,1.111-.31.013-.175-.582-.145-.187-.463.6-.358.286-.8.039-.086,1.489-.541,1.442-.7-.613.07-.741.006-1.449,0-.29-.893.279-1.074.856-.016-1.26-1.337-.436-1.427.273C31.7,11.9,29.256,9.659,28.092,9.7c-.743-.088-.208.332-.892.278-.487-.633-.549.437-1.07-.013-.648-1.1-.19.9.577.96-.615.345-1.063,1.652-.94.485.56-.48-.307-2.166-.53-1.166-.428.1-.332-1.111-.713-.009-.2,1.287-1.153-1.372-1.6-.309,0,.58-.537.573-.714.281-.383-.767-.625.6-.535-.006-.846-1.659-.01,3.3-1.606.27-.617-1.18-.266-.188-.357,0-.484.177-.342-1.228-.712-.3,0,1.417-.377-1.126-.714.281-.009,1.256-.125-.664-.532-.586,0,.212,0,1.226-.36.576.092-.583-1.1.451-1.068-.3-.012-1.29-.072.864-.713-.009-.452-.8-.419,1.124-.182.867.924-.01-2.218.937-.9,1.149.693,2.528.354-1.338.713.008-.036.343,1.126,2.128,1.064,1.173-.177-.292.18-.288.356.294.324.826.007-1.859.714-.281.933.451.255-1.519.718-.861a1.237,1.237,0,0,1,.175.582c.32,1.035,1.132-.645.89.3,2.353,1.065.447-.684,1.788-1.137.051.359-.19,2.384.353.874v.289c.492,1.182,1.072-2.078,1.252-.854.132,1.3.6-.534.533.3-.287.81,2.388-.059,2.316.608,0,.29.714-.281,1.073-.856,0-.04,0-.055-.007-.079.034.168.162.521.541.375,1.157-.274-.084,1.469.712.3.181-.578.714-.282.712.3-.03.475,2.278.161,1.963-.555,0-.581.181-.578.538-.574a11.252,11.252,0,0,0,2.312,1.477c.41-.109-.058-1.07,1.072-.566,1.647-.617.762,1.176,1.783.022,0-.291.179-.288.356,0,.295.056.44-.885.893-.279.128.644,2.506-.319,2.851.324-.066.317.161-.475.358-.285.176.918.716-.489,0-.29.3-1.608.643,1.775.89.3q.271-.867.535.006c-.159,1.283,1.145-2.583,1.071-.276-.037.954.6,1.215.533.295-.182-1.3,1.106,1.828,1.782.311,2.1-1.191-.548.777,1.6.31.245.053.332-.4.359-.712,0,.043,0,.083,0,.137.412,1.673,1.639-.849,2.138.315.44.951.4-.252.894-.568.553-.376-.147.668.531.875.71-.3,1.159-.688,2.141-.263.383,0,1.067-1.031,1.249-.275.029.715.064-1.338.357,0,0,.58,0,.58.178,0,.28-.742.412.722.535.006.181-.577.717-.861.714-.281.3.155.646-1.52.536-.283.378,1.249.352-.487.892.01.848.662,1.044.161,1.6.02.442.533.79-.065.893-.279.312,1.266.414.109.712.008.847,1.371.4-.334.713.3a.524.524,0,0,0,.533.3c.126-.443-.041.388,0,.29.177.292.178,0,.18-.287.047-.048.887.174.536-.284-.13-.432.415-.861.181-.577-.135.56.359.541.352.873.007,1.29,1.406-1.373,1.248.016.1.968.691-1.345.722-1.73.045,2.157,0,1.608,1.063,1.461-.133.555,2.823.27,2.14-.263-.03-.225-.029.08.357,0-.761.871,4.195.849,3.566.043.181-.577.359-.575.357,0,2.025,2.139,1.076-.295,1.6.6.226.978,1.24-.8,1.6.309,1.315-.75,1.339.213,1.961.024.653-.472.928-1.937.893-.279.225.088.32-.116.356-.328l0,.042c.41.841,1.862-.178,1.605.019.587,1.277,1.453-.457,1.783.022.177.292.177.292.356,0,.433-.591.7,1.42,1.067.592a2.967,2.967,0,0,1,1-.37A9.028,9.028,0,0,0,81.961,16.3a1.076,1.076,0,0,0-.906.877c-.246-.348-.89.275-.545.525-.54.589-1.5.649-1.192,1.494-.6-.68-2.412,2.1-2.5,2.479.2.206.114.293-.362.351-2.781-.55.787,1.209-.726.7-.4-.408-1.538,1.077-1.25,1.59a.736.736,0,0,0-1.13.307c.484.933-.83.284-1.021.583-.05,1.162-.937.459-1.064,1.432-.688.411.419.625.249.967-.487-.965-1.43,1.061-1.973.7.595.989-.748.027-.7,1.082-.354.31-1.1-.3-.635.613.03.031.043.042.062.062-.132-.115-.394-.3-.448-.092-.116.753-.653.455-.7,1.082-.264.272.212,1.583-.363.35-.023-.381-.3-.118-.158.556.32,1.42-.277-.754-.3-.118.061,1.118-1.725.612-.884,1.257.335.878-1.072-.461-.567.145.61.558-2.467,1.014-1.587,2.339.882.806-1.845-1.111-.272.262.5.324.5.324-.09.088-.678-.383.307.719-.272.263-.8-.373-.039.171-.771-.061-.506-.225.42,1.856-.34.732-.9-.937.2,1.567-.135.937-1.232-.656-.134,1.409-1.5.64.22,1.018.312.993-.158.556.4.992-.709.089-.952.114.149.169.653.585.522.7-.044.311-1.071-.457-.772-.061a1.193,1.193,0,0,0-1.088,1.051c-.242.542-.819-.463-.567.145.611.779-1.4,1.13-.68,1.463.58-.019-1.82.544-1.087,1.051,1.247.863-1.2-.552-.568.145.31.761-.359-.134-.249.644-.139.206-.245-.31-.476.057.319,1.075-1.12.425-.793,1.169.793,1.387-1.133-.98-.272.263.109.919-.919.1-1.066-.178.483,1.371-1.29,1.779-1.564,2.719.19.309-.533.394-.43.819-.2-.2-.5-.323-.386-.03-.716,1.623-4.483,3.535-4.579,5.23-1.274-.912.032,1.39-.839.408-.948-.948.281,1.005-.339.731-1.253-.817.611,1.02-.658.232-1.24-.742.772,1.463-.816.789-.091.088-.386-.03-.182.175-.529-.127-.44.549-1.746,1.284-1.95,1.26.176,1.741-1.064,1.433-1.33.061-1.035,1.288-2.109,1.634-.449.111.023,1.224-.521.906-.86-.4-.338.744-.839.408-.63-.037,1.165,1.415-.363.35-.966-.9.272.549-.363.351-.4.074.617.75.25.967-.429-.824-.385.043-1.18-.471-.851-.274.953.759.341.879-2.4-.878.6,2.463-.475,1.668-.383-.419-.352.31-.386-.03-.376-.434.253-.2-.227-.587-1.1-.766.311.786-.453.439-1.639-.319-.652.975-.747,1.931.085.618-.7-.192-1.248,0-.515-.21.6.738.522.7-.142.2-1.815-1.291-.885-.353.529.362-.349.833-.635.613-.536.012.287.639-.635.613-1.752-.236.446,1-.544.526-.641,0,.265,1.283.568,1.466.77.6-.2.488-.567.145-.216-.378-.084-.841-.613-.617-.294-.118-.385-.03-.181.175.438.316-.485-.3-.657.233-1.626.6-.342.987-.7,1.082-1.1-.344-3.478,2.723-3.083,2.978-1.25-.343-.6,1.836-1.383.934-.932-1.177.732,1.379-.045.849-.2-.2-.114-.293-.023-.381-1.217-1.019.111.886.364,1.261-.8-.231-1.544-2.087-.953.115-.689-.87-1.372.583-.022,1.23-1.867-.864-2.951.595-3.56,1.425-1.236-.616.829,1.11,1.066.179-.276,1.381.5,1.72-.748.32-1.219-.7-.19.476-.953.114-.2-.205-.3-.118.023.381.855,1.07-1.451-.45-1.02.583.785,1.016-.754.134-.431.819l.113.11c-.12-.113-.656-.594-.5-.14a3.34,3.34,0,0,0,.93,1.115c.314.708-2.526-.808-1.338.084-.091.088-.181.176-.386-.03-.937-.687.617.959-.067.468-1.437-.817.84,1.255-.363.351a.982.982,0,0,0-.377-.238c.506-.511-.434-1.555.255-1.715.867-.212-.407-1.069.3-1.068.292-.177.582-.176,0-.357-.5-.651.343-1.871-.56-1.607,1.271-.212-.754-.344.007-.535.292-.177.294-.355.294-.355-.247-1.171-.54-4.507-.232-4.815-.153-.28.333-.352.446-.363-.028,0-.076.005-.151.007-.288-.179-.288-.179-.286-.358.892-.238-1.323-.633.007-.534.86-.347,0-.372-.279-.893.89-.65-.153-1.571.021-1.783,1-.229,1.244-3.576-.821-3.927.518.094,2.322-.255.873-.352-.518-.162.741-1.955.024-1.962-.769-.091,1.209-.889.3-1.068-.387.1-.807-1.979-.277-1.071,1.243-.527-1.253-1.232.013-1.07,1.128-.1-.7-.681.3-.712.577.181.577.181.006-.535-.339-.689-.273-2.611.1-2.877-.747-.156.186-1.534-.622-1.761-.24-.464.079.33-.005.357-1.508-.36.762-.68.883-1.066,0-.179,0-.357-.288-.18-.6.037-.024-.461-.571-.716-.668-.011.107-.764.012-.884.256-.022.976-.106.87-.182-1.087-.186-.1-5.3-.509-5.708-.334-1.068-.52-5.459-.8-5.709,1.377-.086-.012-.553-.28-.714-.076-.478,1.109.134.874-.353-.512-.16-.419-.4.294-.355,1.141.073-.338-.506-.281-.715,1.123-.529-1.675-.853-.282-.714,1.1-.5-.615-.058.31-1.6-.677-.78.123-6.7-.5-6.242-.288-.18-.578-.182,0-.179.942-.034-.369-3.166.03-2.5,1.421-.906-.333-4.288.373-6.774.239-2.3.1-2.406-.25-3.389a.547.547,0,0,0,.014-1.07c.856.205.606-.826.01-.891.911-.346-.307-.779.879-.71,1.167.024.078-.49-.279-.893-.517-1.1-4.7-.364-2.626,1.415-1.121,2.09-1.25,6.534-.688,8.912-.106.5-.618,2.743-.035,2.853.1.876-.675,2.134.276,2.711-1.081-.274-.233,4.684-.08,4.957.818.1-1.537,2.235-.6,1.958.066-.368,1.8-.145.577.181-.579,0-.322,2.674.256,2.855l-.29,0c-.381-.268-.293,1.236-.307,1.425,1.024.434-.394,1.119-.31,1.6.788,1.218-.344,1.462.26,2.5-.2,1.077.642.206.861.717-1.08-.379-.245,2.552-.9,2.671.825.323-.279,1.21.264,2.141-1.226.365.438,1.067-.011.891-.733.045.364,1.372-.307,1.425,1.98,3.462-.8.091.553,2.142,1.391,1.27-.828-.572-.292.177,0,0,0,.357.286.358.1.908-.889,1.934-.022,1.783.88.495-1.043.615-.3.712.524.523-.253,1.427-.043,3.566-.084.524,1.527.2.573.537-2.008.681,1.477-.066-.007.535-.749.279.713.415-.006.535-.365.432-1.052.817-.306,1.247,1.412,1.106-1.613.041.273,1.428.577.181.577.181.288.179-1.349.451.911,1.612-.606,2.137-.086.177,1.582.846.571.716H10.9c.986.555-.413.809-.593,1.067,1.635-.1.327.709-.015,1.248-.213.729.641,1.9-.027,2.318-.645,0,.5.2.283.536.5.365-.432,2.04.268,1.785.421-.594-.917,2.322-.026,2.139,1.443-.36-1.278.656-.3.712.76.442-.349.24.279.892.021.339-.408-.025-.3.534.976.715-.463,1.51.266,1.963.578.181.575.359,0,.356-1.206-.277,1.277.873-.3,1.069l-.58,0c1.159,1.094.671,3.717.811,4.818.345,2.809-.171,9.15.148,11.769,1.431.53-1.763.156.276,1.071.288.18.288.18,0,.357-1.442.426,1.131.433-.3.89-1.329.5,1.578.783-.019,1.605-.4,1.063.037,1.016-.332,3.386-.206,4.009,1.537.468-.339,4.1.546.924.459,2.775.537,3.569-.29,0-.593,1.067-.013,1.07-.16.172-.773.429-.007.535,1.577.058-1.409.431-.586.532.89.344-.317.839.859.895.621.149.117.584-.279.187-.006.181-.15,1.021-.6.879-.772.564,1.217-.186.863.539-2.123,1.352,1.829,1.919.844,2.143-.29,0-.292.177-.295.356.375.139-.478-.037-.285-.358-1.676.077.312.522-.3.89-2.024,1.433,2.142,2.489.54,3.212-.65.529-.856,1.09.279.892.06.326-2.2.528-.876.532.29,0,.577.181.283.536.214.612-.694.771-.3,1.068.862.319-1.309,2.084-.021,1.783.29,0,.579,0,0,.178-.734,1.143,2.531.572,1.724,1.256.063.3-.871.5-.872.175.012-.689-1.249.565-.586.532h0c-.266.477-.85,2.3-.321,2.5.58,0,.578.181.288.179-1.175,1.571-.3,4.33-.362,5.883.605-.169-.639,1.939.269,1.785h0c.714,1.3-1.869.284-.013,1.069,1.111.824.014.314-.581.175.1.366.687,1.131,1.44.721.806-.153-.27.841-.584.353-.86-.725-.8.5.279.893-1.165-.031-.652,1.805.854,1.252-2.04,1.136-1.623,3.576-1.509,4.986-1.105.64.9.192.96-.578.345.615,1.652,1.065.484.941-.479-.561-2.166.307-1.166.53.1.428-1.111.332-.008.713,1.286.2-1.373,1.151-.309,1.6,1.274.209-.435.9.274,1.25h0c-1.658.847,3.3.009.27,1.606l-.583.354c1.771-.028-.845.482.281.714,1.417-.007-1.126.381.281.715,1.256.009-.665.123-.586.532.21,0,1.227.005.575.359-.583-.091.452,1.1-.3,1.069-.579,0-.579,0,0,.178.4.307-.686,1.4.861.717-.01-.924.936,2.217,1.148.9,2.528-.67-1.337-.372.009-.713.58,0,.582-.176.584-.354-.052-.31.935-.114.876-.531.028-.364-1.107.029.006-.535.292-.177.292-.177-.287-.18-1.248.014,1.04-1.1-.567-1.072-1.437-.052,1.566-.451.387-1.192.319-.028,1.154-1.954-.359-1.126l0-.178c-.159-.338-.684-.06-.573-.538.359.027,2.385.135.874-.352,1.052.234.333-.891-.568-.9-1.147-.421,1.472-.32.01-.891.989.191,1.149-3.055.042-3.387-.046,0-.065,0-.09,0,.164-.028.535-.145.385-.539-.274-1.159,1.469.084.3-.712-.578-.181-.281-.715.3-.712.475-.022.162-2.242-.555-1.964-.58,0-.578-.181-.574-.537a11.306,11.306,0,0,0,1.477-2.312c-.109-.418-1.069.063-.566-1.072-.615-1.633,1.174-.774.022-1.783-.642-.116.443-.332-.282-.714-.664-.292.409-.512.3-.891-.749-1.384.631-3.246-.541-3.212.068.892-1.074-.224.292-.177,1.443-.277-1.507-.441.011-.891,1.284.168-2.583-1.152-.276-1.071.955.035,1.215-.6.3-.534-1.3.2,1.827-1.121.311-1.781-1.469-2.166,1,.231.3-.712.617-1.259-1.585-1.363-.565-1.251,1.673-.418-.848-1.636.316-2.138.951-.436-.253-.4-.569-.9-.471-.328,1.782-.217.593-1.067-.621-.631.541-1.825-.55-2.5-.145-.277.284-.347.427-.36l-.132,0c-.578-.181-.578-.181,0-.357.579,0,.579,0,0-.178-.742-.285.723-.41.007-.535-.578-.181-.861-.718-.282-.715.156-.311-1.52-.64-.283-.536q.873-.264.007-.535c-.334-.216.971-1.735.019-1.605.05-.414.39-1.135-.275-1.249,1.641-.311-1.088-.718.593-1.067l0-.178c-1.133-.055.237-.24.009-.714-.443-.123.387.04.29,0,.292-.177,0-.179-.288-.18-.045-.086.169-.853-.283-.536-.433.126-.861-.413-.578-.181,3.209-.633-.793-1.351.889-1.6.968-.1-1.345-.692-1.73-.721,2.157-.045,1.608,0,1.461-1.063.555.133.27-2.824-.263-2.141-.225.031.081.029,0-.357.872.762.85-4.194.044-3.565-.578-.181-.576-.36,0-.357,2.139-2.025-.294-1.077.6-1.6.978-.226-.8-1.24.309-1.6-.75-1.315.214-1.34.025-1.962-.473-.652-1.938-.927-.28-.893.088-.225-.115-.32-.327-.356h.042c.84-.41-.179-1.863.019-1.6,1.276-.587-.458-1.454.021-1.783.293-.177.293-.177.005-.357-.59-.433,1.42-.694.593-1.067a2.925,2.925,0,0,1-.37-1,9.054,9.054,0,0,0,3.107,2.921c.05.2,1.151,1.967,1.4,1.45.69.635.625,1.722,1.814,1.042-1.832.676,2.689,2.658,2.51,3.016-.111,1.629-.05,1.155.526.544.405-.83.131,1.982,1.75,1.436-.187.186-.467.594.06.854.351.387,1.1.038.788.816-.386.661,1.34.495.758,1.2.746.474,1.106.546,1.7.089-.963.491,1.059,1.429.7,1.973.986-.6.03.752,1.082.7.317.362-.3,1.1.614.635.031-.031.044-.044.063-.065-.114.131-.308.395-.094.45.756.121.454.651,1.082.7.266.255,1.588-.2.35.364-.938.376,2.181-.155.644.248-.934.391.235.027.438.454-.156.871.572.222.32.748-.2.2-.118.295.293-.113.878-.337-.46,1.073.145.567.631-.123.5.848,1.753,1.813.218.322,1.2-1.015.674-.136-1.061,1.706.99-1.045.263.271-.385.677.719-.305.262.273-.377.8.174.043-.06.771-.215.519,1.849-.431.731.34-.938.9,1.569-.2.937.135-.206.2-.118.3-.118.3.314.241-.4.5.438.454,1.2-.377-.214.972.7.725,1-.7.32.046.185.179.955-.4.091.726.1.955,1.46-1.323-.037.177,1.227,1.269,1.1.032.222.763.613.636.278-.315.433.074.557.158.5-.727.474,1.425.906.521-.087-.091.118-.3.088.091.337,1.813,1.53.385,1.051,1.087-.437,1.078.193.191.438.454-.2.527.259-.047.32.749.587-.228.907.521.789.816.131.2,1.423-.708.556.158-.929.639,1.767-.579-.091,1.157,1.371-.483,1.779,1.29,2.719,1.564.309-.19.394.532.82.43-.206.2-.324.5-.031.386,1.624.715,3.536,4.482,5.23,4.578-.911,1.275,1.39-.032.408.839-.947.949,1.006-.28.732.34-.817,1.252,1.019-.612.232.658-.743,1.24,1.462-.772.788.816.074.076.014.278.11.227-.078.161.112.7.328.226-.055.138,2.2,3.128,2.279,2.358.323-.5.5-.318.175.181.061,1.33,1.288,1.035,1.635,2.109.11.449,1.224-.024.906.521-.4.859.744.337.408.839-.038.629,1.414-1.165.35.363-.905.965.548-.272.35.362.074.405.751-.616.968-.25-.825.43.042.386-.472,1.18-.274.852.759-.952.879-.34-.878,2.4,2.463-.6,1.669.475-.419.383.31.352-.031.385-.433.377-.2-.252-.586.228-.766,1.1.785-.311.438.453-.319,1.639.975.651,1.931.747.619-.085-.191.7,0,1.248-.21.514.737-.6.7-.522.2.142-1.291,1.814-.354.885.362-.529.834.348.613.634.012.536.639-.286.613.635.028.862.028.862.439.453.2-.2.411-.408.087.091,0,.641,1.283-.265,1.466-.568.6-.769.489.2.145.567-.378.216-.841.085-.616.613-.182.454.062.279.212.144l-.037.037c-.231.61.759.793.552,1.406.18.617,1.174-.7.762-.046-.084,1.527,2,2.457,2.685,3.2.294-.114.5-.319.294-.114-.344,1.249,1.836.6.933,1.383-1.177.932,1.379-.733.85.045-.216.076-1.3.568-.411.408h0c.485.353,1.038-.985,1.29-.749-.23.8-2.086,1.543.115.953-.87.688.584,1.372,1.23.021-.864,1.867.595,2.952,1.426,3.56-.617,1.236,1.109-.828.178-1.065a1.714,1.714,0,0,0,1.436-.183c-.274.1-2.138,1.949-.971,1.5.268.195-.616.936.35.362,1.07-.855-.449,1.452.583,1.021,1.017-.785.134.753.819.43l.116-.115-.116.115c-.623.937.865-.128,1.085-.545.486-.569-.211,1.728-.327,1.747,1.122-1.179-.324.792.557.159,1.025-1.017-.645.987.556.158.76-.745-.033.109-.157.512a1.235,1.235,0,0,0-1.353-.006c-.955-1.219-1.225.071-1.424-.6-.177-.292-.175-.582-.356,0-.651.5-1.872-.342-1.607.56-.215-1.271-.342.754-.535-.006-.446-.685-4.845.356-4.638.233-.261-.567-.819,0-.888-.59-.381.758-.328-.34-.715.281-.181.577-.181.577-.178,0-.279-1.215-.818,1.073-1.248-.015-1.024-.471-1.031.746-1.783-.022-.127-.77-3.374-.708-3.571,1.116a4.35,4.35,0,0,0-.172-1.451c-.378.064.1,1.3-.716.571-.236-.178-1.638-.324-1.426-.018-.082.766-.9-1.206-1.068-.3-.054.377-.934.465-1.251.564.124-.418-.047-.948-.713-.3-.383,1.384.069-.929-.533-.3-.181.578-.358.286-.356,0,.554-.993-1.394.537-2.141.264a1.043,1.043,0,0,1-1.256-.5c-.015.989-1.539-.1-1.777.756-.464.24.331-.079.357,0-.362,1.509-.678-.763-1.065-.882-.179,0-.357,0-.18.288.04.6-.464.024-.716.571-.012.668-.763-.107-.884-.012-.022-.256-.107-.975-.182-.871-.021.726-4.142.493-5,.519-.688-.055-4.366.41-5.352.514-1.231.268-.85.679-1.246-.3-.527-.1-.212.85-.539.863-.33.133-.12-.9-.175-.872-.941,1.318-.2-1.792-.89-.3l-.358.286c-.515-1.124-.863,1.675-.714.281-.427-1.367-.406.8-.892-.011-.571-.628-6.219.476-6.6-.08-.025-.928-.66,1.422-.536.284-.008-.943-3.184.368-2.5-.03.27-1.3-1.467.122-1.6-.6-2.921.973-7.692-.5-9.631.463.2-.89-.819-.56-.891-.011-.177-.292-.354-.584-.534-.3-.339.2-.006-1.185-.351-1.164-.134.55-.464.417-.717.861-.061.692-.674-.242-.359.575-.668,1.04.46,3.569,1.416,2.336a66.014,66.014,0,0,0,10.338.7c1.366-.095,1.988-.445,3.744.046.44.64.96-2.005.893-.278-.416.447.385.246.534.3-.231-.546,4.713.015,4.281-.528.105-.817,2.235,1.538,1.958.6-1.134-1.885,2,.853,3.036-.832v.29c.747.859,2.021-.519,3.028.617,1.387-.792,2.96.714,3.214-1.121-.22,1.283,3.585.244,3.207.618.257.488,1.2-.01,1.605.02.176.582.71.588.891.011,0-.063,0-.1,0-.126.013.149.08.562.358.42.866-.455,1.12.144,1.784-.269.419.066,1.417-1.3.713.01-.63,1,2.008-1.646.893-.28-.18.288-.359.576,0,.29.48-.408,1.67-.093,1.961.024.1.747.225-1.173.714-.281,0,.58.176.582.177.292.029-.859,3.149,1.09,3.926-.532-.062-1.073.767,2.017.534.006-.375-1.291.274.773.535.007,0-.29.18-.288.179,0,.727,1.558,2.044-.912,1.781.311.041,1.378,1.279-1.211,1.073-.566.447,1.348,1.614-.911,2.137.6.169.086.851-1.581.715-.57,0,.289,0,.579,0,.289.516-.987.839.415,1.067.593.02-2.007.785.41,1.961.024.521-.644.476.47,1.072-.277.719-.235.387.884.711.3.136-1.01,2.434.217,2.143-.554-.591-.422,2.32.917,2.139.026-.364-1.443.659,1.277.712.3.445-.76.238.349.893-.279.363-.019-.043.408.534.3.671-.977,1.54.465,1.962-.265.181-.578.359-.576.357,0-.241,1.208.846-1.279,1.068.3,0,.289,0,.579,0,.579.994-1.353,3.035-.321,4.284-.817.276-.341,1.009.069,1.249-.275,0,.29.176.582.355.294,2.452-.66,7.733.7,9.809-.46.236,1.544,1.365-.939,1.247.3.061,1.446.714-1,1.071-.277.176.583.354.585.355.3.377-1.463.774,1.481,1.07.013.506-1.4,1.813,1.2,1.961.024-.092.095,5.388.69,4.636.056-.176-.582.181-.577.357,0a8.183,8.183,0,0,0,4.635.057c.473-.677,1.1,1.153,1.6.019.646,1.4.482-1.654.89.3.052,1.313.315-.613.713.008.45.228.179-1,.717-.86-.417,1.025.408.138.709,1.168.568.772-.19-1.217.538-.863.587-.1.087.712.711.588.911.337,1.315-2.691,1.432-1.432-.049.551.656.047.356.294,0,.29-.18.288-.358.286.087,1.676.516-.312.89.3.7.921,1.52.436,2.141-.264.451-1.229.85-.432,1.426.018.743.729.459-.045.538-.574.324-.059.529,2.2.531.877,0-.29.181-.578.536-.284.611-.213.772.695,1.069.3.318-.862,2.083,1.309,1.782.022-.133-.331,1.229.672,1.077-1.437-.169-.959.706-.2.712.3-.216.433-.715.625,0,.87.177.292.355.294.356,0-.183-.436.334.566.891.3,1.991.624,1.3-.121,1.784-.269,1.221,1.025,5.507.612,6.062.076-.332.285,2.2.561,1.6.018,1.3-.714.287,1.87,1.07.013.821-1.11.315-.013.175.582.35-.1,1.141-.688.72-1.44.91-1.147-.513,3.041,1.247.3-.29.24,1.171,1.433,1.427-.272.16.167-.676-1.229.357.005.41.859,2.572,1.437,3.027.906.514.289.989-.14,1.426.017.718,1.246.065-1.472-.887-.88a1.96,1.96,0,0,0,1.253-1.144c-.181.384-.162,2.915.528,1.745.427-.095.332,1.111.712.009.2-1.287,1.154,1.373,1.6.309.211-1.275.894.435,1.249-.275,0-.088,0-.139,0-.165.008.134.071.912.36.459.139-.6.344-.661.185-1.446-.078-.764,1.471,1.294,1.42,1.466-.031-1.771.485.844.714-.281,0-1.417.379,1.126.715-.281.009-1.256.124.664.532.586-.025-.211.021-1.227.359-.575-.088.583,1.1-.452,1.069.3.011,1.29.072-.864.713.009.455.805.418-1.124.182-.867-.92.01,2.215-.937.9-1.149-.693-2.53-.354,1.339-.713-.008.036-.342-1.126-2.128-1.064-1.173.177.292-.18.288-.356-.294-.324-.825-.007,1.859-.714.282-.933-.452-.255,1.518-.718.86a1.237,1.237,0,0,1-.175-.582c-.32-1.035-1.133.645-.89-.3-2.353-1.064-.447.685-1.788,1.138-.051-.36.19-2.384-.353-.875v-.289c-.492-1.182-1.072,2.079-1.252.854-.132-1.3-.6.534-.533-.3.287-.81-2.388.059-2.316-.608,0-.29-.714.281-1.073.857,0,.039,0,.054.007.078-.035-.169-.163-.521-.541-.375-1.157.275.084-1.468-.712-.3-.181.577-.714.281-.712-.3.03-.475-2.278-.161-1.963.555,0,.581-.181.579-.538.574a11.249,11.249,0,0,0-2.312-1.476c-.41.108.057,1.069-1.072.566-1.647.616-.762-1.177-1.783-.022,0,.29-.179.288-.356,0-.3-.057-.44.884-.893.279-.128-.645-2.506.318-2.851-.325.066-.317-.161.475-.358.286-.176-.918-.716.488,0,.29-.305,1.607-.643-1.776-.89-.3q-.272.865-.535-.007c.159-1.283-1.145,2.584-1.071.277.037-.955-.6-1.215-.533-.3.182,1.3-1.106-1.828-1.782-.311-2.1,1.192.548-.777-1.6-.309-.245-.054-.332.4-.359.711,0-.042,0-.083,0-.137-.412-1.673-1.639.849-2.138-.315-.44-.951-.4.253-.894.568-.553.376.147-.668-.531-.875-.71.3-1.159.689-2.141.263-.383,0-1.067,1.031-1.249.275-.029-.714-.064,1.338-.357,0,0-.58,0-.58-.178,0-.28.742-.412-.723-.535-.007-.181.578-.717.861-.714.281-.305-.155-.646,1.521-.536.284-.378-1.25-.352.486-.892-.011-.848-.662-1.044-.161-1.605-.02-.442-.533-.79.065-.893.279-.312-1.266-.414-.108-.712-.008-.847-1.37-.4.334-.713-.3a.524.524,0,0,0-.533-.3c-.126.443.041-.388,0-.29-.177-.292-.178,0-.179.288-.048.047-.888-.175-.537.283.13.432-.415.861-.181.577.135-.56-.359-.541-.352-.873-.007-1.29-1.407,1.374-1.248-.015-.1-.969-.691,1.344-.721,1.73.008-2.164-.063-1.578-1.064-1.462-.108-.725-1.575-.047-1.783-.022-.175-.582-.533-.3-.358.286.013.219.05-.06-.356,0,.763-.871-4.2-.849-3.566-.043-.343,1.031-.219-.387-1.067-.592-.532-.587-.712-.3-.713-.009.319,1.109-.535-.9-.534-.3-.593.654-1.064.095-1.605-.019-.708,1.022-1.175-.5-1.6-.02-1.681,2.721-.369-.807-1.251.565.027,1.133.124-.641-.712-.3-.591-.279-1.046.711-.893.279-.592-1.277-1.45.457-1.783-.022-.279-.6-.494.685-.89-.3-.451-1.072-2.083.5-1.966,1.135-.743.34.421-.272-.176-.581a.777.777,0,0,0-.1-.062,9.146,9.146,0,0,0,3.631-3.526c.2-.05,1.967-1.15,1.451-1.4.635-.689,1.721-.624,1.041-1.813.677,1.832,2.658-2.69,3.016-2.511,1.629.111,1.155.051.544-.525-.83-.405,1.982-.132,1.436-1.751.187.188.594.468.854-.059.387-.352.039-1.1.816-.788.661.386.495-1.34,1.2-.759.475-.745.546-1.1.089-1.7.491.962,1.429-1.059,1.974-.7-.6-.986.751-.029.7-1.082.363-.316,1.1.3.635-.613-.031-.032-.044-.044-.064-.064.131.115.395.308.45.094.12-.755.65-.453.7-1.081.255-.267-.2-1.588.363-.351.376.939-.155-2.18.249-.643.39.933.026-.235.453-.438.871.156.222-.572.749-.321.6.509-.724-.9.158-.556.409.412.5.324.3.118-.123-.63.848-.5,1.813-1.752.322-.218-1.015-1.2-.136-.674,1.706,1.061-1.045-.99.272-.263.677.385-.306-.719.272-.263.8.377.043-.174.771.061.52.215-.431-1.849.34-.731.9.938-.2-1.57.136-.937.2.205.3.118.3.118.24-.314.5.4.453-.438-.377-1.2.972.214.726-.7-.7-1,.046-.321.178-.185-.4-.956.726-.092.955-.105-1.323-1.459.177.037,1.27-1.227.031-1.1.762-.222.635-.613-.314-.278.074-.432.158-.556-.726-.5,1.426-.474.521-.907-.09.088-.294-.118.091-.087,1.814-.337.385-1.531,1.088-1.052,1.078.438.19-.192.454-.438.527.2-.047-.258.748-.32-.227-.586.521-.906.816-.788.2-.131-.708-1.424.158-.556.731.94-.741-1.776,1.157.091-.483-1.372,1.29-1.779,1.564-2.72-.19-.308.533-.393.43-.819.205.206.5.324.386.03.716-1.623,4.483-3.535,4.579-5.23,1.274.912-.032-1.389.839-.407.948.947-.28-1.006.339-.732,1.253.817-.611-1.019.658-.232,1.24.743-.772-1.463.816-.789.091-.087.386.031.182-.175.529.127.44-.548,1.746-1.283,1.95-1.261-.176-1.742,1.064-1.434,1.33-.061,1.035-1.288,2.109-1.634.449-.11-.023-1.224.521-.906.86.4.338-.744.839-.408.63.037-1.165-1.414.363-.35.966.905-.271-.548.363-.351.4-.074-.617-.75-.25-.967.429.825.385-.042,1.18.472.851.273-.953-.76-.341-.88,2.4.878-.6-2.462.475-1.668.383.419.352-.31.386.03.376.434-.253.2.227.587,1.1.766-.311-.786.453-.438,1.639.318.652-.976.747-1.931-.085-.619.7.191,1.248,0,.514.21-.6-.738-.522-.7.142-.2,1.815,1.291.885.354-.529-.363.349-.834.635-.614.536-.012-.287-.638.635-.613,1.752.236-.446-1,.543-.526.642,0-.264-1.283-.567-1.466-.77-.6.2-.488.567-.145.216.379.084.841.613.617.294.118.385.03.181-.175-.438-.316.485.3.657-.233,1.626-.6.342-.987.7-1.082,1.1.344,3.478-2.723,3.083-2.978,1.25.343.6-1.836,1.383-.934.932,1.177-.732-1.379.045-.849.2.2.114.293.023.381,1.216,1.018-.111-.885-.364-1.26.8.23,1.543,2.086.953-.116.689.87,1.373-.583.022-1.229,1.867.863,2.951-.595,3.56-1.426,1.236.616-.829-1.109-1.066-.178A1.713,1.713,0,0,0,161.034,96c.1.274,1.95,2.138,1.5.97.194-.268.935.617.362-.35-.855-1.069,1.451.45,1.02-.583-.784-1.016.753-.133.431-.819l-.115-.115.115.115c.936.623-.128-.864-.545-1.085-.569-.486,1.727.212,1.747.327-1.18-1.121.791.324.158-.556-1.017-1.026.987.645.158-.556-.723-.738.06-.014.475.142-.524.508.43,1.562-.262,1.723-.867.212.407,1.07-.3,1.068-.292.177-.582.176,0,.357.5.651-.343,1.871.56,1.607-1.271.212.754.344-.007.535-.292.177-.294.355-.294.355.247,1.171.54,4.507.231,4.815.154.28-.33.352-.444.363l.15-.007c.288.179.288.179.286.358-.892.238,1.323.633-.007.535-.86.346,0,.371.279.893-.89.649.153,1.57-.021,1.783-.995.229-1.244,3.575.821,3.926-.518-.1-2.322.256-.873.353.518.162-.741,1.954-.024,1.961.769.093-1.209.887-.3,1.068.387-.1.807,1.977.277,1.071-1.243.526,1.253,1.233-.013,1.07-1.128.1.7.682-.3.712-.577-.181-.577-.181-.006.535.339.689.273,2.611-.1,2.877.746.157-.186,1.534.622,1.761-.1-.717.866-.237.288.18-.114.162-1.978.494-.878.709.6-.036.024.46.571.716.65.011-.062.721-.013.87-.24.016-1.382.244-.581.376.442,3,.2,8.971,1.022,11.237-1.375.085.013.554.281.714.076.479-1.109-.134-.874.353,1.321.538-1.821.17-.3.712.545.69-.463.508.567,1.073h0c-1.368.428.8.4-.011.891-.308.214-.132,5.9.213,6.242.095.433-1.11.328-.008.713.288.18.578.181,0,.178-.447-.1-.43,2.32-.028,2.318.551.487-1.456.006-.307,1.426-.405.523.069,2.85.248,3.388-.584.019-.08,4.557-.636,4.633-.068.261,1.268.665.569.894a.547.547,0,0,0-.013,1.07c-.88-.206-.568.821-.011.892-.291.177-.583.354-.3.533.205.34-1.184.006-1.163.351.039.34.745-.08.573.538-.032.2.745.16.573.538-.29,0,0,.178.29,0,.715-.036.388.269,1.157.183,1.469.137,1.87-1.423.893-1.956.99-.538.242-3.58,1.209-4.1a36.692,36.692,0,0,1-.174-9.63c.64-.442-2-.958-.278-.892.448.417.246-.387.3-.534-.546.231.015-4.714-.527-4.282-.817-.1,1.538-2.235.6-1.958-1.885,1.134.852-2-.833-3.035h.29c.978-.248-.578-2.2.32-2.5.34-.185.218-4-.246-3.567-1.261-.09.341-.05.017-1.426.011-.892.015-1.248.307-1.425-.009.021-.927-.557-.283-.537.487-.255-.011-1.2.019-1.6.582-.176.589-.711.011-.892l-.129,0c.146-.011.568-.075.423-.357-.437-.583-.081-.937.016-1.248-.354-.455-.432-1.062-.853-1.43.308-.177,1.4.883.3-.534-1.391-1.255.828.561.292-.177-.828-.778.7-2.2-.264-2.141-.88-.485,1.043-.622.3-.712-.521-.574.251-1.39.043-3.566.083-.513-1.526-.2-.573-.537.872-.175.876-.531,0-.357-1.291.377.772-.275.006-.535-.571-.172,1.478-.9.307-1.425-1.41-1.127,1.613-.025-.272-1.428-1.068-.3.026-.051,0-.356.691-.591-1.086-1.46.314-1.96.086-.169-1.582-.852-.571-.716.875.176-.846-.636.591-.889,1.051-.208-1.556-.137-.282-.714s-.138-2.342.616-3.029c.645-.022-.5-.185-.283-.536.125-.534-.311-.216-.283-.536.065-.3.67-1.665.015-1.248,0,.178-.292.177,0-.178.037-.264.7-2.017.024-1.962-.582.176-.579,0,0-.178.906-.811.156.015.018-1.426-.02-.365.408.044.3-.534-.977-.668.464-1.543-.266-1.962-.578-.181-.575-.36,0-.357,1.207.238-1.278-.845.3-1.069l.58,0c-2.031-4-.191-10.449-.976-15.16-.857-.609.774-.635.018-1.427-.578-.181-.576-.359,0-.356,1.446-.061-1-.715-.277-1.071,1.442-.43-1.131-.431.3-.891,1.1-.807-1.292-.164.024-1.961.181.013.507-.747.006-.535.1.132.69-5.416.056-4.635-.581.175-.577-.181,0-.357a8.2,8.2,0,0,0,.057-4.636c-.677-.489,1.152-1.089.018-1.6,1.4-.648-1.654-.481.3-.891,1.314-.052-.613-.314.009-.713.227-.457-1-.172-.861-.717C169.853,59.978,168.967,59.166,170,58.86ZM166.3,28.71a.682.682,0,0,1,.573.537C166.835,29.66,166.121,29,166.3,28.71Zm-.225,18.542c0-.178.288.18.286.358C166.339,47.743,165.658,47.284,166.079,47.252ZM164.312,11.06c0-.29,0-.58.181-.578C165.231,9.3,164.106,12.57,164.312,11.06Zm-24.959-.875c0,.216,0,.255,0,0Zm.177.284c.405-.059.075.946-.182.867C139.169,11.334,139.172,10.755,139.53,10.469Zm-5.889,1.088c.072-.153-.228,1.05-.359.575C133.182,11.908,133.652,11.151,133.641,11.557Zm-7.313.491a1.293,1.293,0,0,1-.175-.582A.3.3,0,0,1,126.328,12.048Zm-1.606.27c-.069.087-.338-.182-.355-.294C124.6,12.049,124.759,11.921,124.722,12.318Zm-1.783-.022c-.069.087-.338-.181-.355-.294C122.818,12.028,122.976,11.9,122.939,12.3Zm-1.6-.309c.342-.644.537.379.177.292C121.156,12.275,121.156,12.275,121.336,11.987Zm-1.061-2.041c.031.529-.149.771-.358.285C119.937,10.118,120.208,9.857,120.275,9.946Zm-2.142.553c.014.313-.243.331-.356,0C117.831,10.05,118.194,10.108,118.133,10.5ZM103.15,11.766c0,.415-.015.642-.36.576C102.824,11.923,102.962,11.7,103.15,11.766Zm-7.49.2c.713-.069.263.739-.181.578C95.3,12.251,95.482,11.963,95.66,11.965ZM17.92,11.6c-.088.2-.421.418-.535-.006C17.371,11.222,18.024,11.138,17.92,11.6Zm1.96.314c.114.866-.279.61-.357,0-.432-.776.457-.76.537-.284C19.878,11.645,19.677,11.328,19.88,11.915ZM29.5,12.9a.683.683,0,0,1,.537-.573C30.454,12.371,29.8,13.084,29.5,12.9Zm8.744-1.632c0-.29.18-.288.358-.286C38.617,11.078,38.506,11.959,38.248,11.269Zm.529,1.455.359-.575C39.717,10.254,39.708,13.082,38.777,12.724Zm4.284-1.107c-.178,0,0-.29.182-.868C44.023,10.011,43.089,11.621,43.061,11.617Zm1.423.887c.033-.419.171-.645.359-.576C44.847,12.342,44.828,12.57,44.484,12.5Zm3.563.622c-.179,0,.179-.287.358-.285C48.538,12.866,48.079,13.547,48.047,13.126ZM49.48,11.7c0-.29,0-.58.181-.578C49.956,10.6,50.106,11.929,49.48,11.7Zm1.607-.561c.234.026.392-.1.355.295C51.373,11.515,51.105,11.247,51.087,11.134Zm3.381,1.491c-.178,0-.355-.294-.355-.294C54.2,11.587,55.027,12.367,54.468,12.625Zm3.032-.253c-.423-.486.469-.31.357,0C57.856,12.666,57.679,12.374,57.5,12.372Zm3.211-.251a1.293,1.293,0,0,1-.175-.582C60.505,10.777,61.209,12.231,60.711,12.121Zm1.071-.277c.02-.113.291-.374.358-.285C62.171,12.088,61.991,12.329,61.782,11.844Zm11.587.72c.019-.113.29-.374.358-.285C73.758,12.808,73.578,13.05,73.369,12.564Zm4.456.344c-.178,0,0-.579,0-.869C78.234,11.926,77.851,12.952,77.825,12.908Zm2.863-2.284c.034-.418.172-.644.36-.575C81.052,10.463,81.033,10.69,80.688,10.624ZM83,12.1c.019-.113.29-.375.357-.286C83.388,12.345,83.208,12.587,83,12.1ZM11.045,39.853Zm-.2,58.305c.415,0,.642.015.576.359C11,98.483,10.775,98.345,10.843,98.158Zm3.078,33c0,.178-.288-.18-.286-.358C13.661,130.668,14.342,131.127,13.921,131.159Zm1.767,36.192c0,.29,0,.58-.181.578C14.769,169.109,15.894,165.841,15.688,167.351Zm24.96.751Zm-.178-.16c-.405.059-.075-.945.182-.867C40.831,167.077,40.828,167.657,40.47,167.942Zm5.889-1.088c-.073.153.228-1.05.359-.575C46.818,166.5,46.348,167.261,46.359,166.854Zm7.313-.491a1.3,1.3,0,0,1,.176.582A.3.3,0,0,1,53.672,166.363Zm1.606-.27c.069-.086.338.182.355.294C55.4,166.362,55.241,166.49,55.278,166.093Zm1.783.022c.069-.087.338.181.355.294C57.182,166.384,57.024,166.512,57.061,166.115Zm1.6.309c-.342.644-.537-.379-.177-.292C58.844,166.136,58.844,166.136,58.664,166.424Zm1.061,2.042c-.031-.529.149-.771.358-.286C60.063,168.293,59.792,168.554,59.725,168.466Zm2.142-.554c-.014-.313.243-.331.356,0C62.168,168.361,61.806,168.3,61.867,167.912Zm14.983-1.267c0-.415.015-.642.36-.576C77.176,166.488,77.038,166.714,76.85,166.645Zm7.49-.2c-.713.07-.263-.739.181-.578C84.7,166.16,84.518,166.448,84.34,166.446Zm77.74.364c.088-.2.421-.418.535.006C162.629,167.19,161.976,167.273,162.08,166.81Zm-1.96-.314c-.114-.866.279-.61.357,0,.432.775-.457.759-.537.283C160.122,166.766,160.323,167.083,160.12,166.5Zm-9.624-.986a.683.683,0,0,1-.538.573C149.546,166.04,150.2,165.327,150.5,165.51Zm-8.744,1.633c0,.29-.18.287-.358.285C141.383,167.333,141.494,166.453,141.752,167.143Zm-.529-1.456-.359.575C140.283,168.157,140.292,165.329,141.223,165.687Zm-4.284,1.107c.178,0,0,.29-.182.868C135.977,168.4,136.911,166.79,136.939,166.794Zm-1.422-.886c-.034.419-.172.644-.36.575C135.153,166.069,135.172,165.842,135.517,165.908Zm-3.564-.623c.179,0-.179.287-.358.285C131.462,165.545,131.921,164.864,131.953,165.285Zm-1.433,1.432c0,.289,0,.579-.181.577C130.044,167.815,129.894,166.482,130.52,166.717Zm-1.607.56c-.234-.026-.392.1-.355-.294C128.627,166.9,128.9,167.164,128.913,167.277Zm-3.381-1.491c.178,0,.355.295.355.295C125.8,166.824,124.973,166.044,125.532,165.786Zm-3.032.254c.423.485-.469.309-.357,0C122.144,165.745,122.321,166.037,122.5,166.04Zm-3.211.25a1.3,1.3,0,0,1,.176.582C119.5,167.635,118.791,166.18,119.289,166.29Zm-1.071.277c-.02.113-.291.374-.358.286C117.829,166.324,118.009,166.082,118.218,166.567Zm-11.587-.72c-.019.113-.29.374-.358.285C106.242,165.6,106.422,165.361,106.631,165.847Zm-4.456-.344c.178,0,0,.58,0,.869C101.765,166.485,102.149,165.46,102.175,165.5Zm-2.863,2.284c-.034.419-.172.644-.36.575C98.948,167.948,98.967,167.721,99.312,167.787ZM97,166.31c-.02.113-.291.374-.358.285C96.612,166.066,96.792,165.824,97,166.31Zm70.51-117.625c.29,0,.58,0,.577.181C168.609,49.162,167.277,49.311,167.511,48.685Zm.945-6.236c.739.779-.871-.155-.867-.182C167.591,42.088,167.879,42.268,168.456,42.449Zm-.519-4.995c.29,0,.288.18.286.358C168.128,37.822,167.247,37.712,167.937,37.454Zm-.326-20.863c.373-.014.456.638-.007.535C167.407,17.037,167.187,16.7,167.611,16.591Zm-.316,2.138c.775-.433.759.456.283.536-.018-.181.3-.382-.287-.18C166.424,19.2,166.681,18.806,167.3,18.729Zm-.813,19.253.575.36C168.951,38.923,166.123,38.914,166.482,37.982Zm.795,6.066c-.414,0-.641-.014-.575-.359C167.121,43.723,167.346,43.861,167.277,44.048Zm-.7,9.626c0-.179.294-.356.294-.356C167.619,53.405,166.838,54.233,166.581,53.674Zm.249,3.389c-.29,0,0-.179,0-.357C167.319,56.282,167.144,57.175,166.83,57.063Zm.229,4.993c.29,0,0,.178,0,0Zm.588-.71c-.529.031-.771-.149-.285-.358C167.474,61.007,167.736,61.278,167.647,61.346Zm-.275-1.25c-.6.008-.2-.345.295-.355C167.956,59.742,167.954,59.921,167.372,60.1Zm.4-9.448c-.087-.069.182-.338.294-.355C168.046,50.527,168.174,50.685,167.777,50.648Zm-.619,74.886a1.3,1.3,0,0,1,.582-.176A.3.3,0,0,1,167.158,125.534Zm.231-42.971c-.529.031-.77-.149-.285-.358C167.217,82.224,167.478,82.5,167.389,82.563Zm-.748-9.989c.113.02.374.291.286.358C166.4,72.963,166.156,72.783,166.641,72.574ZM166.3,77.03c0-.178.58,0,.87,0C167.279,77.44,166.254,77.056,166.3,77.03Zm.2,7.312c.586-.088.852.7.575.359-.261-.271-.479-.176-.647.083-.077-.149-.17-.3-.261-.447A.318.318,0,0,0,166.5,84.342ZM154.754,73.981c.245.171-.64.7-.7.522C153.962,74.413,154.374,74,154.754,73.981Zm-4.3-1.948c.073-.18.883-.521.587-.227C151.185,71.735,150.2,72.424,150.454,72.033ZM147.361,68c.264.179-.088.569-.324.5A1.7,1.7,0,0,1,147.361,68Zm-1.288-.5c.2.062.135.482-.118.3Zm-.957-3.492c.072-.042.374-.151.381-.023C145.149,64.36,144.874,64.469,145.116,64.007Zm-.037,2.88.118-.3C145.393,66.654,145.332,67.075,145.079,66.887Zm-.5-.929c.638-.282-.008.538-.118.3C144.291,66.071,144.291,66.071,144.584,65.958Zm-.725-2.835c.343-.28.482-.072.176.181C143.818,63.529,143.68,63.422,143.859,63.123Zm-8.212-6.415c-.275.259-.428.471-.587.228C135.354,56.692,135.568,56.54,135.647,56.708Zm-3.886-3.6c.406.289-.367.661-.5.318C131.38,53.127,131.674,53.013,131.761,53.1Zm-4.508-3.519-.041.041Zm-1.443-5.142c-.275.258-.428.471-.586.227C125.517,44.427,125.731,44.274,125.81,44.443Zm-.094,2.4c-.348.377-.624.486-.381.023C125.407,46.828,125.709,46.719,125.716,46.847Zm-2.922-2.606c.267.146-.647.658-.617.612C122.09,44.763,122.588,44.445,122.794,44.241Zm-2.6-1.859c.072-.042.374-.151.381-.023C120.225,42.736,119.95,42.845,120.192,42.382Zm-5.284-6.3c.072-.042.374-.15.381-.022C114.941,36.433,114.666,36.542,114.908,36.079Zm-.407-.838c.4-.508-.075.77-.324.5A1.684,1.684,0,0,1,114.5,35.241Zm-1.931-.748c-.206.2-.088-.091-.176-.181C112.544,33.744,112.838,34.369,112.57,34.493Zm-1.84-1.9c.344-.32.514.01.262.272C110.723,33.191,110.592,32.787,110.73,32.589Zm-.668-2.359c.2.062.135.483-.118.295ZM109.038,30l-.175-.181C109.316,29.271,109.963,29.4,109.038,30Zm-1.9.115c-.088-.091.293-.114.381-.023C107.623,30.128,106.851,30.46,107.134,30.119Zm-.721-4.083c.951-.127-.737.544-.7.522C105.621,26.468,105.914,26.354,106.413,26.036Zm-.034,1.633c-.275.258-.428.471-.586.228C106.086,27.653,106.3,27.5,106.379,27.669Zm-2.831-3.763c.206-.2.294-.114.381-.023C103.912,23.917,103.16,24.549,103.548,23.906Zm-.178,1.066c1.569-1.064-.209.907-.587.227ZM98.7,20.552c.182.159-.556.476-.674.136A.625.625,0,0,1,98.7,20.552Zm-4.5-5.487c.038-.321-.423.191-.638.385l-.074-.026c.038-.08.111-.21.244-.427C94.053,14.249,94.494,14.671,94.2,15.065Zm-.456,1.681a1.258,1.258,0,0,0-.211.25c-.3.012-1.1-.055-.5-.367.161.025.194-.054.179-.174.291-.313.651-.811,1.015-.528C94.039,16.167,92.485,17.5,93.744,16.746Zm-2.191,2.4c-.868.116-.608-.282.005-.36.776-.437.759.462.283.542C91.821,19.146,92.142,18.938,91.553,19.144Zm-.809,19.1.576.363C93.215,39.193,90.381,39.176,90.744,38.239Zm1.456-.533c.29,0,.287.181.285.361C92.387,38.079,91.513,37.964,92.2,37.706Zm.519,5.047c.738.787-.871-.156-.868-.184C91.854,42.389,92.141,42.57,92.719,42.753ZM90.925,95.536c.292-.178.58,0,.578.183C91.572,96.44,90.764,95.984,90.925,95.536Zm.5-17.835c.113.41-.911.023-.869,0C90.562,77.517,91.14,77.7,91.429,77.7ZM90.9,73.194c.114.02.374.3.285.362C90.66,73.587,90.419,73.405,90.9,73.194Zm.463,9.732c.114.019.374.3.285.362C91.122,83.319,90.882,83.137,91.367,82.926Zm.335,20.362c-.416.005-.642-.017-.575-.363C91.547,102.958,91.771,103.1,91.7,103.288Zm-.513,18.555c0-.36,0-.36.292-.178C92.125,122.01,91.1,122.207,91.189,121.843ZM92,126.532a.3.3,0,0,1-.582.177A1.283,1.283,0,0,1,92,126.532Zm-.536-3.606c-.026.235.1.4-.294.359C91.085,123.217,91.353,122.943,91.466,122.926Zm-.316,2.16c-.087-.068.181-.341.294-.359C91.419,124.962,91.548,125.124,91.15,125.086Zm.186,8.65c.226-.1.981.375.575.363C92.063,134.172,90.861,133.868,91.336,133.736Zm-.4,30.647c-.03-.019-.063-.04-.1-.063a.472.472,0,0,0,.126.044Zm2.031-45.955c-.313.015-.331-.246,0-.36C93.418,118.123,93.36,118.49,92.969,118.428Zm.554,2.165c-.53.031-.771-.151-.286-.362C93.351,120.251,93.611,120.526,93.523,120.593ZM93,140.05c.059.409-.945.076-.867-.185C92.134,139.685,92.714,139.688,93,140.05ZM91.774,49.055c.289,0,.579,0,.577.183C92.871,49.538,91.537,49.684,91.774,49.055Zm.56,1.624c-.026.235.1.4-.294.359C91.953,50.97,92.221,50.7,92.334,50.679Zm-.405,9.547c.76-.031-.691.681-.582.178A1.292,1.292,0,0,1,91.929,60.226Zm-.019,1.622c-.53.031-.771-.151-.286-.362C91.738,61.506,92,61.781,91.91,61.848Zm-.818-4.328c-.29,0,0-.18,0-.36C91.581,56.731,91.408,57.632,91.092,57.52ZM90.843,54.1c0-.18.3-.359.3-.359C91.881,53.824,91.1,54.66,90.843,54.1Zm.122-10.089c.42.034.644.176.575.363C91.124,44.374,90.9,44.353,90.965,44.006Zm1.51-29.364,0,0c0,.2-.043.205-.113.109Zm.147-.135c.042-.032.068-.043.067-.011Zm.264-.8c.2-.2.293-.114.381-.023C93.544,13.912,92.458,14.339,92.886,13.705Zm-1.648.757a.958.958,0,0,0-.282.033C91.143,14.405,91.406,14.06,91.238,14.462Zm.629,2.7c-.2-.088-.418-.426.006-.541C92.246,16.609,92.33,17.268,91.867,17.164Zm2.315-4.382c-.154.148-.409.348-.5.338.01-.07.016-.141.022-.213l.007-.019c.137-.109.113-.171.035-.219C93.792,12.556,93.91,12.554,94.182,12.782Zm-9.046-.075c-.088-.586.7-.853.36-.575-.272.261-.177.48.084.648-.15.077-.3.169-.449.261A.318.318,0,0,0,85.136,12.707ZM75.3,25.155c-.091.088-.5-.323-.522-.7C74.947,24.206,75.478,25.092,75.3,25.155Zm-2.7,3.01c-.07-.144.619.838.227.586C72.647,28.678,72.307,27.869,72.6,28.165Zm-3.309,4a1.693,1.693,0,0,1-.5-.323C68.971,31.58,69.36,31.933,69.291,32.168Zm-.7,1.082-.3-.118C68.355,32.936,68.776,33,68.589,33.25Zm-.907.876-.3-.118C67.448,33.813,67.869,33.873,67.682,34.126Zm-.635.614c-.181.175-.181.175-.3-.118C66.47,33.984,67.291,34.63,67.047,34.74Zm-2.269-1.032c.376.348.485.624.023.381C64.759,34.017,64.65,33.715,64.778,33.708Zm-.68,1.463c.226.216.118.355-.181.175C63.637,35,63.846,34.865,64.1,35.171ZM57.5,43.559c.258.275.471.428.227.586C57.487,43.851,57.334,43.638,57.5,43.559Zm-3.6,3.885c.289-.406.66.368.317.5C53.922,47.825,53.808,47.532,53.9,47.444ZM47.642,53.49c.376.348.485.623.023.381C47.623,53.8,47.514,53.5,47.642,53.49ZM45.237,53.4c.259.276.471.429.228.587C45.221,53.688,45.069,53.474,45.237,53.4Zm.411,3.633c-.091.088-.409-.411-.613-.616C45.182,56.145,45.693,57.059,45.648,57.028Zm-2.494,1.6c.376.348.485.624.023.381C43.135,58.941,43.026,58.64,43.154,58.632Zm-6.3,5.284c.376.348.485.624.023.381C36.832,64.225,36.723,63.924,36.851,63.916Zm-.317,1.113a1.684,1.684,0,0,1-.5-.324C35.527,64.3,36.805,64.779,36.534,65.029Zm-1.247,1.607c.2.206-.09.088-.181.175C34.538,66.662,35.163,66.367,35.287,66.636Zm-1.632,1.577c.331.27-.074.4-.272.263C33.063,68.131,33.393,67.962,33.655,68.213ZM31.32,69.261l-.3-.118C31.086,68.947,31.507,69.008,31.32,69.261Zm-.43,2.43c.032-.109.364.664.023.381C30.822,72.159,30.8,71.779,30.89,71.691ZM30.8,70.168l-.181.175C30.066,69.89,30.2,69.242,30.8,70.168Zm-2.334,2.659c.258.275.471.428.227.586C28.448,73.119,28.3,72.906,28.464,72.827Zm-1.111.67c-.091.088-.205-.2-.522-.7C26.7,71.842,27.374,73.529,27.353,73.5Zm-1.36,2.925-.227-.586C24.7,74.267,26.673,76.045,25.993,76.422Zm-1.316-1.146c.034.018.667.769.023.381C24.5,75.452,24.587,75.364,24.677,75.276ZM21.346,80.51c.159-.182.476.556.136.674A.625.625,0,0,1,21.346,80.51Zm-5.487,4.495c-.544-.064,1.321,1.319-.067.469C15.044,85.152,15.465,84.711,15.859,85.005Zm-1.383.934c.231-.277.658.808.023.381C14.3,86.114,14.386,86.027,14.476,85.939ZM12.842,52.877a1.3,1.3,0,0,1-.582.176A.3.3,0,0,1,12.842,52.877Zm.73,32.153c.148.157.357.408.345.5-.07-.01-.142-.017-.214-.022a.18.18,0,0,1-.021-.008c-.108-.137-.17-.113-.219-.034C13.352,85.414,13.349,85.3,13.572,85.03Zm-.235-1.3c-.292.177-.579,0-.577-.181C12.69,82.833,13.5,83.283,13.337,83.727Zm-.2-7.312c-.419-.034-.644-.172-.575-.359C12.975,76.051,13.2,76.071,13.136,76.415ZM12.782,57.87c-.644-.342.379-.537.292-.177C13.069,58.049,13.069,58.049,12.782,57.87Zm.309-1.6c.086.07-.182.338-.294.356C12.822,56.387,12.694,56.23,13.091,56.266Zm-.273-1.427c.026-.234-.1-.392.294-.356C13.2,54.553,12.931,54.821,12.818,54.839Zm.109-8.915c-.224.1-.982-.371-.576-.359C12.2,45.492,13.4,45.792,12.927,45.924Zm-1.073-31.03c-.29,0-.579,0-.577-.181C10.1,13.974,13.365,15.1,11.854,14.894ZM10.74,58.93c.529-.031.771.149.285.358C10.912,59.269,10.652,59,10.74,58.93Zm.549,2.5c-.444-.055-.386-.418.005-.357C11.606,61.058,11.625,61.316,11.289,61.429Zm1.2,68.3c-.29,0-.58,0-.577-.181C11.39,129.249,12.723,129.1,12.489,129.726Zm-.945,6.236c-.739-.779.871.155.867.182C12.409,136.323,12.121,136.143,11.544,135.962Zm.519,5c-.29,0-.288-.18-.286-.358C11.873,140.589,12.753,140.7,12.063,140.957Zm.326,20.863c-.373.014-.456-.638.007-.534C12.593,161.374,12.813,161.707,12.389,161.82Zm.316-2.138c-.776.433-.759-.456-.283-.536.017.181-.3.382.287.18C13.576,159.212,13.32,159.6,12.705,159.682Zm.991-9.98a.684.684,0,0,1-.573-.538C13.165,148.751,13.879,149.408,13.7,149.7Zm-.178-9.273-.575-.359C11.049,139.488,13.877,139.5,13.518,140.429Zm-.795-6.066c.414,0,.641.014.575.359C12.879,134.688,12.654,134.55,12.723,134.363Zm.7-9.625c0,.178-.294.355-.294.355C12.381,125.006,13.162,124.179,13.419,124.738Zm-.249-3.389c.29,0,0,.178,0,.356C12.681,122.129,12.856,121.236,13.17,121.349Zm-.817-4.284c.529-.03.771.149.285.358C12.525,117.4,12.265,117.133,12.353,117.065Zm.562,1.429a1.3,1.3,0,0,1-.582.176C11.571,118.7,13.026,118,12.915,118.494Zm-.692,9.269c.087.069-.182.338-.294.355C11.954,127.884,11.826,127.726,12.223,127.763Zm-.96-88.087c-.058-.406.946-.075.868.182C12.129,40.036,11.549,40.033,11.263,39.676ZM12.61,95.848c.53-.031.771.149.286.358C12.782,96.187,12.522,95.916,12.61,95.848Zm.749,9.989c-.114-.02-.374-.291-.286-.358C13.6,105.448,13.844,105.628,13.359,105.837Zm.344-4.456c0,.178-.58,0-.87,0C12.721,100.971,13.746,101.355,13.7,101.381Zm-.2-7.312c-.586.089-.853-.7-.575-.359.261.271.479.176.647-.083.077.149.17.3.261.447A.318.318,0,0,0,13.5,94.069ZM25.246,104.43c-.245-.171.64-.7.7-.522C26.038,104,25.626,104.407,25.246,104.43Zm4.3,1.948c-.073.18-.883.521-.587.227C28.815,106.676,29.8,105.987,29.546,106.378Zm3.093,4.036c-.264-.179.088-.568.324-.5A1.684,1.684,0,0,1,32.639,110.414Zm1.288.5c-.2-.061-.135-.482.118-.3Zm.957,3.493c-.072.042-.374.15-.381.022C34.851,114.051,35.126,113.942,34.884,114.405Zm.037-2.881-.118.3C34.607,111.757,34.668,111.337,34.921,111.524Zm.495.93c-.638.282.008-.539.118-.295C35.709,112.34,35.709,112.34,35.416,112.454Zm.725,2.834c-.343.28-.482.072-.176-.181C36.182,114.882,36.32,114.989,36.141,115.288Zm8.212,6.415c.275-.258.428-.471.587-.227C44.646,121.719,44.432,121.871,44.353,121.7Zm3.886,3.6c-.406-.289.367-.661.5-.318C48.62,125.284,48.326,125.4,48.239,125.307Zm4.51,3.517.037-.037Zm1.441,5.144c.275-.258.428-.471.586-.227C54.483,133.984,54.269,134.137,54.19,133.968Zm.094-2.4c.348-.377.624-.485.381-.023C54.593,131.583,54.291,131.692,54.284,131.564Zm2.922,2.607c-.267-.147.647-.659.617-.613C57.91,133.649,57.412,133.966,57.206,134.171Zm2.6,1.858c-.072.042-.374.151-.381.023C59.775,135.676,60.05,135.567,59.808,136.029Zm5.284,6.3c-.072.042-.374.151-.381.023C65.059,141.978,65.334,141.869,65.092,142.332Zm.407.839c-.4.508.075-.77.324-.5A1.7,1.7,0,0,1,65.5,143.171Zm1.931.747c.206-.2.088.091.176.181C67.456,144.667,67.162,144.043,67.43,143.918Zm1.84,1.9c-.344.321-.514-.01-.262-.272C69.278,145.22,69.407,145.624,69.27,145.822Zm.668,2.359c-.2-.062-.135-.482.118-.3Zm1.024.226.175.182C70.684,149.14,70.037,149.011,70.962,148.407Zm1.523-.091c-.108-.033.665-.365.381-.023C72.954,148.383,72.573,148.406,72.485,148.316Zm1.1,4.059c-.951.128.737-.544.7-.522C74.379,151.944,74.086,152.057,73.587,152.375Zm.034-1.633c.275-.258.428-.471.586-.227C73.914,150.758,73.7,150.91,73.621,150.742Zm2.831,3.764c-.206.2-.294.113-.381.022C76.088,154.494,76.84,153.862,76.452,154.506Zm.178-1.067c-1.569,1.064.209-.907.587-.227ZM81.3,157.86c-.182-.16.556-.477.675-.137A.629.629,0,0,1,81.3,157.86Zm4.5,5.486c-.065.545,1.318-1.32.468.068C85.947,164.162,85.506,163.74,85.8,163.346Zm1.314,1.36c-.2.205-.293.114-.381.023C86.456,164.5,87.541,164.072,87.114,164.706Zm-1.3.922c.236-.226.721-.59.473-.1-.068.054-.091.095-.095.13A.5.5,0,0,1,85.819,165.628Zm3.524-.543c.1-.214-.028-.143-.228.02-.137.016-.279.038-.429.068a5.613,5.613,0,0,0,.481-1.262c-.186-.192-.749.789-.263-.272.118-.3.118-.3-.293.114-.864.893.166-1.269-.937-.136-1.122,1.032,1.032-1.37-.408-.839l.2-.2c0-.361-.172.194-.144-.567-.281-.789-1.048.946-1.554.477.231-.2,1.756-1.635.441-.794.558-.255-.056-.887-.849-.045-1.012.577.884-1.2-.438-.453.88-.362-.812-2.461-1.664-1.723l-.039.042c.109-.143.261-.417-.019-.518-.263-.272-.263-.272-.057-.477,1.211-.766-1.409.768-.233-.657.452-.564-.537-.345-.7-.726-.3-.674-1.037.9-1.348.273-.034-.3.211-2.513-.4-2.086-.488.69-.717-.9-1.287-.5.65-1.182.075-.5-.789-.816-.628.315.044-.543-.232-.657-.381.023-1.345-.975-1.227-1.27.308-.207-.427.247-.381.023.576-.7-.66-.106-.206.2-.411.409-.673.137-.057-.476.894-1.182-1.278.861-.438-.453,1.094-.9-2.408,1.323-.731-.34,1.362-1.746-.884.6-.233-.657,1.128-1.606-2.178-.563-.846-1.293,1.053-.067-.5-.968-.818-.431.616-.807-.226-.828-.789-.816-.561.283.391-1.214-.027-.862-.17.215-1.624.6-.761.046.952-1.114-1.018-.23-.846-1.292-.124-.482-1.479.065-.995-.612-1.3.864.951-1.164-.262-.272-.293.113-.293.113-.175-.182.5-.539-1.426.67-.644-.249-.2-.215-1.268.666-.469-.067q.486-.75-.262-.272c-.537-.314.178-.975-.964-1-.062-1.079-.83.443-.408-.839-.724.339-.632.44-.438-.453-.834.759.042-.2-.351-.363-.38.252.321-.279.206-.2.119-.48-.271.4-.468-.068-.169-.345-.612.666-.792.431-.235.086,1.376-1.48.09-1.157-1.084.382.729-1.389-1.846.591.906-1.244,1.828-1.167.5-1.565.424-.567-.687-.793-.876-.907.323-.5-.057-.476-.381.023a.527.527,0,0,0-.053.052c.021-.039.041-.132-.122-.233.984-.18-1.456-2.731-1.753-1.814-.5.318-.586.227-.175-.181.193.036.191-1.782-.289-1.134-.624.95.361-.889-.058-.476-.952.053-.489-.773-1.345-.975-.285-.736.357-.792-.906-.521-1.086.727-.164-.236.03-.386-.08-.141-.244-.072-.392.036l.011-.013c.4-.9-1.214-.732-.788-.816.588-1.267-1.118-.36-.876-.907.118-.295.118-.295-.175-.181-.654.184.7-1.353-.115-.953-.792-.6-1.964.542-1.817.206,1.04-.045-.17-2-.434-1.7l-.206.205c.324-.5-.64-1.5-1.139-1.179.964-.271-1.012-1.652-1.577-1.633.082-.291.619-1.027-.263-.271q-.308.306-.263-.272c.2-.732-1.127-.55-.67-1.111.118-.3.148-.681-.438-.454-.23-.1.766-.991-.058-.476-.711.2-.416-1.068-.994-.612l-.2.2c.8-1.021-.7.356-.263-.272-.171-1.249-3.188-1.885-2.51-3.015.474-.434-.343.327-.382.023.472-.75-1.27.646-.262-.272.431-.775-.169-.2-.644-.249.3-1.145-1-.6-.877-.907.439-.556-.5-.161.149-.681.239-.5-1.548-1.553-2.452-.929.461-.489,1.1-1.378.2-.566-.337.429-.57-1.656-.964-1-.536.5.313-1.3-.32-.748-.192.332-1.578-.431-.731-.34.572-1.1-1.558.28-.526-.544.737-.86-.838.173-.145-.567,1.121-.354-2.189-.572-1.664-1.723.069-.082.119-.14.162-.189-.2.186-.586.449-.718.031.08-.668-1.159-.266-.732-.34.3.847-.886.21.031-.386.886-1.2-.718-.092-1.2-.407-.068-.679.134-.531.472-1.18-1.575-.058-2.905-2.57-4.385-3.286-1.048-1.563-2.774-.844-1.927-2-.153-.313-1.349.865-.762.045,1.067-.929-.738.125.354-.884.836-.822-.394-.007-.556-.159.487-1.05-1.646.793-.556-.158q.484-.749-.263-.272a7.971,7.971,0,0,0-1.928-2c-1.513-1.277-1.551-1.88-1.87-1.519-.772.372.533-.293-.408-.839-.225-.619-1.5-.322-.906-.521.789-.708-1.341-1.885-2.19-2.267-.082-.3-1.861-2.962-2.336-2.834-1.2.787.386-1.283-.994-.612l.205-.2c.5-.7-.5-.337-.643-.26-.029-.751.151-.687.59-1.464-.275.267-.531.085-.968.25-.4.329-.293-.116-.389-.056a.6.6,0,0,0-.324-.427c.466.033.584-.279.561-.73.215.132.275.134-.024-.245-.013-.1-.03-.2-.049-.307.174.1.327.157.361.045.106-.084,1.357.858.772.061-.649-.5,1.336.608.272-.263-.9-.857,1.273.162.135-.937-1.043-1.11,1.379,1.025.839-.408l.205.206c.352.007-.188-.178.567-.145.825.084-1.618-2.334-.069-1.142.51.687.883.727.415.074.177.19.563.527.447-.1.2-.136-.658-.914-.545-1.085.239-.13,1.091.948.567-.145.586,1.17,1.166-.94,1.792-.523.514.469-.369-1.717-.07-1.142.371.453.649-.626.953-.115s.318.5.091-.087c-.318-.5.158-.556.567-.145.564.451.345-.537.725-.7.641-.286-1.286-1.668.113-1.318.311.116,2.149,0,1.7-.434-.694-.485.9-.72.5-1.288,1.181.65.5.075.816-.788-.317-.625.546.042.658-.233-.117-.566,1.44-1.376,1.27-1.226-.381-.814.895.271-.046-.762-.488.449-.57-.85.295.118,1.182.893-.863-1.278.453-.438.919,1.079-1.333-2.4.34-.732.662.7,1.156.548.476-.057-1.069-.889,1.81.818,1.111-.67-.09-1.869.668.668.567-.145.4-.4.717-.493.226-1.025l-.23-.231.23.231c.812.613.825-.222.817-.788-.286-.56,1.215.389.861-.027-.2-.206-.227-.587-.34-.88,1.794.914.154-.376,1.768-.9.187-.23-.176-1.266.431-.819.523.494-.9-.962.181-.175.942.993-.509-.666.272-.263.2.206.3.118.091-.088-.685-1.231.429-.163.135-.936-.888-1.215,1.162,1.095.363-.351-.13-.359,1.534-.157.816-.788.387-.223.777-.334.43-.82,1.042.661.3-.05.363-.35.091-.087.386.031.59.236.158-.217-.53-.741-.023-.381.3.118.386.031.477-.057-.253-.38.279.32.2.206.478.12-.394-.272.068-.469.338-.162-.662-.616-.432-.792-.247-.376.446.568.5.324.091-.088.295.118.295.118.924.861-.283-1.694.635-.613.731.63-.627-1.329-.863-1.585,1.244.906,1.168,1.831,1.565.5.568.424.793-.687.907-.877.5.324.477-.057-.022-.38a.734.734,0,0,0-.052-.054c.039.021.132.041.233-.122.179.985,2.731-1.456,1.814-1.752-.318-.5-.228-.586.181-.175-.037.193,1.781.19,1.134-.29-.951-.624.889.362.476-.057-.053-.953.773-.49.974-1.345.737-.286.793.357.522-.907-.727-1.085.235-.163.385.031.142-.08.073-.245-.035-.393l.013.012c.9.4.732-1.214.815-.789,1.268.589.36-1.118.907-.876.295.118.295.118.182-.175-.185-.654,1.352.7.952-.114.6-.792-.541-1.965-.205-1.817.045,1.04,2-.17,1.7-.434l-.2-.206c.5.323,1.5-.64,1.179-1.139.27.964,1.652-1.012,1.632-1.577.292.081,1.028.618.272-.263q-.306-.309.272-.263c.732.2.55-1.128,1.111-.671.3.118.681.149.453-.438.1-.229.992.767.477-.057-.2-.711,1.067-.417.612-.994l-.2-.206c1.022.8-.356-.7.272-.263,1.249-.171,1.885-3.187,3.016-2.51.433.475-.327-.342-.023-.381.2.206.295.118.181-.175-.861-1.008.743.451.477-.057-.2-.206-.024-.381-.137-.674,1.145.3.6-1,.906-.877.556.438.162-.5.681.149.505.238,1.55-1.543.933-2.448.489.462,1.374,1.093.563.2-.427-.342,1.653-.565,1-.963-.072-.735.991.971.793-1.17.245-.562.74,1.032.749-.32-.739-1.089.562.63.476-.057-.318-.5-.023-.381.182-.175.437,1.02.246-.938.884-1.257a.667.667,0,0,1,.966-.278c-.7-.7.838-.66.371-1.417.069-.378-.082.17-.182.175-1.157-1.438,1.9.85,1.044-.2a2.607,2.607,0,0,1-.07-1.143c.366-.2,1.51.852,1.067.179.872-1.675,3.664-3.62,4.284-5.348.439,0,.453-1.612.612-.994.985.895.3-.249.158-.556.108-.244.7.593.7.529.208-.135-.172-.385-.023-.381.384-.181,1.126,1.466.657-.233,1.052.486-.793-1.644.159-.556,1.077.472-.519-.437,1.02-.582-.09-.441,2.844-3.382,2.788-3.1.685.637-.7-1.351.068-.468.738.631,1.313-1.908,1.269-1.227.666.828,1.916-1.368,2.268-2.19.326.308,2.34-2.149,2.856-1.955-.869-2.149,1.156.341.589-1.375.219.411,1.04.362.454-.438,1.081-.223,1.774,1.655,1.224-.377a.518.518,0,0,0-.069-.362c.277-.066.5-.179.552-.351-.031.456.269.577.7.56-.107.223.027.149.232-.02.133-.016.272-.037.417-.065a3.323,3.323,0,0,0-.263.582c-.927.284-.58.362-.122.4-.026.085-.049.166-.086.272a.075.075,0,0,0,.066.014c-.287.139.061.5-.455.481-1.758.568.845.375-.591.9-.292.179-.292.179.288.182,1.248-.028-1.041,1.126.567,1.084,1.47.014-1.73.505-.3,1.259.289,0,0,0-.29,0-.138.188-.752,1.8.531,1.1.074.134,1.291.941.027.7-2.068-.171.5.508-.584.358-.879.409.928.894,1.146,1.086-.066.314-1.442.206-.3.72-1.284-.529-.15,2.245-.9,2.338-.652-.03,1.343,1.36.857,1.085-.58-.084-.02,1.288-.593,1.078-1.344-.459,1.5.72-.3.9-.289,0-.292.179-.3.539.3,2.321,2.469.962.837,2.706-.1.219-1.27,1.832-.6,1.8.827-.2-.123,1.682.558,1.8,0,.18,0,.18-.292.179-1.4.169.726.712-.013,1.08-.057.288.884.454.279.9-.645.142.318,2.526-.325,2.881-.315-.055.475.154.286.362-.833.119.235.649.288.181.182-.565.886.44-.3.359-1.442.285,1.508.444-.011.9-1.282-.155,2.577,1.158.277,1.082-2.508.585,1.189.189-.3.9-1.891.449,1.135,2.816-.316,2.162-.781-.935-.355,1.443.274,1.262l.07,0c-.171.024-1.237.248-.089,1.626.158.977-1.559.377.273,1.442-1.968.951.229.665-.613,2.7.4.563.679,1.435.275,1.262,1.519.426-1.467.23-.006.541.742.281-.723.418-.007.541.578.182.861.724.281.722-.152.3,1.513.655.283.541-1.248.376.487.36-.01.9-.294.359-.6,1.439-.015,1.261.111.106-.494,1.052-.013,1.081.758.355-.4.117-.3.54.287.173,1.143.465-.008.72l0,.18c1.134.054-.238.245-.008.721.442.127-.386-.041-.29,0-.393.339.5-.069.283.542-.151.505.868-.054.865.364.155.025-2.018.25-.882,1.077,1,.7-1.475.71,1.724,1.269-2.174.038-1.595.018-1.462,1.074-.564-.1-.262,2.851.263,2.163.225-.032-.08-.026,0,.361-.872-.769-.847,4.239-.043,3.6.577.183.575.363,0,.361-.075-.262-1.417,1.618-.6,1.438.581-.177.29,0,0,.181-.977.229.8,1.255-.31,1.62.845,1.347-.79,1.614.549,2.525,1.77.522-1.262.189-.008.72-.838.412.173,1.879-.019,1.622-1.276.591.455,1.468-.022,1.8-.6.288.685.5-.3.9-1.07.461.5,2.1,1.135,1.987.286.362,0,.361,0,.18-.862-.9-1.262,2.181-.895,2.158l.361,0h-.071c-1.156.426.347,2.757-.318,2.34-.572.094-.018,3.023.25,3.245.069.438-.72-.161-.583.357.067.393,1.3-.105.571.724-.661.487.406,1.63-.311,1.8-.867.213.406,1.081-.3,1.08-.292.179-.582.177-.005.36.5.655-.344,1.889.56,1.624-1.262.211.755.347-.006.541-.292.179-.294.359-.294.359.247,1.177.54,4.554.231,4.865.155.284-.334.356-.446.367.028,0,.076,0,.152-.007.288.181.288.181.285.361-.894.24,1.324.64-.006.541-.861.35,0,.375.279.9-.888.653.15,1.585-.021,1.8-.994.233-1.248,3.609.821,3.967-.52-.095-2.322.259-.874.357.519.166-.741,1.971-.023,1.982.767.092-1.208.9-.3,1.079.387-.1.806,2,.277,1.082-1.241.528,1.248,1.247-.013,1.081-1.129.1.7.69-.3.72-.577-.183-.577-.183-.006.54.334.693.277,2.643-.1,2.908.746.159-.186,1.551.622,1.779-.106-.723.866-.24.287.182-.115.162-1.978.5-.877.717.6-.036.024.465.571.723.65.011-.062.728-.014.879-.238.016-1.381.247-.581.379.443,3.025.2,9.06,1.023,11.356-1.378.085.014.56.281.722.08.452-1.119-.1-.874.356,1.326.52-1.816.2-.3.72.544.7-.463.514.566,1.083l.326,0-.326,0c-1.365.432.8.41-.011.9-.308.22-.131,5.957.214,6.307.1.437-1.111.333-.008.721.287.182.577.183,0,.18-.448-.1-.43,2.344-.029,2.343.549.491-1.455.008-.306,1.44-.371,2.016.34,2.866-.068,5.584-.237,2.305-.1,2.441.25,3.425a.553.553,0,0,0-.014,1.081c-.678-.158-.647.4-.353.713-.095-.063-.2-.132-.343-.211.267.274.084.531.249.967a.637.637,0,0,1,.07.108c-.192.063-.664.013-.922.074A1.257,1.257,0,0,0,89.343,165.085ZM50.42,51.993Zm40.72-22.58c-.045.419-.757-.252-.573-.544A.687.687,0,0,1,91.14,29.413Zm-.513,18.555c-.028.135-.7-.33-.285-.361C90.344,47.427,90.63,47.788,90.627,47.968Zm-.592,117.51a.166.166,0,0,1,.059.093c-.014.026-.032.046-.045.075A.635.635,0,0,0,90.035,165.478ZM104.7,153.256c.091-.088.5.323.522.7C105.053,154.205,104.522,153.319,104.7,153.256Zm2.7-3.01c.07.144-.619-.838-.227-.586C107.353,149.733,107.693,150.542,107.4,150.246Zm3.309-4a1.693,1.693,0,0,1,.5.323C111.029,146.831,110.64,146.478,110.709,146.243Zm.7-1.082.3.118C111.645,145.475,111.224,145.414,111.411,145.161Zm.907-.876.3.118C112.552,144.6,112.131,144.538,112.318,144.285Zm.635-.614c.181-.175.181-.175.3.118C113.53,144.427,112.71,143.781,112.953,143.671Zm2.269,1.032c-.376-.348-.485-.624-.023-.381C115.241,144.394,115.35,144.7,115.222,144.7Zm.68-1.463c-.226-.216-.118-.355.181-.175C116.363,143.408,116.154,143.546,115.9,143.24Zm6.595-8.388c-.258-.275-.471-.428-.227-.586C122.513,134.56,122.666,134.773,122.5,134.852Zm3.6-3.885c-.289.406-.66-.368-.317-.5C126.079,130.586,126.192,130.879,126.1,130.967Zm6.257-6.046c-.376-.348-.485-.623-.023-.381C132.377,124.612,132.486,124.914,132.358,124.921Zm2.405.095c-.259-.275-.471-.428-.228-.587C134.779,124.723,134.931,124.937,134.763,125.016Zm-.411-3.633c.091-.088.409.411.613.617C134.818,122.266,134.307,121.352,134.352,121.383Zm2.494-1.6c-.376-.348-.485-.624-.023-.381C136.865,119.47,136.974,119.772,136.846,119.779Zm6.3-5.284c-.376-.348-.485-.624-.023-.381C143.168,114.186,143.277,114.488,143.149,114.5Zm.317-1.113a1.732,1.732,0,0,1,.5.324C144.473,114.111,143.2,113.632,143.466,113.382Zm1.247-1.607c-.2-.205.09-.087.181-.175C145.462,111.749,144.837,112.044,144.713,111.775Zm1.632-1.577c-.331-.27.074-.4.272-.263C146.937,110.28,146.607,110.449,146.345,110.2Zm2.335-1.048.295.118C148.914,109.464,148.493,109.4,148.68,109.15Zm.43-2.43c-.032.109-.364-.664-.023-.381C149.178,106.252,149.2,106.633,149.11,106.72Zm.092,1.524.181-.176C149.934,108.522,149.805,109.169,149.2,108.244Zm2.334-2.659c-.258-.276-.471-.429-.227-.587C151.552,105.292,151.705,105.506,151.536,105.585Zm1.111-.671c.091-.088.205.206.522.7C153.3,106.57,152.626,104.882,152.647,104.914Zm1.36-2.925.227.586C155.3,104.144,153.327,102.366,154.007,101.989Zm1.316,1.146c-.034-.018-.667-.769-.023-.381C155.5,102.96,155.414,103.047,155.323,103.135Zm3.331-5.234c-.159.182-.476-.556-.136-.674A.625.625,0,0,1,158.654,97.9Zm5.487-4.495c.544.064-1.321-1.319.067-.469C164.956,93.259,164.535,93.7,164.141,93.406Zm.293-3.1c-.75-.413,1.269,1.289-.159.556l-.181.175c-.252.118,1.164,1.148.431.792-.5-.185-.594-.635-.885-.354-.09.088-.272.263-.067.469.4.329-.6-.506-.3-.118-1.945.185.562.889,0,1.611-.241-.188-1.569-1.743-.819-.484-.176-.188-.571-.531-.452.1-.184.073,1.12,1.6.25.968-.856-.8.087.711-.476.057-.421-.732-1.116,1.216-1.587.728-.2-.206-.159.556.068,1.142.022.022.029.028.046.043-.141-.11-.417-.27-.522.015-.272.262-.272.262-.476.057-.771-1.208.77,1.406-.658.232-.564-.451-.345.537-.725.7-.675.3.9,1.037.273,1.348a8.2,8.2,0,0,0-2.2.112c-.167.252.8.714-.136.936-.454,1.292-1.157-.453-.907.876.2.206.114.294-.181.176-.194.114.421.847-.249.643-.465-.446-1,1.458-1.656,1.2-.216-.3.254.421.023.381-.7-.578-.108.663.2.206.964,1.246-1.587-.918-.658.232q.477.749-.272.263c-.913-1.085,1.329,2.4-.34.732-1.743-1.364.6.885-.657.232-1.6-1.129-.563,2.179-1.293.846-.227-.586-.227-.586-.2-.206-.715.214-.333.859-.118,1.137l-.108-.112c-.81-.614-.826.224-.817.788.285.561-1.214-.39-.861.027.21.175.6,1.621.045.762-.16-.332-1.016-.314-.657.233.214.654-1.075.5-.884,1.257-.117.056.148.764-.363.35-.516-.5.892.967-.181.175-.944-.99.51.664-.272.263-.545-.491.673,1.422-.249.644-.206.188.658,1.274-.068.468-1.046-.654.142.416-.453.438-.386-.03-1.134.29-.635.614-.058.191-.847.134-.544.525.376.719-.349-.223-.477.058.149.3.545,1.008-.362.35-.134.191.512.76.023.381-.491-.278-.445.369-.477.057-.7-.572.1.013-.271.263-.348.171.667.61.431.792.129.227-.594-.522-.795-.441-.924-.86.285,1.692-.634.613-.734-.629.629,1.326.863,1.584-1.244-.906-1.167-1.83-1.565-.5-.568-.424-.793.687-.907.877-.5-.324-.477.057.022.381a.669.669,0,0,0,.052.053c-.039-.021-.132-.04-.233.122-.179-.985-2.731,1.456-1.814,1.752.318.5.228.587-.181.175.037-.193-1.781-.19-1.134.29.951.624-.889-.361-.476.057.053.953-.773.49-.974,1.345-.737.286-.793-.357-.522.907.727,1.085-.235.163-.385-.031-.142.08-.073.245.035.393l-.013-.012c-.9-.4-.731,1.214-.815.789-1.268-.589-.36,1.118-.907.876-.3-.118-.3-.118-.182.175.185.654-1.352-.7-.952.115-.6.791.541,1.964.205,1.816-.045-1.04-2,.171-1.7.435l.2.2c-.5-.323-1.5.641-1.179,1.139-.27-.964-1.652,1.012-1.632,1.577-.292-.081-1.027-.618-.272.264q.306.308-.272.262c-.732-.2-.55,1.128-1.111.671-.295-.118-.681-.149-.453.438-.1.229-.992-.766-.477.057.2.712-1.067.417-.612.994l.2.206c-1.022-.8.356.7-.272.263-1.249.171-1.886,3.187-3.016,2.51-.433-.475.327.342.023.381-.2-.205-.3-.118-.181.175.861,1.009-.743-.451-.477.058.2.205.024.38.137.674-1.145-.3-.6,1-.906.876-.556-.438-.162.5-.681-.149-.506-.239-1.553,1.549-.93,2.452-.489-.461-1.378-1.1-.566-.2.43.337-1.655.569-1,.963.5.537-1.3-.312-.749.321.332.192-.431,1.578-.339.731-.158-.129-.687-.041-.454.438.738,1.092-.561-.632-.476.057.391,1.177-.809-1.182-.453.438a1.9,1.9,0,0,1-1.514,1.337c.545.632-.889.62-.436,1.353-.071.381.083-.173.182-.176.853,1.229-.868-.2-1.157-.091-.041.434.336.272.159,1.055.463.478-.432.3-.449.434-.194-.17-.736-.624-.708-.525-.1,1.841-3.714,3.81-4.17,5.642-.443.009-.45,1.6-.612.994-.5-.648-.815-.17-.272.262.529.839-.608-.184-.59-.236-.082.4.229.72-.476.058-.821-.836-.006.393-.159.556-1.05-.488.793,1.645-.158.556q-.749-.486-.272.263a7.974,7.974,0,0,0-1.994,1.928c-1.287,1.523-1.88,1.546-1.52,1.869.114.294.318.5-.09.088-.252-.369-1.465.85-1.179,1.139.181.7-1-1.076-.93.5-1.154.589-1.164,1.663-2.811,2.715a2.145,2.145,0,0,1-.588.582,24.1,24.1,0,0,0,.257-4.231c-.326-2.894.339-3.6-.224-5.406-.1-.928.68-2.14-.286-2.739,1.1.314.242-4.742.089-5.01-.806-.552,2.04-2.532.021-1.8-.687.378,1.189-2.434-.221-3.223.245-.006.766-.14.56-.919.053-.7-.774-1.151.02-1.622.718-.3-.572-1.9.314-1.98-.206-1.046-.248-1.655-1.138-1.807,1.181-.3.591-3.954.639-4.862,1.22-.359-.434-1.085.01-.9a2.89,2.89,0,0,0-.543-3.065c0-.181.29,0,.578.182.991.639-1.641-2.028-.28-.9.946.571-.2-.393.011-.9.7-.638-.2-.787.3-1.079.29,0,.292-.179-.287-.182-.545.532,1.369-4.117-.234-4.686-1.073.062,2.017-.774.006-.54-1.289.381.773-.278.007-.54-.569-.177,1.477-.91.307-1.441-1.41-1.138,1.613-.028-.272-1.442-.578-.183-.578-.183-.288-.182.6-.057.018-.508.586-.538-.116-.336-1.182-1.4.02-1.621.091-.164-1.579-.868-.571-.723h.289c-.986-.517.414-.85.593-1.078-1.638.109-.323-.724.015-1.261.215-.749-.642-1.913.028-2.343.644-.023-.5-.188-.283-.542-.494-.326.431-2.09-.268-1.8-.422.6.917-2.343.026-2.162-1.444.368,1.279-.666.3-.719-.76-.449.349-.241-.279-.9-.019-.369.409.044.3-.539-.976-.674.464-1.559-.265-1.983-.578-.183-.576-.363,0-.361,1.2.24-1.277-.857.3-1.08l.579,0c-2.037-4.118-.186-10.508-.975-15.319-.858-.614.774-.642.017-1.442-.577-.182-.575-.363,0-.36,1.436-.053-.993-.727-.278-1.082,1.442-.434-1.131-.436.3-.9,1.09-.811-1.29-.179.024-1.982.181.012.511-.754.007-.54.095.137.69-5.473.056-4.684-.582.177-.577-.183,0-.361a8.345,8.345,0,0,0,.057-4.684c-.676-.495,1.153-1.1.019-1.621,1.391-.649-1.648-.49.3-.9,1.313-.052-.614-.319.008-.721.228-.462-1-.175-.86-.724,1.029.415.135-.406,1.168-.716.771-.572-1.218.19-.863-.544-.1-.6.713-.083.588-.718.337-.934-2.688-1.319-1.432-1.448.551.046.047-.659.294-.359.3.5,1.622.282.582-.178-.4-.24.4-.633.594-1.258-.1-.961-1.09-.978-1.427-1.808-.464-.564.633-.5.885-1.258.534-.3-.94-.145-.867-.184-.061-.333,2.2-.53.876-.536-1.084-.052.378-1.461.019-1.622-.862-.32,1.308-2.1.022-1.8-.29,0-.58,0,0-.181.492-.529-.979-1.054-1.438-.907-1.391.191.7-1.41.584-.358.37.181,1.116-.715.588-.718-.433.2.566-.354.3-.9.6-1.887-.094-1.35-.269-1.8,1.408-2.258-.049-5.329.378-7.206.047-1.547-.433.236-.283-.541-.717-1.311,1.869-.294.012-1.082-1.649-1.171,1.458.419.3-.539.029,0-.571-.842-1.155-.365-.914-.356.658-.5,1.161-.175.289,0-.273-.892-.848-1.081.255-.027.8-.164.58-.722C93.371,30.03,92.572,30.6,92,30.5c.992-.547,2.233-2.768,1.492-3.6.289-.568-.14-.964.017-1.441,1.243-.713-1.475-.069-.88.9a1.976,1.976,0,0,0-1.144-1.267c.388.184,2.916.163,1.745-.533-.1-.431,1.112-.336.009-.72-1.284-.2,1.373-1.17.309-1.62-1.275-.213.435-.9-.274-1.263l-.167,0c.133-.008.914-.072.461-.364-.6-.141-.66-.347-1.447-.187-.767.08,1.292-1.484,1.467-1.434-1.77.03.842-.491-.282-.722-1.416.005,1.125-.384-.281-.722-1.054-.008.126-.092.487-.362.037.046.127.068.334.029.073.184,1.6-1.119.967-.25-.8.857.711-.086.057.477-.732.421,1.216,1.115.728,1.587-.2.2.556.158,1.143-.069l.042-.045c-.11.141-.27.417.015.521.263.273.263.273.057.477-1.207.77,1.406-.771.233.657-.452.564.537.345.7.726.3.675,1.036-.9,1.348-.273a8.2,8.2,0,0,0,.111,2.2c.252.167.714-.8.937.136,1.291.453-.454,1.157.876.907.2-.205.293-.114.175.181.115.193.847-.422.644.249-.447.464,1.458,1,1.2,1.655-.3.216.42-.254.381-.023-.579.7.662.108.206-.2,1.246-.965-.919,1.586.232.658q.749-.477.263.271c-1.086.913,2.4-1.329.731.34-1.364,1.744.885-.6.233.657-1.129,1.605,2.179.564.846,1.294-.587.227-.587.227-.206.2.214.714.858.333,1.136.118-.032.03-.067.063-.111.108-.615.81.223.826.788.816.56-.284-.39,1.215.027.862.175-.21,1.62-.6.761-.046-.332.16-.313,1.017.233.658.655-.214.5,1.074,1.257.883.056.117.765-.147.35.363-.5.517.968-.892.176.182-.991.944.664-.511.262.272-.49.545,1.423-.673.644.249.188.206,1.275-.659.469.068-.655,1.046.416-.143.438.453-.031.386.29,1.134.613.635.191.057.135.847.526.544.719-.376-.224.349.057.476.3-.149,1.009-.544.351.363.191.133.759-.513.38-.023-.278.49.37.444.058.476-.573.7.013-.1.262.272.171.348.61-.667.793-.431.227-.13-.522.594-.442.794-.859.925,1.692-.285.613.635-.628.733,1.327-.629,1.584-.863-.905,1.243-1.83,1.167-.5,1.565-.424.568.687.793.876.907-.323.5.057.476.381-.023a.711.711,0,0,0,.053-.051c-.021.039-.04.132.122.232-.984.18,1.456,2.732,1.752,1.814.5-.318.587-.227.176.181-.193-.036-.191,1.782.289,1.134.624-.95-.361.889.058.477.952-.054.489.772,1.345.974.285.737-.357.793.906.521,1.086-.726.164.236-.03.386.08.141.244.072.392-.036l-.011.013c-.4.9,1.214.732.788.816-.588,1.267,1.119.359.876.907-.118.3-.118.3.175.181.654-.184-.695,1.353.115.953.792.6,1.964-.541,1.817-.206-1.04.046.17,2,.434,1.7l.206-.2c-.324.5.64,1.5,1.139,1.179-.964.271,1.012,1.652,1.577,1.633-.082.291-.619,1.027.263.272q.307-.307.263.272c-.2.731,1.127.55.67,1.11-.118.3-.148.681.438.454.23.1-.766.991.058.476.711-.2.416,1.068.994.612l.2-.2c-.8,1.022.7-.356.263.272.171,1.249,3.188,1.885,2.511,3.015-.475.434.341-.326.38-.023-.2.2-.117.3.176.182,1.008-.862-.452.743.057.476.206-.2.381-.023.674-.137-.3,1.146,1,.6.877.907-.439.556.5.161-.149.681-.239.506,1.548,1.553,2.452.93-.461.488-1.1,1.378-.2.566.337-.43.57,1.655.964,1,.536-.5-.313,1.3.32.748.192-.332,1.578.431.731.34-.572,1.1,1.558-.28.526.544-.737.86.838-.173.145.567-1.121.354,2.189.572,1.664,1.723-.068.082-.119.14-.162.188.2-.185.587-.448.718-.029-.08.667,1.159.266.732.339-.3-.847.886-.21-.031.386-.887,1.2.718.093,1.2.407.068.679-.134.531-.472,1.18,1.575.058,2.905,2.57,4.385,3.286,1.048,1.563,2.774.844,1.927,2,.153.313,1.349-.865.762-.045-1.067.929.738-.125-.354.885-.836.821.394.006.556.158-.487,1.051,1.646-.793.556.158-.751,1.134.759-.358.438.454-.212.668,3.528,2.856,3.242,3.355-.638.683,1.352-.694.469.068-.653.717,1.923,1.328,1.226,1.269-.789.708,1.341,1.886,2.19,2.268.082.3,1.861,2.961,2.335,2.834,1.2-.788-.385,1.282,1,.611l-.205.2c-.5.7.5.337.643.26.029.752-.151.687-.59,1.464.275-.267.531-.085.968-.25.405-.328.293.117.389.056a.6.6,0,0,0,.324.427c-.457-.032-.577.268-.561.7-.222-.106-.148.028.02.232.016.134.038.272.066.418a6.422,6.422,0,0,0-1.259-.472C164.538,90.2,165.477,90.805,164.434,90.3Zm-34.78,36.19Zm-5.845,5.566c.042.043.041.041,0,0ZM92.844,80.591c.42.033.644.175.575.363C93,80.959,92.778,80.937,92.844,80.591Zm72.68,11.881c-.23.278-.658-.808-.023-.38C165.705,92.3,165.614,92.385,165.524,92.472Zm.9.916c-.149-.155-.348-.409-.339-.5.07.009.142.016.214.021l.019.008c.109.137.17.113.219.034C166.649,93,166.652,93.115,166.424,93.388Zm.239,1.3c.292-.176.579,0,.577.181C167.31,95.578,166.5,95.129,166.663,94.684Zm.2,7.312c.419.034.644.172.575.359C167.025,102.36,166.8,102.341,166.864,102Zm.354,18.545c.644.343-.379.537-.292.177C166.931,120.362,166.931,120.362,167.218,120.541Zm-.309,1.6c-.087-.069.182-.338.294-.355C167.178,122.024,167.306,122.182,166.909,122.145Zm.273,1.427c-.026.235.1.393-.294.356C166.8,123.859,167.07,123.59,167.182,123.572Zm-.109,8.915c.225-.1.982.371.576.36C167.8,132.919,166.6,132.619,167.073,132.487Zm1.073,31.031c.29,0,.58,0,.577.18C169.9,164.437,166.635,163.312,168.146,163.518Zm-.277-24.965c0-.178.582-.175.868.183C168.8,139.141,167.791,138.81,167.869,138.553Zm1.391-19.072c-.529.031-.771-.149-.285-.358C169.087,119.142,169.349,119.413,169.26,119.481Zm-.549-2.5c.444.055.386.418-.005.357C168.394,117.353,168.375,117.1,168.711,116.982Zm.445-36.729c-.414,0-.641-.014-.575-.359C169,79.928,169.226,80.066,169.156,80.253Z" style="fill: #fff"></path><path d="M163.553,16.572c.069-.188-.156-.325-.575-.359C162.912,16.558,163.139,16.577,163.553,16.572Z" style="fill: #fff"></path><path d="M161.338,55.789a1.286,1.286,0,0,0-.577-.181C160.012,55.567,161.43,56.291,161.338,55.789Z" style="fill: #fff"></path><path d="M87.241,16.242c-.066.346.159.368.575.363C87.885,16.417,87.661,16.275,87.241,16.242Z" style="fill: #fff"></path><path d="M92.6,52.842a.3.3,0,0,0,.581-.177A1.282,1.282,0,0,0,92.6,52.842Z" style="fill: #fff"></path><path d="M90.869,124.365c0,.179.287.181,0,0Z" style="fill: #fff"></path><path d="M90.264,29.949c-.29,0-.292.179-.3.539C90.332,31.55,91.122,29.844,90.264,29.949Z" style="fill: #fff"></path><path d="M90.247,122.585a.679.679,0,0,0-.226-.027A.166.166,0,0,0,90.247,122.585Z" style="fill: #fff"></path><path d="M90.077,105.27Z" style="fill: #fff"></path><path d="M93.286,19.693c.4.038.268-.124.294-.359C93.466,19.352,93.2,19.625,93.286,19.693Z" style="fill: #fff"></path><polygon points="90.869 124.365 90.869 124.364 90.869 124.364 90.869 124.364 90.869 124.365" style="fill: #fff"></polygon><path d="M93.543,46.541c.488,0,.231,0-.019,0Z" style="fill: #fff"></path><path d="M94.879,55.916c-.118.459.3.465.288.181C95.171,55.737,95.171,55.737,94.879,55.916Z" style="fill: #fff"></path><path d="M93.253,46.539h0Z" style="fill: #fff"></path><path d="M123.551,170.11c.356,0,.356,0,.179-.288C123.274,169.7,123.271,170.125,123.551,170.11Z" style="fill: #fff"></path><path d="M133.01,168.2c0-.049,0,.11,0,.271C133.01,168.184,133.011,167.912,133.01,168.2Z" style="fill: #fff"></path><path d="M159.577,168.229c-.037.4.122.269.355.294C159.915,168.41,159.646,168.142,159.577,168.229Z" style="fill: #fff"></path><path d="M133.008,168.467v.019C133.006,168.974,133.007,168.717,133.008,168.467Z" style="fill: #fff"></path><path d="M126.948,168.122a1.3,1.3,0,0,0-.176-.581A.3.3,0,0,0,126.948,168.122Z" style="fill: #fff"></path><path d="M74.9,165.172Z" style="fill: #fff"></path><path d="M123.416,160.544a1.278,1.278,0,0,0,.181-.577C123.639,159.218,122.915,160.636,123.416,160.544Z" style="fill: #fff"></path><path d="M149.428,165.207c.072-.469-.832-.31-.892-.011C148.592,165.664,149.531,165.769,149.428,165.207Z" style="fill: #fff"></path><path d="M162.993,162.184c-.345-.066-.364.161-.359.575C162.821,162.828,162.959,162.6,162.993,162.184Z" style="fill: #fff"></path><path d="M57.769,165.056a.518.518,0,0,0,.01-.092C57.693,164.836,57.692,164.917,57.769,165.056Z" style="fill: #fff"></path><path d="M46.993,9.721Z" style="fill: #fff"></path><path d="M46.992,9.925l0,.284,0-.488Z" style="fill: #fff"></path><path d="M20.423,10.183c.037-.4-.122-.269-.355-.294C20.085,10,20.354,10.269,20.423,10.183Z" style="fill: #fff"></path><path d="M53.052,10.289a1.3,1.3,0,0,0,.176.582A.3.3,0,0,0,53.052,10.289Z" style="fill: #fff"></path><path d="M46.99,10.215c0,.182,0,.126,0-.006Z" style="fill: #fff"></path><path d="M30.572,13.2c0,.29.177.292.534.3C32.157,13.136,30.468,12.346,30.572,13.2Z" style="fill: #fff"></path><path d="M109.93,10.114l0,0C109.934,10.04,109.932,10.056,109.93,10.114Z" style="fill: #fff"></path><path d="M122.246,13.223a.649.649,0,0,0-.025.225A.167.167,0,0,0,122.246,13.223Z" style="fill: #fff"></path><path d="M105.112,13.39c0,.041,0,.03,0,0Z" style="fill: #fff"></path><path d="M17.366,15.652c-.187-.068-.325.156-.359.576C17.352,16.294,17.371,16.066,17.366,15.652Z" style="fill: #fff"></path></g></svg>