<svg xmlns="http://www.w3.org/2000/svg" id="Layer_1" data-name="Layer 1" width="180" height="180" viewBox="0 0 180 180"><g><path d="M169.766,164.4c-.069.187.154.335.576.368C170.408,164.422,170.184,164.4,169.766,164.4Z" style="fill: #fff"></path><path d="M167.318,150.875c.29,0,.292-.181.3-.546C167.25,149.253,166.461,150.982,167.318,150.875Z" style="fill: #fff"></path><path d="M167.214,12.974c-.178-.381-.76-.543-1.38-.528-.187-.187-.335-.233-.345.026-.084.011-.168.022-.251.039a1.078,1.078,0,0,1-.114-.24c-.147-.373-.165-.019-.208.326a2.079,2.079,0,0,0-.409.189c-.035-.065-.073-.141-.115-.234-.951-.455-.263,1.514-.735.861a1.211,1.211,0,0,1-.18-.582c-.322-1.035-1.158.64-.911-.3-.121-.078-1.924-.821-1.1.566l-.183,0c-.325.161-.077.685-.55.573-.049-.366.191-2.38-.361-.874V12.5c-.5-1.185-1.1,2.08-1.283.855-.129-1.292-.614.525-.546-.3.293-.809-2.449.059-2.372-.608,0-.289-.732.282-1.1.857,0,.04.006.055.008.079-.036-.167-.168-.523-.554-.375-.548-.007-.548-.007-.547-.3.47-1.341-.736,1.5-.912-.3.029-.476-2.329-.164-2.011.555,0,.58-.186.578-.551.574a11.583,11.583,0,0,0-2.368-1.477c-.419.112.056,1.069-1.1.566-1.675.619-.787-1.175-1.827-.022,0,.29-.184.288-.365,0-.3-.056-.452.883-.914.279-.139-.645-2.569.319-2.921-.325.068-.312-.166.475-.367.286-.184-.918-.729.5,0,.29-.328,1.626-.649-1.787-.912-.3q-.278.867-.548-.006c.158-1.265-1.17,2.6-1.1.276.037-.954-.617-1.216-.547-.295.186,1.292-1.139-1.826-1.824-.312-2.143,1.193.55-.776-1.643-.309-.252-.056-.34.4-.368.716v-.141c-.425-1.673-1.677.848-2.19-.316-.283-1.35-1.135,1.71-1.1.277,0-.29,0-.29-.362-.584-.727.3-1.194.688-2.193.263-.6.3-1.444.813-1.28.276-.432,1.518-.232-1.467-.548-.007-.184.288-.184.288-.365,0-.12-.733-.688,1.531-.915.279-.306-.155-.662,1.51-.549.283-.384-1.247-.364.487-.913-.011-.868-.662-1.071-.16-1.644-.019-.451-.53-.807.058-.915.279-.318-1.27-.426-.105-.73-.009-.82-1.259-.44.262-.73-.3a.542.542,0,0,0-.546-.3c-.133.442.044-.384,0-.289-.181-.292-.182,0-.184.287-.043.048-.909-.176-.549.283.134.434-.425.861-.185.578.137-.562-.369-.541-.362-.874,0-1.291-1.44,1.373-1.278-.015-.1-.968-.707,1.341-.739,1.73.025-2.2-.1-1.55-1.089-1.461.025-.571-2.835-.262-2.193.263.02.224.035-.079-.365,0,.779-.875-4.3-.845-3.653-.044-.185.578-.368.576-.365,0-.082-.83-.2.1-.728-.588-.545-.586-.729-.3-.731-.009.327,1.109-.548-.9-.546-.3-.607.655-1.093.093-1.644-.02-.719,1.02-1.2-.5-1.643-.019-1.615,2.43-.447-.661-1.282.564.032,1.13.118-.646-.729-.3-.6-.278-1.072.7-.914.279-.6-1.274-1.483.453-1.827-.021-.287-.6-.509.683-.912-.3-.467-1.068-2.128.492-2.014,1.135-.367.286-.366,0-.183,0,.912-.865-2.212-1.262-2.187-.9.485.913-1.832-1.026-2.376.263.154-1.469-3.6.619-3.649-.624-.245,1.545-1.149-.222-2.2.554-.962-1.207-1.253.06-1.458-.6-.181-.293-.18-.583-.365-.005-.658.5-1.913-.347-1.647.56-.2-1.249-.359.721-.548-.006-.458-.681-4.956.347-4.75.233-.267-.567-.839,0-.91-.59.046-.613-.052.5-.367.285-.241-.9-.648,1.327-.548-.007-.285-1.214-.839,1.075-1.278-.015-1.03-.466-1.071.736-1.826-.022-.139-.762-3.443-.72-3.659,1.117.089-.52-.257-2.324-.361-.874-.15.26-1.493-.132-1.825-.311-.312-.112-.071.974-.549.283-.573-1.211-1.12.49-2.011.265.133-.43-.058-.941-.729-.3-.39,1.378.067-.928-.547-.3-.185.577-.366.285-.365,0,.611-.938-2.974,1.111-3.47-.042,0-.075-.008-.115-.012-.172-.047.94-1.579-.112-1.817.73.735-.109.243.867-.184.288-.612-2.252-.569-.489-1.827-.021-.775-.455-.38-.381-.724-1.169-.026.721-4.248.5-5.117.52a32.893,32.893,0,0,0-6.4.793c-.518.713.061-.635-.362-.584-.366,0-.367.286-.368.576-.433,1.059-.233-.84-.545-.586-.156.508-.414.42-.364-.295.072-1.139-.521.342-.732.282-.524-1.127-.885,1.67-.732.281-.2-.306-7.524-.168-8.038.193-.184.289-.185.579-.182,0,.1-.447-2.375-.43-2.375-.028-.508.549,0-1.457-1.46-.307a5.547,5.547,0,0,0-3.289.25c-1.42-.435-6.289-.665-6.94-.082.208-.915-.843-.539-.913-.011-.028-.045-.057-.087-.085-.131-.232-.476-.519-1.059-.688-.842.014-.532.231-.888-.868.375-.349.112-.513.692-.51,1.329-.406.182-.2.258.016.334.01.108.025.213.045.318a2.415,2.415,0,0,1-.254.108c-.292.181-.292.181.287.184h.036a2.171,2.171,0,0,0,.183.462c-.238.311-.544.659.348.636,1.389.053-.9.306-.588.727-.23.594.882.582-.007.548-.077.122-.8,1.885.532,1.118.1.149,1.275.949.026.711-.833-.179-1.126.149-.379.34-.255.008-.723.108-.211.571-.042.341,1.141.275,1.153.553-.066.316-1.443.21-.3.73-1.285-.534-.15,2.279-.9,2.37-.65-.034,1.336,1.377.856,1.1-.579-.086-.019,1.3-.593,1.093-1.341-.466,1.5.733-.3.912-.29,0-.292.181-.3.546.293,2.346,2.469.98.837,2.744-.1.223-1.27,1.854-.6,1.824.827-.2-.122,1.706.558,1.829,0,.182,0,.182-.292.181-1.395.169.724.723-.013,1.1-.056.29.884.46.279.914-.645.149.319,2.562-.325,2.921-.289,0,0,0,0,0,.841.412-.81.661.571.733-.073-.919,1.079.233-.292.182-1.441.288,1.507.451-.011.913-1.265-.156,2.6,1.169.276,1.1-2.461.552,1.163.215-.3.912-1.89.454,1.134,2.856-.317,2.191-.78-.947-.356,1.461.275,1.279.484-.006-1.429-.109-.019,1.644.143.979-1.533.4.272,1.462-1.964.959.228.688-.612,2.737.5.615.526,1.408.274,1.28,1.519.431-1.466.233-.006.548.742.284-.722.424-.006.548.577.185.86.735.281.732-.155.3,1.511.664.283.549-1.248.38.487.366-.011.913-.294.364-.6,1.459-.015,1.279.112.1-.493,1.067-.013,1.1l.288.185c-1.643.316,1.09.737-.593,1.093,1.009.765-.1-.016-.01.913.441.13-.385-.042-.29,0-.392.343.505-.068.283.549-.153.512.866-.055.865.369.151.026-2.018.256-.882,1.092,1,.711-1.482.718,1.723,1.287-2.194.028-1.578.042-1.461,1.089-.563-.1-.266,2.888.263,2.193.224-.035-.079-.025,0,.365-.875-.778-.845,4.3-.044,3.653.578.185.576.368,0,.365-.073-.265-1.417,1.642-.6,1.458,1.109-.327-.9.55-.3.547.288.184.564,1.281-.015,1.279.843,1.356-.787,1.638.549,2.559,1.22.32.047.425-.294.364-.091.232.117.329.331.365l-.046,0c-.834.414.168,1.9-.019,1.643-1.274.6.453,1.487-.021,1.827-.6.292.683.506-.3.912-1.067.47.493,2.126,1.136,2.014.338.767-.269-.436-.581.18-.634.757-.444,2.628-.027,2.192-1.152.427.343,2.792-.317,2.373-.92.831.875,3.351-.334,3.651.071.4,1.3-.105.571.734-.661.492.407,1.649-.311,1.825-.865.213.405,1.094-.3,1.094-.292.181-.582.18,0,.365.5.659-.346,1.912.56,1.647-1.249.2.721.36-.006.548-.293.181-.295.364-.295.364.247,1.185.54,4.615.232,4.932.223.41-.9.389-.295.364.288.184.288.184.286.367-.9.242,1.327.647-.007.548-.861.355,0,.381.279.914-.884.657.147,1.605-.02,1.827-.992.239-1.253,3.652.821,4.022-.522-.1-2.322.263-.874.361.519.173-.741,1.994-.024,2.009.766.092-1.206.917-.3,1.094.388-.1.807,2.024.277,1.1-1.238.529,1.243,1.264-.013,1.1-.29,0-.582.18-.294.364,1.087.805-1.393-.357-.011.912.329.7.284,2.685-.1,2.949.745.162-.186,1.573.621,1.8-.108-.731.867-.246.288.184-.048.327-1.187.042-1.166.543,0,.182,0,.365.288.184.6-.036.025.473.571.733.67.011-.111.787-.012.906-.25.021-.965.1-.87.186,1.3,2.786,0,8.391,1.313,11.513.712.519-.636-.061-.585.362-.095.542.85.216.863.552.082.458-1.12-.1-.874.362,1.326.539-1.815.194-.3.729.544.7-.461.522.567,1.1-.357-.417-.222,5.417.2,7.307.1.442-1.111.337-.008.731.288.184.578.185,0,.182-.448-.1-.43,2.377-.028,2.375.546.5-1.455.01-.307,1.46-.4.543.07,2.92.249,3.471-.584.019-.081,4.67-.636,4.746-.072.263,1.267.683.568.916a.563.563,0,0,0-.013,1.1c-.905-.211-.548.845-.01.913-.047.029-.09.058-.134.087-.437.212-.959.469-.879.641-.245.008-.455.039-.447.178.043.348.746-.08.573.551-.031.2.746.166.573.551-.29,0,0,.182.29,0,.587-.031.479.172.844.2.156.143.28.179.3-.01h.009c.105,0,.194,0,.284-.006a.951.951,0,0,1,.073.153c.125.319.157.1.19-.179a1.15,1.15,0,0,0,.5-.179c.013.027.024.046.038.077.951.455.263-1.515.735-.861a1.2,1.2,0,0,1,.179.582c.323,1.035,1.159-.64.912.3.125.08,1.921.819,1.1-.566l.183,0c.325-.161.077-.685.55-.573.049.366-.191,2.38.361.875v.289c.5,1.185,1.1-2.08,1.283-.855.129,1.292.614-.525.546.3-.293.809,2.449-.059,2.372.607,0,.29.732-.281,1.1-.856,0-.04-.006-.055-.008-.08.036.168.168.524.554.376.548.007.548.007.547.3-.47,1.341.736-1.5.912.3-.029.476,2.329.164,2.011-.555,0-.58.186-.578.551-.574a11.583,11.583,0,0,0,2.368,1.477c.419-.112-.056-1.069,1.1-.566,1.675-.619.787,1.175,1.827.022,0-.29.183-.288.365,0,.3.056.452-.884.914-.279.139.645,2.569-.319,2.921.325-.068.312.166-.475.367-.286.184.918.729-.5,0-.29.328-1.626.649,1.787.912.3q.277-.867.548.006c-.158,1.265,1.17-2.6,1.1-.276-.037.954.617,1.216.547.3-.186-1.292,1.139,1.826,1.825.312,2.142-1.193-.551.776,1.642.309.251.056.34-.4.368-.715v.14c.425,1.673,1.677-.848,2.19.316.452.949.41-.252.917-.569.566-.375-.153.668.543.876.727-.3,1.194-.688,2.193-.263.6-.3,1.444-.812,1.28-.276.432-1.518.232,1.467.548.007.184-.288.184-.288.365,0,.12.733.689-1.531.915-.279.306.155.662-1.51.549-.283.384,1.247.363-.487.913.011.868.662,1.071.16,1.644.019.451.53.807-.058.915-.279.318,1.27.426.105.73.009.82,1.259.44-.262.73.3a.542.542,0,0,0,.546.3c.133-.442-.044.384,0,.289.181.292.182,0,.184-.287.043-.048.909.176.549-.283-.134-.434.425-.861.185-.578-.137.562.369.541.362.874,0,1.291,1.44-1.373,1.278.015.1.968.707-1.341.739-1.73.028,2.194.042,1.578,1.089,1.461-.1.563,2.888.266,2.192-.263-.034-.224-.023.079.366,0-.778.875,4.3.845,3.653.044.185-.578.368-.576.365,0-.265.073,1.642,1.417,1.458.6-.327-1.109.55.9.547.3.184-.288,1.281-.564,1.279.015,1.356-.843,1.638.787,2.559-.549.523-1.763.2,1.259.731.009.415.834,1.9-.168,1.644.019.6,1.274,1.486-.453,1.826.021.292.6.506-.683.912.3.47,1.068,2.126-.492,2.014-1.135.767-.338-.436.269.18.581.757.634,2.628.444,2.192.027.427,1.152,2.792-.343,2.373.317.831.92,3.351-.875,3.651.334.4-.071-.105-1.3.734-.571.492.661,1.649-.407,1.825.311.213.865,1.094-.405,1.094.3.181.292.18.582.365,0,.659-.5,1.912.347,1.647-.56.2,1.249.36-.721.548.006.181.293.364.295.364.295,1.185-.247,4.615-.54,4.932-.232.41-.223.389.9.364.3.184-.288.184-.288.367-.286.242.9.647-1.328.548.007.355.861.381,0,.914-.279.657.884,1.605-.147,1.827.02.239.992,3.652,1.253,4.022-.821-.109.522.272,2.322.361.874.177-.519,1.99.741,2.009.024.111-.766.9,1.206,1.095.3-.072-.388,2-.807,1.1-.277.541,1.235,1.256-1.241,1.1.013,0,.29.18.582.364.294.8-1.085-.352,1.392.912.011.706-.331,2.686-.284,2.948.1.16-.747,1.577.185,1.8-.623.478-.241-.344.083-.365,0,.269-1.868,1.111,2,1.276.595.092-.305.769-.629,1.1-.857.571.693.583-.226.546.587.025.571.332.755.364.294,2.139-.441,5.347-.1,7.673-.489,2.167.205,3.062-.588,3.838-.535.1,1.378.561-.015.732-.28.183,0,.183,0,.182.292-.137,1.454.625-.64.543.876-.07,1.139.52-.342.732-.282.18.582.548.007.732-.281-.031-1.429.009,1.582.548.007.956.247,1.634.091,4.018.047,2.58-.213,2.855.253,3.472-.247.184-.289.185-.579.182,0,.006.942,3.261-.37,2.557.03,1.025,1.429,4.346-.342,6.939.373,2.328.234,2.472.1,3.472-.25.391,1.283,1.36-.624,1.094.3.192.94,1.052-.371.915-.279a.763.763,0,0,0,.151.265c.2.41.429.833.584.745.081,1.2.68-.684,1.273-.7a2.026,2.026,0,0,0,.1-1c.141-.045.246-.115.226-.261.01-.135-.133-.167-.266-.182-.009-.068-.018-.135-.03-.2.075-.043.17-.1.3-.164.292-.181.292-.181-.287-.184-.035,0-.058,0-.087,0a2.8,2.8,0,0,0-.15-.437c.239-.313.585-.674-.33-.657-1.432-.05,1.568-.471.387-1.222.324-.019,1.146-2-.359-1.152l0-.183c-.161-.346-.685-.062-.573-.55.365.03,2.38.134.874-.361,1.086.238.308-.912-.568-.916-1.147-.43,1.471-.332.01-.914,1,.185,1.144-3.122.041-3.469-.045,0-.065,0-.09,0,.163-.029.536-.15.386-.552-.277-1.186,1.467.085.3-.729-.578-.186-.281-.732.3-.73.475-.024.165-2.291-.555-2.011-.58,0-.578-.186-.574-.551a11.594,11.594,0,0,0,1.477-2.368c-.112-.428-1.069.062-.566-1.1-.617-1.66,1.172-.8.022-1.827-.642-.118.442-.341-.282-.731-.664-.3.408-.524.3-.912-.749-1.4.633-3.321-.541-3.29.073.911-1.079-.227.292-.182,1.441-.284-1.507-.454.011-.913,1.265.164-2.6-1.175-.276-1.1.954.035,1.216-.616.3-.547-1.293.209,1.825-1.156.311-1.824-1.463-2.205,1,.226.3-.73.62-1.27-1.572-1.4-.565-1.281,1.674-.431-.847-1.673.317-2.19.949-.447-.252-.413-.569-.917-.469-.332,1.784-.231.592-1.093-.622-.646.543-1.867-.549-2.559,0-.183,0-.365.294-.364.707,0-1.328-.093,0-.365.579,0,.579,0,0-.183-.742-.29.722-.419.006-.548-.577-.185-.86-.735-.281-.732,0,0,0-.183-.285-.367-1.433-.3,1.573-.124.008-.73-.333-.224.972-1.778.02-1.644.046-.414.393-1.163-.275-1.28,1.643-.317-1.09-.736.593-1.093l0-.182c-1.134-.055.241-.251.009-.731-.442-.131.384.042.289,0,.292-.181,0-.182-.287-.184-.046-.083.17-.874-.283-.549-.434.13-.861-.422-.578-.185,2.935-.423-.5-1.433.889-1.64.968-.1-1.341-.708-1.73-.739,2.194-.028,1.578-.042,1.461-1.089.563.1.266-2.888-.263-2.193-.224.035.079.025,0-.365.875.778.845-4.3.044-3.653-.578-.185-.576-.368,0-.365.073.265,1.417-1.642.6-1.458-1.109.327.9-.55.3-.547-.288-.184-.564-1.281.015-1.279-.843-1.356.787-1.638-.549-2.559-1.763-.523,1.259-.2.009-.731.834-.415-.168-1.9.019-1.644,1.274-.6-.453-1.486.021-1.826.6-.292-.683-.506.3-.912,1.067-.47-.493-2.126-1.136-2.014-.338-.767.269.436.582-.18.633-.757.442-2.628.026-2.192,1.152-.427-.343-2.792.317-2.373.92-.831-.875-3.351.334-3.651-.071-.4-1.3.105-.571-.734.661-.492-.407-1.649.311-1.825.865-.213-.405-1.094.3-1.094.292-.181.582-.18,0-.365-.5-.659.347-1.912-.56-1.647,1.249-.2-.721-.36.006-.548.293-.181.295-.364.295-.364-.247-1.185-.54-4.615-.232-4.932-.223-.41.9-.389.3-.364-.288-.184-.288-.184-.286-.367.9-.242-1.327-.647.007-.548.861-.355,0-.381-.279-.914.884-.657-.147-1.605.02-1.827.992-.239,1.253-3.652-.821-4.022.522.1,2.322-.262.874-.361-.519-.172.741-1.994.024-2.009-.766-.09,1.206-.918.3-1.094-.388.1-.807-2.027-.277-1.1,1.238-.531-1.243-1.263.013-1.1.29,0,.582-.18.294-.364-1.087-.8,1.393.356.011-.913-.329-.7-.284-2.684.1-2.948-.746-.162.186-1.574-.622-1.8-.241-.477.083.343,0,.365-1.511-.366.763-.7.883-1.091,0-.183,0-.366-.288-.185-.6.037-.025-.474-.571-.733-.67-.012.111-.787.012-.906.25-.021.965-.1.87-.186-1.086-.2-.1-5.414-.51-5.847-.336-1.1-.513-5.579-.8-5.848,1.38-.088-.016-.567-.28-.732-.082-.458,1.12.1.873-.362-.511-.163-.418-.408.3-.363,1.141.077-.344-.525-.282-.732.582-.18.007-.548-.281-.732,1.088-.493-.606-.089.31-1.642-.667-.779.106-6.867-.5-6.4-.288-.185-.578-.186,0-.183.942-.031-.37-3.243.03-2.557,1.416-.813-.326-4.465.373-6.939.233-2.347.1-2.459-.25-3.472a.563.563,0,0,0,.014-1.1c.878.209.587-.85.01-.913a.819.819,0,0,0,.261-.149c.409-.2.832-.428.749-.584C168.532,13.855,167.55,13.363,167.214,12.974ZM12.984,28.03a.693.693,0,0,1,.574.551C13.51,29.008,12.8,28.32,12.984,28.03Zm-.225,18.995c0-.183.288.184.286.366C13.014,47.527,12.34,47.055,12.759,47.025Zm154.482,85.95c0,.183-.288-.184-.286-.366C166.986,132.473,167.66,132.945,167.241,132.975Zm-2.9-73.621c-.116-.02-.373-.3-.285-.367C164.591,58.955,164.829,59.141,164.345,59.354Zm.268,1.827c.313-.015.331.251,0,.366C164.164,61.491,164.223,61.119,164.613,61.181Zm-.777-46.9c.065-.145.273-.305.422-.2.021.026.05.053.073.08a.473.473,0,0,1,.053.129C164.4,14.663,163.73,14.749,163.836,14.284Zm-2.008-.313c-.116-.871.288-.607.366,0,.443.777-.469.759-.55.283C161.823,14.237,162.039,14.561,161.828,13.971Zm-9.858-.987a.693.693,0,0,1-.551.574C150.992,13.51,151.68,12.8,151.97,12.984Zm-8.958,1.633c0,.29-.184.288-.366.286C142.633,14.8,142.753,13.935,143.012,14.617Zm-.541-1.455-.368.575C141.5,15.633,141.527,12.793,142.471,13.162Zm-4.389,1.107c.183,0,0,.29-.186.867C137.1,15.874,138.053,14.266,138.082,14.269Zm-1.457-.887c-.033.422-.18.645-.368.575C136.251,13.54,136.277,13.316,136.625,13.382Zm-3.65-.623c.183,0-.184.288-.366.286C132.473,13.013,132.945,12.34,132.975,12.759Zm-1.468,1.432c0,.29,0,.58-.185.578C131.014,15.288,130.873,13.951,131.507,14.191Zm-1.646.56c-.236-.026-.4.105-.364-.294C129.564,14.371,129.843,14.637,129.861,14.751Zm-3.463-1.49c.182,0,.363.294.363.294C126.673,14.3,125.825,13.519,126.4,13.261Zm-3.107.253c.435.484-.477.312-.365,0C122.927,13.22,123.109,13.512,123.291,13.514ZM120,13.765a1.269,1.269,0,0,1,.18.582C120.215,15.1,119.491,13.658,120,13.765Zm-1.1.277c-.019.115-.3.374-.367.285C118.507,13.8,118.692,13.558,118.905,14.042Zm-11.869-.721c-.019.116-.3.375-.366.286C106.638,13.076,106.823,12.837,107.036,13.321Zm-4.564-.343c.182,0,0,.579,0,.869C102.053,13.96,102.444,12.936,102.472,12.978Zm-2.933,2.283c-.034.422-.181.645-.368.576C99.164,15.419,99.19,15.2,99.539,15.261Zm-2.368-1.477c-.02.115-.3.374-.367.286C96.773,13.539,96.958,13.3,97.171,13.784Zm-12.783-.441c.181.292,0,.58-.186.577C83.471,13.989,83.935,13.181,84.388,13.343Zm-7.49.2c-.033.422-.181.645-.368.575C76.524,13.7,76.549,13.478,76.9,13.544ZM61.547,15.391c-.056.445-.428.386-.365,0C61.166,15.074,61.432,15.056,61.547,15.391Zm-2.193.264c-.02.115-.3.374-.367.285C58.955,15.409,59.141,15.17,59.354,15.655Zm-1.635-2.048c.366,0,.366,0,.182.292C57.551,14.542,57.35,13.52,57.719,13.607Zm-1.1.276c-.236-.025-.4.105-.364-.294C56.325,13.5,56.605,13.769,56.622,13.883ZM54.8,13.862c-.236-.026-.4.1-.364-.294C54.5,13.481,54.778,13.747,54.8,13.862Zm-2.009-.024a1.283,1.283,0,0,1,.18.582A.305.305,0,0,1,52.787,13.838Zm-7.123-.084c.1.228-.381.98-.368.575C45.222,14.479,45.53,13.278,45.664,13.754Zm-6.214.8c.183,0,.18.582-.187.868C38.849,15.476,39.186,14.471,39.45,14.549ZM14.284,16.164c-.167-.076-.353-.339-.134-.486a2.381,2.381,0,0,1,.314,0C14.672,15.829,14.662,16.25,14.284,16.164Zm-.309,1.642c.777-.443.759.469.283.55-.021-.179.3-.4-.287-.184C13.1,18.288,13.365,17.884,13.975,17.806Zm-.813,19.723.575.368C15.633,38.5,12.793,38.473,13.162,37.529Zm1.455-.541c.29,0,.288.184.286.366C14.8,37.367,13.935,37.247,14.617,36.988Zm.519,5.116c.738.8-.87-.157-.867-.186C14.271,41.735,14.559,41.919,15.136,42.1Zm-1.179,1.639c-.417.006-.641-.02-.575-.368C13.8,43.408,14.027,43.555,13.957,43.743Zm-.7,9.859c0-.182.294-.363.294-.363C14.3,53.327,13.519,54.175,13.261,53.6Zm.249,3.472c-.29,0,0-.183,0-.365C14,56.274,13.826,57.186,13.51,57.074Zm.817,4.388c-.531.031-.769-.154-.285-.367C14.157,61.114,14.416,61.4,14.327,61.462ZM13.765,60a1.269,1.269,0,0,1,.582-.18C15.1,59.784,13.658,60.509,13.765,60Zm.426-11.5c.29,0,.58,0,.578.185C15.288,48.986,13.951,49.127,14.191,48.493Zm.266,2.01c-.087-.067.18-.346.294-.364C14.726,50.375,14.856,50.542,14.457,50.5Zm.96,90.234c.059.414-.946.077-.868-.187C14.552,140.367,15.131,140.37,15.417,140.737Zm-.03-21.918c-.313.015-.331-.251,0-.366C15.836,118.509,15.777,118.881,15.387,118.819Zm.553,2.194c-.531.032-.769-.154-.285-.367C15.77,120.666,16.029,120.948,15.94,121.013Zm-2.1,6.2a1.283,1.283,0,0,1,.582-.18A.305.305,0,0,1,13.838,127.213Zm-.517-54.249c.116.019.375.3.286.366C13.076,73.362,12.837,73.177,13.321,72.964Zm-.343,4.564c0-.182.579,0,.869,0C13.96,77.947,12.936,77.556,12.978,77.528Zm.806,5.3c.115.02.374.3.286.367C13.539,83.227,13.3,83.042,13.784,82.829Zm-.441,12.783c.292-.181.58,0,.577.186C13.989,96.529,13.181,96.065,13.343,95.612Zm.2,7.49c.422.033.645.181.575.368C13.7,103.476,13.478,103.451,13.544,103.1Zm.355,19c.643.35-.379.551-.292.182C13.611,121.915,13.611,121.915,13.9,122.1Zm-.31,1.643c-.087-.067.18-.347.294-.364C13.858,123.614,13.988,123.78,13.589,123.742Zm.273,1.462c-.026.236.1.4-.294.364C13.481,125.5,13.747,125.222,13.862,125.2Zm-.108,9.132c.228-.1.98.381.575.368C14.479,134.778,13.278,134.47,13.754,134.336Zm2.41,31.38c-.083.183-.389.384-.522.056q-.011-.054-.018-.1C15.662,165.334,16.265,165.271,16.164,165.716Zm2.008.313c.116.87-.288.607-.366,0-.443-.777.469-.758.55-.284C18.177,165.763,17.961,165.439,18.172,166.029Zm9.858.987a.693.693,0,0,1,.551-.574C29.008,166.49,28.32,167.2,28.03,167.016Zm8.958-1.633c0-.29.184-.288.366-.286C37.367,165.2,37.247,166.065,36.988,165.383Zm.541,1.455.368-.575C38.5,164.367,38.473,167.207,37.529,166.838Zm4.389-1.107c-.183,0,0-.29.186-.867C42.9,164.126,41.947,165.734,41.918,165.731Zm1.457.887c.033-.422.18-.645.368-.576C43.749,166.46,43.723,166.684,43.375,166.618Zm3.65.623c-.183,0,.184-.288.366-.286C47.527,166.987,47.055,167.66,47.025,167.241Zm1.468-1.432c0-.29,0-.58.185-.578C48.986,164.712,49.127,166.049,48.493,165.809Zm1.646-.56c.236.026.4-.1.364.294C50.436,165.629,50.157,165.363,50.139,165.249Zm3.463,1.49c-.182,0-.363-.294-.363-.294C53.327,165.7,54.175,166.481,53.6,166.739Zm3.107-.253c-.435-.484.477-.312.365,0C57.073,166.78,56.891,166.488,56.709,166.486ZM60,166.235a1.269,1.269,0,0,1-.18-.582C59.784,164.9,60.509,166.342,60,166.235Zm1.1-.277c.019-.115.3-.374.366-.285C61.493,166.2,61.308,166.442,61.1,165.958Zm11.869.72c.019-.115.3-.374.366-.285C73.362,166.924,73.177,167.163,72.964,166.678Zm4.564.344c-.182,0,0-.579,0-.869C77.947,166.04,77.556,167.064,77.528,167.022Zm2.933-2.283c.034-.422.181-.645.368-.576C80.836,164.581,80.81,164.805,80.461,164.739Zm2.368,1.477c.02-.115.3-.374.367-.286C83.227,166.461,83.042,166.7,82.829,166.216Zm12.783.441c-.181-.292,0-.58.186-.577C96.529,166.011,96.065,166.819,95.612,166.657Zm7.49-.2c.033-.422.181-.645.368-.575C103.476,166.3,103.451,166.522,103.1,166.456Zm15.351-1.847c.056-.445.428-.386.365,0C118.834,164.926,118.568,164.944,118.453,164.609Zm2.193-.264c.02-.115.3-.374.367-.285C121.045,164.591,120.859,164.829,120.646,164.345Zm1.635,2.048c-.366,0-.366,0-.182-.292C122.449,165.458,122.65,166.48,122.281,166.393Zm1.1-.276c.236.025.4-.1.364.294C123.675,166.5,123.4,166.231,123.378,166.117Zm1.826.021c.236.026.4-.1.364.294C125.5,166.519,125.222,166.253,125.2,166.138Zm2.009.024a1.283,1.283,0,0,1-.18-.582A.305.305,0,0,1,127.213,166.162Zm7.123.084c-.1-.228.381-.98.368-.575C134.778,165.521,134.47,166.722,134.336,166.246Zm6.214-.8c-.183,0-.18-.582.187-.868C141.151,164.524,140.814,165.529,140.55,165.451Zm25.166-1.615c.157.071.327.306.166.457-.134-.026-.292-.048-.437-.072C165.345,164.035,165.407,163.766,165.716,163.836Zm.309-1.642c-.777.443-.759-.469-.283-.55.021.179-.3.395.287.184C166.9,161.712,166.636,162.116,166.025,162.194Zm.991-10.224a.693.693,0,0,1-.574-.551C166.49,150.992,167.2,151.68,167.016,151.97Zm-.178-9.5-.575-.368C164.367,141.5,167.207,141.527,166.838,142.471Zm-1.455.541c-.29,0-.288-.184-.286-.366C165.2,142.633,166.065,142.753,165.383,143.012Zm-.519-5.116c-.738-.8.87.157.867.186C165.729,138.265,165.441,138.081,164.864,137.9Zm1.178-1.639c.418-.006.642.02.576.368C166.2,136.592,165.973,136.445,166.042,136.257Zm.7-9.86c0,.183-.294.364-.294.364C165.7,126.673,166.481,125.825,166.739,126.4Zm-.249-3.471c.29,0,0,.183,0,.365C166,123.726,166.174,122.814,166.49,122.926Zm-.817-4.387c.531-.032.769.153.285.366C165.842,118.886,165.585,118.6,165.673,118.539Zm.562,1.463a1.269,1.269,0,0,1-.582.18C164.9,120.215,166.342,119.491,166.235,120Zm-.426,11.505c-.29,0-.58,0-.578-.185C164.712,131.014,166.049,130.873,165.809,131.507Zm-.56-1.646c.025-.236-.1-.4.294-.364C165.629,129.564,165.364,129.843,165.249,129.861Zm-.513-5.665c.29,0,0,.183,0,0-.566-.024.046-.464-.575-.368-1.338.388.767.5-.011.914-2.024,1.452,2.139,2.551.541,3.29-.637.526-.87,1.12.279.914.062.333-2.2.541-.876.544.29,0,.577.186.283.549.215.626-.7.791-.3,1.095.862.321-1.306,2.134-.021,1.826.29,0,.579,0,0,.183-.741,1.164,2.529.589,1.723,1.286.063.305-.871.517-.871.179.015-.705-1.25.577-.586.545h0c-.6.4-.024,1.6-.6,2.007-.324.735,1.233.531.571.733-1.177,1.616-.3,4.427-.362,6.026.45-.289-.533,2.078.269,1.828-.1-.73.371,1.131-.3.728-1.427-.266,1.5.721.568.917-.537-.133-.029-.5-.865-.37.1.37.683,1.159,1.441.738.805-.16-.265.862-.584.362-.868-.744-.8.512.279.915-1.165-.031-.656,1.847.854,1.282-2.047,1.174-1.621,3.663-1.509,5.107-1.1.659.893.19.962-.587.348.622,1.645,1.087.482.959-.488-.576-2.165.318-1.166.543.1.436-1.112.341-.008.73,1.28.2-1.374,1.19-.309,1.643,1.274.212-.435.918.274,1.28h0c-1.212.11.665.734.571.733,1.918-.888-.405,1.213-.885,1.274,1.766-.027-.841.5.282.732,1.415-.008-1.125.392.281.732,1.255.009-.668.129-.586.545a1.907,1.907,0,0,1,.737.1,85.369,85.369,0,0,0-9.359-.509c-1.4.1-2.041.445-3.835-.046-.449-.643-.982,2-.915.279.642-.433-4.968-.04-4.932.23-.093.813-2.317-1.521-2.006-.6,1.162,1.876-2.076-.846-3.11.833l0-.29c-.76-.857-2.08.513-3.1-.618-1.421.8-3.021-.721-3.293,1.122.219-1.285-3.659-.245-3.285-.619-.261-.487-1.233.011-1.644-.019-.18-.582-.728-.589-.913-.011,0,.066,0,.1,0,.132-.011-.139-.075-.574-.366-.426-.887.455-1.148-.145-1.828.268-.422-.07-1.453,1.3-.73-.009.629-1.006-2.042,1.645-.915.279.184-.288.368-.575,0-.29-.5.408-1.7.1-2.01-.023-.1-.743-.234,1.173-.731.28-.011-1.1-.289.126-.548-.006.488.015-3.393-1.054-3.655.246.063,1.073-.785-2.017-.547,0,.384,1.287-.282-.773-.548-.008-.18.566-.923-1.475-1.46-.307-1.151,1.408-.033-1.612-1.463.273-.185.577-.185.577-.184.287-.456-1.35-1.653.913-2.189-.6-.161-.1-.88,1.579-.733.571,0-.29,0-.58,0-.29-.523.988-.86-.413-1.092-.593-.021,2.013-.819-.42-2.01-.023-.533.643-.487-.471-1.1.277-.733.236-.4-.882-.729-.3-.139,1.012-2.491-.219-2.195.553.606.424-2.374-.918-2.191-.025.371,1.443-.677-1.282-.729-.3-.455.76-.245-.349-.915.279-.373.018.043-.409-.547-.3-.683.977-1.577-.463-2.01.266-.185.577-.368.575-.365,0,.244-1.2-.876,1.276-1.095-.3,0-.29,0-.58,0-.58-4.3,2.047-10.569.181-15.53.976-.6.857-.666-.774-1.461-.018-.185.578-.368.575-.365,0-.066-1.427-.728.987-1.1.277-.424-1.441-.454,1.131-.912-.3-.711-1.051-.319,1.254-2.009-.024-.01-.178-.749-.515-.548-.006.054-.093-5.485-.693-4.749-.056.18.581-.185.577-.365,0-1.645-.826-3.777.013-5.3-.062-.36-.816-1.095.19-1.277-.305-.581-.563-.255,1.852-.73-.009-.053-1.313-.325.615-.731-.009-.468-.227-.178,1-.734.861.422-1.036-.411-.131-.726-1.168-.579-.771.193,1.217-.552.863-.735-.954-1.541-.471-2.013.846-.035,1.221-.025-.5-.546-.3-.164.375.053-.479.366-.285.049-.393-.307-1.235-.546-.3-.184.287-.184.287-.366,0-1.082-1.336-1.78.194-2.743.837-.438.7-1.667-2.391-1.461-.017-.337.062-.538-2.2-.544-.876-.054,1.084-1.481-.379-1.644-.02-.321.862-2.134-1.306-1.826-.021-.022.818-.2-.727-.915.279-.263.838-.146,2.561-.917.858.187-.433.757-.622,0-.869-.276-.479-.35-.106-.367.084,0-.027,0-.042,0-.088-.509-.266-2.338-.851-2.556-.321,0,.58-.185.578-.184.288-2.426-1.415-5.313.057-7.3-.377-1.55-.046.227.434-.549.284-1.342.719-.288-1.87-1.1-.013-.849,1.111-.317.013-.179-.582-.148-.186-.474.6-.367.286-.822.036-.09,1.493-.554,1.442-.712-.613.072-.74.006-1.449,0-.29-.914.279-1.1.857-.049.533.178-.92-.728-.588-1.376-.027.149,2.413-1.1.856-1.149-1.657-3.39-.839-4.561-.924-.667-1.094-.188.891.586.963-.622.348-1.085,1.645-.958.482.575-.488-.318-2.165-.543-1.166-.436.1-.341-1.112-.73-.008-.2,1.28-1.191-1.374-1.643-.309,0,.579-.551.573-.732.281-.386-.765-.641.595-.548-.007,0-.29-.18-.582-.364-.294-.345.526.1,2.819-1.281.564-.63-1.176-.273-.192-.365,0-.492.18-.354-1.228-.729-.3,0,1.415-.39-1.125-.732.281-.008,1.255-.13-.668-.545-.586,0,.17-.006.807-.18.778a21.514,21.514,0,0,0,.55-5.747c-.326-2.932.339-3.643-.225-5.481-.1-.932.683-2.167-.287-2.777,1.1.324.241-4.814.091-5.078-.813-.092,1.521-2.316.6-2-.066.375-1.8.149-.577-.186s-.875-3.518.034-2.922c.857-.761-.513-2.079.617-3.1-.8-1.423.723-3.02-1.121-3.293,1.083.387.245-2.622.9-2.736l-.288-.184c-.477-.375.758-.837.019-1.644-.031-.619,1.023-.834.015-1.278l-.133,0c.138-.01.575-.074.427-.366-.437-.6-.08-.96.016-1.278-.354-.466-.431-1.087-.853-1.466.316-.175,1.4.9.3-.547-1.387-1.281.826.573.292-.181-.824-.788.69-2.24-.264-2.193-.881-.492,1.039-.638.3-.729-.521-.592.25-1.427.042-3.653.085-.523-1.524-.21-.572-.55,2-.683-1.477.06.006-.548.749-.278-.712-.43.007-.548.364-.492,1.05-.8.3-1.277-1.409-1.152,1.612-.032-.273-1.463-.577-.185-.577-.185-.288-.184.6-.058.019-.515.587-.545-.115-.337-1.183-1.42.019-1.643.1-.161-1.58-.882-.571-.734.867.178-.84-.657.591-.911,1.092-.281-1.592-.05-.282-.731,1.29-.6-.14-2.4.616-3.1.645-.023-.5-.191-.282-.549a1.362,1.362,0,0,1,.017-1.461c.187-1.12-.7.275-.284-.549.035-.275.7-2.058.024-2.01-.581.181-.579,0,0-.182.941-.823.05-.168.018-1.461-.018-.374.409.043.3-.547-.976-.681.462-1.578-.266-2.01-.577-.185-.575-.368,0-.365s.58,0,0-.183c-.66-.615.359-1.14.88-.909-2.049-4.321-.18-10.554-.976-15.53-.857-.621.774-.651.018-1.461-.578-.185-.575-.368,0-.365,1.427-.047-.987-.742-.277-1.1,1.441-.439-1.131-.443.3-.912,1.08-.818-1.287-.2.024-2.009.179.011.515-.764.006-.548.1.143.691-5.55.056-4.749-.581.18-.577-.185.005-.365a8.592,8.592,0,0,0,.057-4.749c-.675-.5,1.153-1.118.019-1.643,1.382-.651-1.641-.5.3-.912,1.313-.053-.615-.325.009-.731.227-.468-1-.178-.861-.734,1.036.422.131-.411,1.168-.726.771-.579-1.218.193-.863-.552-.1-.608.713-.084.588-.727.339-.945-2.683-1.337-1.432-1.468.55.047.048-.668.295-.364.3.5,1.621.286.582-.181-.4-.246.4-.643.594-1.275-.1-.973-1.088-.991-1.427-1.833-.463-.573.633-.5.884-1.275.533-.3-.935-.147-.867-.186-.062-.337,2.2-.538.876-.544-1.084-.054.379-1.481.02-1.644-.862-.321,1.306-2.133.021-1.826-.29,0-.579,0,0-.183.494-.532-.973-1.07-1.438-.92-1.391.192.706-1.428.584-.363.371.184,1.116-.723.589-.727-.428.208.565-.364.3-.912.583-1.893-.067-1.366-.269-1.828,1.417-2.442-.056-5.3.378-7.3.046-1.57-.434.241-.284-.549-.719-1.328,1.869-.3.013-1.1-1.65-1.188,1.457.426.3-.546-.258.03.237-.012-.285-.367-.348-.46-1.2.42-1.157-.187.613-.725.74.081,1.449.006.288,0-.274-.9-.848-1.1.254-.027.8-.166.579-.732-.065-1.026-.865-.451-1.442-.554,1-.56,2.234-2.807,1.492-3.646.288-.57-.138-.981.017-1.461,1.241-.726-1.478-.062-.88.909A1.991,1.991,0,0,0,13.9,24.2c.4.187,2.917.163,1.746-.54-.1-.436,1.112-.341.008-.731-1.28-.2,1.374-1.192.309-1.642-1.274-.215.435-.916-.274-1.28l-.166,0c.133-.008.914-.073.46-.369-.606-.143-.656-.352-1.447-.189-.794.028,1.3-1.473,1.467-1.454-1.766.03.841-.5-.282-.732-1.415,0,1.125-.391-.281-.732-1.255-.009.668-.13.586-.545-.188.024-.959-.014-.748-.246a8.74,8.74,0,0,1,3.341.876c2.813-1.128,9.534.777,10.781-1.03-1.072,1.819,5.709-.071,5.661.357,2.222,2.3.448-1.312,1.461.016.332,1.227,3.514-.873,2.922.035.256.978,2.247-.578,2.556.32.3.719,1.929-.572,2.007.314,1.058-.207,1.674-.241,1.832-1.138-.219,1.285,3.659.245,3.285.619.748.2,2.746.568,2.557.031a2.962,2.962,0,0,0,3.107-.543c.18.314-.9,1.4.547.3,1.284-1.388-.574.826.182.292.5-.408,1.7-.1,2.009.023.1.743.234-1.173.731-.28.012,1.1.289-.126.548.006-.483-.016,3.389,1.054,3.655-.246,0-.58,0-.29.182,0,.179.871.544.876.365,0-.383-1.288.281.772.548.006.178-.565.925,1.476,1.46.308,1.149-1.408.034,1.612,1.463-.273.185-.577.185-.577.184-.288.057.6.516.018.545.587.345-.117,1.414-1.181,1.643.019.164.1.881-1.579.734-.571,0,.29,0,.58,0,.29.526-.988.86.413,1.093.593-.109-1.643.736-.318,1.279.015.755.216,1.938-.643,2.375.027.022.645.192-.5.549-.282.33-.5,2.118.431,1.828-.268-.606-.424,2.374.918,2.191.025-.371-1.443.677,1.282.729.3.455-.76.245.349.915-.279.372-.018-.042.408.547.3.684-.977,1.576.463,2.01-.266.185-.577.368-.575.365,0-.245,1.2.877-1.276,1.095.3,0,.29,0,.58,0,.58,4.272-2.246,11.262.237,16.079-1.259.234,1.543,1.4-.933,1.277.3.048,1.427.741-.987,1.1-.277.18.582.363.584.364.294.386-1.462.794,1.481,1.1.013.519-1.4,1.855,1.2,2.009.024-.1.094,5.52.692,4.749.056-.18-.581.185-.577.365.005a8.591,8.591,0,0,0,4.749.057c.485-.675,1.13,1.153,1.644.019.648,1.382.5-1.641.911.3.053,1.313.326-.615.731.009.46.227.184-1,.734-.861-.43,1.037.417.131.726,1.168.581.771-.194-1.217.552-.863.182,0,.365,0,.363.294.794,1.648,1.824-2.489,1.832-1.138,0,.29.182.293.364.295.181-.375-.066.479-.366.285.088,1.674.529-.311.911.3.6.9,1.644.419,2.194-.264.456-1.233.874-.427,1.46.018,0,0,.183,0,.365.293.3.533.151-.935.186-.867.331-.062.542,2.2.544.876-.148-.65,1.271-.317,1.279.015.557.346.409-.649,1.278.016.911.59.911.59.913.01-.138-.331,1.262.67,1.1-1.436-.172-.959.724-.205.729.3-.222.433-.732.622,0,.869.181.292.364.294.365,0-.187-.427.35.566.912.3,2,.6,1.33-.064,1.828-.269,1.268,1.023,5.607.616,6.21.075-.346.278,2.255.566,1.643.019,1.332-.719.3,1.869,1.1.013.842-1.111.321-.014.179.581.354-.1,1.17-.682.738-1.44.364-.915.507.655.176,1.161.282.789,1.429-1.914,1.1-.566,2.142,1.592.633-2.444,1.829-.558,1.155,1.657,3.388.839,4.562.924.7,1.162.131-1.154-.732-.956A2.006,2.006,0,0,0,155.8,13.9c-.187.4-.163,2.917.54,1.746.436-.1.341,1.112.73.008.2-1.28,1.193,1.374,1.643.309.215-1.274.916.435,1.28-.274,0-.088,0-.14,0-.166.008.133.073.914.369.46.143-.606.352-.656.189-1.447-.028-.794,1.473,1.3,1.455,1.467-.031-1.766.5.841.731-.282,0-1.415.391,1.125.732-.281.009-1.255.13.668.545.586-.024-.183.014-.912.229-.756a18.153,18.153,0,0,0-.34,8.283,2.2,2.2,0,0,0-.02,1.827c-.421-.1-.435,1.19-.014,1.095.1.884-.68,2.185.279,2.778-1.092-.29-.233,4.81-.083,5.078.813.093-1.521,2.316-.6,2.005.066-.376,1.8-.148.577.186-.579,0-.322,2.738.255,2.924h.1l-.391,0c-.38-.276-.294,1.271-.308,1.46,1.026.444-.394,1.146-.309,1.642.788,1.249-.344,1.5.26,2.559-.2,1.1.634.21.861.734-1.084-.382-.245,2.619-.9,2.736.822.333-.278,1.251.264,2.193-1.22.368.427,1.093-.011.913-.733.05.364,1.408-.308,1.46a4.745,4.745,0,0,0,.851,1.648c-.318.2-1.4-.921-.3.547,1.361,1.164-1.324-.766-.006.547.1.9-.863,1.964-.022,1.827.88.5-1.038.63-.3.729.524.539-.252,1.465-.042,3.653-.085.535,1.524.2.572.55-2,.692,1.477-.066-.006.548-.749.284.712.425-.007.548-.362.437-1.052.837-.305,1.277,1.41,1.13-1.613.048.273,1.463.577.185.577.185.288.184-1.351.459.912,1.652-.606,2.189-.1.193,1.58.858.571.733h-.29c.986.566-.412.83-.593,1.092,1.643-.1.319.733-.015,1.279-.215.742.643,1.947-.027,2.375-.644,0,.5.206.282.549.494.365-.43,2.093.268,1.828.424-.608-.918,2.376-.025,2.191,1.443-.368-1.282.674-.3.729.76.452-.349.247.279.915.019.347-.409-.024-.3.546.975.73-.461,1.544.266,2.011.577.185.575.368,0,.365-1.2-.283,1.275.905-.3,1.095l-.58,0c1.163,1.128.667,3.8.811,4.935.345,2.9-.172,9.344.147,12.056,1.43.542-1.761.163.277,1.1.288.184.288.184,0,.365-1.441.436,1.131.446-.3.912-1.323.509,1.578.81-.02,1.644-.4,1.094.037,1.051-.331,3.469-.109,3.989,1.327.7-.339,4.2.547.947.457,2.835.537,3.656-.29,0-.593,1.093-.014,1.095-.161.176-.77.442-.006.549,1.574.059-1.407.442-.586.545.89.351-.317.859.858.917.626.15.112.613-.292.181,0-.183,0,0,0,.365a.7.7,0,0,1-.586.546c-.771.576,1.217-.191.863.552-.954.749-.471,1.53.846,2.013C166.254,123.69,164.532,123.672,164.736,124.2Zm-24.181,40.227ZM15.261,80.461c.422.034.645.181.576.368C15.419,80.836,15.2,80.81,15.261,80.461ZM164.739,99.539c-.422-.034-.645-.181-.576-.369C164.581,99.164,164.805,99.19,164.739,99.539Zm-.156-60.276c-.059-.414.946-.077.868.187C165.448,39.633,164.869,39.63,164.583,39.263Zm1.579,13.524a1.283,1.283,0,0,1-.582.18A.305.305,0,0,1,166.162,52.787Zm.517,54.249c-.116-.019-.374-.3-.286-.366C166.924,106.638,167.162,106.823,166.679,107.036Zm.343-4.564c0,.182-.579,0-.869,0C166.04,102.053,167.064,102.444,167.022,102.472Zm-.806-5.3c-.116-.02-.374-.3-.286-.367C166.461,96.773,166.7,96.958,166.216,97.171Zm.441-12.783c-.292.181-.58,0-.577-.186C166.011,83.471,166.819,83.935,166.657,84.388Zm-.2-7.49c-.422-.033-.644-.181-.575-.368C166.3,76.524,166.522,76.549,166.456,76.9Zm-.355-19c-.643-.35.379-.551.293-.182C166.389,58.085,166.389,58.085,166.1,57.9Zm.31-1.643c.086.067-.18.347-.294.364C166.142,56.386,166.012,56.22,166.411,56.258Zm-.273-1.462c.026-.236-.1-.4.294-.364C166.519,54.5,166.253,54.778,166.138,54.8Zm.108-9.132c-.228.1-.98-.381-.575-.368C165.521,45.222,166.722,45.53,166.246,45.664Z" style="fill: #fff"></path><path d="M164.985,127.668a.305.305,0,0,0-.582.18A1.283,1.283,0,0,0,164.985,127.668Z" style="fill: #fff"></path><path d="M164.3,161.272c-.4-.039-.269.128-.294.364C164.117,161.618,164.384,161.339,164.3,161.272Z" style="fill: #fff"></path><path d="M167.335,56.967a.633.633,0,0,0,.227.027A.173.173,0,0,0,167.335,56.967Z" style="fill: #fff"></path><path d="M162.416,124.368c0,.365,0,.365.287.184C162.822,124.089,162.4,124.079,162.416,124.368Z" style="fill: #fff"></path><path d="M163.776,134.055h0Z" style="fill: #fff"></path><path d="M164.2,134.057l-.425,0h.425Z" style="fill: #fff"></path><path d="M164.2,134.057Z" style="fill: #fff"></path><path d="M12.665,123.033a.633.633,0,0,0-.227-.027A.172.172,0,0,0,12.665,123.033Z" style="fill: #fff"></path><polygon points="13.287 124.836 13.287 124.836 13.286 124.836 13.286 124.836 13.287 124.836" style="fill: #fff"></polygon><path d="M13.287,124.836c0,.183.287.184,0,0Z" style="fill: #fff"></path><path d="M12.682,29.125c-.29,0-.292.181-.3.546C12.75,30.747,13.539,29.018,12.682,29.125Z" style="fill: #fff"></path><path d="M15.763,45.943H15.67C15.449,45.941,15.566,45.942,15.763,45.943Z" style="fill: #fff"></path><path d="M17.3,55.448c-.119.463.3.473.287.184C17.589,55.267,17.589,55.267,17.3,55.448Z" style="fill: #fff"></path><path d="M15.015,52.332a.305.305,0,0,0,.582-.18A1.283,1.283,0,0,0,15.015,52.332Z" style="fill: #fff"></path><path d="M15.7,18.728c.4.039.269-.128.294-.364C15.882,18.382,15.616,18.661,15.7,18.728Z" style="fill: #fff"></path><path d="M16.1,45.945Z" style="fill: #fff"></path><path d="M15.941,45.944h0Z" style="fill: #fff"></path><path d="M15.96,45.944h0Z" style="fill: #fff"></path><path d="M40.547,44.449c.188.28.354.113.641-.173C41.1,44.1,40.861,44.185,40.547,44.449Z" style="fill: #fff"></path><path d="M47.044,42.4c.3-.256.121-.262-.023-.44C46.959,42.045,46.929,42.4,47.044,42.4Z" style="fill: #fff"></path><polygon points="64.52 59.502 64.513 59.51 64.516 59.506 64.52 59.502" style="fill: #fff"></polygon><path d="M64.52,59.5Z" style="fill: #fff"></path><path d="M64.321,59.7l.192-.19Z" style="fill: #fff"></path><path d="M65.143,71.364a1.362,1.362,0,0,0-.526.291C64.045,72.157,65.52,71.619,65.143,71.364Z" style="fill: #fff"></path><path d="M51.513,51.139c-.206.2-.092.322.137.557C52.593,52.123,52.048,50.462,51.513,51.139Z" style="fill: #fff"></path><path d="M66.857,66.668c-.046.051-.035.043,0,0Z" style="fill: #fff"></path><path d="M69.124,111.062c-.025-.026-.046-.051-.078-.079C68.879,110.94,68.949,111.01,69.124,111.062Z" style="fill: #fff"></path><path d="M68.2,63.707a1.382,1.382,0,0,0-.3.526C68.214,64.358,68.519,63.905,68.2,63.707Z" style="fill: #fff"></path><path d="M64.31,59.71c-.132.131-.087.087.011-.01C64.305,59.715,64.3,59.722,64.31,59.71Z" style="fill: #fff"></path><path d="M71.82,64.512c-.229-.235-.229-.235-.321.087C71.724,64.989,72.011,64.67,71.82,64.512Z" style="fill: #fff"></path><path d="M135.551,40.547c-.28.188-.113.354.173.641C135.9,41.1,135.815,40.861,135.551,40.547Z" style="fill: #fff"></path><path d="M140.566,135.927c-.173.05-2.4-2.941-2.245-3.55-2.556-.994-5.675-6.722-7.578-6.121,1.979-.573-3.628-3.547-3.344-3.848.213-3.067-1.228.668-.917-.94.636-1.13-2.9-1.607-1.832-1.881.116-1.115-1.674-.916-1.533-2.407-1.18-.039-.741-.831-1.146-1.176-.558.24-1.024-1.046-1.213-.415-.288.361-.736.443-.321.087.237-.378-1.667-2.294-1.625-2.085-.577.126.02-1.058-1.032-1.058-.413-.394.188-1.246-.8-.823-.04.039-.059.06-.079.081.106-.125.326-.437.056-.52-1.017-.473-1.092-1.286-2.335-1.151.069-.325,1.588-.415-.138-.557-.755.055-.755.055-.114-.118.751-.077.222-.4-.229-.235a10.462,10.462,0,0,1-.825-1.262c.206-.2.091-.322-.32.087-.948.294.348-1.151-.252-.675-.611.595-1.338-2.858-2.931-2.178-.411.408-.206.2-.114-.118,1.026-2.024-1.029,1.172-.344-.352.012-.941-.454.834-.39-1.231.158-.528-2.038.167-.893-.5.938-.967-1.7.01-1.1-.3.016-.553.281-.807-.481-.909-1.279.271.058-1.072-.916-.941-1.246.723-.3-.172-.2-.262l-.029.027c-1.04.355-.246-.841-.276-1.113-1.065,1.208-.7-.2-.8-.823-.574-.338-.7-.9-1.351-.972-.636-.312.378-.879-.252-.674-.8.623-1.44-1.738-1.786-1,.089.676-.869-2.161-1.374-1.41-.751,1.27.405-1.328-.252-.675-.828.246.094-.4-.778-.384-.255-.217.318-.253-.138-.556-1.136.249-.675-1.34-1.465-1.089-.527.29-.641.173-.229-.236.811-.794-.342.3-.616-.372-.135-.144.734-.755.711-.78-.357.5-1.582.072-.983-.224-.534-.21-.812-.077-1.021-.337.406,0,.833-.01.478-.061-.851.119,2.159-1.691,1.971-2.266.523-.806,1.424-.339,1.647-1.6-.22-.992.964.128.94-.916-.291-.526-.173-.64.235-.229,1.042.975-.231-1.154.5-.893.526.3.644.183.44-.023-.789-1.286,1.548.549.705-.687-.465-.983.956-.74,1.262-.825.182-.746.539-.636,1.881-1.832,2.444-1.6.24-1.868,1.441-1.809,1.631-.454,2.411-2.437,3.41-3.32.837.346.546-.851,1.027-.6.772.015-1.166-1.472.47-.458.408.412.526.3.322.092-.406-.856.772-.325-.024-1.19-.345-.555.322-.446.321.091-.194-.547,2.065.191.91-.481-.642-.42-.148-.945.266-.664,1.7.624-.64-2.942.359-1.968.3.367.713-.518.409.412.227.292,1.075.694.556-.138-.2-.417.676-.14,1.231-.391.559-.689-.152-1.411.155-2.173-.278-.806,2.788.686.941-.916.178-.255,1.895,1.212.965.274-.2-.206-.291-.526.148-.55.254-.551.991-.01.91-.481-.386-.83,2.286-.423,1.175-1.145-.577-.612.632.417.384-.778.027-.474-1.61-1.421-.667-1.372.908-.4.492,1.32,1.255.8.51.156.307-.138.179-.287l.056.058c.506-.128,2.1-.908,1.851-1.4-.409-.412-.291-.527-.087-.321,1.83-.179,3.049-2.62,4.084-3.572-.384-.844.147.226.822-.8,1.017-.941-.436-.173.149-.548.266-.664.47-.459.674-.253.864,1.188-.63-1.508.18-.984-.033.6.622,1.208.408.412.168-.189-.108-1.062-.581-1.052-.182-1.428,1.78,2.509,1.027-.6-.029-.034-.038-.043-.053-.058.134.137.668.607.931.011.882-.881-1.806-1.606.093-1.3,1.88.448,2.763-1.568,3.551-2.245,1.354.432-.954-1.095-1.2-.045a1.868,1.868,0,0,0,.007-1.625c.131.363,1.946,2.17,1.578.891.223-.342,1,.569.469-.457-.795-1.053,1.694.239,1.263-.825-.761-1.041.888-.273.618-1.007-.062-.061-.1-.095-.118-.113.106.1.685.6.558.089-.3-.491-.28-.7-.9-1.143-.581-.549,1.884-.006,1.961.113-1.293-1.251.923.294.266-.664-1.008-1,1.041.558.266-.664-.882-.895.538.386.761.068-.137-.121-.886-.881-.173-.64.355.473.393-1.035.909-.481.936.916-.574-.65.47-.458.322.091.322.091.236-.229-.676-.833-.576-.247-1.052-.594.549-.005.613-1.987.093-1.3-2.309-1.42.839,1.328-.47.458-.238-.264-2.231-.773-1.521-.136.321.091.086.32-.44.023-.881.062,1.56.661-.5.892.933,1.706.145.227-.588.573-.548.244.265.991-.352.344-.379.044.161.194-.675.252-.974.372.937,1.112.315,1.716-.28-.2-1.56-1.835-.848-.389l-.2-.2c-1.154-.5.774,2.162-.211,1.419-1.08-.85.04.791-.557.138-.383-.765-1.5,1.589-1.936,1.076-.2-.2-.266.664-.093,1.3.028.026.039.034.058.05-.143-.1-.467-.262-.615.088-.571.942-.984-1.1-.674.252.29.526-.266.664-.675.252-.595-.436-.481.694-.94.916-.825.449.884,1.055.111,1.51a10.336,10.336,0,0,0-2.549.46c-.2.337.8.714-.3,1.1-.608,1.477-1.308-.3-1.176,1.145.2.206.087.321-.235.229-.233.155.343.912-.383.778-.521-.388-1.4,1.852-2.086,1.626-.189-.277.235.439-.031.435-.753-.541-.143.8.2.206.931,1.34-1.686-.855-.791.367q.435.789-.353.344c-.832-1.046,1.108,2.569-.5.892-2-1.386.646.992-.791.367-1.64-1.051-1,2.611-1.615,1.169-.173-.641-.173-.641-.2-.207-1.282.421.269,2.026-.414,1.214-.858-.584-1,.439-1.059,1.03.253.6-1.325-.262-1,.161.219.173.449,1.78-.062.87-1.137-.927-.459,1.269-1.615,1.168a1.405,1.405,0,0,0-.415,1.213c-.077.274-.421.028-.535-.067l.1.09c.8,1.354-1.188-.9-.352.344.339.71-.781-.246-.353.343.606,1.3-.5.264-.3,1.1.826,1.223-1.184-1.047-.471.459.086.39-1.8.428-1.058,1.03-.28.191-1.044.514-.618,1.007-.278-.33-1.032-.3-.557.138.656.566-.5.18-.675.252.761.841-.3-.014-.47.459.229.4-.26-.312-.2-.206-.517-.051.412.289-.149.549-.434.23.659.582.377.846-.305-.482-.617-.15-.847-.388-.921-.894.06,1.891-.823.8-.748-.618.508,1.41.754,1.693-1.481-1.321-1.116-1.362-1.725-.342-.591-.419-1.045.964-1.176,1.145-.905-.363-.171.339-.038.441-.163.108-.121.378-.432.017-.026-.531-3.227,2.379-2.147,2.5.481.95-.4-.132-1.114.276-.761-.069-.674.252-.47.457.994.581-.979-.287-.557.138-.089,1.111-.987.687-1.324,1.695-.776.4-.925-.177-.736,1.122.924,1.662-1.014-.82-.471.458.813.8-.337-.543-.674.252-.584.2-.168,1.206-.383.778-1.29-.515-.625,1.288-1.176,1.145-.322-.092-.322-.092-.235.229.127.7-1.454-.558-1.114.275-.053.638-.812,1.105-.139,1.347.914,1-.179-.225-1,.479-2.01-2.16-5.254-5.358-6.755-6.612-.991.2.126-.947-.917-.94-1.345.649,1.139-1.33-.893-.5-.745.4.385-1.239-.252-.675-1.287.792.549-1.551-.687-.705-.981.434-.742-.934-.825-1.262-.228-.345-.384-.084-.434-.031.076.13-2.99-4.1-2.978-3.056-.291.9-.628-1.507-.962-1.82-1.243.317-1.165-1.476-2.243-1.473-.773.111.091-1.477-1.031-1.058.554-1.366-1.479.831-.366-.792.894-.96-.626.226-.459-.47-.139-.422-.808.567-1.075.142a.787.787,0,0,1,.526-.29c-.588.26.222-2.122-.481-.91-1.216,1.02.032-2.025-2.518-.507-.881.85.331-.354-.137-.557-.206.2-.115-.118,0,0,.426-.345.264.3.64-.173.7-1.171-.858.206-.572-.588.207-1.676-1.246-.986-2.335-1.151-.771.239.628-2.727-.916-.941-.253-.192,1.211-1.884.274-.965-.361.526-1.025-.548-.8-.823-1.031-.252-.7-2.161-1.373-1.411-.61.531.414-.6-.779-.383-.473-.048-1.423,1.625-1.372.667-.4-.875,1.322-.516.8-1.255.157-.5-.15-.293-.3-.174.02-.019.032-.029.065-.061-.122-.579-.911-2.052-1.4-1.851-.412.409-.527.291-.321.087-.179-1.835-2.62-3.046-3.572-4.084-.293.6-.772-1.692-1.352-.971h0c-1.353-.4,1.142-1.48-.687-.7-1.32.224-.215-.178.3-.525.031-.144-.733.069-.435-.031-.2-.064-1.056.031-1.052.581-1.414.086,2.462-1.694-.559-1.035.084-.334.2-1.4-.633-1.02-.645.467-.909,1.185-.755.056.447-1.87-1.568-2.77-2.245-3.551.435-1.383-1.1.975-.045,1.2a1.871,1.871,0,0,0-1.625-.006c.363-.131,2.17-1.946.891-1.578-.342-.223.569-1-.457-.469-1.053.8.239-1.694-.825-1.263-1.041.761-.273-.888-1.007-.618-.061.062-.095.1-.114.118.095-.1.6-.685.09-.558-.491.3-.7.28-1.143.9-.549.581-.006-1.884.113-1.961-1.251,1.293.294-.923-.664-.266-1,1.008.558-1.042-.664-.266-.895.881.386-.538.068-.761-.121.137-.881.886-.64.173.473-.355-1.035-.393-.481-.909.916-.936-.65.574-.458-.471.091-.321.091-.321-.229-.235-.833.676-.247.576-.594,1.052-.005-.549-1.987-.614-1.3-.093-1.428,2.319,1.333-.846.458.47-.264.238-.773,2.231-.136,1.521.091-.321.32-.086.023.44.062.881.661-1.56.892.5,1.719-.947.22-.137.573.588.244.548.991-.265.344.352.044.379.194-.161.252.675.372.974,1.112-.937,1.716-.315-.2.28-1.835,1.56-.389.847l-.2.2c-.5,1.154,2.162-.775,1.419.211-.85,1.08.791-.04.137.557-.764.383,1.59,1.5,1.077,1.936-.2.2.664.266,1.3.093.026-.028.034-.039.05-.058-.1.143-.262.467.088.615.942.571-1.1.984.252.674.526-.29.663.266.252.675-.436.595.694.481.916.94.449.825,1.055-.885,1.51-.111a10.336,10.336,0,0,0,.46,2.549c.337.2.715-.8,1.1.3,1.477.608-.3,1.308,1.145,1.176.206-.2.321-.087.229.235.155.233.912-.343.778.383-.388.521,1.852,1.4,1.626,2.086-.277.189.439-.235.435.031-.541.753.8.143.206-.2,1.34-.931-.855,1.686.367.791q.789-.435.344.353c-1.046.832,2.569-1.108.892.5-1.386,2,.992-.646.367.791-1.051,1.64,2.611,1,1.169,1.615-.641.173-.641.173-.206.2.42,1.282,2.025-.269,1.213.414-.584.858.439,1.005,1.03,1.059.6-.253-.262,1.325.161,1,.173-.219,1.78-.449.87.062-.927,1.137,1.269.459,1.168,1.615a1.405,1.405,0,0,0,1.213.415c.274.077.027.421-.067.536.02-.023.045-.05.09-.1,1.354-.8-.9,1.188.344.352.71-.339-.246.781.343.353,1.3-.606.265.5,1.1.3,1.223-.826-1.047,1.184.459.471.39-.086.428,1.8,1.03,1.058.191.28.514,1.044,1.007.618-.33.278-.3,1.032.138.557.566-.656.18.5.252.675.841-.761-.014.3.459.47.4-.229-.312.26-.206.2-.051.517.289-.412.549.149.23.434.582-.659.846-.378-.482.306-.15.618-.388.848-.894.921,1.891-.06.8.823-.618.748,1.41-.508,1.693-.754-1.363,1.517-1.332,1.105-.342,1.725-.456.331,1.648,2.019,1.58,1.207.152-.176-.088.013.229.235-.5.431-.331.457.733,1.584,1.124,1.841,2.343-.07,1.786,1-.183-.108.014,2.04.5,1.349.3-.526.206-.2.115.118-.55.843,1.357.227.825,1.262.132.162,1.479.468,1.03,1.058-.759.718,2.3-.455,1.419.21-.493.355-.47.719.023.44.806-.817-.545.339.253.674.189.6,1.215.158.778.383-.528,1.3,1.3.615,1.145,1.176-.233.618.793-.176.366.792-.973,1.281,3.3.6,2.385.782-1.525.193.541,1.917,1,2.034-.2.395.7,1.309,1.544,1.56a.656.656,0,0,0-.373.1c-.023,0-.04,0-.065-.007a.193.193,0,0,0,.01.045c-.85.558-1.749,2.584-2.53,2.277-.134.327,1.29.523.03.777-.879-.059-.855,1.426-1.493,1.053-.786-.473-.391.994-.909.481-.322-.091-.526-.3-.236.229-.013.88-1.6.85-.65,1.442-.981-.752.253.715-.352.344-.786-.208-2.887,3.44-2.853,3.182-.574-.229-.535.536-1,.161-.406-.468.321.376-.031.435-.778-.461.522,1.35-.352.344-1.044-.681.226,1.285-.823.8-1.073.367-.061,1.2-1.176,1.145-.628-.5-2.7,1.755-1.535,3.113-.3-.439-1.807-1.463-.847-.388.374.405-1.9.819-1.293,1.26-.039.842-1.02-.931-1.089,1.465-.379.763-.648-1.157-.91.481.739,1.213-.606-.674-.557.138.291.526-.031.434-.235.229-.344-1.039-.5,1.225-1.207,1.579a.941.941,0,0,1-1.153.469c.684.71-1.082.911-.641,1.684-.139.441.157-.241.235-.229.822,1.29-.977-.092-1.317.069-.436.217.51.426.173.641-.407.151.141.808-.18.984a.586.586,0,0,0-.543.126c-.153-.142-1.143-.838-.657-.17-1.178,1.964-4.779,4.739-5.736,6.8-.957.58-.289,1.743-1.379.938-.413.266.838,1.363-.063.871-.93-1.116.047.849-.965-.275-.766-.867-.089.552-.266.664-.526-.3-.353.344-.266.664,1.038,1.024-1.117-1.141-.353.344.2.2.087.32-.235.229-.361.1-3.918,3.608-3.911,4.213-.229.354-.994-.576-.47.458.293.837-.314-.558-1.027.6-.712.315-.6,1.767-.736,1.121-.98-.612-2.3,1.82-2.94,2.862-.344-.267-3.01,2.809-3.581,2.681-.217.1.467,1.353-.18.984-1.187-.683-.4,1.358-.909.481-.7-.5-.48.6-.405.773-.315-.089-.621-.17-.536.143-.14.287-1.747-1.476-.761-.067-.665.755.561,2.448,1.774,2.721,1.748-1.68,5.583-3.752,7.141-6.55.354-.2,2.249-1.389,1.881-1.832.589-.753,1.856-.888,1.564-1.958.564.95,3.2-2.851,3.288-3.171-.482-.715,2.454-.285,1.7-.848-.281.189-1.374-1.178-.29-.526,1.136.575,1.6-2.862,1.881-1.833.855.5,1.029-1.83,1.85-1.4.7.37.813-1.66,1.5-1.053.565-.892.864-1.235.359-1.968.791.82,3.113-2.253,3.582-2.68,1.133.589.36-1,.588-.573.542.521.63-1.164,1.145-.71.374-.276.365-2.631.736-1.122.269,1.065.16-2.457.383-.778.078.748.4.224.236-.229a9.1,9.1,0,0,1,1.262-.825c.2.206.322.091-.087-.32-.293-.961,1.15.357.675-.252-.6-.587,2.86-1.355,2.178-2.931-.817-.678,1.858.844.353-.343-1.163-.694.721.385.352-.344-.318-.477,1.641.429,1.145-.71-.264-1.449,1.276.9.65-1.443,1.247.647.406-1.685,1.819-.962.206-.131-.624-1.6.062-.869.51.807-.2-1.049,1-.161.856.513-.435-.516-.173-.641a1.979,1.979,0,0,0,2.289-1.42c.314-.659.878.394.674-.252-.17-.414.258-.661.179-.984.244-.113,1.564-.643.824-.8-.433,0,.759-.316,1.144-.71,1.121-.6-.853-1.205.384-.779,1.173.34.245-.269.588-.572.474.2.214-.4.91-.481-.174-.641.736-1.122,1.057-1.031.235-.176-.546-1.483.266-.663.8.809-.3-.341.373-.616.8-.632,1.061,1,1.316-.23.177-1.242,1.912-2.509,3.17-3.705.3.143.117,1.231.933,1.139.35.3-.513,1.251.595,1.027.269.132-.72,1.03.138.557.777-.147.612,1.265,1.236.854l.206-.2c-.75.978.714-.251.344.352.371,1.489,3.9,2.55,3.343,3.849-.474.412.38-.325.435.031-.467.784,1.354-.526.344.352-.383.832.235.246.778.384-.149,1.2,1.143.857,1.145,1.175-.561.83,1.5,3.245,3.136,1.975-.416.3-1.48,1.806-.388.847q.309-.306.343.353c-.057.833.812.158.6,1.027.12.28.731-.647.549.148-.5,1.219,1.023.356,1.466,1.09.114.117-.206.2-.321.086a.444.444,0,0,0,.573.588c1.221-.738-.68.6.138.557.526-.291.434.031.229.235-1.078.341,1.252.506,1.579,1.207a.927.927,0,0,1,.468,1.153c.7-.684.918,1.082,1.685.641-.541-.411.466-.757.32-.087-1.179,1.971-.04.714,1.145,1.176.175.812-.042.532-.365,1.286.528-.519,3.026,2.343,3.618,2.884.388.47,3.125,2.546,3.846,3.119,1.049.625,1,.087.595,1.027.275.409.741-.462.962-.26.308.126-.567.72-.5.73.4.158.844-.175.138.557-.846.768.535.088.663.266-.443,1.132,1.754-.634.664.266-.4,1.187.444-.494.824,1.262.473.128,4.252,3.424,3.985,3.675-.206.2-.091.322.435.032.32-.087.526-.291.114.117-.38.25,1.2,1.813,1.489,1.529.73-.079-1.043,1.022.711,1.144a4.523,4.523,0,0,0,2.266,1.913c.114.338,2.556,3.641,3.114,3.613,1.243-.707-.215,1.45,1.237.854-.7.43.071.969.572.587-.091.322-.182.644.138.557.261.138-1.457,1.749-.067.761.067-.02.248.526.548.148C139.975,139.063,142.619,136.039,140.566,135.927Zm-1.985-91.858c.2.2.086.32-.031.434C138.228,44.848,137.936,43.678,138.581,44.069Zm-1.615,1.168c1.125.329-.333.968-.031.435C137.219,45.838,135.6,44.394,136.966,45.237Zm-7.2,5.795a.662.662,0,0,1,.056.755C129.548,52.026,129.429,51.12,129.77,51.032Zm-4.536,6.845c.2.206.087.32-.031.435C125.154,58.265,124.548,57.548,125.234,57.877Zm-1.373-.686.173.641C125,59.532,123.006,57.59,123.861,57.191Zm-1.511,4.3c.015,1.037-.515-.723-.494-.732C121.973,60.648,122.06,60.968,122.35,61.494Zm-2.047-.433c.264.314.354.557.173.641C120.191,61.415,120.023,61.249,120.3,61.061Zm-2.914,4.053.235-.229C118.193,65.323,117.942,66.085,117.389,65.114Zm.155-2.174c.117-.115.086.32-.031.434C117.421,63.458,117.217,62.665,117.544,62.94Zm-.57,3.387c-.178.144-.184.323-.439.023C116.528,66.235,116.888,66.265,116.974,66.327Zm-3.254,1.146c.117-.114.439-.023.439-.023C114.63,68.032,113.535,68.017,113.72,67.473Zm-1.8,2.152c.622.072-.1.524-.235.229C111.486,69.649,111.808,69.74,111.925,69.625Zm-1.386,2.564c.2.206.086.321-.439.024C109.665,71.786,110.188,71.851,110.539,72.189Zm-1.027.6c.061.088.085.444-.031.435C109.091,72.869,109.028,72.577,109.512,72.785Zm-.91.481c.2.206-.117.115,0,0Zm-7.14,6.55c.061.088.085.444-.031.435C101.041,79.9,100.978,79.608,101.462,79.816ZM98.931,83.09c-.189.344-.661-.641-.612-.617C98.437,82.358,98.727,82.884,98.931,83.09Zm-.86,2.861c.264.314.353.556.173.641C97.958,86.305,97.791,86.139,98.071,85.951Zm-2.549.46c.061.087.085.443-.031.434C95.1,86.5,95.038,86.2,95.522,86.411ZM44.069,41.419c.2-.2.32-.086.434.031C44.848,41.772,43.678,42.064,44.069,41.419Zm1.6,1.646c.166-.284-1.278,1.339-.435-.031C45.566,41.909,46.205,43.367,45.672,43.065Zm5.36,7.165a.662.662,0,0,1,.755-.056C52.026,50.452,51.12,50.571,51.032,50.23Zm6.845,4.536c.206-.2.32-.087.435.031C58.265,54.846,57.548,55.452,57.877,54.766Zm-.686,1.373.641-.173C59.533,55,57.59,56.994,57.191,56.139Zm3.87,3.558c.314-.264.557-.353.641-.173C61.415,59.809,61.249,59.977,61.061,59.7Zm-.3-1.553c-.115-.117.205-.2.731-.494C62.531,57.635,60.771,58.165,60.763,58.144Zm2.177,4.312c-.115-.117.32-.086.434.031C63.458,62.579,62.665,62.783,62.94,62.456Zm2.174.155-.229-.235C65.323,61.807,66.085,62.058,65.114,62.611Zm1.236.854c-.115.007-.085-.353-.023-.439C66.471,63.2,66.649,63.21,66.35,63.465Zm1.123,2.815c-.114-.117-.023-.439-.023-.439C68.032,65.37,68.018,66.465,67.473,66.28Zm2.382,2.03c-.206.2-.115-.118-.23-.235C69.7,67.453,70.149,68.171,69.855,68.31Zm2.358,1.59c-.427.435-.362-.088-.024-.439C72.4,69.257,72.51,69.375,72.213,69.9Zm.572.588c.088-.061.444-.085.435.031C72.869,70.909,72.577,70.972,72.785,70.488Zm.481.909c.206-.2.115.118,0,0Zm6.55,7.141c.088-.061.444-.085.435.031C79.9,78.959,79.608,79.022,79.816,78.538Zm2.657,3.143c-.115-.118.411-.408.617-.612C83.434,81.258,82.449,81.73,82.473,81.681Zm3.478.248c.314-.264.557-.353.641-.173C86.305,82.042,86.139,82.209,85.951,81.929Zm.46,2.549c.087-.061.444-.085.434.031C86.5,84.9,86.2,84.962,86.411,84.478ZM43.343,140.063c.2.206.408.412.29.527C43.982,141.9,42.406,138.853,43.343,140.063Zm16.05-16.441c.118-.115.526.3.495.732C59.663,124.659,59.172,123.731,59.393,123.622Zm3.558-3.87c.051.144-.587-.88-.173-.641C62.994,119.2,63.235,120.047,62.951,119.752Zm4.412-5.106a1.372,1.372,0,0,1,.526.3C67.691,115.258,67.238,114.953,67.363,114.646Zm.854-1.236c-.006-.115.353-.085.439-.024C68.478,113.53,68.473,113.709,68.217,113.41Zm1.176-1.145c-.007-.116.353-.085.439-.024C69.654,112.385,69.648,112.564,69.393,112.265Zm.94-.916c.235-.229.235-.229.322.091C70.886,112.121,70.037,111.519,70.333,111.349Zm2.455.844c-.39-.351-.453-.643.031-.434C72.88,111.846,72.9,112.2,72.788,112.193Zm1-1.785c-.229-.213-.078-.392.235-.229C74.3,110.528,74.029,110.724,73.791,110.408Zm8.855-10.647c-.286-.287-.453-.453-.173-.641C82.737,99.434,82.826,99.677,82.646,99.761Zm4.733-5.015c-.411.506-.706-.338-.274-.542A.343.343,0,0,1,87.379,94.746Zm6.857-1.819c.125-.288.417-.4.51-.306C95.266,93.028,94.4,93.306,94.236,92.927Zm2.1,2.5Zm2.78,2.1c.314-.264.557-.353.641-.173C99.474,97.64,99.308,97.807,99.12,97.527Zm11.288,8.682c-.213.229-.392.078-.229-.235C110.529,105.7,110.724,105.971,110.408,106.209Zm.941,3.458c-.229-.235-.229-.235.091-.322C112.121,109.114,111.519,109.963,111.349,109.667Zm.41-2.486c.087-.061.443-.085.434.031C111.842,107.6,111.55,107.665,111.759,107.181Zm.506,3.426c-.116.007-.085-.353-.024-.439C112.386,110.346,112.564,110.352,112.265,110.607Zm1.145,1.176c-.115.006-.085-.353-.024-.439C113.531,111.522,113.709,111.527,113.41,111.783Zm1.236.854a1.372,1.372,0,0,1,.3-.526C115.258,112.309,114.953,112.762,114.646,112.637Zm4.465,4.585c.084-.216.936-.457.641-.173C119.9,117,118.872,117.636,119.111,117.222Zm4.511,3.385c-.115-.118.3-.526.732-.5C124.659,120.337,123.732,120.828,123.622,120.607Zm16.441,16.05c.206-.2.412-.408.527-.29C141.9,136.018,138.853,137.594,140.063,136.657Z" style="fill: #fff"></path><path d="M113.333,66.857c-.052-.046-.044-.035,0,0Z" style="fill: #fff"></path><path d="M116.293,68.2a1.382,1.382,0,0,0-.526-.3C115.642,68.214,116.1,68.519,116.293,68.2Z" style="fill: #fff"></path><path d="M105.376,100.57Z" style="fill: #fff"></path><path d="M120.5,64.522Z" style="fill: #fff"></path><path d="M128.861,51.513c-.2-.206-.322-.092-.557.137C127.877,52.593,129.538,52.048,128.861,51.513Z" style="fill: #fff"></path><path d="M115.488,71.82c.235-.229.235-.229-.087-.321C115.011,71.724,115.33,72.011,115.488,71.82Z" style="fill: #fff"></path><path d="M120.254,64.274Z" style="fill: #fff"></path><path d="M120.494,64.516l0,.006-.173-.175Z" style="fill: #fff"></path><path d="M120.326,64.347l-.032-.033Z" style="fill: #fff"></path><path d="M137.6,47.044c.256.3.262.121.44-.023C137.955,46.959,137.6,46.929,137.6,47.044Z" style="fill: #fff"></path><path d="M120.254,64.274l.04.04s-.01-.01,0,0Z" style="fill: #fff"></path><path d="M112.746,111.517c.114.117.32-.086,0,0Z" style="fill: #fff"></path><path d="M108.636,65.143a1.347,1.347,0,0,0-.291-.526C107.843,64.045,108.381,65.52,108.636,65.143Z" style="fill: #fff"></path><polygon points="112.746 111.517 112.746 111.517 112.746 111.517 112.746 111.517 112.746 111.517" style="fill: #fff"></polygon><path d="M111.061,110.876a.955.955,0,0,0-.078.078C110.936,111.121,111.008,111.051,111.061,110.876Z" style="fill: #fff"></path><path d="M123.032,167.336a.656.656,0,0,0-.026.226A.173.173,0,0,0,123.032,167.336Z" style="fill: #fff"></path><path d="M45.943,164.323s0,.016,0,.007C45.942,164.512,45.942,164.455,45.943,164.323Z" style="fill: #fff"></path><path d="M29.125,167.318c0,.29.181.292.546.3C30.747,167.25,29.018,166.461,29.125,167.318Z" style="fill: #fff"></path><path d="M55.632,162.416c-.365,0-.365,0-.184.287C55.911,162.822,55.921,162.4,55.632,162.416Z" style="fill: #fff"></path><path d="M18.364,164c.018.114.3.381.364.294C18.767,163.9,18.6,164.028,18.364,164Z" style="fill: #fff"></path><path d="M52.152,164.4a1.283,1.283,0,0,0,.18.582A.305.305,0,0,0,52.152,164.4Z" style="fill: #fff"></path><path d="M45.944,164.04v.283C45.943,164.263,45.947,163.3,45.944,164.04Z" style="fill: #fff"></path><path d="M161.272,15.7c-.039.4.128.269.364.294C161.618,15.882,161.339,15.616,161.272,15.7Z" style="fill: #fff"></path><path d="M150.875,12.682c0-.29-.181-.292-.546-.3C149.253,12.75,150.982,13.539,150.875,12.682Z" style="fill: #fff"></path><path d="M124.368,17.584c.365,0,.365,0,.184-.287C124.089,17.178,124.079,17.6,124.368,17.584Z" style="fill: #fff"></path><path d="M127.848,15.6a1.283,1.283,0,0,0-.18-.582A.305.305,0,0,0,127.848,15.6Z" style="fill: #fff"></path><path d="M134.056,15.96c0,.8,0-.413,0-.29C134.059,15.381,134.058,15.67,134.056,15.96Z" style="fill: #fff"></path><polygon points="55.164 13.287 55.164 13.287 55.164 13.286 55.164 13.286 55.164 13.287" style="fill: #fff"></polygon><path d="M55.164,13.287c-.183,0-.184.287,0,0Z" style="fill: #fff"></path><path d="M56.959,12.366c-.034-.146-.06-.128,0,0Z" style="fill: #fff"></path><path d="M56.959,12.366a1.571,1.571,0,0,1,.022.19.581.581,0,0,0,.013-.117A.651.651,0,0,1,56.959,12.366Z" style="fill: #fff"></path></g></svg>