<svg xmlns="http://www.w3.org/2000/svg" id="Layer_1" data-name="Layer 1" width="180" height="180" viewBox="0 0 180 180"><g><path d="M11.005,133.01Z" style="fill: #fff"></path><path d="M10.6,119.456l.013.011C10.609,119.425,10.606,119.407,10.6,119.456Z" style="fill: #fff"></path><path d="M14.016,57.754a.684.684,0,0,0,.226.025A.166.166,0,0,0,14.016,57.754Z" style="fill: #fff"></path><path d="M14.129,125.709c.063,0,.05-.005,0,0Z" style="fill: #fff"></path><path d="M9.1,123.551c-.005.356-.005.356.287.179C9.5,123.274,9.08,123.271,9.1,123.551Z" style="fill: #fff"></path><path d="M16.447,162.634c-.069.187.156.325.575.359C17.088,162.648,16.861,162.629,16.447,162.634Z" style="fill: #fff"></path><path d="M11.083,126.948a1.3,1.3,0,0,0,.582-.176A.3.3,0,0,0,11.083,126.948Z" style="fill: #fff"></path><path d="M14,149.428c.29,0,.292-.177.3-.534C13.93,147.843,13.141,149.532,14,149.428Z" style="fill: #fff"></path><path d="M10.977,159.577c-.4-.037-.269.122-.294.355C10.8,159.915,11.064,159.646,10.977,159.577Z" style="fill: #fff"></path><path d="M10.456,133.007h0Z" style="fill: #fff"></path><path d="M10.72,133.008h-.234l.519,0Z" style="fill: #fff"></path><path d="M10.456,133.007h0Z" style="fill: #fff"></path><path d="M166.607,124.008c0,.178.286.179,0,0Z" style="fill: #fff"></path><path d="M165.984,122.247a.651.651,0,0,0-.226-.027A.166.166,0,0,0,165.984,122.247Z" style="fill: #fff"></path><polygon points="166.607 124.008 166.606 124.008 166.606 124.008 166.606 124.008 166.607 124.008" style="fill: #fff"></polygon><path d="M163.553,17.366c.069-.187-.156-.325-.575-.359C162.912,17.352,163.139,17.371,163.553,17.366Z" style="fill: #fff"></path><path d="M170,59.654c.772-.566-1.217.189-.863-.538-.1-.594.713-.082.588-.711.337-.925-2.69-1.3-1.432-1.433.551.046.047-.652.3-.355.3.493,1.622.279.582-.176-.758-.228.842-.627.3-.712.826-1.2-.728-1.406-1.131-2.323-.466-.557.631-.491.884-1.244.2-.4-2.019-.064.007-.535.833-.493-1.1.612.022-1.782-.862-.321,1.309-2.084.021-1.783-.823-.023.73-.189-.279-.893-2.7-.013-.99-1.533-.573-.538.37.18,1.116-.708.588-.711-.436.2.566-.347.3-.89.606-1.882-.114-1.336-.269-1.784,1.407-2.23-.05-5.281.378-7.13.047-1.532-.434.232-.284-.537-.714-1.3,1.869-.29.013-1.07-1.649-1.158,1.457.414.3-.533.027,0-.571-.833-1.155-.362-.913-.352.661-.5,1.161-.172.289,0-.272-.883-.847-1.071.256-.026.794-.161.579-.714-.07-1.007-.868-.437-1.442-.542.99-.538,2.234-2.739,1.492-3.559.29-.566-.14-.952.017-1.426,1.246-.7-1.472-.075-.88.887a1.96,1.96,0,0,0-1.144-1.253c.384.181,2.916.162,1.746-.528-.095-.427,1.11-.332.008-.712-1.286-.2,1.373-1.154.309-1.6-1.274-.211.435-.894-.274-1.249l-.166,0c.135-.008.913-.071.46-.36-.6-.139-.662-.344-1.447-.185-.763.078,1.3-1.471,1.467-1.42-1.772.031.844-.485-.282-.714-1.417,0,1.126-.379-.281-.715-1.256-.009.665-.124.586-.532-.21.025-1.226-.021-.575-.359.583.088-.452-1.1.3-1.069,1.289-.011-.864-.072.008-.713.805-.455-1.123-.417-.867-.182.01.92-.936-2.215-1.148-.9-2.531.689,1.339.357-.009.713-.988-.041-.214.549-.876.531-1.759.564.847.369-.59.889-.292.177-.292.177.287.179,1.248-.028-1.04,1.115.567,1.073,1.472.016-1.729.5-.305,1.246h-.29c-.091.145-.793,1.826.532,1.09.087.141,1.283.929.026.7-2.129-.162.561.535-.584.354-.877.407.929.886,1.147,1.075-.067.313-1.443.2-.3.713-1.283-.525-.15,2.218-.9,2.314-.653-.028,1.348,1.347.857,1.073-.579-.083-.019,1.274-.593,1.067-1.345-.453,1.5.711-.3.89-.29,0-.292.177-.3.534.3,2.3,2.469.95.838,2.679-.1.215-1.271,1.814-.6,1.78.827-.2-.122,1.663.558,1.785,0,.179,0,.179-.292.177-1.4.17.728.7-.013,1.07-.056.285.884.448.279.893-.644.138.318,2.5-.325,2.851-.289,0,0,0,0,0,.841.4-.811.645.571.716-.068-.9,1.074.23-.293.177-1.442.282,1.508.438-.01.892-1.284-.156,2.583,1.143.276,1.071-2.666.6,1.324.216-.3.89-1.892.445,1.136,2.785-.316,2.139-.781-.927-.354,1.429.274,1.249l.077,0c-.169.021-1.25.234-.095,1.608.165.975-1.574.363.272,1.428-1.914.864.2.735-.612,2.672.371.561.711,1.42.275,1.249,1.518.422-1.469.227-.007.535.742.279-.723.413-.007.535.578.181.861.717.282.714-.155.3,1.52.648.283.536-1.249.374.486.355-.011.892-.294.355-.6,1.424-.015,1.248.111.108-.494,1.04-.013,1.07.759.351-.4.115-.3.534.288.17,1.141.46-.009.713l0,.178c1.133.054-.237.24-.009.713.443.123-.387-.039-.29,0-.393.336.5-.07.284.536-.151.5.868-.053.865.361-.561-.13-.542.356-.874.352-1.29.01,1.374,1.4-.015,1.248-.968.1,1.345.693,1.73.722-2.157.045-1.608,0-1.461,1.063-.15-.036-.237.157-.276.44C161.05,49.3,149.129,34.768,135.24,24.2c1.682,3.048-5.057-3.89-7.305-3.953-1.627-.563-2.664-1.914-5.661-3.032-1.956-.484-7.7-3.144-9.213-3.76.418-.17,1.843.765,1.852.122.111-.769.875,1.209,1.069.3-.072-.387,1.957-.807,1.071-.277.536,1.241,1.225-1.251,1.069.013.1,1.128.681-.7.712.3-.181.577-.181.577.535.006.7-.34,2.613-.272,2.877.1.154-.748,1.536.185,1.762-.623.464-.24-.331.079-.357-.005.265-1.865,1.082,2,1.246.6.089-.3.75-.63,1.073-.857.562.695.568-.227.532.587.025.569.325.756.356.294,2.1-.441,5.221-.1,7.491-.489,2.112.207,3.007-.593,3.747-.534.093,1.373.546-.011.714-.281.329-.134.121.9.175.871.417-.157.519-.735.533.3-.067,1.139.5-.336.715-.281.175.581.534.006.714-.282-.029-1.434,0,1.584.535.007.924.242,1.59.095,3.923.047,2.452-.215,2.924.264,3.389-.247.372-.759-.133.6,1.246.3.786.273,1.814-.818,1.428-.273-.269,1.3,1.466-.122,1.6.6,2.921-.973,7.692.5,9.631-.462-.2.886.82.563.891.011.177.291.354.583.534.3.334-.1.2,2.29.532.586,1.037-.02,1.482-2.123.728-3.179-2.843-.148-7.358-1.2-10.875-.422.419-.317-2.928-.415-2.5-.031-.928.1-2.118-.679-2.71.285.308-1.1-4.689-.243-4.959-.089-.1.818-2.234-1.537-1.957-.6,1.133,1.885-2-.852-3.036.833v-.29c-.748-.86-2.021.518-3.027-.617-1.39.792-2.959-.715-3.215,1.121.22-1.283-3.585-.245-3.207-.619-.256-.487-1.2.01-1.6-.019-.176-.582-.71-.589-.891-.011-.033-.237-2.342-.438-3.034.543-.178-.307.885-1.4-.534-.3-1.256,1.392.563-.828-.177-.292-.381.418-1.189.124-1.6-.02-.18.288-.18.288-.357,0-.095-.747-.224,1.174-.714.281-.279-.442-1.255-.127-3.743-.335-.514-.082-.2,1.527-.538.573-.672-2.006.061,1.478-.534-.006-.274-.749-.42.713-.536-.006-.416-.831-.224.087-.71-.589-.3-.555-1.4,1.691-1.071.277-.039-1.377-1.28,1.211-1.073.567-.447-1.349-1.614.911-2.137-.606l-.358.286c-.356,1.271-.365.246-.359,0-.512.976-.837-.419-1.064-.6.108,1.635-.714.327-1.248-.015-.743-.214-1.895.642-2.318-.027-.022-.645-.186.5-.536.283-.327.5-2.068-.431-1.785.267.59.422-2.32-.916-2.139-.025.364,1.443-.659-1.278-.712-.3-.445.76-.238-.349-.893.279-.364.02.044-.407-.534-.3-.669.978-1.542-.464-1.962.266l0,.005-.349-.044c.094-.505-.074-.286-.307-.039-.245-.028-.491-.049-.736-.075a1.546,1.546,0,0,1-.031-.154c0-.29,0-.58,0-.58a7.916,7.916,0,0,1-1.573.58,43.7,43.7,0,0,0-9.561.205,21.361,21.361,0,0,0-4.027.191c-.587.857-.649-.774-1.426-.018-.181.578-.36.576-.357,0-.079-1.446-.7,1-1.071.277-.415-1.442-.441,1.131-.89-.3-.462-1.329-.81,1.578-1.605-.019-.178,0-.355-.294-.356-.005-.008-.181-.733-.507-.535-.006.046-.094-5.355-.692-4.636-.056.176.581-.181.577-.357-.005-1.605-.827-3.7.015-5.17-.062-.358-.821-1.07.2-1.247-.3-.57-.561-.247,1.854-.713-.009-.052-1.314-.314.613-.713-.009-.458-.227-.173,1-.717.861.409-1.025-.4-.139-.709-1.168-.565-.772.189,1.217-.538.863-.724-.961-1.5-.465-1.966.846-.038,1.233-.019-.5-.533-.3,0,.29-.178,0,0,0,.034-.567.448.045.359-.575-.371-1.341-.492.769-.891-.011-1.138-1.359-1.7.2-2.678.838-.558.465-.492-.633-1.245-.885-.3-.536-.143.943-.182.867-.33.06-.525-2.2-.531-.876-.05,1.083-1.445-.377-1.6-.02-.32.862-2.083-1.309-1.782-.021,0,.29,0,.58-.179,0-1.279-.673-.606,3.505-1.61,1.14.182-.433.74-.626,0-.87-.27-.478-.342-.109-.358.083,0-.027,0-.042,0-.087-.494-.266-2.289-.85-2.494-.321,0,.58-.181.578-.18.288-2.3-1.409-5.243.054-7.13-.377-1.512-.047.217.434-.537.284-1.312.715-.28-1.869-1.07-.013-.828,1.111-.31.014-.175-.581-.145-.188-.463.6-.358.285-.8.04-.086,1.489-.541,1.443-.7-.613.071-.741.006-1.45,0-.289-.893.279-1.074.857-.016-1.261-1.337-.436-1.427.272.763,1.01-1.684-1.231-2.848-1.193-.743-.087-.208.332-.892.279-.487-.633-.549.437-1.07-.014-.647-1.1-.19.9.577.961-.615.345-1.063,1.652-.94.484.56-.479-.307-2.166-.53-1.166-.428.1-.332-1.111-.713-.008-.2,1.286-1.153-1.373-1.6-.309,0,.579-.537.573-.714.281-.383-.767-.625.6-.535-.007-.846-1.658-.01,3.3-1.606.27-.617-1.18-.266-.187-.357,0-.483.178-.342-1.227-.712-.3,0,1.417-.377-1.126-.714.281-.009,1.256-.125-.665-.532-.586,0,.211,0,1.226-.36.575.092-.583-1.1.452-1.068-.3-.012-1.289-.072.865-.713-.009-.452-.8-.419,1.124-.182.868.924-.01-2.218.937-.9,1.148.693,2.531.354-1.339.713.009-.036.342,1.126,2.127,1.064,1.172-.177-.292.18-.287.356.294.324.826.007-1.858.714-.281.933.452.255-1.519.718-.861a1.237,1.237,0,0,1,.175.582c.32,1.036,1.133-.645.89.3,2.353,1.064.447-.685,1.788-1.138.051.359-.19,2.384.353.875v.289c.492,1.181,1.072-2.079,1.252-.855.132,1.3.6-.534.533.3-.287.81,2.388-.06,2.316.608,0,.289.714-.282,1.073-.857,0-.04,0-.054-.007-.079.035.169.163.522.541.375,1.157-.274-.084,1.469.712.3.181-.578.714-.281.711.3-.029.475,2.279.162,1.964-.555,0-.58.181-.578.538-.574a11.252,11.252,0,0,0,2.312,1.477c.41-.109-.058-1.069,1.072-.566,1.647-.616.762,1.177,1.783.022,0-.29.179-.288.356,0,.295.056.44-.884.893-.279.128.644,2.506-.319,2.851.325-.066.316.161-.475.358-.286.176.918.716-.488,0-.29.3-1.608.643,1.776.89.3q.271-.867.535.006c-.159,1.284,1.145-2.583,1.071-.276-.037.955.6,1.215.533.3-.182-1.3,1.106,1.827,1.782.311,2.1-1.192-.548.777,1.6.309.245.053.332-.4.359-.711,0,.042,0,.082,0,.136.412,1.673,1.639-.848,2.138.316.44.951.4-.253.894-.569.553-.375-.147.669.531.876.71-.3,1.159-.689,2.141-.263.383,0,1.067-1.032,1.249-.276.029.715.064-1.338.357,0,0,.579,0,.579.178,0,.28-.742.412.723.535.007.181-.578.717-.861.714-.282.3.156.646-1.52.536-.283.378,1.249.352-.486.892.011.848.661,1.044.161,1.6.019.442.534.79-.064.893-.279.312,1.266.414.109.712.009.847,1.37.4-.335.713.3a.525.525,0,0,0,.533.3c.126-.443-.041.387,0,.29.177.292.178,0,.18-.288.047-.047.887.175.536-.283-.13-.433.415-.861.181-.578-.135.561.359.542.352.874.007,1.29,1.406-1.374,1.248.015.1.968.691-1.345.722-1.73.045,2.157,0,1.609,1.063,1.461-.05.206.326.3.783.3-4.288,1.159-8.935,2.859-11.784,5.178.56.86-3.152-.67-1.563.8.777.255.78.253-.522.264-.99-.347-.824,1.172-1.544.83-1.653-.012-.676.486-2.321.655-.948-.163-3.032,3.909-2.842,2.113-.219-.81-2.316,1.515-2.258,1.892-.161,1.408-.356.05-.956.675-1.786.383-3.114,3.808-5.218,3.781l-.7.984c.012,1.589-.843.934-.87.781-.107,1.952-3.154,1.447-2.744,2.213.522,1.713-2.178,1.634-3.04,2.785A63.125,63.125,0,0,0,25,44.338c-4.621,7.393-8.275,13.146-10.912,22.815-.034-.043-.191-.082-.541-.105-.518-.162.741-1.955.024-1.961-.769-.092,1.209-.889.3-1.069-.387.1-.807-1.979-.277-1.071,1.243-.527-1.253-1.232.013-1.069,1.128-.1-.7-.682.3-.712.577.181.577.181.006-.535-.338-.69-.273-2.611.1-2.877-.747-.157.186-1.534-.622-1.762-.24-.464.079.331-.005.357-1.508-.36.762-.68.883-1.066,0-.178,0-.356-.288-.179-.6.036-.024-.461-.571-.716-.668-.012.107-.765.012-.884.256-.023.975-.107.87-.182-1.087-.186-.1-5.3-.509-5.708-.334-1.069-.519-5.459-.8-5.709,1.376-.087-.012-.553-.28-.715-.076-.478,1.109.134.873-.353-.511-.16-.418-.4.295-.355,1.141.073-.337-.505-.281-.715,1.123-.529-1.676-.853-.282-.714,1.1-.5-.615-.058.31-1.6-.677-.78.123-6.7-.5-6.243-.288-.18-.578-.181,0-.179.942-.033-.369-3.166.03-2.5,1.421-.906-.333-4.287.373-6.774.239-2.3.1-2.406-.25-3.389a.547.547,0,0,0,.014-1.07c.856.206.6-.826.011-.891.909-.346-.308-.779.878-.709,1.167.023.078-.491-.279-.893-.517-1.1-4.7-.364-2.626,1.415-1.121,2.09-1.25,6.533-.689,8.911-.105.5-.617,2.743-.034,2.853.1.877-.675,2.135.276,2.711-1.081-.273-.233,4.684-.08,4.958.818.1-1.537,2.234-.6,1.957.066-.367,1.8-.145.577.182-.579,0-.322,2.673.256,2.854h-.29c-.381-.269-.293,1.235-.307,1.425,1.024.434-.394,1.118-.31,1.6.788,1.218-.344,1.461.26,2.5-.2,1.078.642.206.861.718-1.08-.38-.245,2.552-.9,2.67.825.323-.28,1.21.264,2.141-1.226.366.438,1.068-.011.891-.733.046.364,1.372-.307,1.425a4.574,4.574,0,0,0,.85,1.609c-.309.2-1.4-.9-.3.534,1.391,1.269-.827-.572-.292.177,0,0,0,.356.286.358.1.908-.889,1.933-.022,1.782.88.5-1.043.615-.3.712.523.524-.253,1.428-.043,3.566-.084.524,1.527.2.572.538-2.007.68,1.478-.066-.006.534-.749.279.713.416-.006.536-.365.431-1.052.817-.306,1.246,1.412,1.106-1.613.041.273,1.428.577.181.577.181.288.18-1.349.45.911,1.612-.606,2.137-.086.176,1.582.846.571.715H10.9c.986.556-.413.81-.593,1.067,1.635-.1.327.709-.015,1.248-.213.73.642,1.9-.027,2.318-.645,0,.5.2.283.536.494.365-.432,2.041.267,1.785.422-.593-.916,2.322-.025,2.139,1.443-.36-1.278.656-.3.712.76.442-.349.24.279.893.021.339-.408-.026-.3.533.976.715-.463,1.51.266,1.963a1.525,1.525,0,0,1,.189.077c-.009.089-.017.176-.025.265a1.434,1.434,0,0,1-.168.015c-.707-.163-.149.165.118.5-.013.154-.031.313-.043.466a1.179,1.179,0,0,1-.378.1l-.58,0c1.16,1.094.671,3.717.811,4.818.033.268.056.576.075.9q.016.743.045,1.481c.032,3.121-.219,7.363.028,9.387,1.431.531-1.763.157.276,1.071.288.18.288.18,0,.357-1.442.426,1.131.433-.3.89-1.329.5,1.578.783-.019,1.605-.4,1.063.037,1.016-.332,3.386-.205,4.008,1.535.471-.339,4.1.546.923.459,2.775.537,3.568-.29,0-.593,1.067-.013,1.07-.16.172-.773.43-.007.535,1.577.058-1.409.431-.586.532.89.344-.317.84.859.9.621.148.117.583-.279.187-.006.18-.15,1.021-.6.878-.772.564,1.217-.186.863.539-2.124,1.352,1.83,1.919.844,2.144-.29,0-.292.177-.295.355.375.14-.478-.037-.285-.358-1.676.077.312.522-.3.89-2.024,1.433,2.142,2.49.54,3.212-.65.529-.856,1.091.279.893.06.326-2.2.528-.876.531.29,0,.577.181.283.536.214.612-.694.772-.3,1.069.862.319-1.309,2.083-.021,1.782.29,0,.58,0,0,.179-.734,1.142,2.531.572,1.724,1.256.063.3-.871.5-.872.174.012-.688-1.249.566-.586.532h0c-.266.477-.85,2.3-.321,2.5.58,0,.578.181.288.18-1.175,1.57-.3,4.329-.362,5.882.606-.168-.639,1.939.269,1.785h0c.714,1.305-1.869.284-.013,1.07,1.111.824.014.313-.581.175.1.365.688,1.131,1.44.72.806-.152-.27.841-.584.354-.86-.726-.8.5.279.893-1.166-.031-.652,1.8.854,1.251-2.04,1.137-1.623,3.576-1.509,4.986-1.105.64.9.193.96-.577.345.614,1.652,1.064.484.94-.479-.561-2.166.307-1.166.53.1.429-1.111.332-.008.713,1.286.2-1.373,1.152-.309,1.6,1.274.208-.435.895.274,1.249h0c-1.658.847,3.3.009.27,1.606l-.583.354c1.77-.027-.845.483.281.715,1.417-.008-1.126.38.281.714,1.256.009-.665.124-.586.532.21,0,1.226.006.575.359-.583-.09.452,1.1-.3,1.069-.579,0-.579,0,0,.178.4.307-.684,1.4.861.718-.01-.924.936,2.216,1.148.9,2.53-.67-1.338-.371.009-.713.58,0,.582-.176.584-.354-.052-.31.935-.114.876-.531.028-.363-1.107.029.006-.535.292-.177.292-.177-.287-.179-1.248.013,1.04-1.1-.567-1.073-1.437-.051,1.566-.45.387-1.192.319-.028,1.154-1.953-.359-1.126,0,.179,0,.179,0-.178-.159-.338-.684-.059-.573-.538.359.028,2.385.135.874-.352,1.052.234.333-.89-.568-.894-1.147-.422,1.472-.321.01-.892.989.192,1.149-3.054.042-3.387-.046,0-.065,0-.09,0,.164-.028.535-.145.385-.539.007-.535.007-.535.3-.533,1.345.447-1.5-.706.3-.89.475-.023.162-2.242-.555-1.964-.58,0-.578-.181-.574-.538a11.252,11.252,0,0,0,1.477-2.312c-.109-.418-1.069.064-.566-1.072-.615-1.632,1.174-.773.022-1.783-.642-.116.443-.331-.282-.714-.664-.292.409-.511.3-.89-.748-1.384.631-3.247-.541-3.212.068.891-1.074-.225.293-.177,1.442-.278-1.508-.441.01-.892,1.284.169-2.583-1.152-.276-1.071.955.035,1.215-.6.3-.533-1.3.2,1.827-1.122.311-1.782-1.469-2.165,1,.232.3-.712.617-1.259-1.585-1.362-.565-1.25,1.673-.419-.848-1.636.316-2.139.951-.435-.253-.4-.569-.894-.471-.329,1.782-.217.593-1.067-.621-.632.541-1.825-.55-2.5-.145-.277.284-.346.427-.359l-.132,0c-.578-.181-.578-.181,0-.357.579,0,.579,0,0-.178-.742-.284.723-.409.007-.535-.578-.181-.861-.717-.282-.714.156-.312-1.52-.641-.283-.536q.873-.264.007-.536c-.334-.216.971-1.734.019-1.6.05-.414.39-1.135-.275-1.25,1.641-.31-1.088-.717.593-1.067l0-.178c-1.133-.054.237-.239.009-.713-.443-.124.387.039.29,0,.292-.177,0-.178-.288-.18-.045-.085.169-.853-.283-.536-.433.127-.861-.413-.578-.181,3.208-.632-.792-1.352.889-1.6.968-.095-1.345-.692-1.73-.721,2.157-.045,1.609,0,1.461-1.063.555.133.27-2.823-.263-2.14-.225.03.081.029,0-.357.175.153.313.069.416-.148a77.443,77.443,0,0,0,39.487,49.2c.1.735,3.315,1.781,3.557,2.085,1.173,1.338,1.606-1.328,2.145.978-.479,1.047,4.158.652,4.7.9-.1.268-.1.272-.737.35.629.219,2.837,1.064,2.572,1.5.043.048.078.079.116.115-.316-.01-.565.032-.467.173-.082.766-.9-1.206-1.068-.3-.054.377-.934.465-1.251.565.124-.418-.047-.948-.713-.3-.383,1.384.069-.929-.533-.3-.181.577-.358.285-.356,0,.554-.994-1.394.537-2.141.263a1.041,1.041,0,0,1-1.256-.5c-.015.99-1.539-.095-1.777.756-.464.24.331-.079.357,0-.362,1.509-.678-.763-1.065-.883-.179,0-.357,0-.18.288.039.6-.464.025-.716.571-.012.668-.763-.106-.884-.012-.022-.256-.107-.975-.182-.87-.021.726-4.142.493-5,.518-.688-.054-4.367.411-5.352.515-1.231.268-.851.679-1.246-.305-.527-.1-.212.85-.539.863-.33.134-.12-.9-.175-.872-.941,1.319-.2-1.792-.89-.3l-.358.285c-.515-1.123-.863,1.675-.714.282-.427-1.368-.406.8-.892-.011-.571-.629-6.219.476-6.6-.08-.025-.929-.66,1.422-.536.283-.008-.942-3.184.369-2.5-.03.27-1.3-1.467.122-1.6-.6-2.921.973-7.692-.5-9.631.462.2-.89-.819-.559-.891-.011-.177-.291-.354-.583-.534-.3-.339.205-.006-1.184-.351-1.163-.134.549-.464.417-.717.86-.061.693-.674-.241-.359.576-.668,1.04.46,3.568,1.416,2.336a66.257,66.257,0,0,0,10.338.7c1.366-.1,1.988-.445,3.744.045.44.64.96-2,.893-.278-.416.448.385.246.534.3-.231-.546,4.713.015,4.281-.527.105-.817,2.235,1.538,1.958.6-1.134-1.885,2,.852,3.036-.833v.29c.746.86,2.022-.518,3.027.617,1.388-.792,2.961.715,3.215-1.121-.22,1.283,3.584.245,3.207.619.257.487,1.2-.01,1.605.019.176.582.71.589.891.011,0-.062,0-.1,0-.126.013.15.08.563.358.42.866-.455,1.12.144,1.784-.268.419.065,1.417-1.3.713.009-.63,1,2.008-1.645.893-.279-.18.288-.359.575,0,.29.48-.409,1.67-.094,1.961.023.1.748.225-1.173.714-.281.012,1.1.277-.12.535.007-.471-.009,3.33,1.046,3.568-.246-.062-1.074.767,2.017.534,0-.375-1.291.274.773.535.007,0-.289.18-.287.179,0,.727,1.557,2.044-.913,1.781.311.041,1.377,1.279-1.211,1.073-.567.447,1.349,1.613-.911,2.137.606.169.085.851-1.582.715-.571v.29c.516-.988.839.415,1.067.593.02-2.007.785.41,1.961.023.521-.643.476.471,1.072-.277.719-.234.387.884.711.3a.419.419,0,0,1,.227-.333c.365.375,2.279.474,1.13.022l-.577-.106c.687.037,1.548.354,1.363-.137-.59-.421,2.32.917,2.139.026-.364-1.443.659,1.278.712.3.445-.76.238.349.893-.279.363-.02-.043.407.534.3.671-.978,1.54.464,1.962-.266.181-.578.359-.575.357,0-.231,1.09,1.287-1.561,1.065.883.994-1.354,3.036-.322,4.284-.818.186-.23.578-.121.888-.13.015.008.029.012.044.02a.751.751,0,0,0,.378.1c.066.145.177.214.294.026a5.676,5.676,0,0,1,1.083-.164v0l.018,0c2.685-.181,6.9.709,8.707-.3.236,1.544,1.365-.939,1.247.305.061,1.446.714-1,1.071-.277.176.582.354.584.355.294.377-1.463.774,1.482,1.07.013.506-1.4,1.813,1.205,1.961.024-.092.095,5.388.691,4.636.056-.176-.581.181-.577.357,0a8.192,8.192,0,0,0,4.635.057c.473-.677,1.1,1.152,1.6.018.646,1.4.482-1.654.89.3.052,1.314.315-.613.713.009.45.227.179-1,.717-.861-.417,1.025.408.139.709,1.168.568.772-.19-1.217.538-.863.587-.1.087.713.711.588.911.337,1.315-2.691,1.432-1.432-.049.552.656.047.356.3,0,.289-.18.287-.358.285.087,1.676.515-.311.89.3.7.921,1.52.436,2.141-.263.45-1.229.85-.432,1.426.018.743.729.459-.046.538-.574.324-.06.529,2.2.531.876,0-.29.181-.577.536-.283.611-.214.772.694,1.069.3.318-.862,2.083,1.309,1.782.021-.133-.331,1.229.672,1.077-1.436-.169-.96.707-.2.712.3-.216.433-.715.625,0,.87.091.444,1.443-.023,2.315.608.722.321.518-1.236.716-.571,1.221,1.023,5.507.61,6.062.074-.332.286,2.2.561,1.6.019,1.3-.714.287,1.869,1.07.013.821-1.111.315-.014.175.581.35-.1,1.141-.688.72-1.44.91-1.147-.513,3.042,1.247.305-.29.239,1.171,1.432,1.427-.273.16.167-.676-1.229.358,0,.409.859,2.571,1.437,3.026.907.515.289.989-.141,1.426.016.718,1.246.065-1.472-.887-.88a1.96,1.96,0,0,0,1.253-1.144c-.181.384-.162,2.916.528,1.746.427-.095.332,1.11.712.008.2-1.286,1.154,1.373,1.6.309.211-1.274.894.435,1.249-.274,0-.088,0-.14,0-.166.008.135.071.913.36.46.139-.6.344-.662.185-1.447-.078-.763,1.471,1.3,1.42,1.467-.031-1.772.485.844.715-.282-.006-1.417.378,1.126.714-.281.009-1.256.124.665.532.586-.025-.21.021-1.226.359-.575-.088.583,1.1-.452,1.069.3.011,1.289.072-.864.713.008.455.805.418-1.123.182-.867-.92.01,2.215-.936.9-1.148-.694-2.533-.354,1.34-.713-.009.036-.342-1.126-2.127-1.064-1.172.177.292-.18.287-.356-.294-.324-.826-.007,1.858-.714.281-.933-.452-.255,1.519-.718.861a1.237,1.237,0,0,1-.175-.582c-.32-1.036-1.132.645-.89-.3-2.353-1.064-.447.685-1.788,1.138-.051-.359.19-2.384-.353-.875v-.289c-.492-1.181-1.072,2.079-1.252.855-.132-1.3-.6.534-.533-.3.287-.81-2.388.06-2.316-.608,0-.289-.714.282-1.073.857,0,.04,0,.054.007.079-.035-.169-.163-.522-.541-.375-1.157.274.084-1.469-.712-.3-.181.578-.714.281-.711-.3.029-.476-2.279-.162-1.964.555,0,.58-.181.578-.538.574a11.252,11.252,0,0,0-2.312-1.477c-.41.109.057,1.069-1.072.566-1.647.616-.762-1.177-1.783-.022,0,.29-.179.288-.356,0-.3-.056-.44.884-.893.279-.128-.644-2.506.318-2.851-.325.066-.316-.161.475-.358.286-.176-.918-.716.489,0,.29-.305,1.608-.643-1.776-.89-.3q-.272.867-.535-.006c.159-1.284-1.145,2.583-1.071.276.037-.955-.6-1.215-.533-.3.182,1.3-1.106-1.827-1.782-.311-2.1,1.192.548-.777-1.6-.309-.245-.053-.332.4-.359.711,0-.042,0-.083,0-.136-.412-1.673-1.639.848-2.138-.316-.44-.951-.4.253-.894.569-.553.375.147-.669-.531-.876-.71.3-1.159.689-2.141.263-.383,0-1.067,1.032-1.249.276-.029-.715-.064,1.338-.357,0,0-.579,0-.579-.178,0-.28.742-.412-.723-.535-.007-.181.578-.717.861-.714.282-.305-.155-.646,1.52-.536.283-.378-1.249-.352.486-.892-.011-.848-.661-1.044-.161-1.605-.019-.442-.534-.79.064-.893.279-.312-1.266-.414-.109-.712-.009-.847-1.371-.4.335-.713-.3a.525.525,0,0,0-.533-.3c-.126.443.041-.387,0-.29-.177-.292-.178,0-.18.288-.047.047-.887-.175-.536.283.13.433-.415.861-.181.578.135-.561-.359-.542-.352-.874-.007-1.29-1.407,1.374-1.248-.015-.1-.968-.691,1.345-.722,1.73.009-2.164-.062-1.577-1.063-1.461-.108-.726-1.575-.048-1.783-.022a.6.6,0,0,0-.139-.263c9.726-2.161,22.047-8.588,28.317-14.957-1.975,1.811,2.268-2.5,1.968-1.3-.075.829.827.053.7-.985.076-.805.893-1.624,1.1-1.4.357.446-1.176.855-.271,1.453a9.448,9.448,0,0,0,1.317-2.043c.657-1.42-1.9.1-.375-1.242,2.041-1.066.364.56,1,1.049.221.227,1.734-2.095,1.833-3.006.157.134,1.318-.247,2-1.439,1.631-1.54.441-1.173.879-2.33l.127-.147c-.251.247-.787.683-.945.2,2.809-1.3,6.944-5.471,7.991-8.506,2.346-2.906,4.065-8.055.16-1.958,2.615-9.236.035,1.819,4.055-5.752.935-.091-.658-2.624.953-2.785,2.231-2.79,1.3-4.335,2.668-7.11.965-.144.543-.752.111-2.408.017-.061.031-.107.045-.152-.131.33-.425.89-.759.538-.4-.031.35-1.253,1.149-2.358-.3,1.082,0,2.829,1.459,3.077-.518-.095-2.322.257-.873.353.518.162-.741,1.954-.024,1.961.769.094-1.209.888-.3,1.069.387-.1.807,1.977.277,1.071-1.243.525,1.253,1.233-.013,1.069-1.128.1.7.682-.3.712-.578-.181-.578-.181-.007.535.338.689.273,2.611-.1,2.878.746.156-.186,1.533.622,1.761-.1-.717.866-.237.288.179-.114.162-1.978.494-.878.71.6-.036.024.46.571.715.65.011-.062.721-.013.87-.24.016-1.381.244-.581.376.442,3,.2,8.971,1.022,11.238-1.375.084.013.553.281.714.08.447-1.118-.095-.874.353,1.321.538-1.821.17-.3.712.545.689-.463.507.567,1.072h0c-1.367.429.8.4-.011.892-.308.214-.132,5.9.213,6.241.095.434-1.11.329-.008.713.288.18.578.181,0,.179-.447-.1-.43,2.319-.028,2.318.551.487-1.456.006-.307,1.425-.405.524.069,2.851.248,3.389-.584.018-.08,4.557-.636,4.633-.068.26,1.268.664.569.894a.547.547,0,0,0-.013,1.07c-.88-.207-.568.821-.011.891-.291.177-.583.354-.3.534.205.339-1.184,0-1.163.351.039.339.745-.08.573.537-.032.2.745.161.573.538-.29,0,0,.178.29,0,.715-.035.388.27,1.157.184,1.469.136,1.87-1.424.893-1.957.99-.538.242-3.579,1.209-4.1a36.685,36.685,0,0,1-.174-9.629c.64-.443-2-.958-.278-.893.448.417.246-.386.3-.534-.546.231.015-4.713-.527-4.281-.817-.105,1.538-2.235.6-1.958-1.885,1.133.852-2-.833-3.036h.29c.978-.248-.578-2.2.32-2.494.34-.185.218-4-.246-3.568-1.261-.089.341-.049.017-1.426.011-.891.015-1.248.307-1.425-.009.021-.927-.556-.283-.536.487-.255-.011-1.2.019-1.6.582-.176.589-.71.011-.891-.064,0-.1,0-.129,0,.146-.011.568-.075.423-.357-.437-.583-.081-.936.016-1.248-.354-.455-.432-1.061-.853-1.43.308-.176,1.4.884.3-.534-1.391-1.255.828.562.292-.177-.828-.777.7-2.2-.264-2.141-.88-.485,1.043-.621.3-.711-.521-.575.251-1.391.043-3.566.083-.513-1.526-.2-.572-.538.871-.174.875-.531,0-.356-1.291.377.772-.275.006-.535-.571-.173,1.478-.9.307-1.425-1.41-1.128,1.613-.026-.272-1.428-1.068-.3.026-.051,0-.357.691-.591-1.086-1.46.314-1.96.086-.169-1.582-.851-.571-.715.875.176-.846-.636.591-.889,1.051-.208-1.556-.137-.282-.715s-.138-2.341.616-3.028c.645-.023-.5-.186-.283-.536.125-.535-.311-.217-.283-.537.065-.3.67-1.664.015-1.248,0,.179-.292.177,0-.178.037-.264.7-2.016.024-1.962-.582.176-.58,0,0-.178.91-.811.157.017.018-1.426-.02-.365.408.045.3-.534-.977-.668.464-1.543-.266-1.962-.024-.007-.032-.014-.054-.022.011-.049-.054-.146-.187-.313a1.362,1.362,0,0,1,.245-.022c1.207.238-1.278-.844.3-1.068l.58,0c-1.057-2.083-1.064-4.83-.94-7.649a6.981,6.981,0,0,0,.065-1.36,29.764,29.764,0,0,0-.1-6.152c-.857-.608.774-.634.018-1.426-.578-.181-.576-.36,0-.357,1.446-.061-1-.715-.277-1.071,1.442-.429-1.131-.431.3-.89,1.1-.807-1.292-.165.024-1.961.182.012.507-.747.006-.535.1.132.69-5.416.056-4.636-.581.176-.577-.181,0-.357a8.192,8.192,0,0,0,.057-4.635c-.678-.49,1.152-1.09.018-1.6,1.4-.648-1.654-.48.3-.89,1.314-.052-.613-.314.009-.713.227-.458-1-.173-.861-.717C169.853,60.772,168.967,59.961,170,59.654ZM166.3,29.5a.681.681,0,0,1,.573.538C166.835,30.454,166.121,29.8,166.3,29.5Zm-.225,18.543c0-.179.288.179.286.358C166.339,48.538,165.658,48.079,166.079,48.047Zm-1.767-36.193c0-.29,0-.58.181-.577C165.231,10.1,164.106,13.365,164.312,11.854ZM139.353,11.1c0,.06,0,.058,0,0Zm.177.161c.405-.059.075.945-.182.867C139.169,12.129,139.172,11.549,139.53,11.264Zm-5.889,1.087c.073-.152-.228,1.051-.359.576C133.182,12.7,133.652,11.945,133.641,12.351Zm-7.313.491a1.3,1.3,0,0,1-.176-.582A.3.3,0,0,1,126.328,12.842Zm-1.606.271c-.069.086-.338-.182-.355-.295C124.6,12.844,124.759,12.715,124.722,13.113Zm-1.783-.022c-.069.086-.338-.182-.355-.294C122.818,12.822,122.976,12.694,122.939,13.091Zm-1.6-.309c.342-.644.537.378.177.292C121.156,13.069,121.156,13.069,121.336,12.782Zm-1.061-2.042c.031.529-.149.771-.358.285C119.937,10.913,120.208,10.651,120.275,10.74Zm-2.142.554c.014.312-.243.331-.356-.005C117.832,10.845,118.194,10.9,118.133,11.294ZM17.92,12.4c-.088.2-.421.417-.535-.007C17.371,12.016,18.024,11.933,17.92,12.4Zm1.96.313c.114.867-.279.611-.357,0-.432-.776.457-.759.537-.283C19.878,12.439,19.677,12.122,19.88,12.709ZM29.5,13.7a.681.681,0,0,1,.538-.573C30.454,13.165,29.8,13.879,29.5,13.7Zm8.744-1.633c0-.29.18-.288.358-.286C38.617,11.873,38.506,12.753,38.248,12.063Zm.529,1.455.359-.575C39.717,11.049,39.708,13.876,38.777,13.518Zm4.284-1.107c-.178,0,0-.29.182-.867C44.023,10.805,43.089,12.415,43.061,12.411Zm1.422.887c.034-.419.172-.644.36-.575C44.847,13.137,44.828,13.364,44.483,13.3Zm3.564.623c-.179,0,.179-.288.358-.286C48.538,13.661,48.079,14.342,48.047,13.921Zm1.433-1.432c0-.29,0-.58.181-.577C49.956,11.39,50.106,12.723,49.48,12.489Zm1.607-.56c.234.025.392-.1.355.294C51.373,12.31,51.105,12.041,51.087,11.929Zm3.381,1.49c-.178,0-.355-.294-.355-.294C54.2,12.381,55.027,13.162,54.468,13.419Zm3.032-.253c-.423-.485.469-.31.357,0C57.856,13.46,57.679,13.168,57.5,13.166Zm3.211-.251a1.3,1.3,0,0,1-.176-.582C60.505,11.571,61.209,13.026,60.711,12.915Zm1.071-.277c.02-.112.291-.374.358-.285C62.171,12.882,61.991,13.124,61.782,12.638ZM13.921,131.953c0,.179-.288-.179-.286-.358C13.661,131.462,14.342,131.921,13.921,131.953Zm1.767,36.193c0,.29,0,.579-.181.577C14.769,169.9,15.894,166.635,15.688,168.146Zm24.959.875c0-.216,0-.255,0,0Zm-.177-.284c-.405.058-.075-.946.182-.868C40.831,167.871,40.828,168.451,40.47,168.737Zm5.889-1.088c-.073.153.228-1.051.359-.576C46.818,167.3,46.348,168.055,46.359,167.649Zm7.313-.491a1.293,1.293,0,0,1,.175.582A.3.3,0,0,1,53.672,167.158Zm1.606-.271c.069-.086.338.182.355.295C55.4,167.156,55.241,167.285,55.278,166.887Zm1.783.022c.069-.086.338.182.355.294C57.182,167.178,57.024,167.306,57.061,166.909Zm1.6.309c-.342.644-.537-.379-.177-.292C58.844,166.931,58.844,166.931,58.664,167.218Zm1.061,2.042c-.031-.529.149-.771.358-.285C60.063,169.087,59.792,169.349,59.725,169.26Zm2.142-.554c-.014-.312.243-.331.356.005C62.168,169.155,61.806,169.1,61.867,168.706Zm100.213-1.1c.088-.2.421-.417.535.007C162.629,167.984,161.976,168.067,162.08,167.6Zm-1.96-.314c-.114-.866.279-.61.357,0,.433.776-.457.759-.537.283C160.122,167.561,160.323,167.878,160.12,167.29ZM150.5,166.3a.682.682,0,0,1-.537.573C149.546,166.835,150.2,166.121,150.5,166.3Zm-8.744,1.633c0,.29-.18.288-.358.286C141.383,168.127,141.494,167.247,141.752,167.937Zm-.529-1.455-.359.575C140.282,168.951,140.292,166.123,141.223,166.482Zm-4.284,1.107c.178,0,0,.29-.182.867C135.977,169.2,136.911,167.585,136.939,167.589Zm-1.422-.887c-.034.419-.172.644-.36.575C135.153,166.863,135.172,166.636,135.517,166.7Zm-3.564-.623c.179,0-.179.288-.358.286C131.462,166.339,131.921,165.658,131.953,166.079Zm-1.433,1.432c0,.29,0,.58-.181.577C130.044,168.609,129.894,167.277,130.52,167.511Zm-1.607.56c-.234-.025-.392.1-.355-.294C128.627,167.691,128.9,167.959,128.913,168.071Zm-3.381-1.49c.178,0,.355.294.355.294C125.8,167.619,124.973,166.838,125.532,166.581Zm-3.032.253c.423.485-.469.31-.357,0C122.144,166.54,122.321,166.832,122.5,166.834Zm-3.211.251a1.3,1.3,0,0,1,.176.582C119.5,168.429,118.791,166.974,119.289,167.085Zm-1.071.277c-.02.112-.291.374-.358.285C117.829,167.118,118.009,166.876,118.218,167.362ZM168.9,139.353Zm-1.739-13.025a1.3,1.3,0,0,1,.582-.176A.3.3,0,0,1,167.158,126.328Zm.108-23.443a.32.32,0,0,1,.171.137C167.281,102.988,167.223,102.953,167.266,102.885Zm.245-53.405c.29,0,.58,0,.577.181C168.609,49.956,167.277,50.106,167.511,49.48Zm.945-6.237c.739.78-.871-.154-.867-.182C167.591,42.883,167.879,43.062,168.456,43.243Zm-.519-5c.29,0,.288.18.286.358C168.127,38.617,167.247,38.506,167.937,38.248Zm-.326-20.863c.373-.014.456.639-.007.535C167.407,17.832,167.187,17.5,167.611,17.385Zm-.316,2.138c.775-.432.759.457.283.537-.018-.182.3-.383-.287-.18C166.424,19.994,166.681,19.6,167.3,19.523Zm-.813,19.254.575.359C168.951,39.717,166.123,39.708,166.482,38.777Zm.795,6.066c-.414,0-.641-.015-.575-.36C167.121,44.517,167.346,44.655,167.277,44.843Zm-.7,9.625c0-.178.294-.355.294-.355C167.619,54.2,166.838,55.027,166.581,54.468Zm.249,3.389c-.29,0,0-.178,0-.357C167.319,57.077,167.144,57.969,166.83,57.857Zm.229,4.994c.29,0,0,.178,0,0Zm.588-.711c-.529.031-.771-.149-.285-.358C167.474,61.8,167.736,62.073,167.647,62.14Zm-.562-1.429a1.3,1.3,0,0,1,.582-.176C168.429,60.505,166.974,61.209,167.085,60.711Zm.692-9.269c-.087-.069.182-.337.294-.355C168.046,51.321,168.174,51.479,167.777,51.442ZM166.7,68.376c.191-.026.011-.013,0,.224-.016-.059-.034-.117-.049-.176A.319.319,0,0,0,166.7,68.376ZM126.618,20.3c1.178.537-.214.958-.928.5C125.18,20.534,125.445,20.019,126.618,20.3ZM112.6,12.676a2.517,2.517,0,0,0,.013.687l-.261-.04A1.714,1.714,0,0,0,112.6,12.676Zm-5.44,2.192c.017-.559,1.483-.532,1.255-.3C108.609,14.58,107.293,15.417,107.159,14.868ZM85.573,12.831a.47.47,0,0,1-.222.113C85.462,12.843,85.565,12.8,85.573,12.831ZM69.331,15.6c.478-.435,1.032-.59,1.1-.308C70.749,15.769,68.042,16.3,69.331,15.6Zm5.05-.921a2.108,2.108,0,0,1-1.168-.032C73.544,14.62,74.463,14.2,74.381,14.681Zm4.69-1,0,.042c.005.011.015.014.021.024l-.035-.009A.578.578,0,0,0,79.071,13.676Zm1.977-2.833a1.6,1.6,0,0,1-.032.389c-.1.025-.206.045-.309.071C80.756,10.965,80.88,10.782,81.048,10.843ZM68.376,13.3c-.03-.225-.029.081.357,0a.3.3,0,0,0-.07.137l-.188.045C68.489,13.427,68.461,13.364,68.376,13.3Zm-2.93,1.339c.342.588-.5.852-1.023.647A2.254,2.254,0,0,1,65.446,14.637Zm-6.379,2.976c.232.25-.714.646-1.063.475C57.982,17.594,59.09,17.18,59.067,17.613ZM23.789,49.819c.578.17.2.891-.081,1.291C23.223,50.767,23.738,49.813,23.789,49.819ZM14.883,72.034c.541-2.366.866-.379.432.694C14.9,73.213,14.752,72.591,14.883,72.034ZM12.26,53.847a.3.3,0,0,1,.582-.175A1.293,1.293,0,0,1,12.26,53.847Zm.814,4.64c0,.357,0,.357-.292.177C12.138,58.322,13.161,58.127,13.074,58.487Zm1,8.717c-.085.31-.171.612-.254.931.011.02.016.034.025.053a1.684,1.684,0,0,0-1.172-.787A3.149,3.149,0,0,0,14.077,67.2Zm-.986-10.143c.086.069-.182.338-.294.355C12.822,57.182,12.693,57.024,13.091,57.061Zm-.273-1.428c.026-.234-.1-.392.295-.355C13.2,55.347,12.931,55.616,12.818,55.633Zm.109-8.915c-.225.1-.982-.37-.576-.359C12.2,46.286,13.4,46.587,12.927,46.718Zm-1.073-31.03c-.29,0-.58,0-.577-.181C10.1,14.769,13.365,15.894,11.854,15.688Zm.277,24.964c0,.179-.582.176-.867-.182C11.205,40.065,12.209,40.4,12.131,40.652ZM10.74,59.725c.529-.031.771.149.285.358C10.912,60.063,10.652,59.792,10.74,59.725Zm.549,2.5c-.444-.055-.386-.417.005-.356C11.606,61.853,11.625,62.11,11.289,62.223Zm1.2,68.3c-.29,0-.58,0-.577-.181C11.39,130.044,12.723,129.894,12.489,130.52Zm-.945,6.237c-.739-.78.871.154.867.182C12.409,137.117,12.121,136.938,11.544,136.757Zm.519,5c-.29,0-.288-.18-.286-.358C11.873,141.383,12.753,141.494,12.063,141.752Zm.326,20.863c-.373.014-.456-.639.007-.535C12.593,162.168,12.813,162.5,12.389,162.615Zm.316-2.138c-.776.432-.759-.457-.283-.537.017.182-.3.383.287.18C13.576,160.006,13.32,160.4,12.705,160.477ZM13.7,150.5a.682.682,0,0,1-.573-.537C13.165,149.545,13.879,150.2,13.7,150.5Zm-.178-9.273-.575-.359C11.049,140.282,13.876,140.292,13.518,141.223Zm-.795-6.066c.414,0,.641.015.575.36C12.879,135.483,12.654,135.345,12.723,135.157Zm.7-9.625c0,.178-.294.355-.294.355C12.381,125.8,13.162,124.973,13.419,125.532Zm-.249-3.389c.29,0,0,.178,0,.357C12.681,122.923,12.856,122.031,13.17,122.143Zm-.817-4.283c.529-.031.771.149.285.358C12.525,118.2,12.265,117.927,12.353,117.86Zm.562,1.429a1.3,1.3,0,0,1-.582.176C11.571,119.5,13.026,118.791,12.915,119.289Zm-.692,9.269c.087.069-.182.337-.294.355C11.954,128.679,11.826,128.521,12.223,128.558Zm-1.38-29.606c.262,0,.437.014.523.106.01.083.018.167.028.25C10.993,99.27,10.776,99.136,10.843,98.952Zm5.278,13.125a2.148,2.148,0,0,1-.588-1.024C16.138,110.739,16.353,111.567,16.121,112.077Zm.12,6.646c.494-.364.827.409.965.881C16.634,119.778,16.2,118.75,16.241,118.723Zm6.218,8.6c-.718-.948.595-.609.767-.41C23.505,127.405,22.715,127.19,22.459,127.325Zm7.5,10.737c.439-.527.947.159.928.715C30.658,138.806,29.835,138.039,29.955,138.062ZM58.682,161.05c.144-.671.921-.291,1.162.212A2.146,2.146,0,0,1,58.682,161.05Zm1.117-1.083c-.12.263-.513-.233,0,0Zm3.339,2.3s.426.48.326.744C63.341,163.736,61.668,161.613,63.138,162.266Zm4.263,5.058a4.353,4.353,0,0,0-.172-1.451c-.378.064.1,1.3-.716.571a1.225,1.225,0,0,0-.421-.132c.306-.364.531-1.294,2.045-.112A1.517,1.517,0,0,0,67.4,167.324Zm4.523-2.653c.072-.281.552.129,1.107.259C74.257,165.643,71.766,165.054,71.924,164.671Zm29.835.791c-.223-.388,1.193-.74,1.068-.481C103.382,164.884,102.317,165.364,101.759,165.462Zm-2.807,3.7a.815.815,0,0,1,.092-.509l.26-.017C99.263,169.014,99.131,169.222,98.952,169.157Zm7.342-2.228c.066-.189.124-.366.177-.527a.55.55,0,0,1,.16.239C106.613,166.747,106.38,166.972,106.294,166.929Zm1.407-.275c-.343,1.031-.218-.387-1.067-.592-.011-.012-.019-.018-.03-.029.288-.707.667-.918,2.2-.2a2.7,2.7,0,0,1-.348.288C107.876,166.218,107.5,166.4,107.7,166.654Zm3.922.048c.013.22.05-.059-.356,0,.142-.162.085-.293-.1-.394.145-.03.295-.067.442-.1A.757.757,0,0,0,111.623,166.7Zm1.391-2.911c-.321-.511.434-.8.912-.915C114.063,163.452,113.048,163.829,113.014,163.791Zm5.259-.607c-2.029,1.564.136-1,.234-1.024C119.041,161.951,118.613,162.429,118.273,163.184Zm10.434-6.235c-.708-.3,1.206-1.861,1.524-1.907C130,155.077,128.861,158.243,128.707,156.949Zm2.906-.725c-.378-.41.338-.981.823-.866C132.59,155.6,132.1,155.914,131.613,156.224Zm19.263-20.234c.36-.435.674-.905.674-.905C152.1,135.45,149.909,138.584,150.876,135.99Zm13.429-30.683c-.129.546-.411.482-.129.546-.3.122-1.861,4.96-.1,2.9-.1.488-.207,1.2,0,1.151,1,2.415-2.543-.607-1.181,2.006-1.946-.765.535,4.08-.7,3.943-1.227.056-2.5,6.139-4.37,7.922-.513.823-1.393,5.581-3.036,6.022-.185-.78-.183-.783-.305.472-.264,2.466-1.556.858-2.657,2.932.262.794-3.083,3.7-2.007,4.117.771.195-1.01,2.572-1.581,2.364-3.7,2.111-3.944,3.339-7.088,6.463-2.81,2.773-3.411,2.041-5.928,5.2-.653,1.174-12.963,7.084-10.428,6.732,1.5-.779-.575,1.463-1.133.249-1.329-.73-.92,2.077-2.556,1.183-.23-.532-.227-.533-.514.23-1.429,3.31-2.147.718-3.85.934-1.254.722,1.311,1.442-1.392,1.119-1.519-1.112-8.4,3.553-6.533,1.668,2.348-1.561-2.565.611-2.791.335-1.168-.07-.883,1.958-.986.8-1.184-.874-3.719.345-5,.793-1.66.244-2.418-.516-3.732.216-.382-.12-.921.242-1.275.666-.269-.014-.382-.19-.031-.4-.985-1.381-2.876.242-4.565.081a12.779,12.779,0,0,0-3.94-.092c0-.015-.012-.024-.014-.039,0,.015-.006.026-.008.04a11.479,11.479,0,0,1-2.673.029.655.655,0,0,0-.182-.06,1.82,1.82,0,0,1-.411-.139,2.442,2.442,0,0,1-.233.224.5.5,0,0,1-.06-.137c-.177-.292-.175-.582-.356,0a.77.77,0,0,1-.206.1c-.191-.372-.23-1.03-.822-.354-.594.215-.6.215-1.115-.145-.417-.6-2.4,1.161-2.831-.12-2.536.683-1.623-1.254-3.389-.344-3.05-1.2-7.185-1.525-9.688-3.068-.534-.184-.534-.184-.637.087.6.875-1.885-.469-1.471-.888-.893.083-1.618-.51-2.606-1.071l.119-.264c-.9-.607-.326.422-1.657-.438s-.114.747-1.411.311c-.728.231.79-.34-.252-.766-.767-.777-.371-1.415-2.373-1.553-2.655-.226-1.181-2.385-4.343-.476,2.059-2.152-1.634-2.132-2.092-3.059.1-.8-4.382-3.08-4.572-3.32-.219-1.126-1.268-.961-1.069-.478l-.89-.7c-1.421-3.829-8.909-7.091-9.924-10.806-1.491-3.524-1.1.022-2.178-3.28a22.646,22.646,0,0,1-4.867-7.519c.976-.014-2.451-2.348-2.889-2.947,1.157-.23.519-1.215.011-1.262-.31-1.966-2.778-6.936-3.96-9.948-.683-2.546-.67-7.79-3.079-8.581a3.726,3.726,0,0,1-.246-.682.982.982,0,0,1,.107-.046,1.269,1.269,0,0,1,.04.166c1.081,2.325.4-8.145-.371-6.817l0-.053c.087-.062.091-.1.009-.162.011-.184.019-.366.03-.549.372-.207.912-.392.411-.618a2.38,2.38,0,0,1-.339-.91c.071-1.9.086-3.764.092-5.605a1.749,1.749,0,0,0,0-.391q0-1.362.017-2.7a.446.446,0,0,1,.055-.02.144.144,0,0,0-.054-.08c.01-.862.025-1.72.052-2.572a.325.325,0,0,0,.013-.321c.007-.2.015-.395.024-.592l.008,0c.292-.176.581-.175.006-.356a38.031,38.031,0,0,1,2.032-11.341c1.507-2.2,1.191-5.422,2.837-7.927a.843.843,0,0,0-.066-1.271c1.334-.185-.358-1.316.572-1.563C22.728,53.931,26.4,47,29.6,43.493c-.1-.8-.1-.807.349-.442.228.179,1.5-.954.924-.7.088-2.071,3.473-3.357,4.068-5.439,1.726-1.408,8.524-5.375,9.3-9.234.243.982,2.163,1.1,1.428.056.566-1.081,4.808-2.332,5.211-3.389-.048-.886,3.256-.453,3.086-1.411.014-.778,4.919-3.165,2.891-1.79,1.562.671,2.792-2.294,3.094-1.387.109.262.732.309,1.152-.156,1.164-.376,7.855-3.629,11.249-3.57a.738.738,0,0,0,.053.151c-.006-.452.577-.59,2.087-.932a5.749,5.749,0,0,0,3.294-.877c-1.576.367-1.321-.037-.653-.3.231.123.393.3.691.206a1.625,1.625,0,0,0,.356-.385.774.774,0,0,1,.764.6c-.136.606,2.634.513,1.711.081-.031-.289-.031-.289.529-.358l.028-.008a.706.706,0,0,0,.353-.1c.308-.092.626-.188.944-.276.127.2.151.187.31-.069.006-.008.012-.011.018-.018l.233-.058c.3.2.521,1.324.816.669.478-.4,1.429-.229,1.267-.787a1.693,1.693,0,0,1,1.111.822,28.972,28.972,0,0,1,3.77-.482c.3.454,1.452.054,2.353-.09.256,0,.506-.016.765-.013a.432.432,0,0,1,.363.377c.134-.022.162-.185.176-.358q1.151.026,2.325.105c.159.624.659.112.913.076l.034,0c.071,0,.119.055.119.217.177.292.175.582.356,0a.851.851,0,0,1,.4-.148c9.33.939,19.311,4.095,25.413,6.443,2.035-.357-.176,1.457,1.891,1.3,1,.285-.756,1.823,1.225,1.291,1.962.5,1.349,1.288,3.228,1.2,3.15,1.8,15.908,11.827,19.426,16.431,5.724,8.546,11.8,17.114,14.588,28.57a77.145,77.145,0,0,0,2,7.679,3.757,3.757,0,0,0,.482,3.37c-.9-.278-.441,2.085.2,2.732-.252.282-1.281.5-.647.788.334.4.271,1.122.561,1.263-.041.264-.177.424-.523.338-.789-.219-.659,1.391.055,1.121-.259.469.072,1.042.347,1.655-.142.648-.032,1.568.356,1.689-.835-.058-.554.984-.349,1.957-.139.261-.068.391.088.466.1.591.082,1.076-.362,1.14.033.2.366.168.592.2-.026.163-.043.337-.058.519,0,.02,0,.031,0,.05a.563.563,0,0,0-.181.439c-.3.238-.838.209-.814,1.123-.006.936,1.077.16-.134,1.672-.339.523-.354.52.226.59,1.032.61-.458,1.5-.365,2.782-.073.556.213.6.5.652,1.4.505-1.28.972-.969,2.113C164.052,104.6,165.045,105.69,164.305,105.307Zm1.042,3.168c.887-1.384-2.086-.1.111-1.743C166.648,105.517,165.737,108.569,165.347,108.475Zm1.871,12.861c.644.342-.378.537-.292.177C166.931,121.156,166.931,121.156,167.218,121.336Zm-.309,1.6c-.087-.069.182-.338.294-.355C167.178,122.818,167.306,122.976,166.909,122.939Zm.273,1.428c-.026.234.1.392-.295.355C166.8,124.653,167.07,124.384,167.182,124.367Zm-.109,8.915c.224-.1.982.37.576.359C167.8,133.713,166.6,133.413,167.073,133.282Zm1.073,31.03c.29,0,.579,0,.577.181C169.9,165.231,166.635,164.106,168.146,164.312Zm-.277-24.964c0-.179.582-.176.868.182C168.8,139.935,167.791,139.6,167.869,139.348Zm1.391-19.073c-.529.031-.771-.149-.285-.357C169.087,119.937,169.349,120.208,169.26,120.275Zm-.549-2.5c.444.055.386.417-.005.356C168.394,118.147,168.375,117.89,168.711,117.777Zm.445-36.729a1.212,1.212,0,0,1-.467-.049c-.006-.1-.011-.2-.017-.3C169.027,80.749,169.22,80.875,169.156,81.048Z" style="fill: #fff"></path><path d="M169.28,46.992c.595,0,.087,0-.17,0Z" style="fill: #fff"></path><path d="M168.99,46.99h0Z" style="fill: #fff"></path><path d="M169.023,20.423c.4.037.269-.122.294-.355C169.2,20.085,168.936,20.354,169.023,20.423Z" style="fill: #fff"></path><path d="M166,30.572c-.468-.072-.309.832-.01.892C166.459,31.408,166.563,30.469,166,30.572Z" style="fill: #fff"></path><path d="M170.617,56.27c-.119.456.3.459.287.179C170.909,56.093,170.909,56.093,170.617,56.27Z" style="fill: #fff"></path><path d="M168.917,53.052a1.3,1.3,0,0,0-.582.176A.3.3,0,0,0,168.917,53.052Z" style="fill: #fff"></path><path d="M122.246,89.754a.655.655,0,0,0-.025.225A.167.167,0,0,0,122.246,89.754Z" style="fill: #fff"></path><path d="M165.386,86.735c-2.843-.147-7.358-1.2-10.875-.422.419-.317-2.928-.414-2.5-.03-.928.095-2.118-.68-2.71.284.308-1.1-4.689-.242-4.959-.088-.1.818-2.234-1.537-1.957-.6,1.133,1.885-2-.853-3.036.832v-.29c-.748-.859-2.021.519-3.027-.617-1.39.793-2.959-.715-3.215,1.121.22-1.283-3.585-.244-3.207-.619-.256-.487-1.2.011-1.6-.019-.176-.582-.71-.588-.891-.011-.032-.237-2.342-.438-3.034.543-.178-.306.885-1.4-.534-.3-1.256,1.391.563-.829-.177-.292-.381.417-1.189.123-1.6-.02-.18.288-.18.288-.357,0-.095-.747-.224,1.173-.714.281-.279-.442-1.255-.128-3.743-.336-.514-.082-.2,1.527-.538.574-.672-2.007.061,1.477-.534-.007-.274-.748-.42.713-.536-.006-.416-.831-.224.088-.71-.588-.3-.555-1.4,1.69-1.071.276-.039-1.377-1.28,1.212-1.073.567-.447-1.348-1.614.911-2.137-.6,0,0,0,0-.358.285-.356,1.271-.365.246-.359,0-.513.976-.837-.42-1.064-.6.108,1.635-.714.326-1.248-.015-.743-.214-1.895.641-2.318-.028-.022-.645-.186.5-.536.283-.327.5-2.068-.431-1.785.268.59.422-2.32-.917-2.139-.026.364,1.443-.659-1.277-.712-.3-.445.759-.238-.349-.893.279-.364.019.044-.408-.534-.3-.669.977-1.542-.465-1.962.265-.181.578-.359.576-.357,0,.24-1.208-.845,1.279-1.068-.3,0-.289,0-.579,0-.579-4.044,2.034-10.417.188-15.161.975-.587.857-.649-.773-1.426-.017-.181.577-.36.575-.357,0-.079-1.445-.7,1-1.071.278-.415-1.443-.441,1.131-.89-.3-.462-1.329-.81,1.578-1.605-.02-.178,0-.355-.294-.356,0-.008-.182-.733-.508-.535-.007.046-.094-5.355-.691-4.636-.056.176.582-.181.577-.357,0-1.605-.828-3.7.014-5.17-.063-.358-.82-1.07.2-1.247-.3-.57-.561-.247,1.855-.713-.009-.052-1.313-.314.613-.713-.008-.458-.228-.173,1-.717.86.409-1.025-.4-.138-.709-1.168-.565-.772.189,1.217-.538.863-.724-.96-1.5-.464-1.966.846-.038,1.233-.019-.5-.533-.3,0,.29-.178,0,0,0,.034-.567.448.044.359-.575-.371-1.341-.492.768-.891-.011-1.138-1.359-1.7.2-2.678.837-.558.465-.492-.632-1.245-.885-.3-.535-.143.943-.182.867-.33.06-.525-2.2-.531-.876-.05,1.083-1.445-.377-1.6-.019-.32.861-2.083-1.309-1.782-.022,0,.29,0,.58-.179,0-1.279-.673-.606,3.506-1.61,1.14.182-.433.74-.625,0-.87-.27-.477-.342-.108-.358.084,0-.028,0-.042,0-.088-.494-.266-2.289-.85-2.494-.321,0,.581-.181.578-.18.289-2.3-1.41-5.243.053-7.13-.377-1.512-.048.217.433-.537.283-1.312.715-.28-1.869-1.07-.013-.828,1.111-.31.014-.175-.581-.145-.187-.463.6-.358.285-.8.04-.086,1.489-.541,1.443-.7-.613.07-.741.006-1.449,0-.279-.822.239-1.045.793.042-.335-1.194-1.229-1.456.336-.342-.165.807,1.228-.358,0-.439-.859-2.55-1.438-3.026-.907-.467-.29-1.024.141-1.426-.017-.647-1.1-.19.9.577.96-.615.345-1.063,1.652-.94.485.56-.48-.307-2.166-.53-1.166-.428.095-.332-1.111-.713-.009-.2,1.286-1.153-1.373-1.6-.309,0,.58-.537.573-.714.281-.383-.767-.625.6-.535-.006-.846-1.659-.01,3.3-1.606.27-.617-1.18-.266-.188-.357,0-.483.177-.342-1.228-.712-.3,0,1.417-.377-1.126-.714.281-.009,1.256-.125-.664-.532-.586,0,.212,0,1.226-.36.575.092-.583-1.1.452-1.068-.3-.012-1.29-.072.864-.713-.009-.452-.805-.419,1.124-.182.867.924-.01-2.218.937-.9,1.149.693,2.529.354-1.339.713.008-.036.342,1.126,2.128,1.064,1.173-.177-.292.18-.288.356.294.324.825.007-1.859.714-.282.933.452.255-1.518.718-.86a1.237,1.237,0,0,1,.175.582c.32,1.035,1.133-.645.89.3,2.353,1.064.447-.685,1.788-1.138.051.36-.19,2.384.353.875v.289c.492,1.181,1.072-2.079,1.252-.854.132,1.3.6-.534.533.3-.287.81,2.388-.059,2.316.608,0,.29.714-.281,1.073-.857,0-.039,0-.054-.007-.078.035.168.163.521.541.375,1.157-.275-.084,1.468.712.3.181-.577.714-.281.711.3-.029.475,2.279.161,1.964-.556,0-.58.181-.578.538-.573a11.249,11.249,0,0,0,2.312,1.476c.41-.108-.057-1.069,1.072-.566,1.647-.616.762,1.177,1.783.022,0-.29.179-.288.356,0,.295.056.44-.884.893-.279.128.645,2.506-.318,2.851.325-.066.317.161-.475.358-.286.176.918.716-.488,0-.29.3-1.607.643,1.776.89.3q.271-.865.535.007c-.159,1.283,1.145-2.584,1.071-.277-.037.955.6,1.215.533.3-.182-1.3,1.106,1.827,1.782.311,2.1-1.192-.548.777,1.6.309.245.054.332-.4.359-.711,0,.042,0,.083,0,.136.412,1.674,1.639-.848,2.138.316.44.951.4-.253.894-.568.553-.376-.147.668.531.875.71-.3,1.159-.689,2.141-.263.383,0,1.067-1.031,1.249-.275.029.714.064-1.338.357,0,0,.58,0,.58.178,0,.28-.742.412.723.535.007.181-.578.717-.861.714-.281.3.155.646-1.521.536-.284.378,1.25.352-.486.892.011.848.662,1.044.161,1.6.019.442.534.79-.064.893-.278.312,1.265.414.108.712.008.847,1.37.4-.334.713.3a.524.524,0,0,0,.533.3c.126-.443-.041.388,0,.29.177.292.178,0,.18-.288.047-.047.887.175.536-.283-.13-.432.415-.861.181-.577-.135.56.359.541.352.873.007,1.29,1.406-1.374,1.248.015.1.968.691-1.344.722-1.73.045,2.157,0,1.609,1.063,1.462-.133.555,2.823.27,2.14-.263-.03-.226-.029.08.357,0-.762.871,4.195.849,3.566.043.181-.577.359-.575.357,0,2.025,2.14,1.076-.294,1.6.6.226.979,1.24-.8,1.6.31,1.315-.751,1.339.213,1.961.024.653-.472.928-1.937.893-.28.225.089.32-.115.356-.327l0,.042c.41.84,1.862-.178,1.605.019.587,1.277,1.453-.457,1.783.022.177.292.177.292.356.005.433-.591.7,1.42,1.067.592.5-.417,1.525-.2,1.252-.854-.088-.587.7-.853.36-.575-.894.859,2.158,1.263,2.135.895l0-.36v.07c.175.582,2.136.606,2.317.028-.105,1.508,3.382-.625,3.563.623.389-.065-.1-1.3.717-.571.483.661,1.615-.406,1.781.311.212.868,1.07-.407,1.069.3.177.292.175.582.356.005.652-.5,1.871.342,1.607-.56.212,1.27.344-.755.536.006.176.292.355.294.355.294,1.171-.247,4.507-.54,4.815-.231.279-.154.351.329.363.444,0-.028,0-.075-.008-.15.18-.288.18-.288.358-.285.238.892.633-1.323.535.006.346.861.371,0,.893-.279.65.89,1.57-.153,1.783.021.229,1,3.576,1.244,3.926-.821-.106.519.265,2.322.353.874.166-.519,1.951.741,1.961.023.111-.768.875,1.209,1.069.3-.072-.387,1.957-.807,1.071-.277.536,1.241,1.225-1.251,1.069.013.1,1.128.681-.7.712.3-.181.577-.181.577.535.006.7-.34,2.613-.272,2.877.1.154-.748,1.536.186,1.762-.623.464-.24-.331.079-.357,0,.265-1.866,1.082,2,1.246.595.089-.3.75-.631,1.073-.857.562.694.568-.228.532.586.025.57.325.757.356.294,2.1-.44,5.221-.1,7.491-.489,2.112.208,3.007-.593,3.747-.534.094,1.373.546-.011.714-.281.329-.133.121.9.175.872.417-.157.519-.735.533.3-.067,1.14.5-.336.715-.281.175.582.534.006.714-.281-.029-1.434,0,1.583.535.006.924.242,1.59.095,3.923.047,2.452-.215,2.924.264,3.389-.247.372-.759-.133.6,1.246.3.786.273,1.814-.818,1.428-.272-.269,1.3,1.466-.123,1.6.6,2.921-.972,7.692.5,9.631-.462-.2.886.82.564.891.011.177.292.354.584.534.3.334-.1.2,2.291.532.586C165.7,89.9,166.14,87.792,165.386,86.735ZM17.92,88.133c-.088.2-.421.418-.535-.006C17.371,87.753,18.024,87.67,17.92,88.133Zm1.96.314c.114.866-.279.61-.357-.005-.432-.775.457-.759.537-.283C19.878,88.177,19.677,87.86,19.88,88.447Zm9.624.986a.683.683,0,0,1,.538-.573C30.454,88.9,29.8,89.616,29.5,89.433ZM38.248,87.8c0-.29.18-.287.358-.285C38.617,87.61,38.506,88.49,38.248,87.8Zm.529,1.456.359-.575C39.717,86.786,39.708,89.614,38.777,89.256Zm4.284-1.107c-.178,0,0-.29.182-.868C44.023,86.542,43.089,88.153,43.061,88.149Zm1.422.886c.034-.419.172-.644.36-.575C44.847,88.874,44.828,89.1,44.483,89.035Zm3.564.623c-.179,0,.179-.287.358-.285C48.538,89.4,48.079,90.079,48.047,89.658Zm1.433-1.432c0-.289,0-.579.181-.577C49.956,87.128,50.106,88.461,49.48,88.226Zm1.607-.56c.234.026.392-.1.355.294C51.373,88.047,51.105,87.779,51.087,87.666Zm3.381,1.49c-.178,0-.355-.294-.355-.294C54.2,88.118,55.027,88.9,54.468,89.156ZM57.5,88.9c-.423-.485.469-.309.357,0C57.856,89.2,57.679,88.906,57.5,88.9Zm3.211-.25a1.3,1.3,0,0,1-.176-.582C60.505,87.308,61.209,88.763,60.711,88.653Zm1.071-.277c.02-.113.291-.374.358-.286C62.171,88.619,61.991,88.861,61.782,88.376Zm11.587.72c.019-.113.29-.374.358-.285C73.758,89.34,73.578,89.582,73.369,89.1Zm4.456.344c-.178,0,0-.58,0-.869C78.235,88.458,77.851,89.483,77.825,89.44Zm2.863-2.284c.034-.419.172-.644.36-.575C81.052,87,81.033,87.222,80.688,87.156ZM83,88.633c.02-.113.291-.374.359-.285C83.388,88.877,83.208,89.119,83,88.633Zm12.48.441c-.177-.291,0-.579.181-.577C96.373,88.427,95.923,89.236,95.479,89.074Zm7.311-.2c.034-.418.172-.644.36-.575C103.154,88.712,103.135,88.94,102.79,88.873Zm14.987-1.846c.055-.445.417-.387.356,0C118.147,87.344,117.89,87.362,117.777,87.027Zm2.14-.264c.02-.113.291-.374.358-.286C120.306,87.007,120.126,87.248,119.917,86.763Zm1.6,2.048c-.357,0-.357,0-.177-.292C121.678,87.875,121.873,88.9,121.513,88.811Zm1.071-.277c.234.025.392-.1.355.294C122.87,88.915,122.6,88.647,122.584,88.534Zm1.783.022c.234.025.392-.1.355.294C124.653,88.936,124.384,88.668,124.367,88.556Zm1.961.024a1.3,1.3,0,0,1-.176-.582A.3.3,0,0,1,126.328,88.58Zm6.954.084c-.1-.224.37-.982.359-.575C133.714,87.936,133.413,89.139,133.282,88.664Zm6.071-1.823c0,.059,0,.057,0,0Zm0,1.027c-.179,0-.176-.582.182-.867C139.935,86.942,139.6,87.946,139.348,87.868Zm24.964-.276c0-.29,0-.58.181-.578C165.231,85.834,164.106,89.1,164.312,87.592Z" style="fill: #fff"></path><path d="M109.93,86.646l0,0C109.934,86.572,109.932,86.588,109.93,86.646Z" style="fill: #fff"></path><path d="M105.112,89.921c0,.042,0,.031,0,0Z" style="fill: #fff"></path><path d="M53.052,86.821a1.3,1.3,0,0,0,.176.581A.3.3,0,0,0,53.052,86.821Z" style="fill: #fff"></path><path d="M46.99,86.747c0,.182,0,.125,0-.006Z" style="fill: #fff"></path><path d="M46.99,86.741l0-.264Z" style="fill: #fff"></path><path d="M46.992,86.477v-.02C46.994,85.968,46.993,86.227,46.992,86.477Z" style="fill: #fff"></path><path d="M56.449,84.833c-.356,0-.356,0-.179.288C56.727,85.239,56.729,84.818,56.449,84.833Z" style="fill: #fff"></path><path d="M17.007,92.759c.345.066.364-.161.359-.575C17.179,92.115,17.041,92.34,17.007,92.759Z" style="fill: #fff"></path><path d="M30.572,89.736c-.072.469.832.31.892.011C31.408,89.279,30.469,89.174,30.572,89.736Z" style="fill: #fff"></path><path d="M20.423,86.714c.037-.4-.122-.269-.355-.294C20.085,86.533,20.354,86.8,20.423,86.714Z" style="fill: #fff"></path><path d="M56.584,94.4a1.278,1.278,0,0,0-.181.577C56.361,95.725,57.085,94.307,56.584,94.4Z" style="fill: #fff"></path><path d="M62.845,164.636l.021,0C62.674,164.566,62.624,164.556,62.845,164.636Z" style="fill: #fff"></path><path d="M150.437,139.809c.15-.148.2-.228,0,0Z" style="fill: #fff"></path><path d="M165.475,111.342c.087-.22.1-.332,0,0Z" style="fill: #fff"></path><path d="M76.9,160.116s.575-.19.629-.475C77.787,158.97,75.431,159.921,76.9,160.116Z" style="fill: #fff"></path><path d="M147.959,138.685c-1.868,2.748,2.138-.7,1.292-1.111C149.016,137.38,148.706,137.85,147.959,138.685Z" style="fill: #fff"></path><path d="M72.508,16.346c.16.166.308.1,0,0Z" style="fill: #fff"></path><path d="M162.5,98.293c-.107.473-.163,1.222.434,1.152C162.976,99.418,163.075,98.41,162.5,98.293Z" style="fill: #fff"></path><path d="M72.508,16.346a.588.588,0,0,1-.1-.163.7.7,0,0,0,.01.133A.993.993,0,0,1,72.508,16.346Z" style="fill: #fff"></path><path d="M159.577,169.023c-.037.4.122.269.355.294C159.915,169.205,159.646,168.936,159.577,169.023Z" style="fill: #fff"></path><path d="M126.948,168.917a1.3,1.3,0,0,0-.176-.582A.3.3,0,0,0,126.948,168.917Z" style="fill: #fff"></path><path d="M133.01,168.99c0-.041,0,.069,0,.2C133.01,168.938,133.011,168.731,133.01,168.99Z" style="fill: #fff"></path><path d="M57.769,165.85a.508.508,0,0,0,.01-.092C57.693,165.631,57.692,165.712,57.769,165.85Z" style="fill: #fff"></path><path d="M149.428,166c0-.289-.177-.291-.534-.3C147.843,166.07,149.532,166.859,149.428,166Z" style="fill: #fff"></path><path d="M133.009,169.254v0Z" style="fill: #fff"></path><path d="M162.993,162.978c-.345-.066-.364.161-.359.575C162.821,163.622,162.959,163.4,162.993,162.978Z" style="fill: #fff"></path><path d="M133.008,169.28v-.026C133.007,169.506,133.006,169.774,133.008,169.28Z" style="fill: #fff"></path><path d="M46.99,11l0-.265Z" style="fill: #fff"></path><path d="M56.449,9.1c-.356-.005-.356-.005-.179.287C56.726,9.5,56.729,9.08,56.449,9.1Z" style="fill: #fff"></path><path d="M46.992,10.739V10.72C46.994,10.23,46.993,10.489,46.992,10.739Z" style="fill: #fff"></path><path d="M46.99,11.01c0,.182,0,.125,0-.006Z" style="fill: #fff"></path><path d="M31.464,14.009c-.056-.467-.995-.572-.892-.011C30.5,14.467,31.4,14.308,31.464,14.009Z" style="fill: #fff"></path><path d="M53.052,11.083a1.3,1.3,0,0,0,.176.582A.3.3,0,0,0,53.052,11.083Z" style="fill: #fff"></path><path d="M109.93,10.908l0,0C109.934,10.835,109.932,10.85,109.93,10.908Z" style="fill: #fff"></path><path d="M122.246,14.017a.652.652,0,0,0-.025.225A.167.167,0,0,0,122.246,14.017Z" style="fill: #fff"></path><path d="M17.007,17.022c.345.066.364-.161.359-.575C17.179,16.378,17.041,16.6,17.007,17.022Z" style="fill: #fff"></path><path d="M20.423,10.977c.037-.4-.122-.269-.355-.294C20.085,10.8,20.354,11.064,20.423,10.977Z" style="fill: #fff"></path></g></svg>